g my_abydosclassroom_01_tile_2x2
v -0.9 0.2999992 0
v -0.3 0.2999991 0
v -0.3 -0.3000008 0
v -0.9000002 -0.3000006 0
v -0.9000002 -0.3000006 -0.285
v -0.9 0.2999992 -0.285
v -0.9 0.2999992 -0.05885254
v -0.9000002 -0.3000006 -0.05885254
v -0.9000002 -0.3000006 0
v -0.9000002 -0.3000006 -0.05885254
v -0.9 0.2999992 -0.05885254
v -0.9 0.2999992 0
v -0.8999999 -0.3000005 0
v -0.3 -0.3000008 0
v -0.3 -0.9000006 0
v -0.9 -0.9000003 0
v -0.9 -0.9000003 -0.285
v -0.8999999 -0.3000005 -0.285
v -0.8999999 -0.3000005 -0.05885254
v -0.9 -0.9000003 -0.05885254
v -0.3 -0.9000006 -0.285
v -0.9 -0.9000003 -0.285
v -0.9 -0.9000003 -0.05885254
v -0.3 -0.9000006 -0.05885254
v -0.9 -0.9000003 0
v -0.9 -0.9000003 -0.05885254
v -0.8999999 -0.3000005 -0.05885254
v -0.8999999 -0.3000005 0
v -0.3 -0.9000006 0
v -0.3 -0.9000006 -0.05885254
v -0.9 -0.9000003 -0.05885254
v -0.9 -0.9000003 0
v -0.2999999 -0.3000008 0
v 0.3000002 -0.3000008 0
v 0.3000001 -0.9000006 0
v -0.3 -0.9000006 0
v 0.3000001 -0.9000006 -0.285
v -0.3 -0.9000006 -0.285
v -0.3 -0.9000006 -0.05885254
v 0.3000001 -0.9000006 -0.05885254
v 0.3000001 -0.9000006 0
v 0.3000001 -0.9000006 -0.05885254
v -0.3 -0.9000006 -0.05885254
v -0.3 -0.9000006 0
v -0.2999996 0.2999991 0
v 0.3000005 0.2999988 0
v 0.3000003 -0.3000009 0
v -0.2999998 -0.3000009 0
vt 0.9172544 0.809853
vt 0.9172553 0.01006377
vt 0.1174673 0.01006336
vt 0.1174658 0.8098515
vt 0.008655488 0.5122302
vt 0.008655548 0.9831201
vt 0.09122428 0.9831201
vt 0.09122428 0.5122302
vt 0.9840259 0.5042471
vt 0.9370304 0.5042471
vt 0.9370305 0.9833636
vt 0.984026 0.9833636
vt 0.1174657 0.01006407
vt 0.9172548 0.01006323
vt 0.917255 0.8098513
vt 0.117467 0.8098527
vt 0.008655488 0.5122302
vt 0.008655548 0.9831201
vt 0.09122428 0.9831201
vt 0.09122428 0.5122302
vt 0.008655399 0.01120714
vt 0.008655488 0.4859694
vt 0.09122428 0.4859694
vt 0.09122416 0.01120714
vt 0.1093021 0.9140409
vt 0.1093021 0.9924904
vt 0.9086081 0.9924915
vt 0.9086081 0.9140423
vt 0.9840024 0.007626587
vt 0.937007 0.007626587
vt 0.9370069 0.4867435
vt 0.9840023 0.4867435
vt 0.9172544 0.809853
vt 0.9172553 0.01006377
vt 0.1174673 0.01006336
vt 0.1174658 0.8098515
vt 0.008655399 0.01120714
vt 0.008655488 0.4859694
vt 0.09122428 0.4859694
vt 0.09122416 0.01120714
vt 0.909573 0.8234079
vt 0.909573 0.9018571
vt 0.109302 0.9018587
vt 0.109302 0.8234093
vt 0.1174657 0.01006407
vt 0.9172548 0.01006323
vt 0.917255 0.8098513
vt 0.117467 0.8098527
vn 0 0 1
vn 0 0 1
vn 0 0 1
vn 0 0 1
vn -1 2.543132E-07 0
vn -1 2.543132E-07 0
vn -1 2.543132E-07 0
vn -1 2.543132E-07 0
vn -1 2.543132E-07 0
vn -1 2.543132E-07 0
vn -1 2.543132E-07 0
vn -1 2.543132E-07 0
vn 0 0 1
vn 0 0 1
vn 0 0 1
vn 0 0 1
vn -1 3.814698E-07 0
vn -1 3.814698E-07 0
vn -1 3.814698E-07 0
vn -1 3.814698E-07 0
vn -5.086262E-07 -1 0
vn -5.086262E-07 -1 0
vn -5.086262E-07 -1 0
vn -5.086262E-07 -1 0
vn -1 3.814698E-07 0
vn -1 3.814698E-07 0
vn -1 3.814698E-07 0
vn -1 3.814698E-07 0
vn -5.086262E-07 -1 0
vn -5.086262E-07 -1 0
vn -5.086262E-07 -1 0
vn -5.086262E-07 -1 0
vn 0 0 1
vn 0 0 1
vn 0 0 1
vn 0 0 1
vn 0 -1 0
vn 0 -1 0
vn 0 -1 0
vn 0 -1 0
vn 0 -1 0
vn 0 -1 0
vn 0 -1 0
vn 0 -1 0
vn 0 0 1
vn 0 0 1
vn 0 0 1
vn 0 0 1
g my_abydosclassroom_01_tile_2x2_0
f 3/3/3 2/2/2 1/1/1
f 4/4/4 3/3/3 1/1/1
f 7/7/7 6/6/6 5/5/5
f 8/8/8 7/7/7 5/5/5
f 11/11/11 10/10/10 9/9/9
f 12/12/12 11/11/11 9/9/9
f 15/15/15 14/14/14 13/13/13
f 16/16/16 15/15/15 13/13/13
f 19/19/19 18/18/18 17/17/17
f 20/20/20 19/19/19 17/17/17
f 23/23/23 22/22/22 21/21/21
f 24/24/24 23/23/23 21/21/21
f 27/27/27 26/26/26 25/25/25
f 28/28/28 27/27/27 25/25/25
f 31/31/31 30/30/30 29/29/29
f 32/32/32 31/31/31 29/29/29
f 35/35/35 34/34/34 33/33/33
f 36/36/36 35/35/35 33/33/33
f 39/39/39 38/38/38 37/37/37
f 40/40/40 39/39/39 37/37/37
f 43/43/43 42/42/42 41/41/41
f 44/44/44 43/43/43 41/41/41
f 47/47/47 46/46/46 45/45/45
f 48/48/48 47/47/47 45/45/45
