g my_cafe_01_b_tile
v -0.3000001 -0.3 -0.2843468
v -0.3000001 -0.3 -6.516201E-08
v -0.15 -0.3 -6.537344E-08
v -0.15 -0.3 -0.2843468
v 0 -0.3 -0.2843468
v 0 -0.3 -6.558488E-08
v -0.3000001 -0.15 -0.2843468
v -0.3000001 0 -0.2843468
v -0.3 0 -6.537344E-08
v -0.3 -0.15 -6.526772E-08
v -0.3000001 -0.3 -0.2843468
v -0.3000001 -0.3 -6.516201E-08
v -0.2734138 0 -6.600775E-08
v 0 0 -6.600775E-08
v 0 -0.2733395 -6.600775E-08
v -0.1565702 -0.2735299 -6.579631E-08
v 0 -0.3 -6.558488E-08
v -0.15 -0.3 -6.537344E-08
v -0.3 -0.15 -6.526772E-08
v -0.3000001 -0.3 -6.516201E-08
v -0.3 0 -6.537344E-08
v -0.2734556 -0.1565702 -6.586569E-08
v 0.15 -0.3 -6.537344E-08
v 0.3000001 -0.3 -6.516201E-08
v 0.3000001 -0.3 -0.2843468
v 0.15 -0.3 -0.2843468
v 0 -0.3 -0.2843468
v 0 -0.3 -6.558488E-08
v 0.3 -0.15 -6.526772E-08
v 0.2734138 0 -6.600775E-08
v 0.3 0 -6.537344E-08
v 0.2734556 -0.1565702 -6.586569E-08
v 0.1565702 -0.2735299 -6.579631E-08
v 0 0 -6.600775E-08
v 0 -0.2733395 -6.600775E-08
v 0 -0.3 -6.558488E-08
v 0.15 -0.3 -6.537344E-08
v 0.3000001 -0.3 -6.516201E-08
v -0.3 0 -6.537344E-08
v -0.3000001 0 -0.2843468
v -0.3000001 0.15 -0.2843468
v -0.3 0.15 -6.526772E-08
v -0.3000001 0.3 -0.2843468
v -0.3000001 0.3 -6.516201E-08
v -0.3 0.15 -6.526772E-08
v -0.2734138 0 -6.600775E-08
v -0.3 0 -6.537344E-08
v -0.2734556 0.1565702 -6.586569E-08
v -0.1565702 0.2735299 -6.579631E-08
v 0 0 -6.600775E-08
v 0 0.2733395 -6.600775E-08
v 0 0.3 -6.558488E-08
v -0.15 0.3 -6.537344E-08
v -0.3000001 0.3 -6.516201E-08
v 0.2734138 0 -6.600775E-08
v 0.3 0.15 -6.526772E-08
v 0.3 0 -6.537344E-08
v 0.2734556 0.1565702 -6.586569E-08
v 0.1565702 0.2735299 -6.579631E-08
v 0 0 -6.600775E-08
v 0 0.2733395 -6.600775E-08
v 0 0.3 -6.558488E-08
v 0.15 0.3 -6.537344E-08
v 0.3000001 0.3 -6.516201E-08
vt 0.006489881 0.4963471
vt 0.2348809 0.4963472
vt 0.2348809 0.374153
vt 0.006489927 0.3741529
vt 0.006489974 0.2519587
vt 0.2348809 0.2519588
vt 0.006489865 0.6185415
vt 0.00648985 0.7407359
vt 0.2348809 0.7407359
vt 0.2348809 0.6185415
vt 0.006489881 0.4963471
vt 0.2348809 0.4963472
vt 0.296992 0.3807418
vt 0.6280371 0.3807418
vt 0.6280371 0.04978663
vt 0.4384643 0.04955614
vt 0.6280371 0.01750648
vt 0.4464194 0.01750651
vt 0.2648018 0.1991241
vt 0.2648018 0.01750654
vt 0.2648018 0.3807418
vt 0.2969415 0.1911691
vt 0.2348809 0.374153
vt 0.2348809 0.4963472
vt 0.006489881 0.4963471
vt 0.006489927 0.3741529
vt 0.006489974 0.2519587
vt 0.2348809 0.2519588
vt 0.2648018 0.1991241
vt 0.296992 0.3807418
vt 0.2648018 0.3807418
vt 0.2969415 0.1911691
vt 0.4384643 0.04955614
vt 0.6280371 0.3807418
vt 0.6280371 0.04978663
vt 0.6280371 0.01750648
vt 0.4464194 0.01750651
vt 0.2648018 0.01750654
vt 0.2348809 0.7407359
vt 0.00648985 0.7407359
vt 0.006489865 0.6185415
vt 0.2348809 0.6185415
vt 0.006489881 0.4963471
vt 0.2348809 0.4963472
vt 0.2648018 0.1991241
vt 0.296992 0.3807418
vt 0.2648018 0.3807418
vt 0.2969415 0.1911691
vt 0.4384643 0.04955614
vt 0.6280371 0.3807418
vt 0.6280371 0.04978663
vt 0.6280371 0.01750648
vt 0.4464194 0.01750651
vt 0.2648018 0.01750654
vt 0.296992 0.3807418
vt 0.2648018 0.1991241
vt 0.2648018 0.3807418
vt 0.2969415 0.1911691
vt 0.4384643 0.04955614
vt 0.6280371 0.3807418
vt 0.6280371 0.04978663
vt 0.6280371 0.01750648
vt 0.4464194 0.01750651
vt 0.2648018 0.01750654
vn 0 -1 0
vn 0 -1 0
vn 0 -1 0
vn 0 -1 0
vn -1.271566E-07 -1 0
vn -1.271566E-07 -1 0
vn -1 0 0
vn -1 0 0
vn -1 0 0
vn -1 0 0
vn -1 0 0
vn -1 0 0
vn 0 0 1
vn 0 0 1
vn 0 0 1
vn 0 0 1
vn 0 0 1
vn 0 0 1
vn 0 0 1
vn 0 0 1
vn 0 0 1
vn 0 0 1
vn 0 -1 0
vn 0 -1 0
vn 0 -1 0
vn 0 -1 0
vn 1.271566E-07 -1 0
vn 1.271566E-07 -1 0
vn 0 0 1
vn 0 0 1
vn 0 0 1
vn 0 0 1
vn 0 0 1
vn 0 0 1
vn 0 0 1
vn 0 0 1
vn 0 0 1
vn 0 0 1
vn -1 0 0
vn -1 0 0
vn -1 0 0
vn -1 0 0
vn -1 0 0
vn -1 0 0
vn 0 0 1
vn 0 0 1
vn 0 0 1
vn 0 0 1
vn 0 0 1
vn 0 0 1
vn 0 0 1
vn 0 0 1
vn 0 0 1
vn 0 0 1
vn 0 0 1
vn 0 0 1
vn 0 0 1
vn 0 0 1
vn 0 0 1
vn 0 0 1
vn 0 0 1
vn 0 0 1
vn 0 0 1
vn 0 0 1
g my_cafe_01_b_tile_0
f 3/3/3 2/2/2 1/1/1
f 4/4/4 3/3/3 1/1/1
f 3/3/3 4/4/4 5/5/5
f 6/6/6 3/3/3 5/5/5
f 9/9/9 8/8/8 7/7/7
f 10/10/10 9/9/9 7/7/7
f 10/10/10 7/7/7 11/11/11
f 12/12/12 10/10/10 11/11/11
f 15/15/15 14/14/14 13/13/13
f 13/13/13 16/16/16 15/15/15
f 17/17/17 15/15/15 16/16/16
f 18/18/18 17/17/17 16/16/16
f 18/18/18 16/16/16 19/19/19
f 20/20/20 18/18/18 19/19/19
f 21/21/21 19/19/19 13/13/13
f 13/13/13 22/22/22 16/16/16
f 16/16/16 22/22/22 19/19/19
f 19/19/19 22/22/22 13/13/13
f 25/25/25 24/24/24 23/23/23
f 26/26/26 25/25/25 23/23/23
f 27/27/27 26/26/26 23/23/23
f 28/28/28 27/27/27 23/23/23
f 31/31/31 30/30/30 29/29/29
f 30/30/30 32/32/32 29/29/29
f 33/33/33 32/32/32 30/30/30
f 29/29/29 32/32/32 33/33/33
f 30/30/30 34/34/34 33/33/33
f 34/34/34 35/35/35 33/33/33
f 35/35/35 36/36/36 33/33/33
f 36/36/36 37/37/37 33/33/33
f 37/37/37 29/29/29 33/33/33
f 37/37/37 38/38/38 29/29/29
f 41/41/41 40/40/40 39/39/39
f 42/42/42 41/41/41 39/39/39
f 43/43/43 41/41/41 42/42/42
f 44/44/44 43/43/43 42/42/42
f 47/47/47 46/46/46 45/45/45
f 46/46/46 48/48/48 45/45/45
f 49/49/49 48/48/48 46/46/46
f 45/45/45 48/48/48 49/49/49
f 49/49/49 46/46/46 50/50/50
f 50/50/50 51/51/51 49/49/49
f 51/51/51 52/52/52 49/49/49
f 52/52/52 53/53/53 49/49/49
f 53/53/53 45/45/45 49/49/49
f 53/53/53 54/54/54 45/45/45
f 57/57/57 56/56/56 55/55/55
f 56/56/56 58/58/58 55/55/55
f 55/55/55 58/58/58 59/59/59
f 59/59/59 58/58/58 56/56/56
f 59/59/59 60/60/60 55/55/55
f 59/59/59 61/61/61 60/60/60
f 62/62/62 61/61/61 59/59/59
f 63/63/63 62/62/62 59/59/59
f 63/63/63 59/59/59 56/56/56
f 64/64/64 63/63/63 56/56/56
