g my_defaultroom_tile
v 0.2999999 -0.3 0
v -0.3000001 -0.3 0
v -0.3 0.3 7.629394E-08
v 0.3000001 0.3 0
v -0.3 0.3 7.629394E-08
v -0.3000001 -0.3 0
v -0.3000001 -0.3 -0.01778682
v -0.3000001 0.3000001 -0.01778678
v -0.3000001 0.3 -0.2843468
v -0.3000001 -0.3 -0.2843468
v -0.3000001 -0.3 0
v 0.2999999 -0.3 0
v 0.2999999 -0.3 -0.01778682
v -0.3000001 -0.3 -0.01778682
v -0.3000001 -0.3 -0.2843468
v 0.2999999 -0.3 -0.2843468
vt 0.9910173 0.01206318
vt 0.2825007 0.01206318
vt 0.2825009 0.7205796
vt 0.9910175 0.7205796
vt 0.2728046 0.9917063
vt 0.2728045 0.5010304
vt 0.2562454 0.5010303
vt 0.2562454 0.9917064
vt 0.00808162 0.9917064
vt 0.008081346 0.5010303
vt 0.2728045 0.5010304
vt 0.2728045 0.01035408
vt 0.2562456 0.01035405
vt 0.2562454 0.5010303
vt 0.008081346 0.5010303
vt 0.008081517 0.0103539
vn 0 0 1
vn 0 0 1
vn 0 0 1
vn 0 0.0001907349 1
vn -1 0 2.681277E-06
vn -1 0 2.681293E-06
vn -1 0 0
vn -1 0 0
vn -1 0 0
vn -1 0 0
vn 0.0001907305 -1 8.042353E-07
vn 0 -1 8.042353E-07
vn 0 -1 0
vn 0 -1 0
vn 0 -1 0
vn 0 -1 0
g my_defaultroom_tile_0
f 3/3/3 2/2/2 1/1/1
f 4/4/4 3/3/3 1/1/1
f 7/7/7 6/6/6 5/5/5
f 8/8/8 7/7/7 5/5/5
f 7/7/7 8/8/8 9/9/9
f 10/10/10 7/7/7 9/9/9
f 13/13/13 12/12/12 11/11/11
f 14/14/14 13/13/13 11/11/11
f 13/13/13 14/14/14 15/15/15
f 16/16/16 13/13/13 15/15/15
