g my_gamecenter_01_p_tile_02
v -0.3000001 -0.3 -6.516201E-08
v -0.3000001 -0.3 -0.2843468
v -0.3000001 0.3 -0.2843468
v -0.3000001 0.3 -6.516201E-08
v -0.3000001 -0.3 -6.516201E-08
v -0.3000001 0.3 -6.516201E-08
v 0.3000001 0.3 -6.516201E-08
v 0.3000001 -0.3 -6.516201E-08
v -0.3000001 -0.3 -6.516201E-08
v 0.3000001 -0.3 -6.516201E-08
v 0.3000001 -0.3 -0.2843468
v -0.3000001 -0.3 -0.2843468
vt 0.2414048 0.4976306
vt 0.0114705 0.4976302
vt 0.01146986 0.9828148
vt 0.2414046 0.9828153
vt 0.2537405 0.01047847
vt 0.2537403 0.7423341
vt 0.9889457 0.7423341
vt 0.9889457 0.01047813
vt 0.241552 0.4974402
vt 0.2415518 0.01225527
vt 0.01161698 0.01225571
vt 0.01161764 0.4974405
vn -1 0 0
vn -1 0 0
vn -1 0 0
vn -1 0 0
vn 0 0 1
vn 0 0 1
vn 0 0 1
vn 0 0 1
vn 0 -1 0
vn 0 -1 0
vn 0 -1 0
vn 0 -1 0
g my_gamecenter_01_p_tile_02_0
f 3/3/3 2/2/2 1/1/1
f 4/4/4 3/3/3 1/1/1
f 7/7/7 6/6/6 5/5/5
f 8/8/8 7/7/7 5/5/5
f 11/11/11 10/10/10 9/9/9
f 12/12/12 11/11/11 9/9/9
