g my_gehennaparty_01_tile_20x20
v -0.7 -11.7 -5E-07
v 0.3 -10.7 -5E-07
v 0.3 -11.7 -5E-07
v -0.7 -10.7 -5E-07
v -1.7 -11.7 -5E-07
v 0.3 -9.7 -5E-07
v -1.7 -10.7 -5E-07
v -2.7 -11.7 -5E-07
v -0.7 -9.7 -5E-07
v 0.3 -8.7 -5E-07
v -2.7 -10.7 -5E-07
v -3.7 -11.7 -5E-07
v -1.7 -9.7 -5E-07
v -0.7 -8.7 -5E-07
v 0.3 -7.7 -5E-07
v -3.7 -10.7 -5E-07
v -4.7 -11.7 -5E-07
v -2.7 -9.7 -5E-07
v -1.7 -8.7 -5E-07
v -0.7 -7.7 -5E-07
v 0.3 -6.7 -5E-07
v -4.7 -10.7 -5E-07
v -5.7 -11.7 -5E-07
v -3.7 -9.7 -5E-07
v -2.7 -8.7 -5E-07
v -1.7 -7.7 -5E-07
v -0.7 -6.7 -5E-07
v 0.3 -5.7 -5E-07
v -3.7 -8.7 -5E-07
v -2.7 -7.7 -5E-07
v -4.7 -9.7 -5E-07
v -4.7 -8.7 -5E-07
v -1.7 -6.7 -5E-07
v -2.7 -6.7 -5E-07
v -0.7 -5.7 -5E-07
v 0.3 -4.7 -5E-07
v -1.7 -5.7 -5E-07
v -2.7 -5.7 -5E-07
v -0.7 -4.7 -5E-07
v 0.3 -3.7 -5E-07
v -1.7 -4.7 -5E-07
v -2.7 -4.7 -5E-07
v -0.7 -3.7 -5E-07
v 0.3 -2.7 -5E-07
v -1.7 -3.7 -5E-07
v -2.7 -3.7 -5E-07
v -0.7 -2.7 -5E-07
v 0.3 -1.7 -5E-07
v -1.7 -2.7 -5E-07
v -2.7 -2.7 -5E-07
v -0.7 -1.7 -5E-07
v 0.3 -0.7 -5E-07
v -1.7 -1.7 -5E-07
v -0.7 -0.7 -5E-07
v 0.3 0.3 -5E-07
v -0.7 0.3 -5E-07
v -1.7 -0.7 -5E-07
v -1.7 0.3 -5E-07
v -2.7 -1.7 -5E-07
v -3.7 -2.7 -5E-07
v -2.7 -0.7 -5E-07
v -2.7 0.3 -5E-07
v -3.7 -1.7 -5E-07
v -4.7 -2.7 -5E-07
v -3.7 -0.7 -5E-07
v -3.7 0.3 -5E-07
v -4.7 -1.7 -5E-07
v -5.7 -2.7 -5E-07
v -4.7 -0.7 -5E-07
v -4.7 0.3 -5E-07
v -5.7 -1.7 -5E-07
v -6.7 -2.7 -5E-07
v -5.7 -0.7 -5E-07
v -5.7 0.3 -5E-07
v -6.7 -1.7 -5E-07
v -7.7 -2.7 -5E-07
v -6.7 -0.7 -5E-07
v -6.7 0.3 -5E-07
v -7.7 -1.7 -5E-07
v -8.7 -2.7 -5E-07
v -7.7 -0.7 -5E-07
v -7.7 0.3 -5E-07
v -8.7 -1.7 -5E-07
v -8.7 -0.7 -5E-07
v -8.7 0.3 -5E-07
v -9.7 -0.7 -5E-07
v -9.7 0.3 -5E-07
v -9.7 -1.7 -5E-07
v -9.7 -2.7 -5E-07
v -10.7 -0.7 -5E-07
v -10.7 0.3 -5E-07
v -10.7 -1.7 -5E-07
v -11.7 -0.7 -5E-07
v -11.7 0.3 -5E-07
v -11.7 -1.7 -5E-07
v -11.7 -2.7 -5E-07
v -10.7 -2.7 -5E-07
v -11.7 -3.7 -5E-07
v -10.7 -3.7 -5E-07
v -11.7 -4.7 -5E-07
v -9.7 -3.7 -5E-07
v -8.7 -3.7 -5E-07
v -10.7 -4.7 -5E-07
v -11.7 -5.7 -5E-07
v -9.7 -4.7 -5E-07
v -8.7 -4.7 -5E-07
v -10.7 -5.7 -5E-07
v -11.7 -6.7 -5E-07
v -9.7 -5.7 -5E-07
v -8.7 -5.7 -5E-07
v -10.7 -6.7 -5E-07
v -11.7 -7.7 -5E-07
v -9.7 -6.7 -5E-07
v -8.7 -6.7 -5E-07
v -10.7 -7.7 -5E-07
v -11.7 -8.7 -5E-07
v -9.7 -7.7 -5E-07
v -8.7 -7.7 -5E-07
v -10.7 -8.7 -5E-07
v -11.7 -9.7 -5E-07
v -9.7 -8.7 -5E-07
v -8.7 -8.7 -5E-07
v -10.7 -9.7 -5E-07
v -11.7 -10.7 -5E-07
v -9.7 -9.7 -5E-07
v -10.7 -10.7 -5E-07
v -11.7 -11.7 -5E-07
v -10.7 -11.7 -5E-07
v -9.7 -10.7 -5E-07
v -9.7 -11.7 -5E-07
v -8.7 -9.7 -5E-07
v -7.7 -8.7 -5E-07
v -8.7 -10.7 -5E-07
v -8.7 -11.7 -5E-07
v -7.7 -9.7 -5E-07
v -6.7 -8.7 -5E-07
v -7.7 -10.7 -5E-07
v -7.7 -11.7 -5E-07
v -6.7 -9.7 -5E-07
v -5.7 -8.7 -5E-07
v -6.7 -10.7 -5E-07
v -6.7 -11.7 -5E-07
v -5.7 -9.7 -5E-07
v -5.7 -10.7 -5E-07
v -4.090992 -7.845344 6.444092E-07
v -3.554657 -7.309008 6.444092E-07
v -3.554657 -7.845344 6.444092E-07
v -4.090992 -7.309008 6.444092E-07
v -4.627328 -7.845344 6.444092E-07
v -3.554657 -6.772672 6.444092E-07
v -4.627328 -7.309008 6.444092E-07
v -5.163664 -7.845344 6.444092E-07
v -4.090992 -6.772672 6.444092E-07
v -3.554657 -6.236336 6.444092E-07
v -5.163664 -7.309008 6.444092E-07
v -5.7 -7.845344 6.444092E-07
v -4.627329 -6.772673 -1.185303E-07
v -4.090992 -6.236336 6.444092E-07
v -3.554657 -5.7 6.444092E-07
v -5.163664 -6.772673 2.629394E-07
v -4.627329 -6.236336 -1.077761E-07
v -5.7 -7.309008 6.444092E-07
v -6.236335 -7.845344 6.444092E-07
v -5.7 -6.94114 -1.185303E-07
v -5.520316 -6.772673 -1.185303E-07
v -6.236335 -7.309008 6.444092E-07
v -6.772671 -7.845344 6.444092E-07
v -4.090992 -5.7 6.444092E-07
v -3.554657 -5.163664 6.444092E-07
v -4.45886 -5.7 -1.185303E-07
v -4.627329 -5.872139 -1.185303E-07
v -4.090992 -5.163664 6.444092E-07
v -3.554657 -4.627328 6.444092E-07
v -6.236336 -6.772673 2.629394E-07
v -5.879683 -6.772673 -1.185303E-07
v -6.772671 -7.309008 6.444092E-07
v -7.309007 -7.845344 6.444092E-07
v -6.772671 -6.772673 -1.185303E-07
v -7.309007 -7.309008 6.444092E-07
v -7.845343 -7.845344 6.444092E-07
v -7.845343 -7.309008 6.444092E-07
v -7.309007 -6.772672 6.444092E-07
v -7.845343 -6.772672 6.444092E-07
v -6.772671 -6.236336 2.629394E-07
v -7.309007 -6.236336 6.444092E-07
v -7.845343 -6.236336 6.444092E-07
v -6.941139 -5.7 -1.185303E-07
v -6.772671 -5.872139 -1.185303E-07
v -7.309007 -5.7 6.444092E-07
v -7.845343 -5.7 6.444092E-07
v -7.309007 -5.163664 6.444092E-07
v -7.845343 -5.163664 6.444092E-07
v -6.772671 -5.163664 -1.077761E-07
v -6.772671 -5.527861 -1.185303E-07
v -6.772671 -4.627327 -1.185303E-07
v -7.309007 -4.627328 6.444092E-07
v -7.845343 -4.627328 6.444092E-07
v -7.309007 -4.090991 6.444092E-07
v -7.845343 -4.090991 6.444092E-07
v -6.772671 -4.090991 6.444092E-07
v -7.309007 -3.554656 6.444092E-07
v -7.845343 -3.554656 6.444092E-07
v -6.772671 -3.554656 6.444092E-07
v -6.236335 -3.554656 6.444092E-07
v -6.236335 -4.090991 6.444092E-07
v -6.236335 -4.627327 2.629394E-07
v -5.7 -3.554656 6.444092E-07
v -5.7 -4.45886 -1.185303E-07
v -5.879683 -4.627327 -1.185303E-07
v -5.7 -4.090991 6.444092E-07
v -5.163664 -3.554656 6.444092E-07
v -5.163664 -4.090991 6.444092E-07
v -4.627328 -3.554656 6.444092E-07
v -5.163664 -4.627327 2.629394E-07
v -5.520316 -4.627327 -1.185303E-07
v -4.627328 -4.090991 6.444092E-07
v -4.090992 -3.554656 6.444092E-07
v -4.627329 -4.627327 -1.185303E-07
v -4.090992 -4.090991 6.444092E-07
v -3.554657 -3.554656 6.444092E-07
v -3.554657 -4.090991 6.444092E-07
v -4.090992 -4.627328 6.444092E-07
v -4.627329 -5.163664 2.629394E-07
v -4.627329 -5.527861 -1.185303E-07
v -5.699999 -2.7 -1.579294E-06
v -2.7 -2.7 -1.579294E-06
v -2.742929 -2.74293 -1.579294E-06
v -5.699999 -2.74293 -1.579294E-06
v -8.65707 -2.74293 -1.579294E-06
v -8.7 -2.7 -1.579294E-06
v -8.7 -5.7 -1.579294E-06
v -8.65707 -5.7 -1.579294E-06
v -8.65707 -8.657071 -1.579294E-06
v -8.7 -8.700001 -1.579294E-06
v -5.699999 -8.700001 -1.579294E-06
v -5.7 -8.657071 -1.579294E-06
v -2.742929 -8.657071 -1.579294E-06
v -2.7 -8.700001 -1.579294E-06
v -2.7 -5.7 -1.579294E-06
v -2.742929 -5.7 -1.579294E-06
v -2.7 -2.7 -1.579294E-06
v -2.742929 -2.74293 -1.579294E-06
v -5.699999 -2.74293 -1.579294E-06
v -2.742929 -2.74293 -1.579294E-06
v -3.125271 -3.125272 -1.579294E-06
v -5.699999 -3.125273 -1.579294E-06
v -5.699999 -3.125273 -1.579294E-06
v -3.125271 -3.125272 -1.579294E-06
v -3.180375 -3.180377 -1.579294E-06
v -5.699999 -3.180377 -1.579294E-06
v -8.219623 -3.180377 -1.579294E-06
v -8.274728 -3.125272 -1.579294E-06
v -8.274728 -5.7 -1.579294E-06
v -8.219624 -5.7 -1.579294E-06
v -8.219624 -8.219624 -1.579294E-06
v -8.274728 -8.274729 -1.579294E-06
v -5.699999 -8.274729 -1.579294E-06
v -5.699999 -8.219624 -1.579294E-06
v -3.180375 -8.219625 -1.579294E-06
v -3.125271 -8.274729 -1.579294E-06
v -3.125271 -5.7 -1.579294E-06
v -3.180375 -5.7 -1.579294E-06
v -3.180375 -3.180377 -1.579294E-06
v -3.125271 -3.125272 -1.579294E-06
v -2.742929 -5.7 -1.579294E-06
v -3.125271 -5.7 -1.579294E-06
v -3.125271 -3.125272 -1.579294E-06
v -2.742929 -2.74293 -1.579294E-06
v -2.742929 -8.657071 -1.579294E-06
v -5.7 -8.657071 -1.579294E-06
v -5.699999 -8.274729 -1.579294E-06
v -3.125271 -8.274729 -1.579294E-06
v -2.742929 -5.7 -1.579294E-06
v -2.742929 -8.657071 -1.579294E-06
v -3.125271 -8.274729 -1.579294E-06
v -3.125271 -5.7 -1.579294E-06
v -8.274728 -3.125272 -1.579294E-06
v -8.65707 -2.74293 -1.579294E-06
v -5.699999 -2.74293 -1.579294E-06
v -5.699999 -3.125273 -1.579294E-06
v -7.932872 -3.467127 -1.579294E-06
v -5.699999 -3.554658 -1.579294E-06
v -7.845343 -3.554657 -1.579294E-06
v -5.699999 -3.467128 -1.579294E-06
v -3.554656 -3.554657 -1.579294E-06
v -3.467127 -3.467128 -1.579294E-06
v -3.467127 -5.7 -1.579294E-06
v -3.554656 -5.7 -1.579294E-06
v -3.554656 -7.845344 -1.579294E-06
v -3.467127 -7.932873 -1.579294E-06
v -5.699999 -7.932873 -1.579294E-06
v -5.7 -7.845344 -1.579294E-06
v -7.845343 -7.845344 -1.579294E-06
v -7.932872 -7.932873 -1.579294E-06
v -7.845343 -5.7 -1.579294E-06
v -7.932872 -5.7 -1.579294E-06
v -7.845343 -3.554657 -1.579294E-06
v -7.932872 -3.467127 -1.579294E-06
v -8.65707 -5.7 -1.579294E-06
v -8.65707 -2.74293 -1.579294E-06
v -8.274728 -3.125272 -1.579294E-06
v -8.274728 -5.7 -1.579294E-06
v -8.65707 -8.657071 -1.579294E-06
v -8.274728 -8.274729 -1.579294E-06
v -5.699999 -8.274729 -1.579294E-06
v -5.7 -8.657071 -1.579294E-06
v -8.65707 -5.7 -1.579294E-06
v -8.274728 -5.7 -1.579294E-06
v -8.274728 -8.274729 -1.579294E-06
v -8.65707 -8.657071 -1.579294E-06
v -11.7 -11.7 -5E-07
v -11.7 -11.7 -0.2850007
v -11.7 -10.7 -0.2850007
v -11.7 -10.7 -5E-07
v -11.7 -9.7 -0.2850007
v -11.7 -9.7 -5E-07
v -11.7 -8.7 -0.2850007
v -11.7 -8.7 -5E-07
v -11.7 -7.7 -0.2850007
v -11.7 -7.7 -5E-07
v -11.7 -6.7 -0.2850007
v -11.7 -6.7 -5E-07
v -11.7 -5.7 -0.2850007
v -11.7 -5.7 -5E-07
v -11.7 -4.7 -0.2850007
v -11.7 -4.7 -5E-07
v -11.7 -3.7 -0.2850007
v -11.7 -3.7 -5E-07
v -11.7 -2.7 -0.2850007
v -11.7 -2.7 -5E-07
v -11.7 -1.7 -0.2850007
v -11.7 -1.7 -5E-07
v -11.7 -0.7 -0.2850007
v -11.7 -0.7 -5E-07
v -11.7 0.3 -0.2850007
v -11.7 0.3 -5E-07
v -10.7 -11.7 -5E-07
v -11.7 -11.7 -0.2850007
v -11.7 -11.7 -5E-07
v -10.7 -11.7 -0.2850007
v -9.7 -11.7 -5E-07
v -9.7 -11.7 -0.2850007
v -8.7 -11.7 -5E-07
v -8.7 -11.7 -0.2850007
v -7.7 -11.7 -5E-07
v -7.7 -11.7 -0.2850007
v -6.7 -11.7 -5E-07
v -6.7 -11.7 -0.2850007
v -5.7 -11.7 -5E-07
v -5.7 -11.7 -0.2850007
v -4.7 -11.7 -5E-07
v -4.7 -11.7 -0.2850007
v -3.7 -11.7 -5E-07
v -3.7 -11.7 -0.2850007
v -2.7 -11.7 -5E-07
v -2.7 -11.7 -0.2850007
v -1.7 -11.7 -5E-07
v -1.7 -11.7 -0.2850007
v -0.7 -11.7 -5E-07
v -0.7 -11.7 -0.2850007
v 0.3 -11.7 -5E-07
v 0.3 -11.7 -0.2850007
v -7.932872 -3.467127 -1.579294E-06
v -8.219623 -3.180377 -1.579294E-06
v -5.699999 -3.180377 -1.579294E-06
v -8.219624 -5.7 -1.579294E-06
v -5.699999 -3.467128 -1.579294E-06
v -7.932872 -5.7 -1.579294E-06
v -7.932872 -7.932873 -1.579294E-06
v -8.219624 -8.219624 -1.579294E-06
v -3.467127 -3.467128 -1.579294E-06
v -3.180375 -3.180377 -1.579294E-06
v -5.699999 -7.932873 -1.579294E-06
v -5.699999 -8.219624 -1.579294E-06
v -3.180375 -8.219625 -1.579294E-06
v -3.467127 -7.932873 -1.579294E-06
v -3.180375 -5.7 -1.579294E-06
v -3.467127 -5.7 -1.579294E-06
v -5.7 -5.7 -8.814697E-07
v -4.627329 -5.872139 -1.185303E-07
v -4.627329 -6.236336 -1.077761E-07
v -4.627329 -6.772673 -1.185303E-07
v -5.163664 -6.772673 2.629394E-07
v -5.520316 -6.772673 -1.185303E-07
v -4.627329 -5.7 -8.814697E-07
v -4.45886 -5.7 -1.185303E-07
v -4.627329 -5.527861 -1.185303E-07
v -4.627329 -5.163664 2.629394E-07
v -4.627329 -4.627327 -1.185303E-07
v -5.163664 -4.627327 2.629394E-07
v -5.520316 -4.627327 -1.185303E-07
v -5.7 -6.772673 -8.814697E-07
v -5.7 -6.94114 -1.185303E-07
v -5.879683 -6.772673 -1.185303E-07
v -6.236336 -6.772673 2.629394E-07
v -6.772671 -6.772673 -1.185303E-07
v -6.772671 -6.236336 2.629394E-07
v -6.772671 -5.872139 -1.185303E-07
v -5.7 -4.627326 -8.814697E-07
v -5.7 -4.45886 -1.185303E-07
v -5.879683 -4.627327 -1.185303E-07
v -6.236335 -4.627327 2.629394E-07
v -6.772671 -4.627327 -1.185303E-07
v -6.772671 -5.163664 -1.077761E-07
v -6.772671 -5.527861 -1.185303E-07
v -6.772671 -5.7 -8.814697E-07
v -6.941139 -5.7 -1.185303E-07
vt 0.9863281 0.53125
vt 0.53125 0.9882813
vt 0.53125 0.53125
vt 0.9863281 0.9882813
vt 0.53125 0.53125
vt 0.53125 0.53125
vt 0.53125 0.9882813
vt 0.9863281 0.53125
vt 0.9863281 0.53125
vt 0.53125 0.9882813
vt 0.9863281 0.9882813
vt 0.53125 0.53125
vt 0.53125 0.53125
vt 0.9863281 0.9882813
vt 0.53125 0.53125
vt 0.53125 0.9882813
vt 0.9863281 0.53125
vt 0.9863281 0.53125
vt 0.53125 0.9882813
vt 0.9863281 0.53125
vt 0.53125 0.9882813
vt 0.9863281 0.9882813
vt 0.53125 0.53125
vt 0.53125 0.53125
vt 0.9863281 0.9882813
vt 0.53125 0.53125
vt 0.9863281 0.9882813
vt 0.53125 0.53125
vt 0.53125 0.9882813
vt 0.9863281 0.53125
vt 0.9863281 0.53125
vt 0.9863281 0.9882813
vt 0.53125 0.9882813
vt 0.9863281 0.9882813
vt 0.9863281 0.53125
vt 0.53125 0.9882813
vt 0.53125 0.53125
vt 0.9863281 0.53125
vt 0.9863281 0.9882813
vt 0.53125 0.53125
vt 0.53125 0.9882813
vt 0.9863281 0.9882813
vt 0.9863281 0.53125
vt 0.53125 0.9882813
vt 0.53125 0.53125
vt 0.9863281 0.53125
vt 0.9863281 0.9882813
vt 0.53125 0.53125
vt 0.53125 0.9882813
vt 0.9863281 0.9882813
vt 0.9863281 0.53125
vt 0.53125 0.9882813
vt 0.53125 0.53125
vt 0.9863281 0.9882813
vt 0.53125 0.53125
vt 0.9863281 0.53125
vt 0.53125 0.9882813
vt 0.53125 0.53125
vt 0.9863281 0.53125
vt 0.53125 0.9882813
vt 0.9863281 0.9882813
vt 0.9863281 0.53125
vt 0.53125 0.53125
vt 0.9863281 0.9882813
vt 0.53125 0.9882813
vt 0.53125 0.53125
vt 0.9863281 0.53125
vt 0.53125 0.9882813
vt 0.9863281 0.9882813
vt 0.9863281 0.53125
vt 0.53125 0.53125
vt 0.9863281 0.9882813
vt 0.53125 0.9882813
vt 0.53125 0.53125
vt 0.9863281 0.53125
vt 0.53125 0.9882813
vt 0.9863281 0.9882813
vt 0.9863281 0.53125
vt 0.53125 0.53125
vt 0.9863281 0.9882813
vt 0.53125 0.9882813
vt 0.53125 0.53125
vt 0.9863281 0.53125
vt 0.9863281 0.9882813
vt 0.9863281 0.53125
vt 0.53125 0.9882813
vt 0.53125 0.53125
vt 0.53125 0.53125
vt 0.53125 0.9882813
vt 0.9863281 0.9882813
vt 0.9863281 0.53125
vt 0.9863281 0.53125
vt 0.53125 0.9882813
vt 0.53125 0.53125
vt 0.53125 0.53125
vt 0.53125 0.9882813
vt 0.9863281 0.9882813
vt 0.53125 0.53125
vt 0.9863281 0.53125
vt 0.53125 0.9882813
vt 0.53125 0.53125
vt 0.9863281 0.53125
vt 0.9863281 0.9882813
vt 0.53125 0.53125
vt 0.53125 0.9882813
vt 0.9863281 0.9882813
vt 0.9863281 0.53125
vt 0.53125 0.9882813
vt 0.53125 0.53125
vt 0.9863281 0.53125
vt 0.9863281 0.9882813
vt 0.53125 0.53125
vt 0.53125 0.9882813
vt 0.9863281 0.9882813
vt 0.9863281 0.53125
vt 0.53125 0.9882813
vt 0.53125 0.53125
vt 0.9863281 0.53125
vt 0.9863281 0.9882813
vt 0.53125 0.53125
vt 0.53125 0.9882813
vt 0.9863281 0.9882813
vt 0.9863281 0.53125
vt 0.53125 0.9882813
vt 0.53125 0.53125
vt 0.9863281 0.9882813
vt 0.53125 0.53125
vt 0.9863281 0.53125
vt 0.53125 0.9882813
vt 0.53125 0.53125
vt 0.9863281 0.53125
vt 0.53125 0.9882813
vt 0.9863281 0.9882813
vt 0.9863281 0.53125
vt 0.53125 0.53125
vt 0.9863281 0.9882813
vt 0.53125 0.9882813
vt 0.53125 0.53125
vt 0.9863281 0.53125
vt 0.53125 0.9882813
vt 0.9863281 0.9882813
vt 0.9863281 0.53125
vt 0.53125 0.53125
vt 0.53125 0.9882813
vt 0.9921875 0.5166016
vt 0.7514648 0.2770996
vt 0.7514648 0.5166016
vt 0.9921875 0.2770996
vt 0.7514648 0.5166016
vt 0.7514648 0.5166016
vt 0.7514648 0.2770996
vt 0.9921875 0.5166016
vt 0.9921875 0.5166016
vt 0.7514648 0.2770996
vt 0.9921875 0.2770996
vt 0.7514648 0.5166016
vt 0.7514648 0.5166016
vt 0.9921875 0.2770996
vt 0.7514648 0.5166016
vt 0.9921875 0.5166016
vt 0.7514648 0.2770996
vt 0.7514648 0.2770996
vt 0.9921875 0.5166016
vt 0.7514648 0.4414063
vt 0.8320313 0.5166016
vt 0.9921875 0.2770996
vt 0.7514648 0.5166016
vt 0.9921875 0.5166016
vt 0.7514648 0.2770996
vt 0.8271484 0.5166016
vt 0.7514648 0.4399414
vt 0.9921875 0.2770996
vt 0.7514648 0.5166016
vt 0.9921875 0.5166016
vt 0.8320313 0.5166016
vt 0.7514648 0.2770996
vt 0.9921875 0.5166016
vt 0.7514648 0.5166016
vt 0.9921875 0.2770996
vt 0.7514648 0.5166016
vt 0.7514648 0.2770996
vt 0.9921875 0.5166016
vt 0.7514648 0.5166016
vt 0.7514648 0.2770996
vt 0.9921875 0.2770996
vt 0.7514648 0.2770996
vt 0.8271484 0.5166016
vt 0.7514648 0.4399414
vt 0.9921875 0.5166016
vt 0.7514648 0.5166016
vt 0.9921875 0.2770996
vt 0.7514648 0.2770996
vt 0.7514648 0.2770996
vt 0.7514648 0.4399414
vt 0.7514648 0.5166016
vt 0.9921875 0.5166016
vt 0.7514648 0.5166016
vt 0.9921875 0.2770996
vt 0.7514648 0.2770996
vt 0.7514648 0.2770996
vt 0.9921875 0.5166016
vt 0.7514648 0.5166016
vt 0.7514648 0.5166016
vt 0.9921875 0.5166016
vt 0.9921875 0.2770996
vt 0.9921875 0.5166016
vt 0.7514648 0.5166016
vt 0.7514648 0.4414063
vt 0.8320313 0.5166016
vt 0.7514648 0.2770996
vt 0.9921875 0.5166016
vt 0.9921875 0.2770996
vt 0.7514648 0.5166016
vt 0.9921875 0.5166016
vt 0.8320313 0.5166016
vt 0.7514648 0.2770996
vt 0.9921875 0.5166016
vt 0.7514648 0.5166016
vt 0.9921875 0.2770996
vt 0.7514648 0.5166016
vt 0.7514648 0.2770996
vt 0.9921875 0.5166016
vt 0.7514648 0.2770996
vt 0.7514648 0.4399414
vt 0.3408203 0.9638672
vt 0.3408203 0.996582
vt 0.3774414 0.996582
vt 0.3774414 0.9638672
vt 0.3774414 0.9331055
vt 0.3408203 0.9331055
vt 0.3408203 0.9033203
vt 0.3774414 0.9033203
vt 0.3774414 0.8730469
vt 0.3408203 0.8730469
vt 0.3408203 0.8422852
vt 0.3774414 0.8422852
vt 0.3774414 0.8120117
vt 0.3408203 0.8120117
vt 0.3408203 0.7783203
vt 0.3774414 0.7783203
vt 0.3408203 0.7431641
vt 0.3774414 0.7431641
vt 0.01131439 0.007488251
vt 0.6762695 0.007488251
vt 0.6020508 0.09716797
vt 0.01131439 0.09716797
vt 0.3400879 0.7783203
vt 0.3400879 0.7456055
vt 0.3105469 0.7456055
vt 0.3105469 0.7783203
vt 0.3105469 0.8085938
vt 0.3400879 0.8085938
vt 0.3400879 0.8388672
vt 0.3105469 0.8388672
vt 0.3105469 0.8686523
vt 0.3400879 0.8686523
vt 0.3400879 0.8994141
vt 0.3105469 0.8994141
vt 0.3105469 0.9291992
vt 0.3400879 0.9291992
vt 0.3400879 0.9628906
vt 0.3105469 0.9628906
vt 0.3105469 0.9980469
vt 0.3400879 0.9980469
vt 0.8891602 0.001423836
vt 0.8891602 0.09356689
vt 0.2263184 0.09356689
vt 0.1431885 0.001423836
vt 0.009078979 0.02523804
vt 0.918457 0.02523804
vt 0.918457 0.1157837
vt 0.1104736 0.1157837
vt 0.9868164 0.02482605
vt 0.2406006 0.02404785
vt 0.3237305 0.116272
vt 0.9868164 0.1169434
vt 0.2401123 0.1212158
vt 0.1503906 0.04095459
vt 0.9545898 0.04095459
vt 0.9545898 0.1212158
vt 0.7163086 0.5092773
vt 0.7167969 0.3303223
vt 0.7163086 0.3303223
vt 0.7167969 0.5092773
vt 0.7177734 0.3303223
vt 0.7177734 0.5092773
vt 0.71875 0.5092773
vt 0.71875 0.3303223
vt 0.7192383 0.3303223
vt 0.7192383 0.5092773
vt 0.7202148 0.5092773
vt 0.7202148 0.3303223
vt 0.7207031 0.3303223
vt 0.7207031 0.5092773
vt 0.7216797 0.3303223
vt 0.7216797 0.5092773
vt 0.722168 0.3303223
vt 0.722168 0.5092773
vt 0.190918 0.03039551
vt 0.9155273 0.03039551
vt 0.8349609 0.1106567
vt 0.190918 0.1106567
vt 0.9902344 0.1106567
vt 0.90625 0.03039551
vt 0.2359619 0.03039551
vt 0.2359619 0.1106567
vt 0.9570313 0.01844788
vt 0.9570313 0.09869385
vt 0.3129883 0.09869385
vt 0.2320557 0.01844788
vt 0.4370117 0.9853516
vt 0.4370117 0.7104492
vt 0.4345703 0.7104492
vt 0.4345703 0.9853516
vt 0.4321289 0.7104492
vt 0.4321289 0.9853516
vt 0.4299316 0.7104492
vt 0.4299316 0.9853516
vt 0.4274902 0.7104492
vt 0.4274902 0.9853516
vt 0.4250488 0.7104492
vt 0.4250488 0.9853516
vt 0.4228516 0.7104492
vt 0.4228516 0.9853516
vt 0.4204102 0.7104492
vt 0.4204102 0.9853516
vt 0.4182129 0.7104492
vt 0.4182129 0.9853516
vt 0.4157715 0.7104492
vt 0.4157715 0.9853516
vt 0.4133301 0.7104492
vt 0.4133301 0.9853516
vt 0.4111328 0.7104492
vt 0.4111328 0.9853516
vt 0.4086914 0.7104492
vt 0.4086914 0.9853516
vt 0.4726563 0.9853516
vt 0.470459 0.7104492
vt 0.470459 0.9853516
vt 0.4726563 0.7104492
vt 0.4750977 0.9853516
vt 0.4750977 0.7104492
vt 0.4772949 0.9853516
vt 0.4772949 0.7104492
vt 0.4797363 0.9853516
vt 0.4797363 0.7104492
vt 0.4821777 0.9853516
vt 0.4821777 0.7104492
vt 0.484375 0.9853516
vt 0.484375 0.7104492
vt 0.4868164 0.9853516
vt 0.4868164 0.7104492
vt 0.4892578 0.9853516
vt 0.4892578 0.7104492
vt 0.4914551 0.9853516
vt 0.4914551 0.7104492
vt 0.4938965 0.9853516
vt 0.4938965 0.7104492
vt 0.4960938 0.9853516
vt 0.4960938 0.7104492
vt 0.4985352 0.9853516
vt 0.4985352 0.7104492
vt 0.8979492 0.1456299
vt 0.9926758 0.2519531
vt 0.1590576 0.2519531
vt 0.1590576 0.2519531
vt 0.1590576 0.1456299
vt 0.1590576 0.1456299
vt 0.8979492 0.1456299
vt 0.9926758 0.2519531
vt 0.8979492 0.1456299
vt 0.9926758 0.2519531
vt 0.1590576 0.1456299
vt 0.1590576 0.2519531
vt 0.9926758 0.2519531
vt 0.8979492 0.1456299
vt 0.1590576 0.2519531
vt 0.1590576 0.1456299
vt 0.02787781 0.9707031
vt 0.1411133 0.2792969
vt 0.3740234 0.2792969
vt 0.7124023 0.2792969
vt 0.3740234 0.2792969
vt 0.1411133 0.2792969
vt 0.02787781 0.2792969
vt 0.02804565 0.1713867
vt 0.1411133 0.2792969
vt 0.3740234 0.2792969
vt 0.7124023 0.2792969
vt 0.3740234 0.2792969
vt 0.1411133 0.2792969
vt 0.02787781 0.2792969
vt 0.02787781 0.1711426
vt 0.1411133 0.2792969
vt 0.3740234 0.2792969
vt 0.7124023 0.2792969
vt 0.3740234 0.2792969
vt 0.1411133 0.2792969
vt 0.02787781 0.2792969
vt 0.02774048 0.1710205
vt 0.1411133 0.2792969
vt 0.3740234 0.2792969
vt 0.7124023 0.2792969
vt 0.3740234 0.2792969
vt 0.1411133 0.2792969
vt 0.02787781 0.2792969
vt 0.02787781 0.1711426
vn 0 0 1
vn 0 0 1
vn 0 0 1
vn 0 0 1
vn 0 0 1
vn 0 0 1
vn 0 0 1
vn 0 0 1
vn 0 0 1
vn 0 0 1
vn 0 0 1
vn 0 0 1
vn 0 0 1
vn 0 0 1
vn 0 0 1
vn 0 0 1
vn 0 0 1
vn 0 0 1
vn 0 0 1
vn 0 0 1
vn 0 0 1
vn 0 0 1
vn 0 0 1
vn 0 0 1
vn 0 0 1
vn 0 0 1
vn 0 0 1
vn 0 0 1
vn 0 0 1
vn 0 0 1
vn 0 0 1
vn 0 0 1
vn 0 0 1
vn 0 0 1
vn 0 0 1
vn 0 0 1
vn 0 0 1
vn 0 0 1
vn 0 0 1
vn 0 0 1
vn 0 0 1
vn 0 0 1
vn 0 0 1
vn 0 0 1
vn 0 0 1
vn 0 0 1
vn 0 0 1
vn 0 0 1
vn 0 0 1
vn 0 0 1
vn 0 0 1
vn 0 0 1
vn 0 0 1
vn 0 0 1
vn 0 0 1
vn 0 0 1
vn 0 0 1
vn 0 0 1
vn 0 0 1
vn 0 0 1
vn 0 0 1
vn 0 0 1
vn 0 0 1
vn 0 0 1
vn 0 0 1
vn 0 0 1
vn 0 0 1
vn 0 0 1
vn 0 0 1
vn 0 0 1
vn 0 0 1
vn 0 0 1
vn 0 0 1
vn 0 0 1
vn 0 0 1
vn 0 0 1
vn 0 0 1
vn 0 0 1
vn 0 0 1
vn 0 0 1
vn 0 0 1
vn 0 0 1
vn 0 0 1
vn 0 0 1
vn 0 0 1
vn 0 0 1
vn 0 0 1
vn 0 0 1
vn 0 0 1
vn 0 0 1
vn 0 0 1
vn 0 0 1
vn 0 0 1
vn 0 0 1
vn 0 0 1
vn 0 0 1
vn 0 0 1
vn 0 0 1
vn 0 0 1
vn 0 0 1
vn 0 0 1
vn 0 0 1
vn 0 0 1
vn 0 0 1
vn 0 0 1
vn 0 0 1
vn 0 0 1
vn 0 0 1
vn 0 0 1
vn 0 0 1
vn 0 0 1
vn 0 0 1
vn 0 0 1
vn 0 0 1
vn 0 0 1
vn 0 0 1
vn 0 0 1
vn 0 0 1
vn 0 0 1
vn 0 0 1
vn 0 0 1
vn 0 0 1
vn 0 0 1
vn 0 0 1
vn 0 0 1
vn 0 0 1
vn 0 0 1
vn 0 0 1
vn 0 0 1
vn 0 0 1
vn 0 0 1
vn 0 0 1
vn 0 0 1
vn 0 0 1
vn 0 0 1
vn 0 0 1
vn 0 0 1
vn 0 0 1
vn 0 0 1
vn 0 0 1
vn 0 0 1
vn 0 0 1
vn 0 0 1
vn 0 0 1
vn 0 0 1
vn 0 0 1
vn 0 0 1
vn -1.788139E-07 1.788139E-07 1
vn 0 0 1
vn 0 0 1
vn 0 4.172325E-07 1
vn 0 0 1
vn -5.364418E-07 1.788139E-07 1
vn 0 0 1
vn 0 5.960464E-07 1
vn 0 0 1
vn -4.172325E-07 5.960464E-07 1
vn -7.152557E-07 0 1
vn 0 0 1
vn -1.192093E-07 1.013279E-06 1
vn -1.013279E-06 0 1
vn 0 1.013279E-06 1
vn 0 0 1
vn 0 2.145767E-06 1
vn -2.145767E-06 1.013279E-06 1
vn 0 5.960464E-07 1
vn 0 0 1
vn -1.013279E-06 0 1
vn 0 0 1
vn -2.205372E-06 -1.192093E-07 1
vn -1.192093E-06 1.66893E-06 1
vn -5.960464E-07 0 1
vn 0 0 1
vn 1.192093E-07 1.013279E-06 1
vn 2.145767E-06 1.013279E-06 1
vn 0 4.172325E-07 1
vn 0 0 1
vn 4.172325E-07 4.172325E-07 1
vn 1.788139E-07 1.788139E-07 1
vn 0 0 1
vn 0 0 1
vn 4.172325E-07 0 1
vn 0 0 1
vn 1.013279E-06 1.192093E-07 1
vn 5.960464E-07 0 1
vn 0 0 1
vn 2.205372E-06 1.192093E-07 1
vn 1.013279E-06 2.205372E-06 1
vn 1.013279E-06 0 1
vn 0 0 1
vn 7.152557E-07 0 1
vn 0 0 1
vn 1.013279E-06 0 1
vn 1.192093E-06 -1.66893E-06 1
vn 4.172325E-07 -5.960464E-07 1
vn 5.364418E-07 -1.788139E-07 1
vn 0 0 1
vn 1.788139E-07 -1.788139E-07 1
vn 0 0 1
vn 0 -4.172325E-07 1
vn 0 0 1
vn 0 0 1
vn 0 0 1
vn 0 0 1
vn 0 -5.960464E-07 1
vn 1.192093E-07 -1.013279E-06 1
vn 0 0 1
vn 0 -2.145767E-06 1
vn 2.145767E-06 -1.013279E-06 1
vn 0 -1.013279E-06 1
vn 0 0 1
vn 0 -5.960464E-07 1
vn 0 0 1
vn -1.192093E-07 -1.013279E-06 1
vn -2.145767E-06 -1.013279E-06 1
vn 0 -4.172325E-07 1
vn 0 0 1
vn -4.172325E-07 -4.172325E-07 1
vn -1.788139E-07 -1.788139E-07 1
vn 0 0 1
vn 0 0 1
vn -4.172325E-07 0 1
vn -1.013279E-06 -1.192093E-07 1
vn -1.013279E-06 -2.205372E-06 1
vn 0 0 1
vn 0 0 1
vn 0 0 1
vn 0 0 1
vn 0 0 1
vn 0 0 1
vn 0 0 1
vn 0 0 1
vn 0 0 1
vn 0 0 1
vn 0 0 1
vn 0 0 1
vn 0 0 1
vn 0 0 1
vn 0 0 1
vn 0 0 1
vn 0 0 1
vn 0 0 1
vn 0 0 1
vn 0 0 1
vn 0 0 1
vn 0 0 1
vn 0 0 1
vn 0 0 1
vn 0 0 1
vn 0 0 1
vn 0 0 1
vn 0 0 1
vn 0 0 1
vn 0 0 1
vn 0 0 1
vn 0 0 1
vn 0 0 1
vn 0 0 1
vn 0 0 1
vn 0 0 1
vn 0 0 1
vn 0 0 1
vn 0 0 1
vn 0 0 1
vn 0 0 1
vn 0 0 1
vn 0 0 1
vn 0 0 1
vn 0 0 1
vn 0 0 1
vn 0 0 1
vn 0 0 1
vn 0 0 1
vn 0 0 1
vn 0 0 1
vn 0 0 1
vn 0 0 1
vn 0 0 1
vn 0 0 1
vn 0 0 1
vn 0 0 1
vn 0 0 1
vn 0 0 1
vn 0 0 1
vn 0 0 1
vn 0 0 1
vn 0 0 1
vn 0 0 1
vn 0 0 1
vn 0 0 1
vn 0 0 1
vn 0 0 1
vn 0 0 1
vn 0 0 1
vn 0 0 1
vn 0 0 1
vn 0 0 1
vn 0 0 1
vn 0 0 1
vn 0 0 1
vn 0 0 1
vn 0 0 1
vn 0 0 1
vn 0 0 1
vn 0 0 1
vn 0 0 1
vn 0 0 1
vn 0 0 1
vn 0 0 1
vn 0 0 1
vn -1 0 0
vn -1 0 0
vn -1 0 0
vn -1 0 0
vn -1 0 0
vn -1 0 0
vn -1 0 0
vn -1 0 0
vn -1 0 0
vn -1 0 0
vn -1 0 0
vn -1 0 0
vn -1 0 0
vn -1 0 0
vn -1 0 0
vn -1 0 0
vn -1 0 0
vn -1 0 0
vn -1 0 0
vn -1 0 0
vn -1 0 0
vn -1 0 0
vn -1 0 0
vn -1 0 0
vn -1 0 0
vn -1 0 0
vn 0 -1 0
vn 0 -1 0
vn 0 -1 0
vn 0 -1 0
vn 0 -1 0
vn 0 -1 0
vn 0 -1 0
vn 0 -1 0
vn 0 -1 0
vn 0 -1 0
vn 0 -1 0
vn 0 -1 0
vn 0 -1 0
vn 0 -1 0
vn 0 -1 0
vn 0 -1 0
vn 0 -1 0
vn 0 -1 0
vn 0 -1 0
vn 0 -1 0
vn 0 -1 0
vn 0 -1 0
vn 0 -1 0
vn 0 -1 0
vn 0 -1 0
vn 0 -1 0
vn 0 0 1
vn 0 0 1
vn 0 0 1
vn 0 0 1
vn 0 0 1
vn 0 0 1
vn 0 0 1
vn 0 0 1
vn 0 0 1
vn 0 0 1
vn 0 0 1
vn 0 0 1
vn 0 0 1
vn 0 0 1
vn 0 0 1
vn 0 0 1
vn 0 0 1
vn -1.192093E-06 1.66893E-06 1
vn -1.013279E-06 0 1
vn -4.172325E-07 5.960464E-07 1
vn -1.192093E-07 1.013279E-06 1
vn -2.145767E-06 1.013279E-06 1
vn -2.264977E-06 0 1
vn -2.205372E-06 -1.192093E-07 1
vn -1.013279E-06 -2.205372E-06 1
vn -1.013279E-06 -1.192093E-07 1
vn -4.172325E-07 -4.172325E-07 1
vn -1.192093E-07 -1.013279E-06 1
vn -2.145767E-06 -1.013279E-06 1
vn 0 2.264977E-06 1
vn 0 2.145767E-06 1
vn 2.145767E-06 1.013279E-06 1
vn 1.192093E-07 1.013279E-06 1
vn 4.172325E-07 4.172325E-07 1
vn 1.013279E-06 1.192093E-07 1
vn 1.013279E-06 2.205372E-06 1
vn 0 -2.264977E-06 1
vn 0 -2.145767E-06 1
vn 2.145767E-06 -1.013279E-06 1
vn 1.192093E-07 -1.013279E-06 1
vn 4.172325E-07 -5.960464E-07 1
vn 1.013279E-06 0 1
vn 1.192093E-06 -1.66893E-06 1
vn 2.264977E-06 0 1
vn 2.205372E-06 1.192093E-07 1
g my_gehennaparty_01_tile_20x20_0
f 3/3/3 2/2/2 1/1/1
f 2/2/2 4/4/4 1/1/1
f 1/1/1 4/4/4 5/5/5
f 2/2/2 6/6/6 4/4/4
f 4/4/4 7/7/7 5/5/5
f 5/5/5 7/7/7 8/8/8
f 6/6/6 9/9/9 4/4/4
f 4/4/4 9/9/9 7/7/7
f 6/6/6 10/10/10 9/9/9
f 7/7/7 11/11/11 8/8/8
f 8/8/8 11/11/11 12/12/12
f 9/9/9 13/13/13 7/7/7
f 7/7/7 13/13/13 11/11/11
f 10/10/10 14/14/14 9/9/9
f 9/9/9 14/14/14 13/13/13
f 10/10/10 15/15/15 14/14/14
f 11/11/11 16/16/16 12/12/12
f 12/12/12 16/16/16 17/17/17
f 13/13/13 18/18/18 11/11/11
f 11/11/11 18/18/18 16/16/16
f 14/14/14 19/19/19 13/13/13
f 13/13/13 19/19/19 18/18/18
f 15/15/15 20/20/20 14/14/14
f 14/14/14 20/20/20 19/19/19
f 15/15/15 21/21/21 20/20/20
f 16/16/16 22/22/22 17/17/17
f 17/17/17 22/22/22 23/23/23
f 18/18/18 24/24/24 16/16/16
f 16/16/16 24/24/24 22/22/22
f 19/19/19 25/25/25 18/18/18
f 18/18/18 25/25/25 24/24/24
f 20/20/20 26/26/26 19/19/19
f 19/19/19 26/26/26 25/25/25
f 21/21/21 27/27/27 20/20/20
f 20/20/20 27/27/27 26/26/26
f 21/21/21 28/28/28 27/27/27
f 25/25/25 29/29/29 24/24/24
f 26/26/26 30/30/30 25/25/25
f 24/24/24 29/29/29 31/31/31
f 24/24/24 31/31/31 22/22/22
f 29/29/29 32/32/32 31/31/31
f 26/26/26 33/33/33 30/30/30
f 27/27/27 33/33/33 26/26/26
f 33/33/33 34/34/34 30/30/30
f 28/28/28 35/35/35 27/27/27
f 27/27/27 35/35/35 33/33/33
f 28/28/28 36/36/36 35/35/35
f 33/33/33 37/37/37 34/34/34
f 35/35/35 37/37/37 33/33/33
f 37/37/37 38/38/38 34/34/34
f 36/36/36 39/39/39 35/35/35
f 35/35/35 39/39/39 37/37/37
f 36/36/36 40/40/40 39/39/39
f 37/37/37 41/41/41 38/38/38
f 39/39/39 41/41/41 37/37/37
f 41/41/41 42/42/42 38/38/38
f 40/40/40 43/43/43 39/39/39
f 39/39/39 43/43/43 41/41/41
f 40/40/40 44/44/44 43/43/43
f 41/41/41 45/45/45 42/42/42
f 43/43/43 45/45/45 41/41/41
f 45/45/45 46/46/46 42/42/42
f 44/44/44 47/47/47 43/43/43
f 43/43/43 47/47/47 45/45/45
f 44/44/44 48/48/48 47/47/47
f 45/45/45 49/49/49 46/46/46
f 47/47/47 49/49/49 45/45/45
f 49/49/49 50/50/50 46/46/46
f 48/48/48 51/51/51 47/47/47
f 47/47/47 51/51/51 49/49/49
f 48/48/48 52/52/52 51/51/51
f 49/49/49 53/53/53 50/50/50
f 51/51/51 53/53/53 49/49/49
f 52/52/52 54/54/54 51/51/51
f 51/51/51 54/54/54 53/53/53
f 52/52/52 55/55/55 54/54/54
f 55/55/55 56/56/56 54/54/54
f 54/54/54 56/56/56 57/57/57
f 54/54/54 57/57/57 53/53/53
f 56/56/56 58/58/58 57/57/57
f 53/53/53 59/59/59 50/50/50
f 53/53/53 57/57/57 59/59/59
f 50/50/50 59/59/59 60/60/60
f 57/57/57 58/58/58 61/61/61
f 57/57/57 61/61/61 59/59/59
f 58/58/58 62/62/62 61/61/61
f 59/59/59 63/63/63 60/60/60
f 59/59/59 61/61/61 63/63/63
f 60/60/60 63/63/63 64/64/64
f 61/61/61 62/62/62 65/65/65
f 61/61/61 65/65/65 63/63/63
f 62/62/62 66/66/66 65/65/65
f 63/63/63 67/67/67 64/64/64
f 63/63/63 65/65/65 67/67/67
f 64/64/64 67/67/67 68/68/68
f 65/65/65 66/66/66 69/69/69
f 65/65/65 69/69/69 67/67/67
f 66/66/66 70/70/70 69/69/69
f 67/67/67 71/71/71 68/68/68
f 67/67/67 69/69/69 71/71/71
f 68/68/68 71/71/71 72/72/72
f 69/69/69 70/70/70 73/73/73
f 69/69/69 73/73/73 71/71/71
f 70/70/70 74/74/74 73/73/73
f 71/71/71 75/75/75 72/72/72
f 71/71/71 73/73/73 75/75/75
f 72/72/72 75/75/75 76/76/76
f 73/73/73 74/74/74 77/77/77
f 73/73/73 77/77/77 75/75/75
f 74/74/74 78/78/78 77/77/77
f 75/75/75 79/79/79 76/76/76
f 75/75/75 77/77/77 79/79/79
f 76/76/76 79/79/79 80/80/80
f 77/77/77 78/78/78 81/81/81
f 77/77/77 81/81/81 79/79/79
f 78/78/78 82/82/82 81/81/81
f 79/79/79 81/81/81 83/83/83
f 79/79/79 83/83/83 80/80/80
f 81/81/81 82/82/82 84/84/84
f 81/81/81 84/84/84 83/83/83
f 82/82/82 85/85/85 84/84/84
f 84/84/84 85/85/85 86/86/86
f 85/85/85 87/87/87 86/86/86
f 83/83/83 84/84/84 88/88/88
f 84/84/84 86/86/86 88/88/88
f 80/80/80 83/83/83 89/89/89
f 83/83/83 88/88/88 89/89/89
f 86/86/86 87/87/87 90/90/90
f 87/87/87 91/91/91 90/90/90
f 88/88/88 86/86/86 92/92/92
f 86/86/86 90/90/90 92/92/92
f 90/90/90 91/91/91 93/93/93
f 91/91/91 94/94/94 93/93/93
f 90/90/90 93/93/93 95/95/95
f 92/92/92 90/90/90 95/95/95
f 92/92/92 95/95/95 96/96/96
f 88/88/88 92/92/92 97/97/97
f 97/97/97 92/92/92 96/96/96
f 89/89/89 88/88/88 97/97/97
f 97/97/97 96/96/96 98/98/98
f 99/99/99 97/97/97 98/98/98
f 89/89/89 97/97/97 99/99/99
f 99/99/99 98/98/98 100/100/100
f 101/101/101 89/89/89 99/99/99
f 80/80/80 89/89/89 101/101/101
f 102/102/102 80/80/80 101/101/101
f 103/103/103 99/99/99 100/100/100
f 101/101/101 99/99/99 103/103/103
f 103/103/103 100/100/100 104/104/104
f 102/102/102 101/101/101 105/105/105
f 105/105/105 101/101/101 103/103/103
f 106/106/106 102/102/102 105/105/105
f 107/107/107 103/103/103 104/104/104
f 105/105/105 103/103/103 107/107/107
f 107/107/107 104/104/104 108/108/108
f 106/106/106 105/105/105 109/109/109
f 109/109/109 105/105/105 107/107/107
f 110/110/110 106/106/106 109/109/109
f 111/111/111 107/107/107 108/108/108
f 109/109/109 107/107/107 111/111/111
f 111/111/111 108/108/108 112/112/112
f 110/110/110 109/109/109 113/113/113
f 113/113/113 109/109/109 111/111/111
f 114/114/114 110/110/110 113/113/113
f 115/115/115 111/111/111 112/112/112
f 113/113/113 111/111/111 115/115/115
f 115/115/115 112/112/112 116/116/116
f 114/114/114 113/113/113 117/117/117
f 117/117/117 113/113/113 115/115/115
f 118/118/118 114/114/114 117/117/117
f 119/119/119 115/115/115 116/116/116
f 117/117/117 115/115/115 119/119/119
f 119/119/119 116/116/116 120/120/120
f 118/118/118 117/117/117 121/121/121
f 121/121/121 117/117/117 119/119/119
f 122/122/122 118/118/118 121/121/121
f 123/123/123 119/119/119 120/120/120
f 121/121/121 119/119/119 123/123/123
f 123/123/123 120/120/120 124/124/124
f 122/122/122 121/121/121 125/125/125
f 125/125/125 121/121/121 123/123/123
f 126/126/126 123/123/123 124/124/124
f 125/125/125 123/123/123 126/126/126
f 126/126/126 124/124/124 127/127/127
f 128/128/128 126/126/126 127/127/127
f 129/129/129 126/126/126 128/128/128
f 129/129/129 125/125/125 126/126/126
f 130/130/130 129/129/129 128/128/128
f 131/131/131 122/122/122 125/125/125
f 131/131/131 125/125/125 129/129/129
f 132/132/132 122/122/122 131/131/131
f 133/133/133 129/129/129 130/130/130
f 133/133/133 131/131/131 129/129/129
f 134/134/134 133/133/133 130/130/130
f 135/135/135 132/132/132 131/131/131
f 135/135/135 131/131/131 133/133/133
f 136/136/136 132/132/132 135/135/135
f 137/137/137 133/133/133 134/134/134
f 137/137/137 135/135/135 133/133/133
f 138/138/138 137/137/137 134/134/134
f 139/139/139 136/136/136 135/135/135
f 139/139/139 135/135/135 137/137/137
f 140/140/140 136/136/136 139/139/139
f 141/141/141 137/137/137 138/138/138
f 141/141/141 139/139/139 137/137/137
f 142/142/142 141/141/141 138/138/138
f 143/143/143 140/140/140 139/139/139
f 143/143/143 139/139/139 141/141/141
f 32/32/32 140/140/140 143/143/143
f 31/31/31 32/32/32 143/143/143
f 144/144/144 141/141/141 142/142/142
f 144/144/144 143/143/143 141/141/141
f 31/31/31 143/143/143 144/144/144
f 23/23/23 144/144/144 142/142/142
f 22/22/22 31/31/31 144/144/144
f 22/22/22 144/144/144 23/23/23
f 147/147/147 146/146/146 145/145/145
f 146/146/146 148/148/148 145/145/145
f 145/145/145 148/148/148 149/149/149
f 146/146/146 150/150/150 148/148/148
f 148/148/148 151/151/151 149/149/149
f 149/149/149 151/151/151 152/152/152
f 150/150/150 153/153/153 148/148/148
f 148/148/148 153/153/153 151/151/151
f 150/150/150 154/154/154 153/153/153
f 151/151/151 155/155/155 152/152/152
f 152/152/152 155/155/155 156/156/156
f 153/153/153 157/157/157 151/151/151
f 151/151/151 157/157/157 155/155/155
f 154/154/154 158/158/158 153/153/153
f 153/153/153 158/158/158 157/157/157
f 154/154/154 159/159/159 158/158/158
f 157/157/157 160/160/160 155/155/155
f 158/158/158 161/161/161 157/157/157
f 155/155/155 162/162/162 156/156/156
f 156/156/156 162/162/162 163/163/163
f 155/155/155 160/160/160 164/164/164
f 162/162/162 155/155/155 164/164/164
f 160/160/160 165/165/165 164/164/164
f 162/162/162 166/166/166 163/163/163
f 162/162/162 164/164/164 166/166/166
f 163/163/163 166/166/166 167/167/167
f 159/159/159 168/168/168 158/158/158
f 159/159/159 169/169/169 168/168/168
f 158/158/158 170/170/170 161/161/161
f 168/168/168 170/170/170 158/158/158
f 170/170/170 171/171/171 161/161/161
f 169/169/169 172/172/172 168/168/168
f 168/168/168 172/172/172 170/170/170
f 169/169/169 173/173/173 172/172/172
f 166/166/166 164/164/164 174/174/174
f 164/164/164 175/175/175 174/174/174
f 166/166/166 176/176/176 167/167/167
f 166/166/166 174/174/174 176/176/176
f 167/167/167 176/176/176 177/177/177
f 174/174/174 178/178/178 176/176/176
f 176/176/176 179/179/179 177/177/177
f 176/176/176 178/178/178 179/179/179
f 177/177/177 179/179/179 180/180/180
f 179/179/179 181/181/181 180/180/180
f 178/178/178 182/182/182 179/179/179
f 179/179/179 182/182/182 181/181/181
f 182/182/182 183/183/183 181/181/181
f 178/178/178 184/184/184 182/182/182
f 182/182/182 185/185/185 183/183/183
f 184/184/184 185/185/185 182/182/182
f 185/185/185 186/186/186 183/183/183
f 187/187/187 185/185/185 184/184/184
f 188/188/188 187/187/187 184/184/184
f 185/185/185 189/189/189 186/186/186
f 185/185/185 187/187/187 189/189/189
f 189/189/189 190/190/190 186/186/186
f 189/189/189 191/191/191 190/190/190
f 189/189/189 187/187/187 191/191/191
f 191/191/191 192/192/192 190/190/190
f 193/193/193 191/191/191 187/187/187
f 194/194/194 193/193/193 187/187/187
f 193/193/193 195/195/195 191/191/191
f 191/191/191 196/196/196 192/192/192
f 195/195/195 196/196/196 191/191/191
f 196/196/196 197/197/197 192/192/192
f 196/196/196 198/198/198 197/197/197
f 198/198/198 199/199/199 197/197/197
f 195/195/195 200/200/200 196/196/196
f 200/200/200 198/198/198 196/196/196
f 198/198/198 201/201/201 199/199/199
f 201/201/201 202/202/202 199/199/199
f 203/203/203 201/201/201 198/198/198
f 200/200/200 203/203/203 198/198/198
f 204/204/204 203/203/203 200/200/200
f 205/205/205 200/200/200 195/195/195
f 205/205/205 204/204/204 200/200/200
f 206/206/206 205/205/205 195/195/195
f 207/207/207 204/204/204 205/205/205
f 208/208/208 205/205/205 206/206/206
f 209/209/209 208/208/208 206/206/206
f 210/210/210 207/207/207 205/205/205
f 208/208/208 210/210/210 205/205/205
f 211/211/211 207/207/207 210/210/210
f 212/212/212 211/211/211 210/210/210
f 208/208/208 212/212/212 210/210/210
f 213/213/213 211/211/211 212/212/212
f 214/214/214 212/212/212 208/208/208
f 215/215/215 214/214/214 208/208/208
f 216/216/216 213/213/213 212/212/212
f 216/216/216 212/212/212 214/214/214
f 217/217/217 213/213/213 216/216/216
f 218/218/218 216/216/216 214/214/214
f 219/219/219 217/217/217 216/216/216
f 219/219/219 216/216/216 218/218/218
f 220/220/220 217/217/217 219/219/219
f 221/221/221 220/220/220 219/219/219
f 222/222/222 219/219/219 218/218/218
f 221/221/221 219/219/219 222/222/222
f 173/173/173 221/221/221 222/222/222
f 173/173/173 222/222/222 172/172/172
f 222/222/222 218/218/218 223/223/223
f 172/172/172 222/222/222 223/223/223
f 170/170/170 172/172/172 223/223/223
f 224/224/224 170/170/170 223/223/223
f 227/227/227 226/226/226 225/225/225
f 228/228/228 227/227/227 225/225/225
f 228/228/228 225/225/225 229/229/229
f 225/225/225 230/230/230 229/229/229
f 229/229/229 230/230/230 231/231/231
f 232/232/232 229/229/229 231/231/231
f 233/233/233 232/232/232 231/231/231
f 234/234/234 233/233/233 231/231/231
f 233/233/233 234/234/234 235/235/235
f 236/236/236 233/233/233 235/235/235
f 236/236/236 235/235/235 237/237/237
f 235/235/235 238/238/238 237/237/237
f 237/237/237 238/238/238 239/239/239
f 240/240/240 237/237/237 239/239/239
f 240/240/240 239/239/239 241/241/241
f 242/242/242 240/240/240 241/241/241
f 245/245/245 244/244/244 243/243/243
f 246/246/246 245/245/245 243/243/243
f 249/249/249 248/248/248 247/247/247
f 250/250/250 249/249/249 247/247/247
f 250/250/250 247/247/247 251/251/251
f 247/247/247 252/252/252 251/251/251
f 251/251/251 252/252/252 253/253/253
f 254/254/254 251/251/251 253/253/253
f 255/255/255 254/254/254 253/253/253
f 256/256/256 255/255/255 253/253/253
f 255/255/255 256/256/256 257/257/257
f 258/258/258 255/255/255 257/257/257
f 258/258/258 257/257/257 259/259/259
f 257/257/257 260/260/260 259/259/259
f 259/259/259 260/260/260 261/261/261
f 262/262/262 259/259/259 261/261/261
f 263/263/263 262/262/262 261/261/261
f 264/264/264 263/263/263 261/261/261
f 267/267/267 266/266/266 265/265/265
f 268/268/268 267/267/267 265/265/265
f 271/271/271 270/270/270 269/269/269
f 272/272/272 271/271/271 269/269/269
f 275/275/275 274/274/274 273/273/273
f 276/276/276 275/275/275 273/273/273
f 279/279/279 278/278/278 277/277/277
f 280/280/280 279/279/279 277/277/277
f 283/283/283 282/282/282 281/281/281
f 282/282/282 284/284/284 281/281/281
f 282/282/282 285/285/285 284/284/284
f 285/285/285 286/286/286 284/284/284
f 286/286/286 285/285/285 287/287/287
f 285/285/285 288/288/288 287/287/287
f 288/288/288 289/289/289 287/287/287
f 289/289/289 290/290/290 287/287/287
f 291/291/291 290/290/290 289/289/289
f 292/292/292 291/291/291 289/289/289
f 292/292/292 293/293/293 291/291/291
f 293/293/293 294/294/294 291/291/291
f 293/293/293 295/295/295 294/294/294
f 295/295/295 296/296/296 294/294/294
f 295/295/295 297/297/297 296/296/296
f 297/297/297 298/298/298 296/296/296
f 301/301/301 300/300/300 299/299/299
f 302/302/302 301/301/301 299/299/299
f 305/305/305 304/304/304 303/303/303
f 306/306/306 305/305/305 303/303/303
f 309/309/309 308/308/308 307/307/307
f 310/310/310 309/309/309 307/307/307
f 313/313/313 312/312/312 311/311/311
f 314/314/314 313/313/313 311/311/311
f 315/315/315 313/313/313 314/314/314
f 316/316/316 315/315/315 314/314/314
f 317/317/317 315/315/315 316/316/316
f 318/318/318 317/317/317 316/316/316
f 319/319/319 317/317/317 318/318/318
f 320/320/320 319/319/319 318/318/318
f 321/321/321 319/319/319 320/320/320
f 322/322/322 321/321/321 320/320/320
f 323/323/323 321/321/321 322/322/322
f 324/324/324 323/323/323 322/322/322
f 325/325/325 323/323/323 324/324/324
f 326/326/326 325/325/325 324/324/324
f 327/327/327 325/325/325 326/326/326
f 328/328/328 327/327/327 326/326/326
f 329/329/329 327/327/327 328/328/328
f 330/330/330 329/329/329 328/328/328
f 331/331/331 329/329/329 330/330/330
f 332/332/332 331/331/331 330/330/330
f 333/333/333 331/331/331 332/332/332
f 334/334/334 333/333/333 332/332/332
f 335/335/335 333/333/333 334/334/334
f 336/336/336 335/335/335 334/334/334
f 339/339/339 338/338/338 337/337/337
f 338/338/338 340/340/340 337/337/337
f 337/337/337 340/340/340 341/341/341
f 340/340/340 342/342/342 341/341/341
f 341/341/341 342/342/342 343/343/343
f 342/342/342 344/344/344 343/343/343
f 343/343/343 344/344/344 345/345/345
f 344/344/344 346/346/346 345/345/345
f 345/345/345 346/346/346 347/347/347
f 346/346/346 348/348/348 347/347/347
f 347/347/347 348/348/348 349/349/349
f 348/348/348 350/350/350 349/349/349
f 349/349/349 350/350/350 351/351/351
f 350/350/350 352/352/352 351/351/351
f 351/351/351 352/352/352 353/353/353
f 352/352/352 354/354/354 353/353/353
f 353/353/353 354/354/354 355/355/355
f 354/354/354 356/356/356 355/355/355
f 355/355/355 356/356/356 357/357/357
f 356/356/356 358/358/358 357/357/357
f 357/357/357 358/358/358 359/359/359
f 358/358/358 360/360/360 359/359/359
f 359/359/359 360/360/360 361/361/361
f 360/360/360 362/362/362 361/361/361
f 365/365/365 364/364/364 363/363/363
f 363/363/363 364/364/364 366/366/366
f 367/367/367 365/365/365 363/363/363
f 368/368/368 363/363/363 366/366/366
f 369/369/369 368/368/368 366/366/366
f 370/370/370 369/369/369 366/366/366
f 367/367/367 371/371/371 365/365/365
f 371/371/371 372/372/372 365/365/365
f 373/373/373 369/369/369 370/370/370
f 374/374/374 373/373/373 370/370/370
f 373/373/373 374/374/374 375/375/375
f 376/376/376 373/373/373 375/375/375
f 372/372/372 371/371/371 377/377/377
f 376/376/376 375/375/375 377/377/377
f 371/371/371 378/378/378 377/377/377
f 378/378/378 376/376/376 377/377/377
f 381/381/381 380/380/380 379/379/379
f 382/382/382 381/381/381 379/379/379
f 383/383/383 382/382/382 379/379/379
f 384/384/384 383/383/383 379/379/379
f 380/380/380 385/385/385 379/379/379
f 380/380/380 386/386/386 385/385/385
f 386/386/386 387/387/387 385/385/385
f 385/385/385 387/387/387 379/379/379
f 387/387/387 388/388/388 379/379/379
f 388/388/388 389/389/389 379/379/379
f 389/389/389 390/390/390 379/379/379
f 390/390/390 391/391/391 379/379/379
f 392/392/392 384/384/384 379/379/379
f 392/392/392 393/393/393 384/384/384
f 393/393/393 392/392/392 394/394/394
f 394/394/394 392/392/392 379/379/379
f 395/395/395 394/394/394 379/379/379
f 396/396/396 395/395/395 379/379/379
f 397/397/397 396/396/396 379/379/379
f 398/398/398 397/397/397 379/379/379
f 391/391/391 399/399/399 379/379/379
f 400/400/400 399/399/399 391/391/391
f 399/399/399 400/400/400 401/401/401
f 399/399/399 401/401/401 379/379/379
f 401/401/401 402/402/402 379/379/379
f 402/402/402 403/403/403 379/379/379
f 403/403/403 404/404/404 379/379/379
f 404/404/404 405/405/405 379/379/379
f 406/406/406 398/398/398 379/379/379
f 405/405/405 406/406/406 379/379/379
f 407/407/407 398/398/398 406/406/406
f 405/405/405 407/407/407 406/406/406
