g my_hyakkiyako_01_tile_20x20
v -5.13573 -5.135728 -6.103515E-07
v -5.13573 -6.264272 -6.103515E-07
v -6.264275 -6.264272 -6.103515E-07
v -6.264275 -5.135727 -6.103515E-07
v -4.007186 -4.007184 -6.103515E-07
v -4.007186 -5.135728 -6.103515E-07
v -5.13573 -4.007184 -6.103515E-07
v -7.392818 -7.392816 -6.103515E-07
v -7.392818 -6.264272 -6.103515E-07
v -6.264275 -7.392816 -6.103515E-07
v -11.7 -0.9 -6.103515E-07
v -11.7 0.3 -6.103515E-07
v -10.5 0.3 -6.103515E-07
v -10.5 -0.9 -6.103515E-07
v -9.300002 0.3 -6.103515E-07
v -11.7 -2.1 -6.103515E-07
v -9.300002 -0.9 -6.103515E-07
v -8.100002 0.3 -6.103515E-07
v -10.5 -2.1 -6.103515E-07
v -9.300002 -2.1 -6.103515E-07
v -8.100002 -0.9 -6.103515E-07
v -6.900002 0.3 -6.103515E-07
v -8.100002 -2.1 -6.103515E-07
v -6.900002 -0.9 -6.103515E-07
v -5.700002 0.3 -6.103515E-07
v -6.900002 -2.1 -6.103515E-07
v -5.700002 -0.9 -6.103515E-07
v -4.500002 0.3 -6.103515E-07
v -5.700002 -2.1 -6.103515E-07
v -4.500002 -0.9 -6.103515E-07
v -3.300002 0.3 -6.103515E-07
v -4.500002 -2.1 -6.103515E-07
v -3.300002 -0.9 -6.103515E-07
v -2.100002 0.3 -6.103515E-07
v -3.300002 -2.1 -6.103515E-07
v -2.100002 -0.9 -6.103515E-07
v -0.9 0.3 -6.103515E-07
v -2.100002 -2.1 -6.103515E-07
v -0.9 -0.9 -6.103515E-07
v 0.3 0.3 -6.103515E-07
v 0.3 -0.9 -6.103515E-07
v -0.9 -2.1 -6.103515E-07
v 0.3 -2.1 -6.103515E-07
v -0.9 -2.1 -6.103515E-07
v 0.2999975 -3.3 -6.103515E-07
v -0.9000024 -3.3 -6.103515E-07
v -2.100002 -3.3 -6.103515E-07
v 0.2999975 -4.5 -6.103515E-07
v -0.9000024 -4.5 -6.103515E-07
v -2.100002 -4.5 -6.103515E-07
v 0.2999975 -5.7 -6.103515E-07
v -0.9000024 -5.7 -6.103515E-07
v -2.100002 -5.7 -6.103515E-07
v 0.2999975 -6.9 -6.103515E-07
v -0.9000024 -6.9 -6.103515E-07
v -2.100002 -6.9 -6.103515E-07
v 0.2999975 -8.099999 -6.103515E-07
v -0.9000024 -8.099999 -6.103515E-07
v -2.100002 -8.099999 -6.103515E-07
v 0.3 -9.3 -6.103515E-07
v -0.9 -9.3 -6.103515E-07
v 0.2999975 -10.5 -6.103515E-07
v -2.100002 -9.3 -6.103515E-07
v -0.9000024 -10.5 -6.103515E-07
v 0.2999927 -11.7 -6.103515E-07
v -0.9000098 -11.7 -6.103515E-07
v -2.100002 -10.5 -6.103515E-07
v -2.10001 -11.7 -6.103515E-07
v -3.30001 -11.7 -6.103515E-07
v -2.100002 -10.5 -6.103515E-07
v -3.300002 -10.5 -6.103515E-07
v -3.300002 -9.3 -6.103515E-07
v -4.500007 -11.7 -6.103515E-07
v -4.500002 -10.5 -6.103515E-07
v -4.500002 -9.3 -6.103515E-07
v -5.700006 -11.7 -6.103515E-07
v -5.700002 -10.5 -6.103515E-07
v -5.700002 -9.3 -6.103515E-07
v -6.900006 -11.7 -6.103515E-07
v -6.900002 -10.5 -6.103515E-07
v -6.900002 -9.3 -6.103515E-07
v -8.100006 -11.7 -6.103515E-07
v -8.100002 -10.5 -6.103515E-07
v -8.100002 -9.3 -6.103515E-07
v -9.300005 -11.7 -6.103515E-07
v -9.300003 -10.5 -6.103515E-07
v -9.300003 -9.3 -6.103515E-07
v -10.5 -10.5 -6.103515E-07
v -9.300003 -10.5 -6.103515E-07
v -10.5 -11.7 -6.103515E-07
v -10.5 -9.3 -6.103515E-07
v -11.7 -10.5 -6.103515E-07
v -11.7 -11.7 -6.103515E-07
v -11.7 -9.3 -6.103515E-07
v -11.7 -8.099999 -6.103515E-07
v -10.5 -8.099999 -6.103515E-07
v -9.300002 -8.099999 -6.103515E-07
v -11.7 -6.9 -6.103515E-07
v -10.5 -6.9 -6.103515E-07
v -9.300002 -6.9 -6.103515E-07
v -11.7 -5.7 -6.103515E-07
v -10.5 -5.7 -6.103515E-07
v -9.300002 -5.7 -6.103515E-07
v -11.7 -4.5 -6.103515E-07
v -10.5 -4.5 -6.103515E-07
v -9.300002 -4.5 -6.103515E-07
v -11.7 -3.299999 -6.103515E-07
v -10.5 -3.3 -6.103515E-07
v -9.300002 -3.3 -6.103515E-07
v -10.5 -2.1 -6.103515E-07
v -4.007186 -5.135728 -6.103515E-07
v -5.13573 -6.264272 -6.103515E-07
v -5.13573 -5.135728 -6.103515E-07
v -4.007186 -6.264272 -6.103515E-07
v -5.13573 -7.392816 -6.103515E-07
v -4.007186 -7.392816 -6.103515E-07
v -6.264275 -7.392816 -6.103515E-07
v -6.264275 -6.264272 -6.103515E-07
v -7.392818 -6.264272 -6.103515E-07
v -6.264275 -5.135727 -6.103515E-07
v -6.264275 -6.264272 -6.103515E-07
v -7.392818 -5.135727 -6.103515E-07
v -6.264275 -4.007184 -6.103515E-07
v -7.392818 -4.007184 -6.103515E-07
v -5.13573 -4.007184 -6.103515E-07
v -5.13573 -5.135728 -6.103515E-07
v -11.7 -0.9 -6.103515E-07
v -11.7 0.3 -0.2849999
v -11.7 0.3 -6.103515E-07
v -11.7 -0.9 -0.2849999
v -11.7 -2.1 -6.103515E-07
v -11.7 -2.1 -0.2849999
v -11.7 -3.299999 -6.103515E-07
v -11.7 -3.299999 -0.2849999
v -11.7 -4.5 -6.103515E-07
v -11.7 -4.5 -0.2849999
v -11.7 -5.7 -6.103515E-07
v -11.7 -5.7 -0.2849999
v -11.7 -6.9 -6.103515E-07
v -11.7 -6.9 -0.2849999
v -11.7 -8.099999 -6.103515E-07
v -11.7 -8.099999 -0.2849999
v -11.7 -9.3 -6.103515E-07
v -11.7 -9.3 -0.2849999
v -11.7 -10.5 -6.103515E-07
v -11.7 -10.5 -0.2849999
v -11.7 -11.7 -6.103515E-07
v -11.7 -11.7 -0.2849999
v -10.5 -11.7 -6.103515E-07
v -11.7 -11.7 -0.2849999
v -11.7 -11.7 -6.103515E-07
v -10.5 -11.7 -0.2849999
v -9.300005 -11.7 -6.103515E-07
v -9.300006 -11.7 -0.2849999
v -8.100006 -11.7 -6.103515E-07
v -8.100007 -11.7 -0.2849999
v -6.900006 -11.7 -6.103515E-07
v -6.900008 -11.7 -0.2849999
v -5.700006 -11.7 -6.103515E-07
v -5.70001 -11.7 -0.2849999
v -4.500007 -11.7 -6.103515E-07
v -4.500011 -11.7 -0.2849999
v -3.30001 -11.7 -6.103515E-07
v -3.300012 -11.7 -0.2849999
v -2.10001 -11.7 -6.103515E-07
v -2.100013 -11.7 -0.2849999
v -0.9000098 -11.7 -6.103515E-07
v -0.9000146 -11.7 -0.2849999
v 0.2999927 -11.7 -6.103515E-07
v 0.2999853 -11.7 -0.2849999
v -9.177566 -9.177565 -6.103515E-07
v -3.937727 -7.462275 -6.103515E-07
v -2.222438 -9.177566 -6.103515E-07
v -2.222439 -2.222435 -6.103515E-07
v -7.462278 -7.462275 -6.103515E-07
v -3.937727 -3.937725 -6.103515E-07
v -7.462278 -3.937725 -6.103515E-07
v -9.177567 -2.222435 -6.103515E-07
v -7.462278 -7.462275 -6.103515E-07
v -7.392818 -5.135727 -6.103515E-07
v -7.392818 -6.264272 -6.103515E-07
v -7.392818 -7.392816 -6.103515E-07
v -6.264275 -7.392816 -6.103515E-07
v -5.13573 -7.392816 -6.103515E-07
v -7.462278 -3.937725 -6.103515E-07
v -7.392818 -4.007184 -6.103515E-07
v -6.264275 -4.007184 -6.103515E-07
v -3.937727 -7.462275 -6.103515E-07
v -3.937727 -3.937725 -6.103515E-07
v -4.007186 -7.392816 -6.103515E-07
v -4.007186 -6.264272 -6.103515E-07
v -4.007186 -5.135728 -6.103515E-07
v -5.13573 -4.007184 -6.103515E-07
v -4.007186 -4.007184 -6.103515E-07
v -2.100002 -2.1 -6.103515E-07
v -2.222439 -2.222435 -6.103515E-07
v -9.177567 -2.222435 -6.103515E-07
v -2.100002 -9.3 -6.103515E-07
v -9.300002 -2.1 -6.103515E-07
v -2.222438 -9.177566 -6.103515E-07
v -9.177566 -9.177565 -6.103515E-07
v -9.300003 -9.3 -6.103515E-07
vt 0.7401713 0.9933761
vt 0.740171 0.7598712
vt 0.5066662 0.7598711
vt 0.5066662 0.9933761
vt 0.506666 0.7598711
vt 0.5066664 0.9933761
vt 0.740171 0.7598712
vt 0.7401713 0.9933761
vt 0.740171 0.7598712
vt 0.5066664 0.993376
vt 0.005852108 0.5021761
vt 0.005852105 0.9922006
vt 0.4964615 0.9922006
vt 0.4964615 0.5021761
vt 0.0058521 0.9922006
vt 0.00585211 0.9922006
vt 0.005852101 0.5021761
vt 0.4964615 0.9922006
vt 0.4964615 0.9922006
vt 0.005852102 0.9922006
vt 0.4964615 0.5021761
vt 0.0058521 0.9922006
vt 0.4964615 0.9922006
vt 0.005852101 0.5021761
vt 0.4964615 0.9922006
vt 0.005852102 0.9922006
vt 0.4964615 0.5021761
vt 0.0058521 0.9922006
vt 0.4964615 0.9922006
vt 0.005852101 0.5021761
vt 0.4964615 0.9922006
vt 0.005852102 0.9922006
vt 0.4964615 0.5021761
vt 0.0058521 0.9922006
vt 0.4964615 0.9922006
vt 0.005852101 0.5021761
vt 0.4964615 0.9922006
vt 0.005852102 0.9922006
vt 0.4964615 0.5021761
vt 0.005852095 0.9922006
vt 0.005852095 0.5021761
vt 0.4964615 0.9922006
vt 0.005852095 0.9922006
vt 0.005852108 0.5021761
vt 0.4964615 0.9922006
vt 0.4964615 0.5021761
vt 0.4964615 0.9922006
vt 0.0058521 0.9922006
vt 0.005852101 0.5021761
vt 0.005852102 0.9922006
vt 0.4964615 0.9922006
vt 0.4964615 0.5021761
vt 0.4964615 0.9922006
vt 0.0058521 0.9922006
vt 0.005852101 0.5021761
vt 0.005852102 0.9922006
vt 0.4964615 0.9922006
vt 0.4964615 0.5021761
vt 0.4964615 0.9922006
vt 0.0058521 0.9922006
vt 0.005852101 0.5021761
vt 0.4964615 0.9922006
vt 0.005852102 0.9922006
vt 0.4964615 0.5021761
vt 0.005852095 0.9922006
vt 0.005852095 0.5021761
vt 0.4964615 0.9922006
vt 0.005852095 0.9922006
vt 0.4964615 0.9922006
vt 0.005852095 0.5021761
vt 0.4964615 0.5021761
vt 0.4964615 0.9922006
vt 0.005852102 0.9922006
vt 0.005852101 0.5021761
vt 0.0058521 0.9922006
vt 0.4964615 0.9922006
vt 0.4964615 0.5021761
vt 0.4964615 0.9922006
vt 0.005852102 0.9922006
vt 0.005852101 0.5021761
vt 0.0058521 0.9922006
vt 0.4964615 0.9922006
vt 0.4964615 0.5021761
vt 0.4964615 0.9922006
vt 0.00585211 0.9922006
vt 0.005852108 0.5021761
vt 0.0058521 0.9922006
vt 0.4964615 0.5021761
vt 0.4964615 0.9922006
vt 0.005852095 0.5021761
vt 0.005852101 0.5021761
vt 0.4964615 0.9922006
vt 0.005852095 0.9922006
vt 0.005852102 0.9922006
vt 0.4964615 0.9922006
vt 0.4964615 0.5021761
vt 0.4964615 0.9922006
vt 0.005852102 0.9922006
vt 0.005852101 0.5021761
vt 0.0058521 0.9922006
vt 0.4964615 0.9922006
vt 0.4964615 0.5021761
vt 0.4964615 0.9922006
vt 0.005852102 0.9922006
vt 0.005852101 0.5021761
vt 0.0058521 0.9922006
vt 0.4964615 0.9922006
vt 0.4964615 0.5021761
vt 0.4964615 0.9922006
vt 0.005852108 0.5021761
vt 0.01398168 0.489542
vt 0.2451538 0.2583695
vt 0.2451538 0.489542
vt 0.01398159 0.2583695
vt 0.2451538 0.489542
vt 0.01398168 0.489542
vt 0.01398135 0.489542
vt 0.01398126 0.2583695
vt 0.01398176 0.489542
vt 0.2451537 0.2583696
vt 0.2451538 0.489542
vt 0.01398151 0.2583696
vt 0.2451537 0.4895419
vt 0.01398126 0.4895419
vt 0.01398126 0.4895419
vt 0.01398126 0.2583695
vt 0.9883087 0.1013279
vt 0.6707773 0.1027015
vt 0.9883087 0.1027015
vt 0.6707773 0.1013279
vt 0.9883087 0.09995441
vt 0.6707773 0.09995441
vt 0.9883087 0.09858082
vt 0.6707773 0.09858082
vt 0.9883087 0.0972073
vt 0.6707773 0.0972073
vt 0.9883087 0.09583375
vt 0.6707773 0.09583375
vt 0.9883087 0.09446019
vt 0.6707773 0.09446019
vt 0.9883087 0.09308667
vt 0.6707773 0.09308664
vt 0.9883087 0.09171309
vt 0.6707773 0.09171309
vt 0.9883087 0.09033956
vt 0.6707773 0.09033956
vt 0.9883087 0.08896597
vt 0.6707773 0.08896597
vt 0.9883085 0.04309535
vt 0.6707773 0.04568325
vt 0.9883085 0.04568325
vt 0.6707773 0.04309535
vt 0.9883085 0.04050739
vt 0.6707773 0.04050739
vt 0.9883085 0.03791943
vt 0.6707773 0.03791943
vt 0.9883085 0.03533142
vt 0.6707773 0.03533142
vt 0.9883085 0.03274352
vt 0.6707773 0.03274352
vt 0.9883085 0.03015563
vt 0.6707773 0.03015563
vt 0.9883084 0.02756761
vt 0.6707773 0.02756761
vt 0.9883084 0.02497971
vt 0.6707773 0.02497971
vt 0.9883084 0.0223917
vt 0.6707773 0.02239175
vt 0.9883084 0.0198038
vt 0.6707773 0.0198038
vt 0.9925086 0.9949509
vt 0.4909076 0.005121435
vt 0.002679872 0.005121139
vt 0.9925086 0.9949509
vt 0.992509 0.5067234
vt 0.992509 0.5067234
vt 0.4909076 0.005121435
vt 0.002679872 0.005121139
vt 0.7533639 0.9593019
vt 0.8710642 0.9587819
vt 0.8710642 0.9587819
vt 0.8710642 0.9587819
vt 0.8710642 0.9533057
vt 0.8710642 0.9478293
vt 0.7550092 0.9593019
vt 0.8710642 0.9587819
vt 0.8710642 0.9533055
vt 0.7533638 0.9418328
vt 0.7550102 0.9418328
vt 0.8710642 0.9423531
vt 0.8710642 0.9423531
vt 0.8710642 0.9423531
vt 0.8710642 0.9478293
vt 0.8710642 0.9423531
vt 0.7522882 0.978504
vt 0.9676648 0.9787236
vt 0.9676614 0.9911928
vt 0.7522882 0.978504
vt 0.7522882 0.9914122
vt 0.9676648 0.9787236
vt 0.9676648 0.9911928
vt 0.7522882 0.9914122
vn 0 0 1
vn 0 0 1
vn 0 0 1
vn 0 0 1
vn 0 0 1
vn 0 0 1
vn 0 0 1
vn 0 0 1
vn 0 0 1
vn 0 0 1
vn 0 0 1
vn 0 0 1
vn 0 0 1
vn 0 0 1
vn 0 0 1
vn 0 0 1
vn 0 0 1
vn 0 0 1
vn 0 0 1
vn 0 0 1
vn 0 0 1
vn 0 0 1
vn 0 0 1
vn 0 0 1
vn 0 0 1
vn 0 0 1
vn 0 0 1
vn 0 0 1
vn 0 0 1
vn 0 0 1
vn 0 0 1
vn 0 0 1
vn 0 0 1
vn 0 0 1
vn 0 0 1
vn 0 0 1
vn 0 0 1
vn 0 0 1
vn 0 0 1
vn 0 0 1
vn 0 0 1
vn 0 0 1
vn 0 0 1
vn 0 0 1
vn 0 0 1
vn 0 0 1
vn 0 0 1
vn 0 0 1
vn 0 0 1
vn 0 0 1
vn 0 0 1
vn 0 0 1
vn 0 0 1
vn 0 0 1
vn 0 0 1
vn 0 0 1
vn 0 0 1
vn 0 0 1
vn 0 0 1
vn 0 0 1
vn 0 0 1
vn 0 0 1
vn 0 0 1
vn 0 0 1
vn 0 0 1
vn 0 0 1
vn 0 0 1
vn 0 0 1
vn 0 0 1
vn 0 0 1
vn 0 0 1
vn 0 0 1
vn 0 0 1
vn 0 0 1
vn 0 0 1
vn 0 0 1
vn 0 0 1
vn 0 0 1
vn 0 0 1
vn 0 0 1
vn 0 0 1
vn 0 0 1
vn 0 0 1
vn 0 0 1
vn 0 0 1
vn 0 0 1
vn 0 0 1
vn 0 0 1
vn 0 0 1
vn 0 0 1
vn 0 0 1
vn 0 0 1
vn 0 0 1
vn 0 0 1
vn 0 0 1
vn 0 0 1
vn 0 0 1
vn 0 0 1
vn 0 0 1
vn 0 0 1
vn 0 0 1
vn 0 0 1
vn 0 0 1
vn 0 0 1
vn 0 0 1
vn 0 0 1
vn 0 0 1
vn 0 0 1
vn 0 0 1
vn 0 0 1
vn 0 0 1
vn 0 0 1
vn 0 0 1
vn 0 0 1
vn 0 0 1
vn 0 0 1
vn 0 0 1
vn 0 0 1
vn 0 0 1
vn 0 0 1
vn 0 0 1
vn 0 0 1
vn 0 0 1
vn 0 0 1
vn 0 0 1
vn 0 0 1
vn -1 0 0
vn -1 0 0
vn -1 0 0
vn -1 0 0
vn -1 0 0
vn -1 0 0
vn -1 0 0
vn -1 0 0
vn -1 0 0
vn -1 0 0
vn -1 0 0
vn -1 0 0
vn -1 0 0
vn -1 0 0
vn -1 0 0
vn -1 0 0
vn -1 0 0
vn -1 0 0
vn -1 0 0
vn -1 0 0
vn -1 1.017253E-06 0
vn -1 1.017253E-06 0
vn 0 -1 0
vn 0 -1 0
vn 0 -1 0
vn 0 -1 0
vn 0 -1 0
vn 0 -1 0
vn 0 -1 0
vn 0 -1 0
vn 0 -1 0
vn 0 -1 0
vn 0 -1 0
vn 0 -1 0
vn 0 -1 0
vn 0 -1 0
vn 0 -1 0
vn 0 -1 0
vn 0 -1 0
vn 0 -1 0
vn 0 -1 0
vn 0 -1 0
vn 0 -1 0
vn 0 -1 0
vn 0 0 1
vn 0 0 1
vn 0 0 1
vn 0 0 1
vn 0 0 1
vn 0 0 1
vn 0 0 1
vn 0 0 1
vn 0 0 1
vn 0 0 1
vn 0 0 1
vn 0 0 1
vn 0 0 1
vn 0 0 1
vn 0 0 1
vn 0 0 1
vn 0 0 1
vn 0 0 1
vn 0 0 1
vn 0 0 1
vn 0 0 1
vn 0 0 1
vn 0 0 1
vn 0 0 1
vn 0 0 1
vn 0 0 1
vn 0 0 1
vn 0 0 1
vn 0 0 1
vn 0 0 1
vn 0 0 1
vn 0 0 1
g my_hyakkiyako_01_tile_20x20_0
f 3/3/3 2/2/2 1/1/1
f 4/4/4 3/3/3 1/1/1
f 1/1/1 6/6/6 5/5/5
f 7/7/7 1/1/1 5/5/5
f 3/3/3 9/9/9 8/8/8
f 10/10/10 3/3/3 8/8/8
f 13/13/13 12/12/12 11/11/11
f 14/14/14 13/13/13 11/11/11
f 15/15/15 13/13/13 14/14/14
f 14/14/14 11/11/11 16/16/16
f 17/17/17 15/15/15 14/14/14
f 18/18/18 15/15/15 17/17/17
f 19/19/19 14/14/14 16/16/16
f 17/17/17 14/14/14 19/19/19
f 20/20/20 17/17/17 19/19/19
f 21/21/21 18/18/18 17/17/17
f 21/21/21 17/17/17 20/20/20
f 22/22/22 18/18/18 21/21/21
f 23/23/23 21/21/21 20/20/20
f 24/24/24 22/22/22 21/21/21
f 24/24/24 21/21/21 23/23/23
f 25/25/25 22/22/22 24/24/24
f 26/26/26 24/24/24 23/23/23
f 27/27/27 25/25/25 24/24/24
f 27/27/27 24/24/24 26/26/26
f 28/28/28 25/25/25 27/27/27
f 29/29/29 27/27/27 26/26/26
f 30/30/30 28/28/28 27/27/27
f 30/30/30 27/27/27 29/29/29
f 31/31/31 28/28/28 30/30/30
f 32/32/32 30/30/30 29/29/29
f 33/33/33 31/31/31 30/30/30
f 33/33/33 30/30/30 32/32/32
f 34/34/34 31/31/31 33/33/33
f 35/35/35 33/33/33 32/32/32
f 36/36/36 34/34/34 33/33/33
f 36/36/36 33/33/33 35/35/35
f 37/37/37 34/34/34 36/36/36
f 38/38/38 36/36/36 35/35/35
f 39/39/39 37/37/37 36/36/36
f 39/39/39 36/36/36 38/38/38
f 40/40/40 37/37/37 39/39/39
f 41/41/41 40/40/40 39/39/39
f 41/41/41 39/39/39 42/42/42
f 42/42/42 39/39/39 38/38/38
f 43/43/43 41/41/41 42/42/42
f 45/45/45 43/43/43 44/44/44
f 46/46/46 44/44/44 38/38/38
f 46/46/46 45/45/45 44/44/44
f 47/47/47 46/46/46 38/38/38
f 48/48/48 45/45/45 46/46/46
f 49/49/49 46/46/46 47/47/47
f 49/49/49 48/48/48 46/46/46
f 50/50/50 49/49/49 47/47/47
f 51/51/51 48/48/48 49/49/49
f 52/52/52 49/49/49 50/50/50
f 52/52/52 51/51/51 49/49/49
f 53/53/53 52/52/52 50/50/50
f 54/54/54 51/51/51 52/52/52
f 55/55/55 52/52/52 53/53/53
f 55/55/55 54/54/54 52/52/52
f 56/56/56 55/55/55 53/53/53
f 57/57/57 54/54/54 55/55/55
f 58/58/58 55/55/55 56/56/56
f 58/58/58 57/57/57 55/55/55
f 59/59/59 58/58/58 56/56/56
f 60/60/60 57/57/57 58/58/58
f 61/61/61 58/58/58 59/59/59
f 61/61/61 60/60/60 58/58/58
f 62/62/62 60/60/60 61/61/61
f 63/63/63 61/61/61 59/59/59
f 64/64/64 62/62/62 61/61/61
f 64/64/64 61/61/61 63/63/63
f 65/65/65 62/62/62 64/64/64
f 66/66/66 65/65/65 64/64/64
f 66/66/66 64/64/64 67/67/67
f 67/67/67 64/64/64 63/63/63
f 68/68/68 66/66/66 67/67/67
f 68/68/68 70/70/70 69/69/69
f 70/70/70 63/63/63 71/71/71
f 70/70/70 71/71/71 69/69/69
f 63/63/63 72/72/72 71/71/71
f 69/69/69 71/71/71 73/73/73
f 71/71/71 72/72/72 74/74/74
f 71/71/71 74/74/74 73/73/73
f 72/72/72 75/75/75 74/74/74
f 73/73/73 74/74/74 76/76/76
f 74/74/74 75/75/75 77/77/77
f 74/74/74 77/77/77 76/76/76
f 75/75/75 78/78/78 77/77/77
f 76/76/76 77/77/77 79/79/79
f 77/77/77 78/78/78 80/80/80
f 77/77/77 80/80/80 79/79/79
f 78/78/78 81/81/81 80/80/80
f 79/79/79 80/80/80 82/82/82
f 80/80/80 81/81/81 83/83/83
f 80/80/80 83/83/83 82/82/82
f 81/81/81 84/84/84 83/83/83
f 82/82/82 83/83/83 85/85/85
f 83/83/83 84/84/84 86/86/86
f 83/83/83 86/86/86 85/85/85
f 84/84/84 87/87/87 86/86/86
f 85/85/85 89/89/89 88/88/88
f 90/90/90 85/85/85 88/88/88
f 89/89/89 87/87/87 91/91/91
f 88/88/88 89/89/89 91/91/91
f 90/90/90 88/88/88 92/92/92
f 93/93/93 90/90/90 92/92/92
f 92/92/92 88/88/88 94/94/94
f 88/88/88 91/91/91 94/94/94
f 94/94/94 91/91/91 95/95/95
f 91/91/91 87/87/87 96/96/96
f 91/91/91 96/96/96 95/95/95
f 87/87/87 97/97/97 96/96/96
f 95/95/95 96/96/96 98/98/98
f 96/96/96 97/97/97 99/99/99
f 96/96/96 99/99/99 98/98/98
f 97/97/97 100/100/100 99/99/99
f 98/98/98 99/99/99 101/101/101
f 99/99/99 100/100/100 102/102/102
f 99/99/99 102/102/102 101/101/101
f 100/100/100 103/103/103 102/102/102
f 101/101/101 102/102/102 104/104/104
f 102/102/102 103/103/103 105/105/105
f 102/102/102 105/105/105 104/104/104
f 103/103/103 106/106/106 105/105/105
f 104/104/104 105/105/105 107/107/107
f 105/105/105 106/106/106 108/108/108
f 105/105/105 108/108/108 107/107/107
f 107/107/107 108/108/108 16/16/16
f 106/106/106 109/109/109 108/108/108
f 108/108/108 110/110/110 16/16/16
f 108/108/108 109/109/109 110/110/110
f 109/109/109 20/20/20 110/110/110
f 113/113/113 112/112/112 111/111/111
f 112/112/112 114/114/114 111/111/111
f 114/114/114 112/112/112 115/115/115
f 116/116/116 114/114/114 115/115/115
f 115/115/115 112/112/112 117/117/117
f 112/112/112 118/118/118 117/117/117
f 121/121/121 120/120/120 119/119/119
f 120/120/120 122/122/122 119/119/119
f 122/122/122 120/120/120 123/123/123
f 124/124/124 122/122/122 123/123/123
f 123/123/123 120/120/120 125/125/125
f 120/120/120 126/126/126 125/125/125
f 129/129/129 128/128/128 127/127/127
f 128/128/128 130/130/130 127/127/127
f 127/127/127 130/130/130 131/131/131
f 130/130/130 132/132/132 131/131/131
f 131/131/131 132/132/132 133/133/133
f 132/132/132 134/134/134 133/133/133
f 133/133/133 134/134/134 135/135/135
f 134/134/134 136/136/136 135/135/135
f 135/135/135 136/136/136 137/137/137
f 136/136/136 138/138/138 137/137/137
f 137/137/137 138/138/138 139/139/139
f 138/138/138 140/140/140 139/139/139
f 139/139/139 140/140/140 141/141/141
f 140/140/140 142/142/142 141/141/141
f 141/141/141 142/142/142 143/143/143
f 142/142/142 144/144/144 143/143/143
f 143/143/143 144/144/144 145/145/145
f 144/144/144 146/146/146 145/145/145
f 145/145/145 146/146/146 147/147/147
f 146/146/146 148/148/148 147/147/147
f 151/151/151 150/150/150 149/149/149
f 150/150/150 152/152/152 149/149/149
f 149/149/149 152/152/152 153/153/153
f 152/152/152 154/154/154 153/153/153
f 153/153/153 154/154/154 155/155/155
f 154/154/154 156/156/156 155/155/155
f 155/155/155 156/156/156 157/157/157
f 156/156/156 158/158/158 157/157/157
f 157/157/157 158/158/158 159/159/159
f 158/158/158 160/160/160 159/159/159
f 159/159/159 160/160/160 161/161/161
f 160/160/160 162/162/162 161/161/161
f 161/161/161 162/162/162 163/163/163
f 162/162/162 164/164/164 163/163/163
f 163/163/163 164/164/164 165/165/165
f 164/164/164 166/166/166 165/165/165
f 165/165/165 166/166/166 167/167/167
f 166/166/166 168/168/168 167/167/167
f 167/167/167 168/168/168 169/169/169
f 168/168/168 170/170/170 169/169/169
f 173/173/173 172/172/172 171/171/171
f 172/172/172 173/173/173 174/174/174
f 172/172/172 175/175/175 171/171/171
f 176/176/176 172/172/172 174/174/174
f 175/175/175 177/177/177 171/171/171
f 177/177/177 176/176/176 174/174/174
f 177/177/177 178/178/178 171/171/171
f 178/178/178 177/177/177 174/174/174
f 181/181/181 180/180/180 179/179/179
f 182/182/182 181/181/181 179/179/179
f 183/183/183 182/182/182 179/179/179
f 184/184/184 183/183/183 179/179/179
f 180/180/180 185/185/185 179/179/179
f 180/180/180 186/186/186 185/185/185
f 186/186/186 187/187/187 185/185/185
f 188/188/188 184/184/184 179/179/179
f 185/185/185 187/187/187 189/189/189
f 190/190/190 184/184/184 188/188/188
f 191/191/191 190/190/190 188/188/188
f 192/192/192 191/191/191 188/188/188
f 189/189/189 192/192/192 188/188/188
f 187/187/187 193/193/193 189/189/189
f 194/194/194 192/192/192 189/189/189
f 193/193/193 194/194/194 189/189/189
f 197/197/197 196/196/196 195/195/195
f 195/195/195 196/196/196 198/198/198
f 199/199/199 197/197/197 195/195/195
f 196/196/196 200/200/200 198/198/198
f 201/201/201 197/197/197 199/199/199
f 198/198/198 200/200/200 202/202/202
f 202/202/202 201/201/201 199/199/199
f 200/200/200 201/201/201 202/202/202
