g my_newyearpath_tile
v 0.3 -0.3000001 -3.814697E-08
v 0.2999999 -0.9000003 -7.629394E-08
v -0.3 -0.9000002 -1.049042E-07
v -0.2999999 -0.3000001 -4.768371E-08
v 0.3000001 0.3 0
v -0.8999999 -0.9000002 -1.335144E-07
v -0.2999999 0.3000001 9.536743E-09
v -0.8999999 -0.3 -5.722046E-08
v -0.8999999 0.3000001 1.907349E-08
v -0.3 -0.9000002 -1.049042E-07
v 0.2999999 -0.9000003 -7.629394E-08
v 0.2999999 -0.9000003 -0.03344607
v -0.3 -0.9000003 -0.0334461
v -0.3 -0.9000002 -0.284347
v 0.2999999 -0.9000003 -0.2843469
v -0.8999999 0.3000001 1.907349E-08
v -0.8999999 -0.3 -5.722046E-08
v -0.8999999 -0.3 -0.03344607
v -0.8999999 0.3000002 -0.03344601
v -0.8999999 -0.3 -0.2843469
v -0.8999999 0.3000001 -0.2843469
v -0.8999999 -0.3 -5.722046E-08
v -0.8999999 -0.9000002 -1.335144E-07
v -0.8999999 -0.9000002 -0.03344613
v -0.8999999 -0.3 -0.03344607
v -0.8999999 -0.9000002 -0.284347
v -0.8999999 -0.3 -0.2843469
v -0.8999999 -0.9000002 -1.335144E-07
v -0.3 -0.9000002 -1.049042E-07
v -0.3 -0.9000003 -0.0334461
v -0.8999999 -0.9000002 -0.03344613
v -0.8999999 -0.9000002 -0.284347
v -0.3 -0.9000002 -0.284347
vt 0.9839151 0.3586401
vt 0.983915 0.01009501
vt 0.6353699 0.01009509
vt 0.6353699 0.3586402
vt 0.9839152 0.7071853
vt 0.2868247 0.01009509
vt 0.63537 0.7071853
vt 0.2868247 0.3586402
vt 0.2868248 0.7071853
vt 0.2728045 0.4893747
vt 0.2728045 0.01035407
vt 0.2562456 0.01035404
vt 0.2562454 0.4893747
vt 0.008081346 0.4893747
vt 0.008081517 0.0103539
vt 0.2728046 0.9917063
vt 0.2728045 0.5154612
vt 0.2562454 0.5154611
vt 0.2562454 0.9917064
vt 0.008081346 0.5154611
vt 0.00808162 0.9917064
vt 0.2728046 0.9917063
vt 0.2728045 0.5154612
vt 0.2562454 0.5154611
vt 0.2562454 0.9917064
vt 0.008081346 0.5154611
vt 0.00808162 0.9917064
vt 0.2728045 0.4893747
vt 0.2728045 0.01035407
vt 0.2562456 0.01035404
vt 0.2562454 0.4893747
vt 0.008081346 0.4893747
vt 0.008081517 0.0103539
vn 0 0 1
vn 0 0 1
vn 0 0 1
vn 0 0 1
vn 0 0.0001907349 1
vn 0 -1.11262E-07 1
vn 0 0 1
vn 0 -1.11262E-07 1
vn 0 -1.11262E-07 1
vn -1.907351E-07 -1 3.421662E-06
vn -1.907351E-07 -1 3.421662E-06
vn -1.907351E-07 -1 3.421662E-06
vn -1.907351E-07 -1 3.421662E-06
vn -1.271566E-07 -1 -3.040801E-07
vn -1.271566E-07 -1 -3.0408E-07
vn -1 0 1.140553E-06
vn -1 0 1.140553E-06
vn -1 0 1.140553E-06
vn -1 0 1.140553E-06
vn -1 0 0
vn -1 0 0
vn -1 0 0
vn -1 0 0
vn -1 0 0
vn -1 0 0
vn -1 0 0
vn -1 0 0
vn 0 -1 3.421662E-06
vn 0 -1 3.421662E-06
vn 0 -1 3.421662E-06
vn 0 -1 3.421662E-06
vn -1.271566E-07 -1 -3.040801E-07
vn -1.271566E-07 -1 -3.040801E-07
g my_newyearpath_tile_0
f 3/3/3 2/2/2 1/1/1
f 4/4/4 3/3/3 1/1/1
f 4/4/4 1/1/1 5/5/5
f 6/6/6 3/3/3 4/4/4
f 7/7/7 4/4/4 5/5/5
f 8/8/8 6/6/6 4/4/4
f 8/8/8 4/4/4 7/7/7
f 9/9/9 8/8/8 7/7/7
f 12/12/12 11/11/11 10/10/10
f 13/13/13 12/12/12 10/10/10
f 12/12/12 13/13/13 14/14/14
f 15/15/15 12/12/12 14/14/14
f 18/18/18 17/17/17 16/16/16
f 19/19/19 18/18/18 16/16/16
f 18/18/18 19/19/19 20/20/20
f 19/19/19 21/21/21 20/20/20
f 24/24/24 23/23/23 22/22/22
f 25/25/25 24/24/24 22/22/22
f 24/24/24 25/25/25 26/26/26
f 25/25/25 27/27/27 26/26/26
f 30/30/30 29/29/29 28/28/28
f 31/31/31 30/30/30 28/28/28
f 30/30/30 31/31/31 32/32/32
f 33/33/33 30/30/30 32/32/32
