g my_poolparty_01_b_tile
v -0.3000001 -0.3 4.927891E-08
v -0.3000001 -0.3 -0.2843468
v -0.3000001 0 -0.2843468
v -0.3000001 0 4.927891E-08
v -0.3000001 0.3 4.927891E-08
v -0.3000001 0.3 -0.2843468
v 0 -0.3 4.927891E-08
v 0.3000001 -0.3 4.927891E-08
v 0.3000001 -0.3 -0.2843468
v 0 -0.3 -0.2843468
v -0.3000001 -0.3 4.927891E-08
v -0.3000001 -0.3 -0.2843468
v 0 -0.3 4.927891E-08
v -0.3000001 -0.3 4.927891E-08
v -0.3000001 0 4.927891E-08
v 0 0 1.637198E-07
v 0.3000001 0 1.637198E-07
v 0.3000001 -0.3 4.927891E-08
v 0 -0.3 4.927891E-08
v 0 0 1.637198E-07
v -0.3000001 0 4.927891E-08
v -0.3000001 0.3 4.927891E-08
v 0 0.3 1.637198E-07
v 0 0 1.637198E-07
v 0 0.3 1.637198E-07
v 0.3000001 0.3 1.637198E-07
v 0.3000001 0 1.637198E-07
v 0 0 1.637198E-07
vt 0.2845892 0.5233644
vt 0.005569709 0.5233641
vt 0.005569709 0.7540479
vt 0.2845892 0.7540482
vt 0.2845892 0.9847321
vt 0.005569709 0.9847316
vt 0.2845892 0.251852
vt 0.2845892 0.005067471
vt 0.005569709 0.005067927
vt 0.005569709 0.2518524
vt 0.2845892 0.4986365
vt 0.005569709 0.4986369
vt 0.6429784 0.3048627
vt 0.3060368 0.3048629
vt 0.3060367 0.6413409
vt 0.6405395 0.6413409
vt 0.3060367 0.6413409
vt 0.3060368 0.3048629
vt 0.6429784 0.3048627
vt 0.6405395 0.6413409
vt 0.3060367 0.6413409
vt 0.3060368 0.3048629
vt 0.6429784 0.3048627
vt 0.6405395 0.6413409
vt 0.6429784 0.3048627
vt 0.3060368 0.3048629
vt 0.3060367 0.6413409
vt 0.6405395 0.6413409
vn -1 0 0
vn -1 0 0
vn -1 0 0
vn -1 0 0
vn -1 0 0
vn -1 0 0
vn 0 -1 0
vn 0 -1 0
vn 0 -1 0
vn 0 -1 0
vn 0 -1 0
vn 0 -1 0
vn -1.907348E-07 -1.907348E-07 1
vn -1.907348E-07 -1.907348E-07 1
vn -1.907348E-07 -1.907348E-07 1
vn -1.907348E-07 -1.907348E-07 1
vn 0 -3.814697E-07 1
vn 0 -3.814697E-07 1
vn 0 -3.814697E-07 1
vn 0 -3.814697E-07 1
vn -3.814696E-07 0 1
vn -3.814696E-07 0 1
vn -3.814696E-07 0 1
vn -3.814696E-07 0 1
vn 0 0 1
vn 0 0 1
vn 0 0 1
vn 0 0 1
g my_poolparty_01_b_tile_0
f 3/3/3 2/2/2 1/1/1
f 4/4/4 3/3/3 1/1/1
f 3/3/3 4/4/4 5/5/5
f 6/6/6 3/3/3 5/5/5
f 9/9/9 8/8/8 7/7/7
f 10/10/10 9/9/9 7/7/7
f 10/10/10 7/7/7 11/11/11
f 12/12/12 10/10/10 11/11/11
f 15/15/15 14/14/14 13/13/13
f 16/16/16 15/15/15 13/13/13
f 19/19/19 18/18/18 17/17/17
f 20/20/20 19/19/19 17/17/17
f 23/23/23 22/22/22 21/21/21
f 24/24/24 23/23/23 21/21/21
f 27/27/27 26/26/26 25/25/25
f 28/28/28 27/27/27 25/25/25
