g my_seahouse_01_tile
v -0.3 -0.3 -0.000127449
v -0.3 0.3 -0.000127449
v 0.3 0.3 -0.000127449
v 0.3 -0.3 -0.000127449
v 0.3 -0.3 -0.2851274
v -0.3 -0.3 -0.2851274
v -0.3 -0.3 -0.03618946
v 0.3 -0.3 -0.03618946
v 0.3 -0.3 -0.000127449
v -0.3 -0.3 -0.000127449
v -0.3 -0.3 -0.2851274
v -0.3 0.3 -0.2851274
v -0.3 0.3 -0.03618946
v -0.3 -0.3 -0.03618946
v -0.3 -0.3 -0.000127449
v -0.3 0.3 -0.000127449
vt 0.9864726 0.04286905
vt 0.07176296 0.04286953
vt 0.0717634 0.9575792
vt 0.986473 0.9575784
vt 0.008224555 0.007356244
vt 0.008224524 0.4988995
vt 0.04455053 0.4988995
vt 0.04455058 0.007356321
vt 0.06428318 0.007356363
vt 0.06428312 0.4988995
vt 0.008224524 0.5017855
vt 0.008224533 0.9933288
vt 0.04455056 0.9933289
vt 0.04455053 0.5017855
vt 0.06428312 0.5017855
vt 0.06428316 0.993329
vn 0 0 1
vn 0 0 1
vn 0 0 1
vn 0 0 1
vn 0 -1 0
vn 0 -1 0
vn 0 -1 0
vn 0 -1 0
vn 0 -1 0
vn 0 -1 0
vn -1 0 0
vn -1 0 0
vn -1 0 0
vn -1 0 0
vn -1 0 0
vn -1 0 0
g my_seahouse_01_tile_0
f 3/3/3 2/2/2 1/1/1
f 4/4/4 3/3/3 1/1/1
f 7/7/7 6/6/6 5/5/5
f 8/8/8 7/7/7 5/5/5
f 7/7/7 8/8/8 9/9/9
f 10/10/10 7/7/7 9/9/9
f 13/13/13 12/12/12 11/11/11
f 14/14/14 13/13/13 11/11/11
f 13/13/13 14/14/14 15/15/15
f 16/16/16 13/13/13 15/15/15
