g my_ariussummer_01_tile_2x2
v -0.2999997 0.2999999 -9.536743E-09
v 0.3000003 0.2999998 -9.536743E-09
v 0.3000003 -0.3000001 -9.536743E-09
v -0.2999997 -0.3000001 -9.536743E-09
v -0.8999997 0.3 -9.536743E-09
v 0.3000003 -0.9000002 -9.536743E-09
v -0.8999997 -0.3 -9.536743E-09
v -0.2999997 -0.9 -9.536743E-09
v -0.8999997 -0.9 -9.536743E-09
v -0.8999997 0.3 -0.285
v -0.8999997 0.3 -9.536743E-09
v -0.8999997 -0.3 -9.536743E-09
v -0.8999997 -0.3 -0.285
v -0.8999997 -0.9 -9.536743E-09
v -0.8999997 -0.9 -0.285
v -0.2999997 -0.9 -0.285
v 0.3000003 -0.9000002 -9.536743E-09
v 0.3000003 -0.9000002 -0.285
v -0.2999997 -0.9 -9.536743E-09
v -0.8999997 -0.9 -0.285
v -0.8999997 -0.9 -9.536743E-09
vt 0.5113317 0.9975111
vt 0.9974977 0.997511
vt 0.9974977 0.5146227
vt 0.5113317 0.5146227
vt 0.02516594 0.9975111
vt 0.9974977 0.0317343
vt 0.02516594 0.5146228
vt 0.5113317 0.03173435
vt 0.02516594 0.03173441
vt 0.02431347 0.01195726
vt 0.9897552 0.01195726
vt 0.9897552 0.01195662
vt 0.02431347 0.01195662
vt 0.9897552 0.01195599
vt 0.02431347 0.01195599
vt 0.01075983 0.02619454
vt 0.01199937 0.9916362
vt 0.01199937 0.02619454
vt 0.01075989 0.9916362
vt 0.009520352 0.02619454
vt 0.009520352 0.9916362
vn 0 0 1
vn 0 0 1
vn 0 0 1
vn 0 0 1
vn 0 0 1
vn 0 0 1
vn 0 0 1
vn 0 0 1
vn 0 0 1
vn -1 0 0
vn -1 0 0
vn -1 0 0
vn -1 0 0
vn -1 0 0
vn -1 0 0
vn -1.271566E-07 -1 0
vn -1.271566E-07 -1 0
vn -1.271566E-07 -1 0
vn -1.271566E-07 -1 0
vn -1.271566E-07 -1 0
vn -1.271566E-07 -1 0
g my_ariussummer_01_tile_2x2_0
f 3/3/3 2/2/2 1/1/1
f 4/4/4 3/3/3 1/1/1
f 4/4/4 1/1/1 5/5/5
f 6/6/6 3/3/3 4/4/4
f 7/7/7 4/4/4 5/5/5
f 8/8/8 6/6/6 4/4/4
f 8/8/8 4/4/4 7/7/7
f 9/9/9 8/8/8 7/7/7
f 12/12/12 11/11/11 10/10/10
f 13/13/13 12/12/12 10/10/10
f 14/14/14 12/12/12 13/13/13
f 15/15/15 14/14/14 13/13/13
f 18/18/18 17/17/17 16/16/16
f 17/17/17 19/19/19 16/16/16
f 16/16/16 19/19/19 20/20/20
f 19/19/19 21/21/21 20/20/20
