g my_autumnsports_01_tile
v -0.3 -0.3 -1.907349E-08
v -0.3 0.3 -1.907349E-08
v 0.3 0.3 -1.907349E-08
v 0.3 -0.3 -1.907349E-08
v 0.3 -0.3 -0.285
v -0.3 -0.3 -0.285
v -0.3 -0.3 -0.03606203
v 0.3 -0.3 -0.03606203
v -0.3 -0.3 -0.285
v -0.3 0.3 -0.285
v -0.3 0.3 -0.03606203
v -0.3 -0.3 -0.03606203
v 0.3 -0.3 -1.907349E-08
v 0.3 -0.3 -0.03606203
v -0.3 -0.3 -0.03606203
v -0.3 -0.3 -1.907349E-08
v -0.3 -0.3 -1.907349E-08
v -0.3 -0.3 -0.03606203
v -0.3 0.3 -0.03606203
v -0.3 0.3 -1.907349E-08
vt 0.9344663 0.09251477
vt 0.05958318 0.09251945
vt 0.0595911 0.9674029
vt 0.9344711 0.9673951
vt 0.008224555 0.01106011
vt 0.008224524 0.4894268
vt 0.04455053 0.4894268
vt 0.04455058 0.01106018
vt 0.008224524 0.5065025
vt 0.008224533 0.9848692
vt 0.04455056 0.9848694
vt 0.04455053 0.5065025
vt 0.9344711 0.9673951
vt 0.9870525 0.9673946
vt 0.9870525 0.092513
vt 0.9344663 0.09251477
vt 0.9344663 0.09251477
vt 0.9344645 0.03993435
vt 0.05958286 0.03993435
vt 0.05958318 0.09251945
vn 0 0 1
vn 0 0 1
vn 0 0 1
vn 0 0 1
vn 0 -1 0
vn 0 -1 0
vn 0 -1 0
vn 0 -1 0
vn -1 0 0
vn -1 0 0
vn -1 0 0
vn -1 0 0
vn 0 -1 0
vn 0 -1 0
vn 0 -1 0
vn 0 -1 0
vn -1 0 0
vn -1 0 0
vn -1 0 0
vn -1 0 0
g my_autumnsports_01_tile_0
f 3/3/3 2/2/2 1/1/1
f 4/4/4 3/3/3 1/1/1
f 7/7/7 6/6/6 5/5/5
f 8/8/8 7/7/7 5/5/5
f 11/11/11 10/10/10 9/9/9
f 12/12/12 11/11/11 9/9/9
f 15/15/15 14/14/14 13/13/13
f 16/16/16 15/15/15 13/13/13
f 19/19/19 18/18/18 17/17/17
f 20/20/20 19/19/19 17/17/17
