g my_chocolatecafe_01_p_tile_02
v -0.3000001 -0.3 -6.516201E-08
v -0.3000001 -0.3 -0.2843468
v -0.3000001 0.3 -0.2843468
v -0.3000001 0.3 -6.516201E-08
v -0.3000001 -0.3 -6.516201E-08
v -0.3000001 0.3 -6.516201E-08
v 0.3000001 0.3 -6.516201E-08
v 0.3000001 -0.3 -6.516201E-08
v -0.3000001 -0.3 -6.516201E-08
v 0.3000001 -0.3 -6.516201E-08
v 0.3000001 -0.3 -0.2843468
v -0.3000001 -0.3 -0.2843468
vt 0.2845001 0.4988302
vt 0.005480816 0.4988298
vt 0.005480038 0.9923986
vt 0.2844998 0.992399
vt 0.5029169 0.002092591
vt 0.5029167 0.5003455
vt 0.9961335 0.5003455
vt 0.9961335 0.002092358
vt 0.2846786 0.4986365
vt 0.2846784 0.005067471
vt 0.005658554 0.005067927
vt 0.00565936 0.4986369
vn -1 0 0
vn -1 0 0
vn -1 0 0
vn -1 0 0
vn 0 0 1
vn 0 0 1
vn 0 0 1
vn 0 0 1
vn 0 -1 0
vn 0 -1 0
vn 0 -1 0
vn 0 -1 0
g my_chocolatecafe_01_p_tile_02_0
f 3/3/3 2/2/2 1/1/1
f 4/4/4 3/3/3 1/1/1
f 7/7/7 6/6/6 5/5/5
f 8/8/8 7/7/7 5/5/5
f 11/11/11 10/10/10 9/9/9
f 12/12/12 11/11/11 9/9/9
