g my_gamedevdept_01_tile_2x2
v -0.9000003 0.2999998 3.814697E-08
v -0.3000003 0.2999998 3.814697E-08
v -0.3000003 -0.3000001 3.814697E-08
v -0.9000003 -0.3 3.814697E-08
v -0.9000003 -0.3 -0.285
v -0.9000003 0.2999998 -0.285
v -0.9000003 0.2999998 -0.0588525
v -0.9000003 -0.3 -0.0588525
v -0.9000003 -0.3 3.814697E-08
v -0.9000003 -0.3 -0.0588525
v -0.9000003 0.2999998 -0.0588525
v -0.9000003 0.2999998 3.814697E-08
v -0.9000003 -0.3 3.814697E-08
v -0.3000003 -0.3000001 3.814697E-08
v -0.3000003 -0.8999999 3.814697E-08
v -0.9000003 -0.8999997 3.814697E-08
v -0.9000003 -0.8999997 -0.285
v -0.9000003 -0.3 -0.285
v -0.9000003 -0.3 -0.0588525
v -0.9000003 -0.8999997 -0.0588525
v -0.3000003 -0.8999999 -0.285
v -0.9000003 -0.8999997 -0.285
v -0.9000003 -0.8999997 -0.0588525
v -0.3000003 -0.8999999 -0.0588525
v -0.9000003 -0.8999997 3.814697E-08
v -0.9000003 -0.8999997 -0.0588525
v -0.9000003 -0.3 -0.0588525
v -0.9000003 -0.3 3.814697E-08
v -0.3000003 -0.8999999 3.814697E-08
v -0.3000003 -0.8999999 -0.0588525
v -0.9000003 -0.8999997 -0.0588525
v -0.9000003 -0.8999997 3.814697E-08
v -0.3000003 -0.3000001 3.814697E-08
v 0.2999997 -0.3000001 3.814697E-08
v 0.2999997 -0.9 3.814697E-08
v -0.3000003 -0.8999999 3.814697E-08
v 0.2999997 -0.9 -0.285
v -0.3000003 -0.8999999 -0.285
v -0.3000003 -0.8999999 -0.0588525
v 0.2999997 -0.9 -0.0588525
v 0.2999997 -0.9 3.814697E-08
v 0.2999997 -0.9 -0.0588525
v -0.3000003 -0.8999999 -0.0588525
v -0.3000003 -0.8999999 3.814697E-08
v -0.3000003 0.2999998 3.814697E-08
v 0.2999995 0.2999997 3.814697E-08
v 0.2999997 -0.3000001 3.814697E-08
v -0.3000003 -0.3000001 3.814697E-08
vt 0.01108422 0.9905365
vt 0.4920563 0.9905363
vt 0.4920563 0.5095644
vt 0.01108395 0.5095644
vt 0.5128177 0.5094678
vt 0.5128177 0.987819
vt 0.6931145 0.987819
vt 0.6931146 0.5094678
vt 0.7670868 0.5062113
vt 0.7201671 0.5062113
vt 0.7201671 0.9845614
vt 0.7670868 0.9845614
vt 0.01108434 0.4937425
vt 0.4920563 0.4937422
vt 0.4920563 0.01277003
vt 0.01108404 0.01277028
vt 0.5128177 0.5094692
vt 0.5128177 0.9878201
vt 0.6931146 0.9878201
vt 0.6931145 0.5094692
vt 0.5128177 0.01091993
vt 0.5128177 0.4892708
vt 0.6931145 0.4892709
vt 0.6931145 0.01091996
vt 0.767087 0.01085928
vt 0.7201673 0.01085925
vt 0.7201671 0.4892099
vt 0.7670868 0.4892099
vt 0.8353395 0.4879987
vt 0.7884198 0.4879987
vt 0.7884198 0.009648056
vt 0.8353395 0.009648056
vt 0.01108423 0.9905365
vt 0.4920561 0.9905362
vt 0.4920561 0.5095641
vt 0.01108393 0.5095643
vt 0.5128177 0.01092071
vt 0.5128177 0.4892714
vt 0.6931145 0.4892714
vt 0.6931145 0.01092074
vt 0.8353395 0.9833491
vt 0.7884198 0.9833491
vt 0.7884198 0.504999
vt 0.8353395 0.504999
vt 0.01108432 0.4937425
vt 0.4920564 0.4937423
vt 0.4920564 0.01277041
vt 0.01108408 0.01277041
vn 0 0 1
vn 0 0 1
vn 0 0 1
vn 0 0 1
vn -1 0 0
vn -1 0 0
vn -1 0 0
vn -1 0 0
vn -1 0 0
vn -1 0 0
vn -1 0 0
vn -1 0 0
vn 0 0 1
vn 0 0 1
vn 0 0 1
vn 0 0 1
vn -1 0 0
vn -1 0 0
vn -1 0 0
vn -1 0 0
vn -2.543132E-07 -1 0
vn -2.543132E-07 -1 0
vn -2.543132E-07 -1 0
vn -2.543132E-07 -1 0
vn -1 0 0
vn -1 0 0
vn -1 0 0
vn -1 0 0
vn -2.543132E-07 -1 0
vn -2.543132E-07 -1 0
vn -2.543132E-07 -1 0
vn -2.543132E-07 -1 0
vn 0 0 1
vn 0 0 1
vn 0 0 1
vn 0 0 1
vn -2.543132E-07 -1 0
vn -2.543132E-07 -1 0
vn -2.543132E-07 -1 0
vn -2.543132E-07 -1 0
vn -2.543132E-07 -1 0
vn -2.543132E-07 -1 0
vn -2.543132E-07 -1 0
vn -2.543132E-07 -1 0
vn 0 0 1
vn 0 0 1
vn 0 0 1
vn 0 0 1
g my_gamedevdept_01_tile_2x2_0
f 3/3/3 2/2/2 1/1/1
f 4/4/4 3/3/3 1/1/1
f 7/7/7 6/6/6 5/5/5
f 8/8/8 7/7/7 5/5/5
f 11/11/11 10/10/10 9/9/9
f 12/12/12 11/11/11 9/9/9
f 15/15/15 14/14/14 13/13/13
f 16/16/16 15/15/15 13/13/13
f 19/19/19 18/18/18 17/17/17
f 20/20/20 19/19/19 17/17/17
f 23/23/23 22/22/22 21/21/21
f 24/24/24 23/23/23 21/21/21
f 27/27/27 26/26/26 25/25/25
f 28/28/28 27/27/27 25/25/25
f 31/31/31 30/30/30 29/29/29
f 32/32/32 31/31/31 29/29/29
f 35/35/35 34/34/34 33/33/33
f 36/36/36 35/35/35 33/33/33
f 39/39/39 38/38/38 37/37/37
f 40/40/40 39/39/39 37/37/37
f 43/43/43 42/42/42 41/41/41
f 44/44/44 43/43/43 41/41/41
f 47/47/47 46/46/46 45/45/45
f 48/48/48 47/47/47 45/45/45
