g my_gamedevdept_01_floortile_01
v -0.2916441 -0.5916423 0.001999964
v -0.2916441 0.5916448 0.001999964
v 0.2916437 0.5916447 0.001999964
v 0.2916437 -0.5916424 0.001999964
v -0.3000001 0.600001 0.001999964
v -0.2916441 -0.5916423 0.001999964
v -0.3000001 -0.5999985 0.001999964
v -0.2916441 0.5916448 0.001999964
v 0.2999998 0.600001 0.001999964
v 0.2916437 0.5916447 0.001999964
v -0.3000001 -0.5999985 0.001999964
v -0.2916441 -0.5916423 0.001999964
v 0.2916437 -0.5916424 0.001999964
v 0.2999998 -0.5999986 0.001999964
v 0.2916437 0.5916447 0.001999964
v 0.2999998 0.600001 0.001999964
vt 0.02084634 0.02171768
vt 0.02084634 0.9782831
vt 0.5092976 0.978283
vt 0.5092976 0.0217175
vt 0.7021669 0.02566445
vt 0.9832886 0.9762965
vt 0.9832885 0.02566433
vt 0.702167 0.9762965
vt 0.5376207 0.02566445
vt 0.5376208 0.9762966
vt 0.5376207 0.02564788
vt 0.5376208 0.9762843
vt 0.702167 0.9762842
vt 0.7021669 0.02564788
vt 0.9832886 0.9762841
vt 0.9832885 0.02564788
vn 0 0 1
vn 0 0 1
vn 0 0 1
vn 0 0 1
vn 0 0 1
vn 0 0 1
vn 0 0 1
vn 0 0 1
vn 0 0 1
vn 0 0 1
vn 0 0 1
vn 0 0 1
vn 0 0 1
vn 0 0 1
vn 0 0 1
vn 0 0 1
g my_gamedevdept_01_floortile_01_0
f 3/3/3 2/2/2 1/1/1
f 4/4/4 3/3/3 1/1/1
f 7/7/7 6/6/6 5/5/5
f 6/6/6 8/8/8 5/5/5
f 5/5/5 8/8/8 9/9/9
f 8/8/8 10/10/10 9/9/9
f 13/13/13 12/12/12 11/11/11
f 14/14/14 13/13/13 11/11/11
f 15/15/15 13/13/13 14/14/14
f 16/16/16 15/15/15 14/14/14
