g my_hotsprings_01_tile
v 0.2999999 -0.9000002 -6.67572E-08
v 0.2999999 -0.9000002 -0.2843468
v 0.2537624 -0.9000002 -0.2843469
v 0.2537624 -0.9000002 -6.67572E-08
v -0.3 -0.9 -8.583068E-08
v -0.3 -0.9 -0.2843469
v 0.2999999 -0.8546265 -6.67572E-08
v 0.2999999 -0.9000002 -6.67572E-08
v 0.2537624 -0.9000002 -6.67572E-08
v 0.2537624 -0.8546265 -6.67572E-08
v 0.3 -0.2999999 -5.722046E-08
v 0.2537625 -0.2999999 -5.722046E-08
v -0.3 -0.8546264 -8.583068E-08
v -0.3 -0.9 -8.583068E-08
v -0.2999999 -0.2999998 -7.152557E-08
v 0.2537625 -0.2999999 -5.722046E-08
v 0.2999999 -0.8546265 -6.67572E-08
v 0.3 -0.2999999 -5.722046E-08
v 0.3 -0.2999999 -0.2843468
v 0.2999999 -0.8546265 -0.2843469
v 0.2999999 -0.9000002 -6.67572E-08
v 0.2999999 -0.9000002 -0.2843468
v -0.8537625 -0.8999999 -0.2843469
v -0.9 -0.8999999 -0.2843469
v -0.9 -0.8999999 -1.049042E-07
v -0.8537625 -0.8999999 -1.049042E-07
v -0.3 -0.9 -8.583068E-08
v -0.3 -0.9 -0.2843469
v -0.8537625 -0.8999999 -1.049042E-07
v -0.9 -0.8999999 -1.049042E-07
v -0.9 -0.8546263 -1.049042E-07
v -0.8537625 -0.8546263 -1.049042E-07
v -0.8999999 -0.2999998 -8.583068E-08
v -0.8537623 -0.2999998 -8.583068E-08
v -0.3 -0.8546264 -8.583068E-08
v -0.3 -0.9 -8.583068E-08
v -0.2999999 -0.2999998 -7.152557E-08
v -0.8537623 -0.2999998 -8.583068E-08
v -0.8999999 -0.2999998 -0.2843469
v -0.8999999 -0.2999998 -8.583068E-08
v -0.9 -0.8546263 -1.049042E-07
v -0.9 -0.8546263 -0.2843469
v -0.9 -0.8999999 -1.049042E-07
v -0.9 -0.8999999 -0.2843469
v 0.2537625 0.3000003 -0.2843468
v 0.3 0.3000003 -0.2843468
v 0.3 0.3000003 -4.768371E-08
v 0.2537625 0.3000003 -4.768371E-08
v -0.2999998 0.3000003 -5.722046E-08
v -0.2999998 0.3000003 -0.2843468
v 0.2537625 0.3000003 -4.768371E-08
v 0.3 0.3000003 -4.768371E-08
v 0.3000001 0.2546267 -4.768371E-08
v 0.2537626 0.2546267 -4.768371E-08
v 0.3 -0.2999999 -5.722046E-08
v 0.2537625 -0.2999999 -5.722046E-08
v -0.2999998 0.2546267 -5.722046E-08
v -0.2999998 0.3000003 -5.722046E-08
v -0.2999999 -0.2999998 -7.152557E-08
v 0.2537625 -0.2999999 -5.722046E-08
v 0.3 -0.2999999 -0.2843468
v 0.3 -0.2999999 -5.722046E-08
v 0.3000001 0.2546267 -4.768371E-08
v 0.3000001 0.2546267 -0.2843468
v 0.3 0.3000003 -4.768371E-08
v 0.3 0.3000003 -0.2843468
v -0.8999996 0.3000004 -6.67572E-08
v -0.8999996 0.3000004 -0.2843468
v -0.8537621 0.3000004 -0.2843469
v -0.8537621 0.3000004 -6.67572E-08
v -0.2999998 0.3000003 -5.722046E-08
v -0.2999998 0.3000003 -0.2843468
v -0.8999996 0.2546268 -6.67572E-08
v -0.8999996 0.3000004 -6.67572E-08
v -0.8537621 0.3000004 -6.67572E-08
v -0.8537621 0.2546268 -6.67572E-08
v -0.8999999 -0.2999998 -8.583068E-08
v -0.8537623 -0.2999998 -8.583068E-08
v -0.2999998 0.2546267 -5.722046E-08
v -0.2999998 0.3000003 -5.722046E-08
v -0.2999999 -0.2999998 -7.152557E-08
v -0.8537623 -0.2999998 -8.583068E-08
v -0.8999996 0.2546268 -6.67572E-08
v -0.8999999 -0.2999998 -8.583068E-08
v -0.8999999 -0.2999998 -0.2843469
v -0.8999996 0.2546268 -0.2843469
v -0.8999996 0.3000004 -6.67572E-08
v -0.8999996 0.3000004 -0.2843468
vt 0.3224492 0.3367722
vt 0.01405526 0.3367722
vt 0.01405521 0.3869199
vt 0.3224492 0.3869199
vt 0.3224488 0.987514
vt 0.0140548 0.987514
vt 0.3885768 0.3367722
vt 0.339366 0.3367722
vt 0.339366 0.3869199
vt 0.3885768 0.3869199
vt 0.9901082 0.3367722
vt 0.9901082 0.3869199
vt 0.3885768 0.987514
vt 0.339366 0.987514
vt 0.9957575 0.9875837
vt 0.9957575 0.3866929
vt 0.3885768 0.3221096
vt 0.9901082 0.3221096
vt 0.9901082 0.01371564
vt 0.3885768 0.01371559
vt 0.339366 0.3221096
vt 0.339366 0.01371564
vt 0.01405521 0.3869199
vt 0.01405526 0.3367722
vt 0.3224492 0.3367722
vt 0.3224492 0.3869199
vt 0.3224488 0.987514
vt 0.0140548 0.987514
vt 0.339366 0.3869199
vt 0.339366 0.3367722
vt 0.3885768 0.3367722
vt 0.3885768 0.3869199
vt 0.9901082 0.3367722
vt 0.9901082 0.3869199
vt 0.3885768 0.987514
vt 0.339366 0.987514
vt 0.9957575 0.9875837
vt 0.9957575 0.3866929
vt 0.9901082 0.01371564
vt 0.9901082 0.3221096
vt 0.3885768 0.3221096
vt 0.3885768 0.01371559
vt 0.339366 0.3221096
vt 0.339366 0.01371564
vt 0.01405521 0.3869199
vt 0.01405526 0.3367722
vt 0.3224492 0.3367722
vt 0.3224492 0.3869199
vt 0.3224488 0.987514
vt 0.0140548 0.987514
vt 0.339366 0.3869199
vt 0.339366 0.3367722
vt 0.3885768 0.3367722
vt 0.3885768 0.3869199
vt 0.9901082 0.3367722
vt 0.9901082 0.3869199
vt 0.3885768 0.987514
vt 0.339366 0.987514
vt 0.9957575 0.9875837
vt 0.9957575 0.3866929
vt 0.9901082 0.01371564
vt 0.9901082 0.3221096
vt 0.3885768 0.3221096
vt 0.3885768 0.01371559
vt 0.339366 0.3221096
vt 0.339366 0.01371564
vt 0.3224492 0.3367722
vt 0.01405526 0.3367722
vt 0.01405521 0.3869199
vt 0.3224492 0.3869199
vt 0.3224488 0.987514
vt 0.0140548 0.987514
vt 0.3885768 0.3367722
vt 0.339366 0.3367722
vt 0.339366 0.3869199
vt 0.3885768 0.3869199
vt 0.9901082 0.3367722
vt 0.9901082 0.3869199
vt 0.3885768 0.987514
vt 0.339366 0.987514
vt 0.9957575 0.9875837
vt 0.9957575 0.3866929
vt 0.3885768 0.3221096
vt 0.9901082 0.3221096
vt 0.9901082 0.01371564
vt 0.3885768 0.01371559
vt 0.339366 0.3221096
vt 0.339366 0.01371564
vn 0 -1 0
vn 0 -1 0
vn 0 -1 0
vn 0 -1 0
vn -4.133213E-07 -1 0
vn -4.133213E-07 -1 0
vn 0 0 1
vn 0 0 1
vn 0 0 1
vn 0 0 1
vn 0 0 1
vn 0 0 1
vn 0 0 1
vn 0 0 1
vn 0 0 1
vn 0 0 1
vn 1 -1.719489E-07 0
vn 1 -1.719489E-07 0
vn 1 -1.719489E-07 0
vn 1 -1.719489E-07 0
vn 1 0 0
vn 1 0 0
vn 0 -1 0
vn 0 -1 0
vn 0 -1 0
vn 0 -1 0
vn -1.377738E-07 -1 0
vn -1.377738E-07 -1 0
vn 0 0 1
vn 0 0 1
vn 0 0 1
vn 0 0 1
vn 0 0 1
vn 0 0 1
vn 0 0 1
vn 0 0 1
vn 0 0 1
vn 0 0 1
vn -1 2.751183E-07 0
vn -1 2.751183E-07 0
vn -1 2.751183E-07 0
vn -1 2.751183E-07 0
vn -1 0 0
vn -1 0 0
vn 0 1 0
vn 0 1 0
vn 0 1 0
vn 0 1 0
vn 0 1 0
vn 0 1 0
vn 0 0 1
vn 0 0 1
vn 0 0 1
vn 0 0 1
vn 0 0 1
vn 0 0 1
vn 0 0 1
vn 0 0 1
vn 0 0 1
vn 0 0 1
vn 1 -2.063387E-07 0
vn 1 -2.063387E-07 0
vn 1 -2.063387E-07 0
vn 1 -2.063387E-07 0
vn 1 1.681461E-06 0
vn 1 1.681461E-06 0
vn 0 1 0
vn 0 1 0
vn 0 1 0
vn 0 1 0
vn 1.033304E-07 1 0
vn 1.033304E-07 1 0
vn 0 0 1
vn 0 0 1
vn 0 0 1
vn 0 0 1
vn 0 0 1
vn 0 0 1
vn 0 0 1
vn 0 0 1
vn 0 0 1
vn 0 0 1
vn -1 4.126774E-07 0
vn -1 4.126774E-07 0
vn -1 4.126774E-07 0
vn -1 4.126774E-07 0
vn -1 0 0
vn -1 0 0
g my_hotsprings_01_tile_0
f 3/3/3 2/2/2 1/1/1
f 4/4/4 3/3/3 1/1/1
f 3/3/3 4/4/4 5/5/5
f 6/6/6 3/3/3 5/5/5
f 9/9/9 8/8/8 7/7/7
f 10/10/10 9/9/9 7/7/7
f 10/10/10 7/7/7 11/11/11
f 12/12/12 10/10/10 11/11/11
f 9/9/9 10/10/10 13/13/13
f 14/14/14 9/9/9 13/13/13
f 13/13/13 10/10/10 15/15/15
f 10/10/10 16/16/16 15/15/15
f 19/19/19 18/18/18 17/17/17
f 20/20/20 19/19/19 17/17/17
f 20/20/20 17/17/17 21/21/21
f 22/22/22 20/20/20 21/21/21
f 25/25/25 24/24/24 23/23/23
f 26/26/26 25/25/25 23/23/23
f 27/27/27 26/26/26 23/23/23
f 28/28/28 27/27/27 23/23/23
f 31/31/31 30/30/30 29/29/29
f 32/32/32 31/31/31 29/29/29
f 33/33/33 31/31/31 32/32/32
f 34/34/34 33/33/33 32/32/32
f 35/35/35 32/32/32 29/29/29
f 36/36/36 35/35/35 29/29/29
f 35/35/35 37/37/37 32/32/32
f 37/37/37 38/38/38 32/32/32
f 41/41/41 40/40/40 39/39/39
f 42/42/42 41/41/41 39/39/39
f 43/43/43 41/41/41 42/42/42
f 44/44/44 43/43/43 42/42/42
f 47/47/47 46/46/46 45/45/45
f 48/48/48 47/47/47 45/45/45
f 49/49/49 48/48/48 45/45/45
f 50/50/50 49/49/49 45/45/45
f 53/53/53 52/52/52 51/51/51
f 54/54/54 53/53/53 51/51/51
f 55/55/55 53/53/53 54/54/54
f 56/56/56 55/55/55 54/54/54
f 57/57/57 54/54/54 51/51/51
f 58/58/58 57/57/57 51/51/51
f 57/57/57 59/59/59 54/54/54
f 59/59/59 60/60/60 54/54/54
f 63/63/63 62/62/62 61/61/61
f 64/64/64 63/63/63 61/61/61
f 65/65/65 63/63/63 64/64/64
f 66/66/66 65/65/65 64/64/64
f 69/69/69 68/68/68 67/67/67
f 70/70/70 69/69/69 67/67/67
f 69/69/69 70/70/70 71/71/71
f 72/72/72 69/69/69 71/71/71
f 75/75/75 74/74/74 73/73/73
f 76/76/76 75/75/75 73/73/73
f 76/76/76 73/73/73 77/77/77
f 78/78/78 76/76/76 77/77/77
f 75/75/75 76/76/76 79/79/79
f 80/80/80 75/75/75 79/79/79
f 79/79/79 76/76/76 81/81/81
f 76/76/76 82/82/82 81/81/81
f 85/85/85 84/84/84 83/83/83
f 86/86/86 85/85/85 83/83/83
f 86/86/86 83/83/83 87/87/87
f 88/88/88 86/86/86 87/87/87
