g my_military_01_tile
v 0.3 -0.3000001 -3.337876E-07
v 0.3000003 -0.2999998 -0.03159477
v 0.2954088 -0.2989485 -0.03141492
v 0.3 -0.3000001 -0.09478258
v 0.2954088 -0.2989485 -0.03141492
v 0.2638168 -0.3000001 -0.09478262
v 0.268408 -0.2989485 -0.03141493
v 0.2638168 -0.3000001 -0.1895649
v 0.3 -0.3000001 -0.1895649
v 0.2638168 -0.3000001 -0.2843472
v 0.3 -0.3000001 -0.2843471
v 0.1599198 -0.3000001 -0.1895649
v 0.1599198 -0.3000001 -0.2843472
v 0.1599198 -0.3000001 -0.09478266
v 0.1599198 -0.3000001 -0.03159449
v 0.2638168 -0.3000001 -0.03159446
v 0.2638168 -0.3000001 -3.433244E-07
v 0.1599198 -0.3000001 -3.910065E-07
v -0.1822493 -0.3000001 -3.33786E-07
v -0.3000001 -0.3000001 -3.337876E-07
v -0.3 0.2999998 -4.768216E-08
v -0.1822492 0.3 -3.814697E-08
v 0.268408 -0.2989485 -0.03141493
v 0.2684081 0.3010516 -0.03141464
v 0.2954089 0.3010515 -0.03141464
v 0.2954088 -0.2989485 -0.03141492
v -0.3 0.3 -0.2843468
v -0.3000001 -0.3000001 -0.1895649
v -0.3000001 -0.3000001 -0.2843471
v -0.3 0.3 -0.1895646
v -0.3000001 -0.3000001 -0.09478258
v -0.3 0.3 -0.09478233
v -0.3000001 -0.3000001 -0.03159442
v -0.3 0.3 -0.03159413
v -0.3000001 -0.3000001 -3.337876E-07
v -0.3 0.2999998 -4.768216E-08
v -0.3000001 -0.3000001 -0.2843471
v -0.1822493 -0.3000001 -0.1895649
v -0.1822493 -0.3000001 -0.2843471
v -0.3000001 -0.3000001 -0.1895649
v -0.1822493 -0.3000001 -0.09478258
v -0.3000001 -0.3000001 -0.09478258
v -0.3000001 -0.3000001 -0.03159442
v -0.1822493 -0.3000001 -0.03159442
v -0.3000001 -0.3000001 -3.337876E-07
v -0.1822493 -0.3000001 -3.33786E-07
v 0.2638169 0.2999998 -4.768216E-08
v 0.2684081 0.3010516 -0.03141464
v 0.268408 -0.2989485 -0.03141493
v 0.2638168 -0.3000001 -3.433244E-07
v 0.3 -0.3000001 -3.337876E-07
v 0.2954088 -0.2989485 -0.03141492
v 0.2954089 0.3010515 -0.03141464
v 0.3000001 0.2999998 -4.768216E-08
v 0.268408 -0.2989485 -0.03141493
v 0.2638168 -0.3000001 -0.03159446
v 0.2638168 -0.3000001 -3.433244E-07
v 0.2638168 -0.3000001 -0.09478262
v 0.2638168 -0.3000001 -3.433244E-07
v 0.1599198 -0.3000001 -3.910065E-07
v 0.1599199 0.2999999 -9.536743E-08
v 0.2638169 0.2999998 -4.768216E-08
v -0.1771738 -0.2989485 -0.03141493
v -0.1771737 0.3010516 -0.03141464
v -0.1473247 0.3010516 -0.03141464
v -0.1473248 -0.2989485 -0.03141485
v -0.1822493 -0.3000001 -0.2843471
v -0.1422493 -0.3000001 -0.1895649
v -0.1422493 -0.3000001 -0.2843472
v -0.1822493 -0.3000001 -0.1895649
v -0.1422493 -0.3000001 -0.09478262
v -0.1822493 -0.3000001 -0.09478258
v -0.1473248 -0.2989485 -0.03141485
v -0.1771738 -0.2989485 -0.03141493
v -0.1822492 0.3 -3.814697E-08
v -0.1771737 0.3010516 -0.03141464
v -0.1771738 -0.2989485 -0.03141493
v -0.1822493 -0.3000001 -3.33786E-07
v -0.1422493 -0.3000001 -3.623962E-07
v -0.1473248 -0.2989485 -0.03141485
v -0.1473247 0.3010516 -0.03141464
v -0.1422492 0.3 -7.629394E-08
v -0.1422493 -0.3000001 -0.03159446
v -0.1473248 -0.2989485 -0.03141485
v -0.1422493 -0.3000001 -3.623962E-07
v -0.1422493 -0.3000001 -0.09478262
v -0.1822493 -0.3000001 -3.33786E-07
v -0.1771738 -0.2989485 -0.03141493
v -0.1822493 -0.3000001 -0.03159442
v -0.1822493 -0.3000001 -0.09478258
v 0.1249954 -0.2989485 -0.03141493
v 0.1249955 0.3010516 -0.03141464
v 0.1548445 0.3010516 -0.03141464
v 0.1548444 -0.2989485 -0.03141485
v 0.1199199 -0.3000001 -0.2843472
v 0.1599198 -0.3000001 -0.1895649
v 0.1599198 -0.3000001 -0.2843472
v 0.1199199 -0.3000001 -0.1895649
v 0.1599198 -0.3000001 -0.09478266
v 0.1199199 -0.3000001 -0.0947826
v 0.1548444 -0.2989485 -0.03141485
v 0.1249954 -0.2989485 -0.03141493
v 0.1199199 0.2999999 -3.814697E-08
v 0.1249955 0.3010516 -0.03141464
v 0.1249954 -0.2989485 -0.03141493
v 0.1199199 -0.3000001 -3.33786E-07
v 0.1599198 -0.3000001 -3.910065E-07
v 0.1548444 -0.2989485 -0.03141485
v 0.1548445 0.3010516 -0.03141464
v 0.1599199 0.2999999 -9.536743E-08
v 0.1599198 -0.3000001 -0.03159449
v 0.1548444 -0.2989485 -0.03141485
v 0.1599198 -0.3000001 -3.910065E-07
v 0.1599198 -0.3000001 -0.09478266
v 0.1199199 -0.3000001 -3.33786E-07
v 0.1249954 -0.2989485 -0.03141493
v 0.1199199 -0.3000001 -0.03159444
v 0.1199199 -0.3000001 -0.0947826
v 0.1199199 -0.3000001 -3.33786E-07
v 0.009057467 -0.3000001 -3.528595E-07
v 0.009057539 0.3 -5.722046E-08
v 0.1199199 0.2999999 -3.814697E-08
v -0.02586704 -0.2989485 -0.03141493
v -0.02586696 0.3010516 -0.03141464
v 0.003982046 0.3010516 -0.03141464
v 0.003981974 -0.2989485 -0.03141485
v 0.009057467 -0.3000001 -0.2843472
v 0.1199199 -0.3000001 -0.1895649
v 0.1199199 -0.3000001 -0.2843472
v 0.009057467 -0.3000001 -0.1895649
v -0.03094254 -0.3000001 -0.2843472
v 0.1199199 -0.3000001 -0.0947826
v -0.03094254 -0.3000001 -0.1895649
v 0.009057467 -0.3000001 -0.09478262
v 0.009057467 -0.3000001 -0.03159444
v 0.1199199 -0.3000001 -0.03159444
v 0.009057467 -0.3000001 -3.528595E-07
v 0.1199199 -0.3000001 -3.33786E-07
v -0.1422493 -0.3000001 -0.1895649
v -0.1422493 -0.3000001 -0.2843472
v -0.1422493 -0.3000001 -0.09478262
v -0.03094254 -0.3000001 -0.09478262
v 0.003981974 -0.2989485 -0.03141485
v -0.02586704 -0.2989485 -0.03141493
v -0.1422493 -0.3000001 -0.03159446
v -0.03094254 -0.3000001 -0.03159444
v -0.03094254 -0.3000001 -3.528595E-07
v -0.1422493 -0.3000001 -3.623962E-07
v -0.03094246 0.3 -5.722046E-08
v -0.02586696 0.3010516 -0.03141464
v -0.02586704 -0.2989485 -0.03141493
v -0.03094254 -0.3000001 -3.528595E-07
v 0.009057467 -0.3000001 -3.528595E-07
v 0.003981974 -0.2989485 -0.03141485
v 0.003982046 0.3010516 -0.03141464
v 0.009057539 0.3 -5.722046E-08
v 0.009057467 -0.3000001 -0.03159444
v 0.003981974 -0.2989485 -0.03141485
v 0.009057467 -0.3000001 -3.528595E-07
v 0.009057467 -0.3000001 -0.09478262
v -0.03094254 -0.3000001 -3.528595E-07
v -0.02586704 -0.2989485 -0.03141493
v -0.03094254 -0.3000001 -0.03159444
v -0.03094254 -0.3000001 -0.09478262
v -0.03094254 -0.3000001 -3.528595E-07
v -0.1422493 -0.3000001 -3.623962E-07
v -0.1422492 0.3 -7.629394E-08
v -0.03094246 0.3 -5.722046E-08
v 0.1092635 -0.2967144 -0.2785567
v 0.1092635 -0.2967145 -0.0257037
v 0.2700003 -0.4315889 -0.02570374
v 0.2700003 -0.4315887 -0.2785567
v 0.2355786 -0.2603245 -0.07216511
v 0.3507693 -0.4174055 -0.05754129
v 0.3176182 -0.4579864 -0.2323093
v 0.2024275 -0.3009054 -0.2469331
v -0.08482213 -0.259492 -0.1213378
v 0.08062629 -0.3660674 0.009245059
v 0.1431186 -0.457034 -0.1441752
v -0.02232982 -0.3504585 -0.274758
v -0.06802491 -0.2603245 -0.07216511
v 0.04716582 -0.4174055 -0.05754129
v 0.01401471 -0.4579863 -0.2323093
v -0.101176 -0.3009053 -0.2469331
v -0.04634469 -0.4303618 -0.302791
v -0.2120345 -0.2829157 -0.1813778
v -0.1090207 -0.3152996 -0.001469858
v 0.05666911 -0.4627456 -0.1228831
v -0.298597 -0.2886035 -0.2928459
v -0.298597 -0.2886037 -0.02191116
v -0.07943682 -0.4151359 -0.02191118
v -0.07943679 -0.4151357 -0.2928459
v -0.3257257 -0.2840389 -0.3219474
v -0.3257257 -0.284039 -0.08576244
v -0.2042441 -0.4288152 -0.08576248
v -0.204244 -0.4288152 -0.3219475
v -0.300062 -0.2604389 -0.009730091
v -0.3045625 -0.3597722 -0.2422107
v -0.4611136 -0.2302277 -0.2945313
v -0.4566131 -0.1308944 -0.06205067
v -0.4515194 -0.06797206 -0.1095084
v -0.3203387 -0.1524735 -0.005971886
v -0.2707897 -0.2245991 -0.1276158
v -0.4019705 -0.1400976 -0.2311523
v -0.4712386 0.04264649 -0.2915616
v -0.4712386 0.04264637 -0.02062692
v -0.2520784 -0.08388584 -0.02062694
v -0.2520784 -0.08388572 -0.2915617
v -0.4519034 0.2953218 -0.3132612
v -0.4519034 0.2953217 -0.06040822
v -0.2911666 0.1604474 -0.06040827
v -0.2911666 0.1604475 -0.3132612
v -0.42169 0.2250993 -0.3676114
v -0.42169 0.2250993 -0.1314264
v -0.3002083 0.08032291 -0.1314264
v -0.3002083 0.080323 -0.3676115
v -0.3780582 0.3628522 -0.153895
v -0.3354956 0.3013448 -0.01570773
v -0.3021216 0.1947469 -0.07343398
v -0.3446842 0.2562542 -0.2116212
v -0.2048788 -0.2891707 -0.2141227
v -0.07369807 -0.3736722 -0.1105862
v -0.02414916 -0.4457978 -0.2322301
v -0.1553299 -0.3612962 -0.3357666
vt 0.2782863 0.002593584
vt 0.2461049 0.002593584
vt 0.2461049 0.008068291
vt 0.1850591 0.002593584
vt 0.2461049 0.008068291
vt 0.1850591 0.03449728
vt 0.2461049 0.02845178
vt 0.09246863 0.03449728
vt 0.09246863 0.002593584
vt 0.00446178 0.03449728
vt 0.00446178 0.002593584
vt 0.09246863 0.1408483
vt 0.00446178 0.1408483
vt 0.1850591 0.1408483
vt 0.2461049 0.1408483
vt 0.2461049 0.03449728
vt 0.2782863 0.03449728
vt 0.2782863 0.1408483
vt 0.4248589 0.2823997
vt 0.2970972 0.2823997
vt 0.2970972 0.9852763
vt 0.4248589 0.9852763
vt 0.9308321 0.2823997
vt 0.9308322 0.9852763
vt 0.9571889 0.9852763
vt 0.9571889 0.2823997
vt 0.00446178 0.9923986
vt 0.09246863 0.5467738
vt 0.00446178 0.5467738
vt 0.09246863 0.9923988
vt 0.1850591 0.5467738
vt 0.1850591 0.9923989
vt 0.2461049 0.5467738
vt 0.2461049 0.992399
vt 0.2782863 0.5467738
vt 0.2782863 0.992399
vt 0.00446178 0.4955587
vt 0.09246863 0.3882964
vt 0.00446178 0.3882964
vt 0.09246863 0.4955587
vt 0.1850591 0.3882964
vt 0.1850591 0.4955587
vt 0.2461049 0.4955587
vt 0.2461049 0.3882964
vt 0.2782863 0.4955587
vt 0.2782863 0.3882964
vt 0.899843 0.9852763
vt 0.9308322 0.9852763
vt 0.9308321 0.2823997
vt 0.8998429 0.2823997
vt 0.9881879 0.2823997
vt 0.9571889 0.2823997
vt 0.9571889 0.9852763
vt 0.988188 0.9852763
vt 0.2461049 0.02845178
vt 0.2461049 0.03449728
vt 0.2782863 0.03449728
vt 0.1850591 0.03449728
vt 0.8998429 0.2823997
vt 0.7718608 0.2823997
vt 0.7718609 0.9852763
vt 0.899843 0.9852763
vt 0.5836862 0.2823997
vt 0.5836863 0.9852763
vt 0.6128208 0.9852763
vt 0.6128208 0.2823997
vt 0.00446178 0.2810341
vt 0.09246863 0.2471993
vt 0.00446178 0.2471993
vt 0.09246863 0.2810341
vt 0.1850591 0.2471993
vt 0.1850591 0.2810341
vt 0.2461049 0.2524037
vt 0.2461049 0.275016
vt 0.5526205 0.9852763
vt 0.5836863 0.9852763
vt 0.5836862 0.2823997
vt 0.5526205 0.2823997
vt 0.6438788 0.2823997
vt 0.6128208 0.2823997
vt 0.6128208 0.9852763
vt 0.6438788 0.9852763
vt 0.2461049 0.2471993
vt 0.2461049 0.2524037
vt 0.2782863 0.2471993
vt 0.1850591 0.2471993
vt 0.2782863 0.2810341
vt 0.2461049 0.275016
vt 0.2461049 0.2810341
vt 0.1850591 0.2810341
vt 0.5836862 0.2823997
vt 0.5836863 0.9852763
vt 0.6128208 0.9852763
vt 0.6128208 0.2823997
vt 0.00446178 0.2810341
vt 0.09246863 0.2471993
vt 0.00446178 0.2471993
vt 0.09246863 0.2810341
vt 0.1850591 0.2471993
vt 0.1850591 0.2810341
vt 0.2461049 0.2524037
vt 0.2461049 0.275016
vt 0.5526205 0.9852763
vt 0.5836863 0.9852763
vt 0.5836862 0.2823997
vt 0.5526205 0.2823997
vt 0.6438788 0.2823997
vt 0.6128208 0.2823997
vt 0.6128208 0.9852763
vt 0.6438788 0.9852763
vt 0.2461049 0.2471993
vt 0.2461049 0.2524037
vt 0.2782863 0.2471993
vt 0.1850591 0.2471993
vt 0.2782863 0.2810341
vt 0.2461049 0.275016
vt 0.2461049 0.2810341
vt 0.1850591 0.2810341
vt 0.7718608 0.2823997
vt 0.6438788 0.2823997
vt 0.6438788 0.9852763
vt 0.7718609 0.9852763
vt 0.5836862 0.2823997
vt 0.5836863 0.9852763
vt 0.6128208 0.9852763
vt 0.6128208 0.2823997
vt 0.00446178 0.2471993
vt 0.09246863 0.1408483
vt 0.00446178 0.1408483
vt 0.09246863 0.2471993
vt 0.00446178 0.2810341
vt 0.1850591 0.1408483
vt 0.09246863 0.2810341
vt 0.1850591 0.2471993
vt 0.2461049 0.2471993
vt 0.2461049 0.1408483
vt 0.2782863 0.2471993
vt 0.2782863 0.1408483
vt 0.09246863 0.3882964
vt 0.00446178 0.3882964
vt 0.1850591 0.3882964
vt 0.1850591 0.2810341
vt 0.2461049 0.2524037
vt 0.2461049 0.275016
vt 0.2461049 0.3882964
vt 0.2461049 0.2810341
vt 0.2782863 0.2810341
vt 0.2782863 0.3882964
vt 0.5526205 0.9852763
vt 0.5836863 0.9852763
vt 0.5836862 0.2823997
vt 0.5526205 0.2823997
vt 0.6438788 0.2823997
vt 0.6128208 0.2823997
vt 0.6128208 0.9852763
vt 0.6438788 0.9852763
vt 0.2461049 0.2471993
vt 0.2461049 0.2524037
vt 0.2782863 0.2471993
vt 0.1850591 0.2471993
vt 0.2782863 0.2810341
vt 0.2461049 0.275016
vt 0.2461049 0.2810341
vt 0.1850591 0.2810341
vt 0.5526205 0.2823997
vt 0.4248589 0.2823997
vt 0.4248589 0.9852763
vt 0.5526205 0.9852763
vt 0.7920086 0.02060793
vt 0.7920086 0.2201485
vt 0.970993 0.2201485
vt 0.970993 0.02060793
vt 0.5339428 0.02060793
vt 0.5339428 0.2468295
vt 0.7920086 0.2468295
vt 0.7920086 0.02060793
vt 0.3417264 0.02060793
vt 0.3417264 0.2178147
vt 0.510132 0.2178147
vt 0.510132 0.02060793
vt 0.5339428 0.02060793
vt 0.5339428 0.2468295
vt 0.7920086 0.2468295
vt 0.7920086 0.02060793
vt 0.7920086 0.02060793
vt 0.7920086 0.2201485
vt 0.970993 0.2201485
vt 0.970993 0.02060793
vt 0.5339428 0.02060793
vt 0.5339428 0.2468295
vt 0.7920086 0.2468295
vt 0.7920086 0.02060793
vt 0.3417264 0.02060793
vt 0.3417264 0.2178147
vt 0.510132 0.2178147
vt 0.510132 0.02060793
vt 0.7920086 0.02060793
vt 0.7920086 0.2201485
vt 0.970993 0.2201485
vt 0.970993 0.02060793
vt 0.3417264 0.02060793
vt 0.3417264 0.2178147
vt 0.510132 0.2178147
vt 0.510132 0.02060793
vt 0.5339428 0.02060793
vt 0.5339428 0.2468295
vt 0.7920086 0.2468295
vt 0.7920086 0.02060793
vt 0.7920086 0.02060793
vt 0.7920086 0.2201485
vt 0.970993 0.2201485
vt 0.970993 0.02060793
vt 0.3417264 0.02060793
vt 0.3417264 0.2178147
vt 0.510132 0.2178147
vt 0.510132 0.02060793
vt 0.3417264 0.02060793
vt 0.3417264 0.2178147
vt 0.510132 0.2178147
vt 0.510132 0.02060793
vt 0.3417264 0.02060793
vt 0.3417264 0.2178147
vt 0.510132 0.2178147
vt 0.510132 0.02060793
vn -0.2232017 -0.9747723 -1.089769E-05
vn -0.2232017 -0.9747723 -1.089769E-05
vn -0.2232017 -0.9747723 -1.089769E-05
vn 0 -1 -2.012347E-07
vn -0.105625 -0.9943667 0.008849105
vn 0 -1 -2.347739E-07
vn 0 -0.9998623 0.01659319
vn 0 -1 -2.012347E-07
vn 0 -1 -2.012347E-07
vn 0 -1 -2.012347E-07
vn 0 -1 -2.012347E-07
vn 0 -1 -2.012347E-07
vn 0 -1 -2.012347E-07
vn 0 -1 -2.347739E-07
vn 0 -1 -1.509261E-07
vn 0 -1 -1.509261E-07
vn 0 -1 0
vn 0 -1 0
vn 0 -4.84787E-07 1
vn 0 -4.84787E-07 1
vn 0 -4.84787E-07 1
vn 0 -4.84787E-07 1
vn -1.766024E-07 -4.847844E-07 1
vn -1.766024E-07 -4.847844E-07 1
vn -1.766024E-07 -4.847844E-07 1
vn -1.766024E-07 -4.847844E-07 1
vn -1 1.271565E-07 0
vn -1 1.271566E-07 0
vn -1 1.271565E-07 0
vn -1 1.271566E-07 0
vn -1 1.271566E-07 0
vn -1 1.271566E-07 0
vn -1 1.271566E-07 0
vn -1 1.271566E-07 0
vn -1 1.271566E-07 0
vn -1 1.271566E-07 0
vn 0 -1 -2.012347E-07
vn 0 -1 -2.012347E-07
vn 0 -1 -2.012347E-07
vn 0 -1 -2.012347E-07
vn 0 -1 -2.347739E-07
vn 0 -1 -2.515434E-07
vn 0 -1 -1.509261E-07
vn 0 -1 -1.509261E-07
vn 0 -1 0
vn 0 -1 0
vn 0.9894884 -1.971282E-07 0.1446117
vn 0.9894884 -1.971282E-07 0.1446117
vn 0.9894884 -1.971282E-07 0.1446117
vn 0.9894884 -1.971282E-07 0.1446117
vn -0.9894883 0 0.1446123
vn -0.9894883 0 0.1446123
vn -0.9894883 0 0.1446123
vn -0.9894883 0 0.1446123
vn 0.2232734 -0.9747559 0
vn 0.2232735 -0.9747559 0
vn 0.2232734 -0.9747559 0
vn 0.2232734 -0.9747559 -2.941466E-07
vn -4.589517E-07 -4.927344E-07 1
vn -4.589517E-07 -4.927343E-07 1
vn -4.589517E-07 -4.927343E-07 1
vn -4.589517E-07 -4.927343E-07 1
vn -1.277998E-06 -4.212059E-07 1
vn -1.277998E-06 -4.212059E-07 1
vn -1.277998E-06 -4.212059E-07 1
vn -1.277998E-06 -4.212059E-07 1
vn 0 -1 -2.012347E-07
vn 0 -1 -2.012347E-07
vn 0 -1 -2.012347E-07
vn 0 -1 -2.012347E-07
vn 0 -1 -2.347739E-07
vn 0 -1 -2.347739E-07
vn 0 -0.9998623 0.01659318
vn 0 -0.9998623 0.01659318
vn 0.9871985 -2.035398E-07 0.1594965
vn 0.9871985 -2.035398E-07 0.1594965
vn 0.9871985 -2.035398E-07 0.1594965
vn 0.9871985 -2.035398E-07 0.1594965
vn -0.9871984 0 0.1594971
vn -0.9871984 0 0.1594971
vn -0.9871984 0 0.1594971
vn -0.9871984 0 0.1594972
vn -0.202889 -0.9792017 0
vn -0.202889 -0.9792017 0
vn -0.202889 -0.9792017 0
vn -0.202889 -0.9792017 -2.955742E-07
vn 0.2028894 -0.9792016 0
vn 0.2028894 -0.9792016 0
vn 0.2028894 -0.9792016 0
vn 0.2028894 -0.9792016 -2.957275E-07
vn -1.277998E-06 -4.212059E-07 1
vn -1.277998E-06 -4.212059E-07 1
vn -1.277998E-06 -4.212059E-07 1
vn -1.277998E-06 -4.212059E-07 1
vn 0 -1 -2.012347E-07
vn 0 -1 -2.012347E-07
vn 0 -1 -2.012347E-07
vn 0 -1 -2.012347E-07
vn 0 -1 -2.347739E-07
vn 0 -1 -2.347739E-07
vn 0 -0.9998623 0.01659317
vn 0 -0.9998623 0.01659317
vn 0.9871983 -2.035398E-07 0.1594977
vn 0.9871983 -2.035398E-07 0.1594977
vn 0.9871983 -2.035398E-07 0.1594977
vn 0.9871983 -2.035398E-07 0.1594977
vn -0.9871987 0 0.1594958
vn -0.9871987 0 0.1594958
vn -0.9871987 0 0.1594958
vn -0.9871987 0 0.1594958
vn -0.2028908 -0.9792014 0
vn -0.2028908 -0.9792014 0
vn -0.2028908 -0.9792014 0
vn -0.2028908 -0.9792014 -2.955741E-07
vn 0.2028879 -0.979202 0
vn 0.2028879 -0.979202 0
vn 0.2028879 -0.979202 0
vn 0.2028879 -0.979202 -2.957254E-07
vn -1.720468E-07 -4.927317E-07 1
vn -1.720468E-07 -4.927317E-07 1
vn -1.720468E-07 -4.927317E-07 1
vn -1.720468E-07 -4.927317E-07 1
vn -1.277998E-06 -4.212059E-07 1
vn -1.277998E-06 -4.21206E-07 1
vn -1.277998E-06 -4.212059E-07 1
vn -1.277998E-06 -4.21206E-07 1
vn 0 -1 -2.012347E-07
vn 0 -1 -2.012347E-07
vn 0 -1 -2.012347E-07
vn 0 -1 -2.012347E-07
vn 0 -1 -2.012347E-07
vn 0 -1 -2.347739E-07
vn 0 -1 -2.012347E-07
vn 0 -1 -2.347739E-07
vn 0 -1 -1.509261E-07
vn 0 -1 -1.509261E-07
vn 0 -1 0
vn 0 -1 0
vn 0 -1 -2.012347E-07
vn 0 -1 -2.012347E-07
vn 0 -1 -2.347739E-07
vn 0 -1 -2.347739E-07
vn 0 -0.9998623 0.01659318
vn 0 -0.9998623 0.01659318
vn 0 -1 -1.509261E-07
vn 0 -1 -1.509261E-07
vn 0 -1 0
vn 0 -1 0
vn 0.9871984 -2.035399E-07 0.1594966
vn 0.9871984 -2.035399E-07 0.1594966
vn 0.9871984 -2.035399E-07 0.1594966
vn 0.9871984 -2.035399E-07 0.1594966
vn -0.9871984 0 0.1594968
vn -0.9871984 0 0.1594968
vn -0.9871984 0 0.1594968
vn -0.9871984 0 0.1594968
vn -0.2028893 -0.9792016 0
vn -0.2028893 -0.9792016 0
vn -0.2028894 -0.9792016 0
vn -0.2028894 -0.9792016 -2.955741E-07
vn 0.2028893 -0.9792016 0
vn 0.2028893 -0.9792016 0
vn 0.2028893 -0.9792016 0
vn 0.2028894 -0.9792016 -2.957274E-07
vn -1.285197E-07 -4.847844E-07 1
vn -1.285197E-07 -4.847843E-07 1
vn -1.285197E-07 -4.847844E-07 1
vn -1.285197E-07 -4.847843E-07 1
vn -0.642788 -0.7660441 -3.702863E-07
vn -0.6427881 -0.7660441 -3.702863E-07
vn -0.6427881 -0.7660441 -3.702863E-07
vn -0.642788 -0.7660441 -3.702863E-07
vn -0.7869205 -0.5512519 0.2772678
vn -0.7869205 -0.5512519 0.2772678
vn -0.7869205 -0.5512519 0.2772678
vn -0.7869205 -0.5512519 0.2772678
vn -0.6324226 -0.751473 0.1879629
vn -0.6324226 -0.751473 0.1879629
vn -0.6324226 -0.751473 0.1879629
vn -0.6324226 -0.751473 0.1879629
vn -0.7869204 -0.551252 0.2772678
vn -0.7869204 -0.551252 0.2772678
vn -0.7869204 -0.551252 0.2772678
vn -0.7869204 -0.551252 0.2772678
vn -0.5740892 -0.7975841 0.1851517
vn -0.5740892 -0.7975841 0.1851517
vn -0.5740892 -0.7975841 0.1851517
vn -0.5740892 -0.7975841 0.1851517
vn -0.5000002 -0.8660253 -4.9517E-07
vn -0.5000002 -0.8660253 -4.9517E-07
vn -0.5000002 -0.8660253 -4.9517E-07
vn -0.5000002 -0.8660253 -4.9517E-07
vn -0.7660445 -0.6427875 -3.33295E-07
vn -0.7660446 -0.6427875 -3.33295E-07
vn -0.7660446 -0.6427874 -3.332951E-07
vn -0.7660446 -0.6427875 -3.33295E-07
vn -0.6656014 -0.6815444 0.3040924
vn -0.6656014 -0.6815444 0.3040924
vn -0.6656014 -0.6815444 0.3040924
vn -0.6656014 -0.6815444 0.3040924
vn -0.6324223 -0.7514731 0.1879633
vn -0.6324223 -0.7514731 0.1879633
vn -0.6324223 -0.7514732 0.1879633
vn -0.6324223 -0.7514732 0.1879633
vn -0.5000001 -0.8660253 -4.339692E-07
vn -0.5000001 -0.8660253 -4.339693E-07
vn -0.5000001 -0.8660253 -4.339693E-07
vn -0.5000001 -0.8660253 -4.339693E-07
vn -0.6427881 -0.766044 -2.588409E-07
vn -0.6427881 -0.766044 -2.588409E-07
vn -0.6427881 -0.766044 -2.588409E-07
vn -0.6427881 -0.766044 -2.588409E-07
vn -0.7660447 -0.6427874 -3.461141E-07
vn -0.7660447 -0.6427873 -3.461141E-07
vn -0.7660447 -0.6427874 -3.461141E-07
vn -0.7660447 -0.6427874 -3.461141E-07
vn -0.9252971 -0.3577894 0.1257451
vn -0.9252971 -0.3577894 0.1257451
vn -0.9252971 -0.3577894 0.1257451
vn -0.9252971 -0.3577894 0.1257451
vn -0.6324224 -0.7514731 0.187963
vn -0.6324223 -0.7514732 0.187963
vn -0.6324224 -0.7514732 0.187963
vn -0.6324224 -0.7514732 0.187963
g my_military_01_tile_0
f 3/3/3 2/2/2 1/1/1
f 5/5/5 4/4/4 2/2/2
f 6/6/6 4/4/4 5/5/5
f 7/7/7 6/6/6 5/5/5
f 6/6/6 8/8/8 4/4/4
f 8/8/8 9/9/9 4/4/4
f 9/9/9 8/8/8 10/10/10
f 11/11/11 9/9/9 10/10/10
f 8/8/8 12/12/12 10/10/10
f 12/12/12 13/13/13 10/10/10
f 14/14/14 12/12/12 8/8/8
f 6/6/6 14/14/14 8/8/8
f 14/14/14 6/6/6 15/15/15
f 6/6/6 16/16/16 15/15/15
f 15/15/15 16/16/16 17/17/17
f 18/18/18 15/15/15 17/17/17
f 21/21/21 20/20/20 19/19/19
f 22/22/22 21/21/21 19/19/19
f 25/25/25 24/24/24 23/23/23
f 26/26/26 25/25/25 23/23/23
f 29/29/29 28/28/28 27/27/27
f 28/28/28 30/30/30 27/27/27
f 30/30/30 28/28/28 31/31/31
f 32/32/32 30/30/30 31/31/31
f 32/32/32 31/31/31 33/33/33
f 34/34/34 32/32/32 33/33/33
f 34/34/34 33/33/33 35/35/35
f 36/36/36 34/34/34 35/35/35
f 39/39/39 38/38/38 37/37/37
f 38/38/38 40/40/40 37/37/37
f 38/38/38 41/41/41 40/40/40
f 41/41/41 42/42/42 40/40/40
f 42/42/42 41/41/41 43/43/43
f 41/41/41 44/44/44 43/43/43
f 43/43/43 44/44/44 45/45/45
f 44/44/44 46/46/46 45/45/45
f 49/49/49 48/48/48 47/47/47
f 50/50/50 49/49/49 47/47/47
f 53/53/53 52/52/52 51/51/51
f 54/54/54 53/53/53 51/51/51
f 57/57/57 56/56/56 55/55/55
f 56/56/56 58/58/58 55/55/55
f 61/61/61 60/60/60 59/59/59
f 62/62/62 61/61/61 59/59/59
f 65/65/65 64/64/64 63/63/63
f 66/66/66 65/65/65 63/63/63
f 69/69/69 68/68/68 67/67/67
f 68/68/68 70/70/70 67/67/67
f 68/68/68 71/71/71 70/70/70
f 71/71/71 72/72/72 70/70/70
f 71/71/71 73/73/73 72/72/72
f 73/73/73 74/74/74 72/72/72
f 77/77/77 76/76/76 75/75/75
f 78/78/78 77/77/77 75/75/75
f 81/81/81 80/80/80 79/79/79
f 82/82/82 81/81/81 79/79/79
f 85/85/85 84/84/84 83/83/83
f 83/83/83 84/84/84 86/86/86
f 89/89/89 88/88/88 87/87/87
f 89/89/89 90/90/90 88/88/88
f 93/93/93 92/92/92 91/91/91
f 94/94/94 93/93/93 91/91/91
f 97/97/97 96/96/96 95/95/95
f 96/96/96 98/98/98 95/95/95
f 96/96/96 99/99/99 98/98/98
f 99/99/99 100/100/100 98/98/98
f 99/99/99 101/101/101 100/100/100
f 101/101/101 102/102/102 100/100/100
f 105/105/105 104/104/104 103/103/103
f 106/106/106 105/105/105 103/103/103
f 109/109/109 108/108/108 107/107/107
f 110/110/110 109/109/109 107/107/107
f 113/113/113 112/112/112 111/111/111
f 111/111/111 112/112/112 114/114/114
f 117/117/117 116/116/116 115/115/115
f 117/117/117 118/118/118 116/116/116
f 121/121/121 120/120/120 119/119/119
f 122/122/122 121/121/121 119/119/119
f 125/125/125 124/124/124 123/123/123
f 126/126/126 125/125/125 123/123/123
f 129/129/129 128/128/128 127/127/127
f 128/128/128 130/130/130 127/127/127
f 127/127/127 130/130/130 131/131/131
f 128/128/128 132/132/132 130/130/130
f 130/130/130 133/133/133 131/131/131
f 132/132/132 134/134/134 130/130/130
f 130/130/130 134/134/134 133/133/133
f 134/134/134 132/132/132 135/135/135
f 132/132/132 136/136/136 135/135/135
f 135/135/135 136/136/136 137/137/137
f 136/136/136 138/138/138 137/137/137
f 133/133/133 139/139/139 131/131/131
f 139/139/139 140/140/140 131/131/131
f 141/141/141 139/139/139 133/133/133
f 134/134/134 142/142/142 133/133/133
f 142/142/142 141/141/141 133/133/133
f 134/134/134 143/143/143 142/142/142
f 143/143/143 144/144/144 142/142/142
f 141/141/141 142/142/142 145/145/145
f 142/142/142 146/146/146 145/145/145
f 145/145/145 146/146/146 147/147/147
f 148/148/148 145/145/145 147/147/147
f 151/151/151 150/150/150 149/149/149
f 152/152/152 151/151/151 149/149/149
f 155/155/155 154/154/154 153/153/153
f 156/156/156 155/155/155 153/153/153
f 159/159/159 158/158/158 157/157/157
f 157/157/157 158/158/158 160/160/160
f 163/163/163 162/162/162 161/161/161
f 163/163/163 164/164/164 162/162/162
f 167/167/167 166/166/166 165/165/165
f 168/168/168 167/167/167 165/165/165
g my_military_01_tile_1
f 171/171/171 170/170/170 169/169/169
f 172/172/172 171/171/171 169/169/169
f 175/175/175 174/174/174 173/173/173
f 176/176/176 175/175/175 173/173/173
f 179/179/179 178/178/178 177/177/177
f 180/180/180 179/179/179 177/177/177
f 183/183/183 182/182/182 181/181/181
f 184/184/184 183/183/183 181/181/181
f 187/187/187 186/186/186 185/185/185
f 188/188/188 187/187/187 185/185/185
f 191/191/191 190/190/190 189/189/189
f 192/192/192 191/191/191 189/189/189
f 195/195/195 194/194/194 193/193/193
f 196/196/196 195/195/195 193/193/193
f 199/199/199 198/198/198 197/197/197
f 200/200/200 199/199/199 197/197/197
f 203/203/203 202/202/202 201/201/201
f 204/204/204 203/203/203 201/201/201
f 207/207/207 206/206/206 205/205/205
f 208/208/208 207/207/207 205/205/205
f 211/211/211 210/210/210 209/209/209
f 212/212/212 211/211/211 209/209/209
f 215/215/215 214/214/214 213/213/213
f 216/216/216 215/215/215 213/213/213
f 219/219/219 218/218/218 217/217/217
f 220/220/220 219/219/219 217/217/217
f 223/223/223 222/222/222 221/221/221
f 224/224/224 223/223/223 221/221/221
