g my_military_01_tile_2x2
v 0.3 -0.3000001 -3.337876E-07
v 0.3000003 -0.2999998 -0.03159477
v 0.2954088 -0.2989485 -0.03141492
v 0.3 -0.3000001 -0.09478258
v 0.2954088 -0.2989485 -0.03141492
v 0.2638168 -0.3000001 -0.09478262
v 0.268408 -0.2989485 -0.03141493
v 0.2638168 -0.3000001 -0.1895649
v 0.3 -0.3000001 -0.1895649
v 0.2638168 -0.3000001 -0.2843472
v 0.3 -0.3000001 -0.2843471
v 0.1599198 -0.3000001 -0.1895649
v 0.1599198 -0.3000001 -0.2843472
v 0.1599198 -0.3000001 -0.09478266
v 0.1599198 -0.3000001 -0.03159449
v 0.2638168 -0.3000001 -0.03159446
v 0.2638168 -0.3000001 -3.433244E-07
v 0.1599198 -0.3000001 -3.910065E-07
v 0.3 -0.9000002 -7.438708E-07
v 0.3000003 -0.8999999 -0.03159518
v 0.2954088 -0.8989485 -0.03141533
v 0.3 -0.9000002 -0.09478299
v 0.2954088 -0.8989485 -0.03141533
v 0.2638168 -0.9000002 -0.09478303
v 0.268408 -0.8989485 -0.03141534
v 0.2638168 -0.9000002 -0.1895653
v 0.3 -0.9000002 -0.1895653
v 0.2638168 -0.9 -0.2843476
v 0.3 -0.9 -0.2843475
v 0.1599198 -0.9000002 -0.1895653
v 0.1599198 -0.9 -0.2843477
v 0.1599198 -0.9000002 -0.09478307
v 0.1599198 -0.9000002 -0.03159489
v 0.2638168 -0.9000002 -0.03159487
v 0.2638168 -0.9000002 -7.534075E-07
v 0.1599198 -0.9000002 -8.010896E-07
v -0.3 -0.9 -6.619143E-07
v -0.2999997 -0.8999997 -0.0315951
v -0.3045911 -0.8989484 -0.03141525
v -0.3 -0.9 -0.0947829
v -0.3045911 -0.8989484 -0.03141525
v -0.3361832 -0.9 -0.09478294
v -0.331592 -0.8989484 -0.03141526
v -0.3361832 -0.9 -0.1895652
v -0.3 -0.9 -0.1895652
v -0.3361832 -0.8999999 -0.2843475
v -0.3 -0.8999999 -0.2843474
v -0.4400801 -0.9 -0.1895653
v -0.4400801 -0.8999999 -0.2843475
v -0.4400801 -0.9 -0.09478298
v -0.4400801 -0.9 -0.03159481
v -0.3361832 -0.9 -0.03159479
v -0.3361832 -0.9 -6.714511E-07
v -0.4400801 -0.9 -7.191331E-07
v -0.3 -0.3 -2.518312E-07
v -0.2999997 -0.2999997 -0.03159469
v -0.3045911 -0.2989483 -0.03141484
v -0.3 -0.3 -0.09478249
v -0.3045911 -0.2989483 -0.03141484
v -0.3361832 -0.3 -0.09478253
v -0.331592 -0.2989483 -0.03141485
v -0.3361832 -0.3 -0.1895648
v -0.3 -0.3 -0.1895648
v -0.3361832 -0.2999999 -0.2843471
v -0.3 -0.2999999 -0.2843471
v -0.4400801 -0.3 -0.1895649
v -0.4400801 -0.2999999 -0.2843471
v -0.4400801 -0.3 -0.09478257
v -0.4400801 -0.3 -0.0315944
v -0.3361832 -0.3 -0.03159438
v -0.3361832 -0.3 -2.613679E-07
v -0.4400801 -0.3 -3.090501E-07
v -0.1822493 -0.3000001 -3.33786E-07
v -0.3000001 -0.3000001 -3.337876E-07
v -0.3 0.2999998 -4.768216E-08
v -0.1822492 0.3 -3.814697E-08
v 0.268408 -0.2989485 -0.03141493
v 0.2684081 0.3010516 -0.03141464
v 0.2954089 0.3010515 -0.03141464
v 0.2954088 -0.2989485 -0.03141492
v -0.3 0.3 -0.2843468
v -0.3000001 -0.3000001 -0.1895649
v -0.3000001 -0.3000001 -0.2843471
v -0.3 0.3 -0.1895646
v -0.3000001 -0.3000001 -0.09478258
v -0.3 0.3 -0.09478233
v -0.3000001 -0.3000001 -0.03159442
v -0.3 0.3 -0.03159413
v -0.3000001 -0.3000001 -3.337876E-07
v -0.3 0.2999998 -4.768216E-08
v -0.3000001 -0.3000001 -0.2843471
v -0.1822493 -0.3000001 -0.1895649
v -0.1822493 -0.3000001 -0.2843471
v -0.3000001 -0.3000001 -0.1895649
v -0.1822493 -0.3000001 -0.09478258
v -0.3000001 -0.3000001 -0.09478258
v -0.3000001 -0.3000001 -0.03159442
v -0.1822493 -0.3000001 -0.03159442
v -0.3000001 -0.3000001 -3.337876E-07
v -0.1822493 -0.3000001 -3.33786E-07
v 0.2638169 0.2999998 -4.768216E-08
v 0.2684081 0.3010516 -0.03141464
v 0.268408 -0.2989485 -0.03141493
v 0.2638168 -0.3000001 -3.433244E-07
v 0.3 -0.3000001 -3.337876E-07
v 0.2954088 -0.2989485 -0.03141492
v 0.2954089 0.3010515 -0.03141464
v 0.3000001 0.2999998 -4.768216E-08
v 0.268408 -0.2989485 -0.03141493
v 0.2638168 -0.3000001 -0.03159446
v 0.2638168 -0.3000001 -3.433244E-07
v 0.2638168 -0.3000001 -0.09478262
v 0.2638168 -0.3000001 -3.433244E-07
v 0.1599198 -0.3000001 -3.910065E-07
v 0.1599199 0.2999999 -9.536743E-08
v 0.2638169 0.2999998 -4.768216E-08
v -0.1771738 -0.2989485 -0.03141493
v -0.1771737 0.3010516 -0.03141464
v -0.1473247 0.3010516 -0.03141464
v -0.1473248 -0.2989485 -0.03141485
v -0.1822493 -0.3000001 -0.2843471
v -0.1422493 -0.3000001 -0.1895649
v -0.1422493 -0.3000001 -0.2843472
v -0.1822493 -0.3000001 -0.1895649
v -0.1422493 -0.3000001 -0.09478262
v -0.1822493 -0.3000001 -0.09478258
v -0.1473248 -0.2989485 -0.03141485
v -0.1771738 -0.2989485 -0.03141493
v -0.1822492 0.3 -3.814697E-08
v -0.1771737 0.3010516 -0.03141464
v -0.1771738 -0.2989485 -0.03141493
v -0.1822493 -0.3000001 -3.33786E-07
v -0.1422493 -0.3000001 -3.623962E-07
v -0.1473248 -0.2989485 -0.03141485
v -0.1473247 0.3010516 -0.03141464
v -0.1422492 0.3 -7.629394E-08
v -0.1422493 -0.3000001 -0.03159446
v -0.1473248 -0.2989485 -0.03141485
v -0.1422493 -0.3000001 -3.623962E-07
v -0.1422493 -0.3000001 -0.09478262
v -0.1822493 -0.3000001 -3.33786E-07
v -0.1771738 -0.2989485 -0.03141493
v -0.1822493 -0.3000001 -0.03159442
v -0.1822493 -0.3000001 -0.09478258
v 0.1249954 -0.2989485 -0.03141493
v 0.1249955 0.3010516 -0.03141464
v 0.1548445 0.3010516 -0.03141464
v 0.1548444 -0.2989485 -0.03141485
v 0.1199199 -0.3000001 -0.2843472
v 0.1599198 -0.3000001 -0.1895649
v 0.1599198 -0.3000001 -0.2843472
v 0.1199199 -0.3000001 -0.1895649
v 0.1599198 -0.3000001 -0.09478266
v 0.1199199 -0.3000001 -0.0947826
v 0.1548444 -0.2989485 -0.03141485
v 0.1249954 -0.2989485 -0.03141493
v 0.1199199 0.2999999 -3.814697E-08
v 0.1249955 0.3010516 -0.03141464
v 0.1249954 -0.2989485 -0.03141493
v 0.1199199 -0.3000001 -3.33786E-07
v 0.1599198 -0.3000001 -3.910065E-07
v 0.1548444 -0.2989485 -0.03141485
v 0.1548445 0.3010516 -0.03141464
v 0.1599199 0.2999999 -9.536743E-08
v 0.1599198 -0.3000001 -0.03159449
v 0.1548444 -0.2989485 -0.03141485
v 0.1599198 -0.3000001 -3.910065E-07
v 0.1599198 -0.3000001 -0.09478266
v 0.1199199 -0.3000001 -3.33786E-07
v 0.1249954 -0.2989485 -0.03141493
v 0.1199199 -0.3000001 -0.03159444
v 0.1199199 -0.3000001 -0.0947826
v 0.1199199 -0.3000001 -3.33786E-07
v 0.009057467 -0.3000001 -3.528595E-07
v 0.009057539 0.3 -5.722046E-08
v 0.1199199 0.2999999 -3.814697E-08
v -0.02586704 -0.2989485 -0.03141493
v -0.02586696 0.3010516 -0.03141464
v 0.003982046 0.3010516 -0.03141464
v 0.003981974 -0.2989485 -0.03141485
v 0.009057467 -0.3000001 -0.2843472
v 0.1199199 -0.3000001 -0.1895649
v 0.1199199 -0.3000001 -0.2843472
v 0.009057467 -0.3000001 -0.1895649
v -0.03094254 -0.3000001 -0.2843472
v 0.1199199 -0.3000001 -0.0947826
v -0.03094254 -0.3000001 -0.1895649
v 0.009057467 -0.3000001 -0.09478262
v 0.009057467 -0.3000001 -0.03159444
v 0.1199199 -0.3000001 -0.03159444
v 0.009057467 -0.3000001 -3.528595E-07
v 0.1199199 -0.3000001 -3.33786E-07
v -0.1422493 -0.3000001 -0.1895649
v -0.1422493 -0.3000001 -0.2843472
v -0.1422493 -0.3000001 -0.09478262
v -0.03094254 -0.3000001 -0.09478262
v 0.003981974 -0.2989485 -0.03141485
v -0.02586704 -0.2989485 -0.03141493
v -0.1422493 -0.3000001 -0.03159446
v -0.03094254 -0.3000001 -0.03159444
v -0.03094254 -0.3000001 -3.528595E-07
v -0.1422493 -0.3000001 -3.623962E-07
v -0.03094246 0.3 -5.722046E-08
v -0.02586696 0.3010516 -0.03141464
v -0.02586704 -0.2989485 -0.03141493
v -0.03094254 -0.3000001 -3.528595E-07
v 0.009057467 -0.3000001 -3.528595E-07
v 0.003981974 -0.2989485 -0.03141485
v 0.003982046 0.3010516 -0.03141464
v 0.009057539 0.3 -5.722046E-08
v 0.009057467 -0.3000001 -0.03159444
v 0.003981974 -0.2989485 -0.03141485
v 0.009057467 -0.3000001 -3.528595E-07
v 0.009057467 -0.3000001 -0.09478262
v -0.03094254 -0.3000001 -3.528595E-07
v -0.02586704 -0.2989485 -0.03141493
v -0.03094254 -0.3000001 -0.03159444
v -0.03094254 -0.3000001 -0.09478262
v -0.03094254 -0.3000001 -3.528595E-07
v -0.1422493 -0.3000001 -3.623962E-07
v -0.1422492 0.3 -7.629394E-08
v -0.03094246 0.3 -5.722046E-08
v -0.1822493 -0.9000002 -7.438692E-07
v -0.3000001 -0.9000002 -7.438708E-07
v -0.3 -0.3000001 -4.577653E-07
v -0.1822492 -0.3 -4.482301E-07
v 0.268408 -0.8989485 -0.03141534
v 0.2684081 -0.2989483 -0.03141505
v 0.2954089 -0.2989485 -0.03141505
v 0.2954088 -0.8989485 -0.03141533
v -0.3 -0.2999999 -0.2843472
v -0.3000001 -0.9000002 -0.1895653
v -0.3000001 -0.9 -0.2843475
v -0.3 -0.3 -0.189565
v -0.3000001 -0.9000002 -0.09478299
v -0.3 -0.3 -0.09478274
v -0.3000001 -0.9000002 -0.03159483
v -0.3 -0.3 -0.03159454
v -0.3000001 -0.9000002 -7.438708E-07
v -0.3 -0.3000001 -4.577653E-07
v -0.3000001 -0.9 -0.2843475
v -0.1822493 -0.9000002 -0.1895653
v -0.1822493 -0.9 -0.2843476
v -0.3000001 -0.9000002 -0.1895653
v -0.1822493 -0.9000002 -0.09478299
v -0.3000001 -0.9000002 -0.09478299
v -0.3000001 -0.9000002 -0.03159483
v -0.1822493 -0.9000002 -0.03159484
v -0.3000001 -0.9000002 -7.438708E-07
v -0.1822493 -0.9000002 -7.438692E-07
v 0.2638169 -0.3000001 -4.577653E-07
v 0.2684081 -0.2989483 -0.03141505
v 0.268408 -0.8989485 -0.03141534
v 0.2638168 -0.9000002 -7.534075E-07
v 0.3 -0.9000002 -7.438708E-07
v 0.2954088 -0.8989485 -0.03141533
v 0.2954089 -0.2989485 -0.03141505
v 0.3000001 -0.3000001 -4.577653E-07
v 0.268408 -0.8989485 -0.03141534
v 0.2638168 -0.9000002 -0.03159487
v 0.2638168 -0.9000002 -7.534075E-07
v 0.2638168 -0.9000002 -0.09478303
v 0.2638168 -0.9000002 -7.534075E-07
v 0.1599198 -0.9000002 -8.010896E-07
v 0.1599199 -0.3000001 -5.054505E-07
v 0.2638169 -0.3000001 -4.577653E-07
v -0.1771738 -0.8989485 -0.03141534
v -0.1771737 -0.2989483 -0.03141505
v -0.1473247 -0.2989483 -0.03141505
v -0.1473248 -0.8989485 -0.03141526
v -0.1822493 -0.9 -0.2843476
v -0.1422493 -0.9000002 -0.1895653
v -0.1422493 -0.9 -0.2843476
v -0.1822493 -0.9000002 -0.1895653
v -0.1422493 -0.9000002 -0.09478303
v -0.1822493 -0.9000002 -0.09478299
v -0.1473248 -0.8989485 -0.03141526
v -0.1771738 -0.8989485 -0.03141534
v -0.1822492 -0.3 -4.482301E-07
v -0.1771737 -0.2989483 -0.03141505
v -0.1771738 -0.8989485 -0.03141534
v -0.1822493 -0.9000002 -7.438692E-07
v -0.1422493 -0.9000002 -7.724794E-07
v -0.1473248 -0.8989485 -0.03141526
v -0.1473247 -0.2989483 -0.03141505
v -0.1422492 -0.3 -4.863771E-07
v -0.1422493 -0.9000002 -0.03159487
v -0.1473248 -0.8989485 -0.03141526
v -0.1422493 -0.9000002 -7.724794E-07
v -0.1422493 -0.9000002 -0.09478303
v -0.1822493 -0.9000002 -7.438692E-07
v -0.1771738 -0.8989485 -0.03141534
v -0.1822493 -0.9000002 -0.03159484
v -0.1822493 -0.9000002 -0.09478299
v 0.1249954 -0.8989485 -0.03141534
v 0.1249955 -0.2989483 -0.03141505
v 0.1548445 -0.2989483 -0.03141505
v 0.1548444 -0.8989485 -0.03141526
v 0.1199199 -0.9 -0.2843476
v 0.1599198 -0.9000002 -0.1895653
v 0.1599198 -0.9 -0.2843477
v 0.1199199 -0.9000002 -0.1895653
v 0.1599198 -0.9000002 -0.09478307
v 0.1199199 -0.9000002 -0.09478301
v 0.1548444 -0.8989485 -0.03141526
v 0.1249954 -0.8989485 -0.03141534
v 0.1199199 -0.3000001 -4.482301E-07
v 0.1249955 -0.2989483 -0.03141505
v 0.1249954 -0.8989485 -0.03141534
v 0.1199199 -0.9000002 -7.438692E-07
v 0.1599198 -0.9000002 -8.010896E-07
v 0.1548444 -0.8989485 -0.03141526
v 0.1548445 -0.2989483 -0.03141505
v 0.1599199 -0.3000001 -5.054505E-07
v 0.1599198 -0.9000002 -0.03159489
v 0.1548444 -0.8989485 -0.03141526
v 0.1599198 -0.9000002 -8.010896E-07
v 0.1599198 -0.9000002 -0.09478307
v 0.1199199 -0.9000002 -7.438692E-07
v 0.1249954 -0.8989485 -0.03141534
v 0.1199199 -0.9000002 -0.03159485
v 0.1199199 -0.9000002 -0.09478301
v 0.1199199 -0.9000002 -7.438692E-07
v 0.009057467 -0.9000002 -7.629426E-07
v 0.009057539 -0.3 -4.673036E-07
v 0.1199199 -0.3000001 -4.482301E-07
v -0.02586704 -0.8989485 -0.03141534
v -0.02586696 -0.2989483 -0.03141505
v 0.003982046 -0.2989483 -0.03141505
v 0.003981974 -0.8989485 -0.03141526
v 0.009057467 -0.9 -0.2843476
v 0.1199199 -0.9000002 -0.1895653
v 0.1199199 -0.9 -0.2843476
v 0.009057467 -0.9000002 -0.1895653
v -0.03094254 -0.9 -0.2843476
v 0.1199199 -0.9000002 -0.09478301
v -0.03094254 -0.9000002 -0.1895653
v 0.009057467 -0.9000002 -0.09478303
v 0.009057467 -0.9000002 -0.03159485
v 0.1199199 -0.9000002 -0.03159485
v 0.009057467 -0.9000002 -7.629426E-07
v 0.1199199 -0.9000002 -7.438692E-07
v -0.1422493 -0.9000002 -0.1895653
v -0.1422493 -0.9 -0.2843476
v -0.1422493 -0.9000002 -0.09478303
v -0.03094254 -0.9000002 -0.09478303
v 0.003981974 -0.8989485 -0.03141526
v -0.02586704 -0.8989485 -0.03141534
v -0.1422493 -0.9000002 -0.03159487
v -0.03094254 -0.9000002 -0.03159485
v -0.03094254 -0.9000002 -7.629426E-07
v -0.1422493 -0.9000002 -7.724794E-07
v -0.03094246 -0.3 -4.673036E-07
v -0.02586696 -0.2989483 -0.03141505
v -0.02586704 -0.8989485 -0.03141534
v -0.03094254 -0.9000002 -7.629426E-07
v 0.009057467 -0.9000002 -7.629426E-07
v 0.003981974 -0.8989485 -0.03141526
v 0.003982046 -0.2989483 -0.03141505
v 0.009057539 -0.3 -4.673036E-07
v 0.009057467 -0.9000002 -0.03159485
v 0.003981974 -0.8989485 -0.03141526
v 0.009057467 -0.9000002 -7.629426E-07
v 0.009057467 -0.9000002 -0.09478303
v -0.03094254 -0.9000002 -7.629426E-07
v -0.02586704 -0.8989485 -0.03141534
v -0.03094254 -0.9000002 -0.03159485
v -0.03094254 -0.9000002 -0.09478303
v -0.03094254 -0.9000002 -7.629426E-07
v -0.1422493 -0.9000002 -7.724794E-07
v -0.1422492 -0.3 -4.863771E-07
v -0.03094246 -0.3 -4.673036E-07
v -0.7822493 -0.9 -6.619127E-07
v -0.9000002 -0.9 -6.619143E-07
v -0.9 -0.3 -3.758088E-07
v -0.7822492 -0.2999998 -3.662737E-07
v -0.331592 -0.8989484 -0.03141526
v -0.3315919 -0.2989482 -0.03141497
v -0.3045911 -0.2989483 -0.03141497
v -0.3045911 -0.8989484 -0.03141525
v -0.9 -0.2999998 -0.2843471
v -0.9000002 -0.9 -0.1895652
v -0.9000002 -0.8999999 -0.2843474
v -0.9 -0.2999998 -0.1895649
v -0.9000002 -0.9 -0.0947829
v -0.9 -0.2999998 -0.09478266
v -0.9000002 -0.9 -0.03159475
v -0.9 -0.2999998 -0.03159446
v -0.9000002 -0.9 -6.619143E-07
v -0.9 -0.3 -3.758088E-07
v -0.9000002 -0.8999999 -0.2843474
v -0.7822493 -0.9 -0.1895652
v -0.7822493 -0.8999999 -0.2843475
v -0.9000002 -0.9 -0.1895652
v -0.7822493 -0.9 -0.0947829
v -0.9000002 -0.9 -0.0947829
v -0.9000002 -0.9 -0.03159475
v -0.7822493 -0.9 -0.03159475
v -0.9000002 -0.9 -6.619143E-07
v -0.7822493 -0.9 -6.619127E-07
v -0.3361831 -0.3 -3.758088E-07
v -0.3315919 -0.2989482 -0.03141497
v -0.331592 -0.8989484 -0.03141526
v -0.3361832 -0.9 -6.714511E-07
v -0.3 -0.9 -6.619143E-07
v -0.3045911 -0.8989484 -0.03141525
v -0.3045911 -0.2989483 -0.03141497
v -0.2999999 -0.3 -3.758088E-07
v -0.331592 -0.8989484 -0.03141526
v -0.3361832 -0.9 -0.03159479
v -0.3361832 -0.9 -6.714511E-07
v -0.3361832 -0.9 -0.09478294
v -0.3361832 -0.9 -6.714511E-07
v -0.4400801 -0.9 -7.191331E-07
v -0.44008 -0.3 -4.234941E-07
v -0.3361831 -0.3 -3.758088E-07
v -0.7771738 -0.8989484 -0.03141526
v -0.7771738 -0.2989482 -0.03141497
v -0.7473246 -0.2989482 -0.03141497
v -0.7473248 -0.8989484 -0.03141518
v -0.7822493 -0.8999999 -0.2843475
v -0.7422493 -0.9 -0.1895652
v -0.7422493 -0.8999999 -0.2843475
v -0.7822493 -0.9 -0.1895652
v -0.7422493 -0.9 -0.09478294
v -0.7822493 -0.9 -0.0947829
v -0.7473248 -0.8989484 -0.03141518
v -0.7771738 -0.8989484 -0.03141526
v -0.7822492 -0.2999998 -3.662737E-07
v -0.7771738 -0.2989482 -0.03141497
v -0.7771738 -0.8989484 -0.03141526
v -0.7822493 -0.9 -6.619127E-07
v -0.7422493 -0.9 -6.905229E-07
v -0.7473248 -0.8989484 -0.03141518
v -0.7473246 -0.2989482 -0.03141497
v -0.7422492 -0.2999998 -4.044206E-07
v -0.7422493 -0.9 -0.03159479
v -0.7473248 -0.8989484 -0.03141518
v -0.7422493 -0.9 -6.905229E-07
v -0.7422493 -0.9 -0.09478294
v -0.7822493 -0.9 -6.619127E-07
v -0.7771738 -0.8989484 -0.03141526
v -0.7822493 -0.9 -0.03159475
v -0.7822493 -0.9 -0.0947829
v -0.4750046 -0.8989484 -0.03141526
v -0.4750045 -0.2989482 -0.03141497
v -0.4451555 -0.2989482 -0.03141497
v -0.4451556 -0.8989484 -0.03141518
v -0.4800801 -0.8999999 -0.2843475
v -0.4400801 -0.9 -0.1895653
v -0.4400801 -0.8999999 -0.2843475
v -0.4800801 -0.9 -0.1895652
v -0.4400801 -0.9 -0.09478298
v -0.4800801 -0.9 -0.09478293
v -0.4451556 -0.8989484 -0.03141518
v -0.4750046 -0.8989484 -0.03141526
v -0.4800801 -0.3 -3.662737E-07
v -0.4750045 -0.2989482 -0.03141497
v -0.4750046 -0.8989484 -0.03141526
v -0.4800801 -0.9 -6.619127E-07
v -0.4400801 -0.9 -7.191331E-07
v -0.4451556 -0.8989484 -0.03141518
v -0.4451555 -0.2989482 -0.03141497
v -0.44008 -0.3 -4.234941E-07
v -0.4400801 -0.9 -0.03159481
v -0.4451556 -0.8989484 -0.03141518
v -0.4400801 -0.9 -7.191331E-07
v -0.4400801 -0.9 -0.09478298
v -0.4800801 -0.9 -6.619127E-07
v -0.4750046 -0.8989484 -0.03141526
v -0.4800801 -0.9 -0.03159477
v -0.4800801 -0.9 -0.09478293
v -0.4800801 -0.9 -6.619127E-07
v -0.5909425 -0.9 -6.809862E-07
v -0.5909424 -0.2999998 -3.853471E-07
v -0.4800801 -0.3 -3.662737E-07
v -0.625867 -0.8989484 -0.03141526
v -0.6258669 -0.2989482 -0.03141497
v -0.596018 -0.2989482 -0.03141497
v -0.596018 -0.8989484 -0.03141518
v -0.5909425 -0.8999999 -0.2843475
v -0.4800801 -0.9 -0.1895652
v -0.4800801 -0.8999999 -0.2843475
v -0.5909425 -0.9 -0.1895652
v -0.6309425 -0.8999999 -0.2843475
v -0.4800801 -0.9 -0.09478293
v -0.6309425 -0.9 -0.1895652
v -0.5909425 -0.9 -0.09478294
v -0.5909425 -0.9 -0.03159477
v -0.4800801 -0.9 -0.03159477
v -0.5909425 -0.9 -6.809862E-07
v -0.4800801 -0.9 -6.619127E-07
v -0.7422493 -0.9 -0.1895652
v -0.7422493 -0.8999999 -0.2843475
v -0.7422493 -0.9 -0.09478294
v -0.6309425 -0.9 -0.09478294
v -0.596018 -0.8989484 -0.03141518
v -0.625867 -0.8989484 -0.03141526
v -0.7422493 -0.9 -0.03159479
v -0.6309425 -0.9 -0.03159477
v -0.6309425 -0.9 -6.809862E-07
v -0.7422493 -0.9 -6.905229E-07
v -0.6309425 -0.2999998 -3.853471E-07
v -0.6258669 -0.2989482 -0.03141497
v -0.625867 -0.8989484 -0.03141526
v -0.6309425 -0.9 -6.809862E-07
v -0.5909425 -0.9 -6.809862E-07
v -0.596018 -0.8989484 -0.03141518
v -0.596018 -0.2989482 -0.03141497
v -0.5909424 -0.2999998 -3.853471E-07
v -0.5909425 -0.9 -0.03159477
v -0.596018 -0.8989484 -0.03141518
v -0.5909425 -0.9 -6.809862E-07
v -0.5909425 -0.9 -0.09478294
v -0.6309425 -0.9 -6.809862E-07
v -0.625867 -0.8989484 -0.03141526
v -0.6309425 -0.9 -0.03159477
v -0.6309425 -0.9 -0.09478294
v -0.6309425 -0.9 -6.809862E-07
v -0.7422493 -0.9 -6.905229E-07
v -0.7422492 -0.2999998 -4.044206E-07
v -0.6309425 -0.2999998 -3.853471E-07
v -0.7822493 -0.3 -2.518296E-07
v -0.9000002 -0.3 -2.518312E-07
v -0.9 0.3 3.427424E-08
v -0.7822492 0.3000002 4.380943E-08
v -0.331592 -0.2989483 -0.03141485
v -0.3315919 0.3010518 -0.03141456
v -0.3045911 0.3010516 -0.03141456
v -0.3045911 -0.2989483 -0.03141484
v -0.9 0.3000002 -0.2843468
v -0.9000002 -0.3 -0.1895648
v -0.9000002 -0.2999999 -0.2843471
v -0.9 0.3000002 -0.1895645
v -0.9000002 -0.3 -0.09478249
v -0.9 0.3000002 -0.09478225
v -0.9000002 -0.3 -0.03159434
v -0.9 0.3000001 -0.03159405
v -0.9000002 -0.3 -2.518312E-07
v -0.9 0.3 3.427424E-08
v -0.9000002 -0.2999999 -0.2843471
v -0.7822493 -0.3 -0.1895648
v -0.7822493 -0.2999999 -0.2843471
v -0.9000002 -0.3 -0.1895648
v -0.7822493 -0.3 -0.09478249
v -0.9000002 -0.3 -0.09478249
v -0.9000002 -0.3 -0.03159434
v -0.7822493 -0.3 -0.03159434
v -0.9000002 -0.3 -2.518312E-07
v -0.7822493 -0.3 -2.518296E-07
v -0.3361831 0.3 3.427424E-08
v -0.3315919 0.3010518 -0.03141456
v -0.331592 -0.2989483 -0.03141485
v -0.3361832 -0.3 -2.613679E-07
v -0.3 -0.3 -2.518312E-07
v -0.3045911 -0.2989483 -0.03141484
v -0.3045911 0.3010516 -0.03141456
v -0.2999999 0.3 3.427424E-08
v -0.331592 -0.2989483 -0.03141485
v -0.3361832 -0.3 -0.03159438
v -0.3361832 -0.3 -2.613679E-07
v -0.3361832 -0.3 -0.09478253
v -0.3361832 -0.3 -2.613679E-07
v -0.4400801 -0.3 -3.090501E-07
v -0.44008 0.3 -1.341103E-08
v -0.3361831 0.3 3.427424E-08
v -0.7771738 -0.2989483 -0.03141485
v -0.7771738 0.3010518 -0.03141456
v -0.7473246 0.3010518 -0.03141456
v -0.7473248 -0.2989483 -0.03141477
v -0.7822493 -0.2999999 -0.2843471
v -0.7422493 -0.3 -0.1895648
v -0.7422493 -0.2999999 -0.2843471
v -0.7822493 -0.3 -0.1895648
v -0.7422493 -0.3 -0.09478253
v -0.7822493 -0.3 -0.09478249
v -0.7473248 -0.2989483 -0.03141477
v -0.7771738 -0.2989483 -0.03141485
v -0.7822492 0.3000002 4.380943E-08
v -0.7771738 0.3010518 -0.03141456
v -0.7771738 -0.2989483 -0.03141485
v -0.7822493 -0.3 -2.518296E-07
v -0.7422493 -0.3 -2.804398E-07
v -0.7473248 -0.2989483 -0.03141477
v -0.7473246 0.3010518 -0.03141456
v -0.7422492 0.3000002 5.662459E-09
v -0.7422493 -0.3 -0.03159438
v -0.7473248 -0.2989483 -0.03141477
v -0.7422493 -0.3 -2.804398E-07
v -0.7422493 -0.3 -0.09478253
v -0.7822493 -0.3 -2.518296E-07
v -0.7771738 -0.2989483 -0.03141485
v -0.7822493 -0.3 -0.03159434
v -0.7822493 -0.3 -0.09478249
v -0.4750046 -0.2989483 -0.03141485
v -0.4750045 0.3010518 -0.03141456
v -0.4451555 0.3010518 -0.03141456
v -0.4451556 -0.2989483 -0.03141477
v -0.4800801 -0.2999999 -0.2843471
v -0.4400801 -0.3 -0.1895649
v -0.4400801 -0.2999999 -0.2843471
v -0.4800801 -0.3 -0.1895648
v -0.4400801 -0.3 -0.09478257
v -0.4800801 -0.3 -0.09478251
v -0.4451556 -0.2989483 -0.03141477
v -0.4750046 -0.2989483 -0.03141485
v -0.4800801 0.3 4.380943E-08
v -0.4750045 0.3010518 -0.03141456
v -0.4750046 -0.2989483 -0.03141485
v -0.4800801 -0.3 -2.518296E-07
v -0.4400801 -0.3 -3.090501E-07
v -0.4451556 -0.2989483 -0.03141477
v -0.4451555 0.3010518 -0.03141456
v -0.44008 0.3 -1.341103E-08
v -0.4400801 -0.3 -0.0315944
v -0.4451556 -0.2989483 -0.03141477
v -0.4400801 -0.3 -3.090501E-07
v -0.4400801 -0.3 -0.09478257
v -0.4800801 -0.3 -2.518296E-07
v -0.4750046 -0.2989483 -0.03141485
v -0.4800801 -0.3 -0.03159436
v -0.4800801 -0.3 -0.09478251
v -0.4800801 -0.3 -2.518296E-07
v -0.5909425 -0.3 -2.709031E-07
v -0.5909424 0.3000002 2.473594E-08
v -0.4800801 0.3 4.380943E-08
v -0.625867 -0.2989483 -0.03141485
v -0.6258669 0.3010518 -0.03141456
v -0.596018 0.3010518 -0.03141456
v -0.596018 -0.2989483 -0.03141477
v -0.5909425 -0.2999999 -0.2843471
v -0.4800801 -0.3 -0.1895648
v -0.4800801 -0.2999999 -0.2843471
v -0.5909425 -0.3 -0.1895648
v -0.6309425 -0.2999999 -0.2843471
v -0.4800801 -0.3 -0.09478251
v -0.6309425 -0.3 -0.1895648
v -0.5909425 -0.3 -0.09478253
v -0.5909425 -0.3 -0.03159436
v -0.4800801 -0.3 -0.03159436
v -0.5909425 -0.3 -2.709031E-07
v -0.4800801 -0.3 -2.518296E-07
v -0.7422493 -0.3 -0.1895648
v -0.7422493 -0.2999999 -0.2843471
v -0.7422493 -0.3 -0.09478253
v -0.6309425 -0.3 -0.09478253
v -0.596018 -0.2989483 -0.03141477
v -0.625867 -0.2989483 -0.03141485
v -0.7422493 -0.3 -0.03159438
v -0.6309425 -0.3 -0.03159436
v -0.6309425 -0.3 -2.709031E-07
v -0.7422493 -0.3 -2.804398E-07
v -0.6309425 0.3000002 2.473594E-08
v -0.6258669 0.3010518 -0.03141456
v -0.625867 -0.2989483 -0.03141485
v -0.6309425 -0.3 -2.709031E-07
v -0.5909425 -0.3 -2.709031E-07
v -0.596018 -0.2989483 -0.03141477
v -0.596018 0.3010518 -0.03141456
v -0.5909424 0.3000002 2.473594E-08
v -0.5909425 -0.3 -0.03159436
v -0.596018 -0.2989483 -0.03141477
v -0.5909425 -0.3 -2.709031E-07
v -0.5909425 -0.3 -0.09478253
v -0.6309425 -0.3 -2.709031E-07
v -0.625867 -0.2989483 -0.03141485
v -0.6309425 -0.3 -0.03159436
v -0.6309425 -0.3 -0.09478253
v -0.6309425 -0.3 -2.709031E-07
v -0.7422493 -0.3 -2.804398E-07
v -0.7422492 0.3000002 5.662459E-09
v -0.6309425 0.3000002 2.473594E-08
v -0.9775649 -0.8835542 -0.2920339
v -0.9368853 -0.9053528 0.0004398832
v -0.7437869 -1.02724 -0.03732028
v -0.7844664 -1.005441 -0.3297941
v -0.4159147 -0.873387 -0.120628
v -0.2260096 -0.9782634 -0.03316347
v -0.1816881 -1.037407 -0.2087261
v -0.3715934 -0.9325305 -0.2961906
v -0.07143445 -1.042355 -0.2170117
v -0.1339251 -1.001822 -0.4434331
v -0.2509931 -0.8684385 -0.3844171
v -0.1885026 -0.9089721 -0.1579956
v 0.02256418 -0.8835542 -0.3568305
v 0.06324394 -0.9053528 -0.0643568
v 0.2563424 -1.02724 -0.1021169
v 0.2156628 -1.005441 -0.3945908
v -0.8314841 -0.9577839 -0.1644653
v -0.9441297 -0.8177121 -0.3965255
v -0.9757726 -0.6301192 -0.261547
v -0.863127 -0.7701911 -0.02948665
v -1.011564 -0.2345153 -0.2419742
v -0.9511895 -0.2150915 -0.0120431
v -0.8774077 -0.3864297 -0.01721288
v -0.9377816 -0.4058535 -0.247144
v -1.056397 -0.08415563 -0.1893471
v -0.8942679 -0.1423205 -0.02835241
v -0.8154609 -0.2573788 -0.1553843
v -0.9775898 -0.199214 -0.3163792
v -0.8614684 -0.100783 -0.1130599
v -0.982253 -0.02044414 -0.369327
v -1.013535 0.1930289 -0.2835964
v -0.8927501 0.11269 -0.02732934
v -0.2969133 -0.9636409 -0.1060832
v -0.3206653 -1.001747 -0.3797289
v -0.5500235 -0.8954341 -0.3743439
v -0.5262715 -0.8573282 -0.1006983
v -0.1278935 -0.9559839 -0.3675364
v -0.1968381 -0.9179174 -0.2694659
v -0.05135885 -0.9030915 -0.1680213
v 0.01758552 -0.941158 -0.2660919
v 0.4718123 -0.8931301 -0.1075616
v 0.4684148 -0.9299577 -0.3329088
v 0.2603655 -0.9365914 -0.3284743
v 0.2637629 -0.899764 -0.1031272
v -1.040228 -0.2633228 -0.315567
v -0.9248744 -0.2863526 -0.06565159
v -0.8433033 -0.5180528 -0.1276287
v -0.9586569 -0.4950233 -0.377544
v -0.8997206 -0.1364303 -0.1174366
v -0.9219596 -0.2060506 -0.22004
v -0.9708612 -0.06174238 -0.3116661
v -0.9486222 0.007877794 -0.2090627
v -1.006398 0.3867405 -0.3642381
v -0.9436643 0.3983367 -0.1452869
v -0.8490485 0.2136038 -0.1635092
v -0.9117828 0.2020072 -0.3824603
v -0.7736644 -0.9404514 -0.2179663
v -0.7620862 -0.8995516 -0.02270097
v -0.5838133 -0.9374944 -0.02546944
v -0.5953913 -0.9783942 -0.2207347
v -0.868031 -0.7843475 -0.03112672
v -0.9448094 -0.7748375 -0.214797
v -0.9790353 -0.5973027 -0.1901134
v -0.9022569 -0.6068126 -0.006443248
v -0.7289145 -0.9365224 -0.3594931
v -0.6593463 -0.8503481 -0.1267181
v -0.4902771 -0.9742715 -0.1316737
v -0.5598454 -1.060446 -0.3644488
v -0.7938217 -0.8924887 -0.1236903
v -0.7742661 -1.040293 -0.332819
v -0.9680379 -0.9854571 -0.3925358
v -0.9875935 -0.8376529 -0.1834072
v -0.0141985 -0.9640867 -0.2997968
v -0.05210732 -0.8204175 -0.09029429
v 0.1094224 -0.9138591 0.00767376
v 0.1473312 -1.057528 -0.2018287
v -0.08181535 -0.872012 -0.2217291
v 0.1581618 -0.9426176 -0.2579091
v 0.1037056 -1.038782 -0.4405582
v -0.1362713 -0.9681761 -0.4043781
v 0.2177252 -1.009687 -0.4278851
v 0.1927457 -0.8534462 -0.2949475
v 0.3321664 -0.901107 -0.208627
v 0.3571457 -1.057348 -0.3415646
v -0.8721052 -0.7373397 -0.1355047
v -0.9346096 -0.669392 -0.3765708
v -1.037514 -0.5029305 -0.2992881
v -0.9750094 -0.570878 -0.05822204
v -0.9551927 -0.7899566 -0.290494
v -0.9586891 -0.7704741 -0.03232165
v -0.8751113 -0.9621875 -0.01594873
v -0.8716149 -0.9816698 -0.2741211
v -0.8324792 -0.02390961 -0.1679805
v -0.83207 -0.06184898 -0.4240143
v -0.9677933 0.09617598 -0.4488176
v -0.9682024 0.1341152 -0.1927837
v -0.9423025 0.1404409 -0.1448638
v -0.8960608 -0.05049649 0.01809404
v -0.9046343 -0.1858775 -0.1458268
v -0.9508758 0.005059795 -0.3087845
v -0.9189447 0.151499 -0.07096708
v -0.8655596 0.1279377 -0.2718893
v -0.9567773 0.2650353 -0.3142333
v -1.010162 0.2885965 -0.113311
v -0.6693683 -0.8278376 -0.2199563
v -0.5625999 -0.8489457 -0.00532642
v -0.4520452 -0.9851104 -0.07717849
v -0.5588136 -0.9640022 -0.2918084
v -0.1068766 -0.9076901 -0.3017156
v -0.2145808 -0.8483135 -0.09526321
v -0.06189991 -0.9017635 0.004580763
v 0.04580445 -0.9611403 -0.2018716
v 0.2062659 -0.8229314 -0.0142202
v 0.3707507 -0.9780135 -0.08378551
v 0.2856574 -0.994909 -0.2557069
v 0.1211727 -0.8398272 -0.1861417
v -0.8635242 -0.6774992 -0.1614273
v -1.004367 -0.574433 -0.3242708
v -1.078048 -0.4657559 -0.1851102
v -0.9372044 -0.5688221 -0.02226669
v -0.8130047 -0.1153426 -0.1997415
v -0.8777729 -0.2249161 -0.4034683
v -0.9816805 -0.07488795 -0.4534373
v -0.9169123 0.03468554 -0.2497106
v -0.9484997 0.158135 -0.4846695
v -1.040361 0.3203068 -0.3361974
v -0.9551379 0.2374325 -0.1857807
v -0.863277 0.07526076 -0.3342527
v -0.9446089 -0.8433127 -0.1739568
v -0.829528 -1.000353 -0.1589794
v -0.8626475 -1.040923 -0.3379736
v -0.9777285 -0.8838828 -0.352951
v -0.2383386 -0.8889821 0.0003988624
v -0.06650276 -0.9606817 -0.05958148
v -0.1427561 -1.01622 -0.2194911
v -0.3145919 -0.9445208 -0.1595108
v -0.8945782 -0.9538721 -0.3421412
v -1.034256 -0.8424517 -0.2615692
v -0.9657789 -0.8737507 -0.09138422
v -0.8261005 -0.9851712 -0.1719563
v -0.9175069 -0.2510383 -0.4746574
v -0.9469213 -0.07981682 -0.3832916
v -0.9002258 -0.1548849 -0.2198493
v -0.8708115 -0.3261065 -0.3112151
v -0.2175312 -1.019538 -0.3927634
v -0.4176239 -0.8988408 -0.4266427
v -0.4101034 -0.8374397 -0.2437488
v -0.2100106 -0.9581376 -0.2098694
v -0.9349644 -0.2271173 -0.0592704
v -0.8120078 -0.4240919 -0.102925
v -0.8649892 -0.4179994 -0.2886056
v -0.9879459 -0.2210247 -0.2449511
vt 0.2782863 0.002593584
vt 0.2461049 0.002593584
vt 0.2461049 0.008068291
vt 0.1850591 0.002593584
vt 0.2461049 0.008068291
vt 0.1850591 0.03449728
vt 0.2461049 0.02845178
vt 0.09246863 0.03449728
vt 0.09246863 0.002593584
vt 0.00446178 0.03449728
vt 0.00446178 0.002593584
vt 0.09246863 0.1408483
vt 0.00446178 0.1408483
vt 0.1850591 0.1408483
vt 0.2461049 0.1408483
vt 0.2461049 0.03449728
vt 0.2782863 0.03449728
vt 0.2782863 0.1408483
vt 0.2782863 0.002593584
vt 0.2461049 0.002593584
vt 0.2461049 0.008068291
vt 0.1850591 0.002593584
vt 0.2461049 0.008068291
vt 0.1850591 0.03449728
vt 0.2461049 0.02845178
vt 0.09246863 0.03449728
vt 0.09246863 0.002593584
vt 0.00446178 0.03449728
vt 0.00446178 0.002593584
vt 0.09246863 0.1408483
vt 0.00446178 0.1408483
vt 0.1850591 0.1408483
vt 0.2461049 0.1408483
vt 0.2461049 0.03449728
vt 0.2782863 0.03449728
vt 0.2782863 0.1408483
vt 0.2782863 0.002593584
vt 0.2461049 0.002593584
vt 0.2461049 0.008068291
vt 0.1850591 0.002593584
vt 0.2461049 0.008068291
vt 0.1850591 0.03449728
vt 0.2461049 0.02845178
vt 0.09246863 0.03449728
vt 0.09246863 0.002593584
vt 0.00446178 0.03449728
vt 0.00446178 0.002593584
vt 0.09246863 0.1408483
vt 0.00446178 0.1408483
vt 0.1850591 0.1408483
vt 0.2461049 0.1408483
vt 0.2461049 0.03449728
vt 0.2782863 0.03449728
vt 0.2782863 0.1408483
vt 0.2782863 0.002593584
vt 0.2461049 0.002593584
vt 0.2461049 0.008068291
vt 0.1850591 0.002593584
vt 0.2461049 0.008068291
vt 0.1850591 0.03449728
vt 0.2461049 0.02845178
vt 0.09246863 0.03449728
vt 0.09246863 0.002593584
vt 0.00446178 0.03449728
vt 0.00446178 0.002593584
vt 0.09246863 0.1408483
vt 0.00446178 0.1408483
vt 0.1850591 0.1408483
vt 0.2461049 0.1408483
vt 0.2461049 0.03449728
vt 0.2782863 0.03449728
vt 0.2782863 0.1408483
vt 0.4248589 0.2823997
vt 0.2970972 0.2823997
vt 0.2970972 0.9852763
vt 0.4248589 0.9852763
vt 0.9308321 0.2823997
vt 0.9308322 0.9852763
vt 0.9571889 0.9852763
vt 0.9571889 0.2823997
vt 0.00446178 0.9923986
vt 0.09246863 0.5467738
vt 0.00446178 0.5467738
vt 0.09246863 0.9923988
vt 0.1850591 0.5467738
vt 0.1850591 0.9923989
vt 0.2461049 0.5467738
vt 0.2461049 0.992399
vt 0.2782863 0.5467738
vt 0.2782863 0.992399
vt 0.00446178 0.4955587
vt 0.09246863 0.3882964
vt 0.00446178 0.3882964
vt 0.09246863 0.4955587
vt 0.1850591 0.3882964
vt 0.1850591 0.4955587
vt 0.2461049 0.4955587
vt 0.2461049 0.3882964
vt 0.2782863 0.4955587
vt 0.2782863 0.3882964
vt 0.899843 0.9852763
vt 0.9308322 0.9852763
vt 0.9308321 0.2823997
vt 0.8998429 0.2823997
vt 0.9881879 0.2823997
vt 0.9571889 0.2823997
vt 0.9571889 0.9852763
vt 0.988188 0.9852763
vt 0.2461049 0.02845178
vt 0.2461049 0.03449728
vt 0.2782863 0.03449728
vt 0.1850591 0.03449728
vt 0.8998429 0.2823997
vt 0.7718608 0.2823997
vt 0.7718609 0.9852763
vt 0.899843 0.9852763
vt 0.5836862 0.2823997
vt 0.5836863 0.9852763
vt 0.6128208 0.9852763
vt 0.6128208 0.2823997
vt 0.00446178 0.2810341
vt 0.09246863 0.2471993
vt 0.00446178 0.2471993
vt 0.09246863 0.2810341
vt 0.1850591 0.2471993
vt 0.1850591 0.2810341
vt 0.2461049 0.2524037
vt 0.2461049 0.275016
vt 0.5526205 0.9852763
vt 0.5836863 0.9852763
vt 0.5836862 0.2823997
vt 0.5526205 0.2823997
vt 0.6438788 0.2823997
vt 0.6128208 0.2823997
vt 0.6128208 0.9852763
vt 0.6438788 0.9852763
vt 0.2461049 0.2471993
vt 0.2461049 0.2524037
vt 0.2782863 0.2471993
vt 0.1850591 0.2471993
vt 0.2782863 0.2810341
vt 0.2461049 0.275016
vt 0.2461049 0.2810341
vt 0.1850591 0.2810341
vt 0.5836862 0.2823997
vt 0.5836863 0.9852763
vt 0.6128208 0.9852763
vt 0.6128208 0.2823997
vt 0.00446178 0.2810341
vt 0.09246863 0.2471993
vt 0.00446178 0.2471993
vt 0.09246863 0.2810341
vt 0.1850591 0.2471993
vt 0.1850591 0.2810341
vt 0.2461049 0.2524037
vt 0.2461049 0.275016
vt 0.5526205 0.9852763
vt 0.5836863 0.9852763
vt 0.5836862 0.2823997
vt 0.5526205 0.2823997
vt 0.6438788 0.2823997
vt 0.6128208 0.2823997
vt 0.6128208 0.9852763
vt 0.6438788 0.9852763
vt 0.2461049 0.2471993
vt 0.2461049 0.2524037
vt 0.2782863 0.2471993
vt 0.1850591 0.2471993
vt 0.2782863 0.2810341
vt 0.2461049 0.275016
vt 0.2461049 0.2810341
vt 0.1850591 0.2810341
vt 0.7718608 0.2823997
vt 0.6438788 0.2823997
vt 0.6438788 0.9852763
vt 0.7718609 0.9852763
vt 0.5836862 0.2823997
vt 0.5836863 0.9852763
vt 0.6128208 0.9852763
vt 0.6128208 0.2823997
vt 0.00446178 0.2471993
vt 0.09246863 0.1408483
vt 0.00446178 0.1408483
vt 0.09246863 0.2471993
vt 0.00446178 0.2810341
vt 0.1850591 0.1408483
vt 0.09246863 0.2810341
vt 0.1850591 0.2471993
vt 0.2461049 0.2471993
vt 0.2461049 0.1408483
vt 0.2782863 0.2471993
vt 0.2782863 0.1408483
vt 0.09246863 0.3882964
vt 0.00446178 0.3882964
vt 0.1850591 0.3882964
vt 0.1850591 0.2810341
vt 0.2461049 0.2524037
vt 0.2461049 0.275016
vt 0.2461049 0.3882964
vt 0.2461049 0.2810341
vt 0.2782863 0.2810341
vt 0.2782863 0.3882964
vt 0.5526205 0.9852763
vt 0.5836863 0.9852763
vt 0.5836862 0.2823997
vt 0.5526205 0.2823997
vt 0.6438788 0.2823997
vt 0.6128208 0.2823997
vt 0.6128208 0.9852763
vt 0.6438788 0.9852763
vt 0.2461049 0.2471993
vt 0.2461049 0.2524037
vt 0.2782863 0.2471993
vt 0.1850591 0.2471993
vt 0.2782863 0.2810341
vt 0.2461049 0.275016
vt 0.2461049 0.2810341
vt 0.1850591 0.2810341
vt 0.5526205 0.2823997
vt 0.4248589 0.2823997
vt 0.4248589 0.9852763
vt 0.5526205 0.9852763
vt 0.4248589 0.2823997
vt 0.2970972 0.2823997
vt 0.2970972 0.9852763
vt 0.4248589 0.9852763
vt 0.9308321 0.2823997
vt 0.9308322 0.9852763
vt 0.9571889 0.9852763
vt 0.9571889 0.2823997
vt 0.00446178 0.9923986
vt 0.09246863 0.5467738
vt 0.00446178 0.5467738
vt 0.09246863 0.9923988
vt 0.1850591 0.5467738
vt 0.1850591 0.9923989
vt 0.2461049 0.5467738
vt 0.2461049 0.992399
vt 0.2782863 0.5467738
vt 0.2782863 0.992399
vt 0.00446178 0.4955587
vt 0.09246863 0.3882964
vt 0.00446178 0.3882964
vt 0.09246863 0.4955587
vt 0.1850591 0.3882964
vt 0.1850591 0.4955587
vt 0.2461049 0.4955587
vt 0.2461049 0.3882964
vt 0.2782863 0.4955587
vt 0.2782863 0.3882964
vt 0.899843 0.9852763
vt 0.9308322 0.9852763
vt 0.9308321 0.2823997
vt 0.8998429 0.2823997
vt 0.9881879 0.2823997
vt 0.9571889 0.2823997
vt 0.9571889 0.9852763
vt 0.988188 0.9852763
vt 0.2461049 0.02845178
vt 0.2461049 0.03449728
vt 0.2782863 0.03449728
vt 0.1850591 0.03449728
vt 0.8998429 0.2823997
vt 0.7718608 0.2823997
vt 0.7718609 0.9852763
vt 0.899843 0.9852763
vt 0.5836862 0.2823997
vt 0.5836863 0.9852763
vt 0.6128208 0.9852763
vt 0.6128208 0.2823997
vt 0.00446178 0.2810341
vt 0.09246863 0.2471993
vt 0.00446178 0.2471993
vt 0.09246863 0.2810341
vt 0.1850591 0.2471993
vt 0.1850591 0.2810341
vt 0.2461049 0.2524037
vt 0.2461049 0.275016
vt 0.5526205 0.9852763
vt 0.5836863 0.9852763
vt 0.5836862 0.2823997
vt 0.5526205 0.2823997
vt 0.6438788 0.2823997
vt 0.6128208 0.2823997
vt 0.6128208 0.9852763
vt 0.6438788 0.9852763
vt 0.2461049 0.2471993
vt 0.2461049 0.2524037
vt 0.2782863 0.2471993
vt 0.1850591 0.2471993
vt 0.2782863 0.2810341
vt 0.2461049 0.275016
vt 0.2461049 0.2810341
vt 0.1850591 0.2810341
vt 0.5836862 0.2823997
vt 0.5836863 0.9852763
vt 0.6128208 0.9852763
vt 0.6128208 0.2823997
vt 0.00446178 0.2810341
vt 0.09246863 0.2471993
vt 0.00446178 0.2471993
vt 0.09246863 0.2810341
vt 0.1850591 0.2471993
vt 0.1850591 0.2810341
vt 0.2461049 0.2524037
vt 0.2461049 0.275016
vt 0.5526205 0.9852763
vt 0.5836863 0.9852763
vt 0.5836862 0.2823997
vt 0.5526205 0.2823997
vt 0.6438788 0.2823997
vt 0.6128208 0.2823997
vt 0.6128208 0.9852763
vt 0.6438788 0.9852763
vt 0.2461049 0.2471993
vt 0.2461049 0.2524037
vt 0.2782863 0.2471993
vt 0.1850591 0.2471993
vt 0.2782863 0.2810341
vt 0.2461049 0.275016
vt 0.2461049 0.2810341
vt 0.1850591 0.2810341
vt 0.7718608 0.2823997
vt 0.6438788 0.2823997
vt 0.6438788 0.9852763
vt 0.7718609 0.9852763
vt 0.5836862 0.2823997
vt 0.5836863 0.9852763
vt 0.6128208 0.9852763
vt 0.6128208 0.2823997
vt 0.00446178 0.2471993
vt 0.09246863 0.1408483
vt 0.00446178 0.1408483
vt 0.09246863 0.2471993
vt 0.00446178 0.2810341
vt 0.1850591 0.1408483
vt 0.09246863 0.2810341
vt 0.1850591 0.2471993
vt 0.2461049 0.2471993
vt 0.2461049 0.1408483
vt 0.2782863 0.2471993
vt 0.2782863 0.1408483
vt 0.09246863 0.3882964
vt 0.00446178 0.3882964
vt 0.1850591 0.3882964
vt 0.1850591 0.2810341
vt 0.2461049 0.2524037
vt 0.2461049 0.275016
vt 0.2461049 0.3882964
vt 0.2461049 0.2810341
vt 0.2782863 0.2810341
vt 0.2782863 0.3882964
vt 0.5526205 0.9852763
vt 0.5836863 0.9852763
vt 0.5836862 0.2823997
vt 0.5526205 0.2823997
vt 0.6438788 0.2823997
vt 0.6128208 0.2823997
vt 0.6128208 0.9852763
vt 0.6438788 0.9852763
vt 0.2461049 0.2471993
vt 0.2461049 0.2524037
vt 0.2782863 0.2471993
vt 0.1850591 0.2471993
vt 0.2782863 0.2810341
vt 0.2461049 0.275016
vt 0.2461049 0.2810341
vt 0.1850591 0.2810341
vt 0.5526205 0.2823997
vt 0.4248589 0.2823997
vt 0.4248589 0.9852763
vt 0.5526205 0.9852763
vt 0.4248589 0.2823997
vt 0.2970972 0.2823997
vt 0.2970972 0.9852763
vt 0.4248589 0.9852763
vt 0.9308321 0.2823997
vt 0.9308322 0.9852763
vt 0.9571889 0.9852763
vt 0.9571889 0.2823997
vt 0.00446178 0.9923986
vt 0.09246863 0.5467738
vt 0.00446178 0.5467738
vt 0.09246863 0.9923988
vt 0.1850591 0.5467738
vt 0.1850591 0.9923989
vt 0.2461049 0.5467738
vt 0.2461049 0.992399
vt 0.2782863 0.5467738
vt 0.2782863 0.992399
vt 0.00446178 0.4955587
vt 0.09246863 0.3882964
vt 0.00446178 0.3882964
vt 0.09246863 0.4955587
vt 0.1850591 0.3882964
vt 0.1850591 0.4955587
vt 0.2461049 0.4955587
vt 0.2461049 0.3882964
vt 0.2782863 0.4955587
vt 0.2782863 0.3882964
vt 0.899843 0.9852763
vt 0.9308322 0.9852763
vt 0.9308321 0.2823997
vt 0.8998429 0.2823997
vt 0.9881879 0.2823997
vt 0.9571889 0.2823997
vt 0.9571889 0.9852763
vt 0.988188 0.9852763
vt 0.2461049 0.02845178
vt 0.2461049 0.03449728
vt 0.2782863 0.03449728
vt 0.1850591 0.03449728
vt 0.8998429 0.2823997
vt 0.7718608 0.2823997
vt 0.7718609 0.9852763
vt 0.899843 0.9852763
vt 0.5836862 0.2823997
vt 0.5836863 0.9852763
vt 0.6128208 0.9852763
vt 0.6128208 0.2823997
vt 0.00446178 0.2810341
vt 0.09246863 0.2471993
vt 0.00446178 0.2471993
vt 0.09246863 0.2810341
vt 0.1850591 0.2471993
vt 0.1850591 0.2810341
vt 0.2461049 0.2524037
vt 0.2461049 0.275016
vt 0.5526205 0.9852763
vt 0.5836863 0.9852763
vt 0.5836862 0.2823997
vt 0.5526205 0.2823997
vt 0.6438788 0.2823997
vt 0.6128208 0.2823997
vt 0.6128208 0.9852763
vt 0.6438788 0.9852763
vt 0.2461049 0.2471993
vt 0.2461049 0.2524037
vt 0.2782863 0.2471993
vt 0.1850591 0.2471993
vt 0.2782863 0.2810341
vt 0.2461049 0.275016
vt 0.2461049 0.2810341
vt 0.1850591 0.2810341
vt 0.5836862 0.2823997
vt 0.5836863 0.9852763
vt 0.6128208 0.9852763
vt 0.6128208 0.2823997
vt 0.00446178 0.2810341
vt 0.09246863 0.2471993
vt 0.00446178 0.2471993
vt 0.09246863 0.2810341
vt 0.1850591 0.2471993
vt 0.1850591 0.2810341
vt 0.2461049 0.2524037
vt 0.2461049 0.275016
vt 0.5526205 0.9852763
vt 0.5836863 0.9852763
vt 0.5836862 0.2823997
vt 0.5526205 0.2823997
vt 0.6438788 0.2823997
vt 0.6128208 0.2823997
vt 0.6128208 0.9852763
vt 0.6438788 0.9852763
vt 0.2461049 0.2471993
vt 0.2461049 0.2524037
vt 0.2782863 0.2471993
vt 0.1850591 0.2471993
vt 0.2782863 0.2810341
vt 0.2461049 0.275016
vt 0.2461049 0.2810341
vt 0.1850591 0.2810341
vt 0.7718608 0.2823997
vt 0.6438788 0.2823997
vt 0.6438788 0.9852763
vt 0.7718609 0.9852763
vt 0.5836862 0.2823997
vt 0.5836863 0.9852763
vt 0.6128208 0.9852763
vt 0.6128208 0.2823997
vt 0.00446178 0.2471993
vt 0.09246863 0.1408483
vt 0.00446178 0.1408483
vt 0.09246863 0.2471993
vt 0.00446178 0.2810341
vt 0.1850591 0.1408483
vt 0.09246863 0.2810341
vt 0.1850591 0.2471993
vt 0.2461049 0.2471993
vt 0.2461049 0.1408483
vt 0.2782863 0.2471993
vt 0.2782863 0.1408483
vt 0.09246863 0.3882964
vt 0.00446178 0.3882964
vt 0.1850591 0.3882964
vt 0.1850591 0.2810341
vt 0.2461049 0.2524037
vt 0.2461049 0.275016
vt 0.2461049 0.3882964
vt 0.2461049 0.2810341
vt 0.2782863 0.2810341
vt 0.2782863 0.3882964
vt 0.5526205 0.9852763
vt 0.5836863 0.9852763
vt 0.5836862 0.2823997
vt 0.5526205 0.2823997
vt 0.6438788 0.2823997
vt 0.6128208 0.2823997
vt 0.6128208 0.9852763
vt 0.6438788 0.9852763
vt 0.2461049 0.2471993
vt 0.2461049 0.2524037
vt 0.2782863 0.2471993
vt 0.1850591 0.2471993
vt 0.2782863 0.2810341
vt 0.2461049 0.275016
vt 0.2461049 0.2810341
vt 0.1850591 0.2810341
vt 0.5526205 0.2823997
vt 0.4248589 0.2823997
vt 0.4248589 0.9852763
vt 0.5526205 0.9852763
vt 0.4248589 0.2823997
vt 0.2970972 0.2823997
vt 0.2970972 0.9852763
vt 0.4248589 0.9852763
vt 0.9308321 0.2823997
vt 0.9308322 0.9852763
vt 0.9571889 0.9852763
vt 0.9571889 0.2823997
vt 0.00446178 0.9923986
vt 0.09246863 0.5467738
vt 0.00446178 0.5467738
vt 0.09246863 0.9923988
vt 0.1850591 0.5467738
vt 0.1850591 0.9923989
vt 0.2461049 0.5467738
vt 0.2461049 0.992399
vt 0.2782863 0.5467738
vt 0.2782863 0.992399
vt 0.00446178 0.4955587
vt 0.09246863 0.3882964
vt 0.00446178 0.3882964
vt 0.09246863 0.4955587
vt 0.1850591 0.3882964
vt 0.1850591 0.4955587
vt 0.2461049 0.4955587
vt 0.2461049 0.3882964
vt 0.2782863 0.4955587
vt 0.2782863 0.3882964
vt 0.899843 0.9852763
vt 0.9308322 0.9852763
vt 0.9308321 0.2823997
vt 0.8998429 0.2823997
vt 0.9881879 0.2823997
vt 0.9571889 0.2823997
vt 0.9571889 0.9852763
vt 0.988188 0.9852763
vt 0.2461049 0.02845178
vt 0.2461049 0.03449728
vt 0.2782863 0.03449728
vt 0.1850591 0.03449728
vt 0.8998429 0.2823997
vt 0.7718608 0.2823997
vt 0.7718609 0.9852763
vt 0.899843 0.9852763
vt 0.5836862 0.2823997
vt 0.5836863 0.9852763
vt 0.6128208 0.9852763
vt 0.6128208 0.2823997
vt 0.00446178 0.2810341
vt 0.09246863 0.2471993
vt 0.00446178 0.2471993
vt 0.09246863 0.2810341
vt 0.1850591 0.2471993
vt 0.1850591 0.2810341
vt 0.2461049 0.2524037
vt 0.2461049 0.275016
vt 0.5526205 0.9852763
vt 0.5836863 0.9852763
vt 0.5836862 0.2823997
vt 0.5526205 0.2823997
vt 0.6438788 0.2823997
vt 0.6128208 0.2823997
vt 0.6128208 0.9852763
vt 0.6438788 0.9852763
vt 0.2461049 0.2471993
vt 0.2461049 0.2524037
vt 0.2782863 0.2471993
vt 0.1850591 0.2471993
vt 0.2782863 0.2810341
vt 0.2461049 0.275016
vt 0.2461049 0.2810341
vt 0.1850591 0.2810341
vt 0.5836862 0.2823997
vt 0.5836863 0.9852763
vt 0.6128208 0.9852763
vt 0.6128208 0.2823997
vt 0.00446178 0.2810341
vt 0.09246863 0.2471993
vt 0.00446178 0.2471993
vt 0.09246863 0.2810341
vt 0.1850591 0.2471993
vt 0.1850591 0.2810341
vt 0.2461049 0.2524037
vt 0.2461049 0.275016
vt 0.5526205 0.9852763
vt 0.5836863 0.9852763
vt 0.5836862 0.2823997
vt 0.5526205 0.2823997
vt 0.6438788 0.2823997
vt 0.6128208 0.2823997
vt 0.6128208 0.9852763
vt 0.6438788 0.9852763
vt 0.2461049 0.2471993
vt 0.2461049 0.2524037
vt 0.2782863 0.2471993
vt 0.1850591 0.2471993
vt 0.2782863 0.2810341
vt 0.2461049 0.275016
vt 0.2461049 0.2810341
vt 0.1850591 0.2810341
vt 0.7718608 0.2823997
vt 0.6438788 0.2823997
vt 0.6438788 0.9852763
vt 0.7718609 0.9852763
vt 0.5836862 0.2823997
vt 0.5836863 0.9852763
vt 0.6128208 0.9852763
vt 0.6128208 0.2823997
vt 0.00446178 0.2471993
vt 0.09246863 0.1408483
vt 0.00446178 0.1408483
vt 0.09246863 0.2471993
vt 0.00446178 0.2810341
vt 0.1850591 0.1408483
vt 0.09246863 0.2810341
vt 0.1850591 0.2471993
vt 0.2461049 0.2471993
vt 0.2461049 0.1408483
vt 0.2782863 0.2471993
vt 0.2782863 0.1408483
vt 0.09246863 0.3882964
vt 0.00446178 0.3882964
vt 0.1850591 0.3882964
vt 0.1850591 0.2810341
vt 0.2461049 0.2524037
vt 0.2461049 0.275016
vt 0.2461049 0.3882964
vt 0.2461049 0.2810341
vt 0.2782863 0.2810341
vt 0.2782863 0.3882964
vt 0.5526205 0.9852763
vt 0.5836863 0.9852763
vt 0.5836862 0.2823997
vt 0.5526205 0.2823997
vt 0.6438788 0.2823997
vt 0.6128208 0.2823997
vt 0.6128208 0.9852763
vt 0.6438788 0.9852763
vt 0.2461049 0.2471993
vt 0.2461049 0.2524037
vt 0.2782863 0.2471993
vt 0.1850591 0.2471993
vt 0.2782863 0.2810341
vt 0.2461049 0.275016
vt 0.2461049 0.2810341
vt 0.1850591 0.2810341
vt 0.5526205 0.2823997
vt 0.4248589 0.2823997
vt 0.4248589 0.9852763
vt 0.5526205 0.9852763
vt 0.3417264 0.02060793
vt 0.3417264 0.2178147
vt 0.510132 0.2178147
vt 0.510132 0.02060793
vt 0.3417264 0.02060793
vt 0.3417264 0.2178147
vt 0.510132 0.2178147
vt 0.510132 0.02060793
vt 0.3417264 0.02060793
vt 0.3417264 0.2178147
vt 0.510132 0.2178147
vt 0.510132 0.02060793
vt 0.3417264 0.02060793
vt 0.3417264 0.2178147
vt 0.510132 0.2178147
vt 0.510132 0.02060793
vt 0.3417264 0.02060793
vt 0.3417264 0.2178147
vt 0.510132 0.2178147
vt 0.510132 0.02060793
vt 0.3417264 0.02060793
vt 0.3417264 0.2178147
vt 0.510132 0.2178147
vt 0.510132 0.02060793
vt 0.3417264 0.02060793
vt 0.3417264 0.2178147
vt 0.510132 0.2178147
vt 0.510132 0.02060793
vt 0.3417264 0.02060793
vt 0.3417264 0.2178147
vt 0.510132 0.2178147
vt 0.510132 0.02060793
vt 0.5339428 0.02060793
vt 0.5339428 0.2468295
vt 0.7920086 0.2468295
vt 0.7920086 0.02060793
vt 0.5339428 0.02060793
vt 0.5339428 0.2468295
vt 0.7920086 0.2468295
vt 0.7920086 0.02060793
vt 0.5339428 0.02060793
vt 0.5339428 0.2468295
vt 0.7920086 0.2468295
vt 0.7920086 0.02060793
vt 0.5339428 0.02060793
vt 0.5339428 0.2468295
vt 0.7920086 0.2468295
vt 0.7920086 0.02060793
vt 0.5339428 0.02060793
vt 0.5339428 0.2468295
vt 0.7920086 0.2468295
vt 0.7920086 0.02060793
vt 0.5339428 0.02060793
vt 0.5339428 0.2468295
vt 0.7920086 0.2468295
vt 0.7920086 0.02060793
vt 0.5339428 0.02060793
vt 0.5339428 0.2468295
vt 0.7920086 0.2468295
vt 0.7920086 0.02060793
vt 0.5339428 0.02060793
vt 0.5339428 0.2468295
vt 0.7920086 0.2468295
vt 0.7920086 0.02060793
vt 0.7920086 0.02060793
vt 0.7920086 0.2201485
vt 0.970993 0.2201485
vt 0.970993 0.02060793
vt 0.7920086 0.02060793
vt 0.7920086 0.2201485
vt 0.970993 0.2201485
vt 0.970993 0.02060793
vt 0.7920086 0.02060793
vt 0.7920086 0.2201485
vt 0.970993 0.2201485
vt 0.970993 0.02060793
vt 0.7920086 0.02060793
vt 0.7920086 0.2201485
vt 0.970993 0.2201485
vt 0.970993 0.02060793
vt 0.7920086 0.02060793
vt 0.7920086 0.2201485
vt 0.970993 0.2201485
vt 0.970993 0.02060793
vt 0.7920086 0.02060793
vt 0.7920086 0.2201485
vt 0.970993 0.2201485
vt 0.970993 0.02060793
vt 0.7920086 0.02060793
vt 0.7920086 0.2201485
vt 0.970993 0.2201485
vt 0.970993 0.02060793
vt 0.7920086 0.02060793
vt 0.7920086 0.2201485
vt 0.970993 0.2201485
vt 0.970993 0.02060793
vt 0.7920086 0.02060793
vt 0.7920086 0.2201485
vt 0.970993 0.2201485
vt 0.970993 0.02060793
vt 0.7920086 0.02060793
vt 0.7920086 0.2201485
vt 0.970993 0.2201485
vt 0.970993 0.02060793
vt 0.3417264 0.02060793
vt 0.3417264 0.2178147
vt 0.510132 0.2178147
vt 0.510132 0.02060793
vt 0.3417264 0.02060793
vt 0.3417264 0.2178147
vt 0.510132 0.2178147
vt 0.510132 0.02060793
vt 0.3417264 0.02060793
vt 0.3417264 0.2178147
vt 0.510132 0.2178147
vt 0.510132 0.02060793
vt 0.3417264 0.02060793
vt 0.3417264 0.2178147
vt 0.510132 0.2178147
vt 0.510132 0.02060793
vt 0.3417264 0.02060793
vt 0.3417264 0.2178147
vt 0.510132 0.2178147
vt 0.510132 0.02060793
vt 0.3417264 0.02060793
vt 0.3417264 0.2178147
vt 0.510132 0.2178147
vt 0.510132 0.02060793
vt 0.5339428 0.02060793
vt 0.5339428 0.2468295
vt 0.7920086 0.2468295
vt 0.7920086 0.02060793
vt 0.5339428 0.02060793
vt 0.5339428 0.2468295
vt 0.7920086 0.2468295
vt 0.7920086 0.02060793
vt 0.5339428 0.02060793
vt 0.5339428 0.2468295
vt 0.7920086 0.2468295
vt 0.7920086 0.02060793
vt 0.5339428 0.02060793
vt 0.5339428 0.2468295
vt 0.7920086 0.2468295
vt 0.7920086 0.02060793
vt 0.3417264 0.02060793
vt 0.3417264 0.2178147
vt 0.510132 0.2178147
vt 0.510132 0.02060793
vt 0.3417264 0.02060793
vt 0.3417264 0.2178147
vt 0.510132 0.2178147
vt 0.510132 0.02060793
vn -0.2232017 -0.9747723 -1.089769E-05
vn -0.2232017 -0.9747723 -1.089769E-05
vn -0.2232017 -0.9747723 -1.089769E-05
vn 0 -1 -2.012347E-07
vn -0.105625 -0.9943667 0.008849105
vn 0 -1 -2.347739E-07
vn 0 -0.9998623 0.01659319
vn 0 -1 -2.012347E-07
vn 0 -1 -2.012347E-07
vn 0 -1 -2.012347E-07
vn 0 -1 -2.012347E-07
vn 0 -1 -2.012347E-07
vn 0 -1 -2.012347E-07
vn 0 -1 -2.347739E-07
vn 0 -1 -1.509261E-07
vn 0 -1 -1.509261E-07
vn 0 -1 0
vn 0 -1 0
vn -0.2232017 -0.9747723 -1.089769E-05
vn -0.2232017 -0.9747723 -1.089769E-05
vn -0.2232017 -0.9747723 -1.089769E-05
vn 0 -1 0
vn -0.105625 -0.9943666 0.008849404
vn 0 -1 0
vn 0 -0.9998623 0.01659349
vn 0 -1 -4.024696E-07
vn 0 -1 -4.024692E-07
vn 0 -1 -8.049389E-07
vn 0 -1 -8.04939E-07
vn 0 -1 -4.024696E-07
vn 0 -1 -8.049388E-07
vn 0 -1 0
vn 0 -1 0
vn 0 -1 0
vn 0 -1 0
vn 0 -1 0
vn -0.2232017 -0.9747723 -1.089769E-05
vn -0.2232017 -0.9747723 -1.089769E-05
vn -0.2232017 -0.9747723 -1.089769E-05
vn 0 -1 0
vn -0.105625 -0.9943666 0.008849406
vn 0 -1 0
vn 0 -0.9998623 0.01659349
vn 0 -1 -4.024696E-07
vn 0 -1 -4.024692E-07
vn 0 -1 -8.049389E-07
vn 0 -1 -8.04939E-07
vn 0 -1 -4.024696E-07
vn 0 -1 -8.049388E-07
vn 0 -1 0
vn 0 -1 0
vn 0 -1 0
vn 0 -1 0
vn 0 -1 0
vn -0.2232017 -0.9747723 -1.089769E-05
vn -0.2232017 -0.9747723 -1.089769E-05
vn -0.2232017 -0.9747723 -1.089769E-05
vn 0 -1 -2.012347E-07
vn -0.105625 -0.9943667 0.008849105
vn 0 -1 -2.347739E-07
vn 0 -0.9998623 0.01659319
vn 0 -1 -2.012347E-07
vn 0 -1 -2.012347E-07
vn 0 -1 -2.012347E-07
vn 0 -1 -2.012347E-07
vn 0 -1 -2.012347E-07
vn 0 -1 -2.012347E-07
vn 0 -1 -2.347739E-07
vn 0 -1 -1.509262E-07
vn 0 -1 -1.509261E-07
vn 0 -1 0
vn 0 -1 0
vn 0 -4.84787E-07 1
vn 0 -4.84787E-07 1
vn 0 -4.84787E-07 1
vn 0 -4.84787E-07 1
vn -1.766024E-07 -4.847844E-07 1
vn -1.766024E-07 -4.847844E-07 1
vn -1.766024E-07 -4.847844E-07 1
vn -1.766024E-07 -4.847844E-07 1
vn -1 1.271565E-07 0
vn -1 1.271566E-07 0
vn -1 1.271565E-07 0
vn -1 1.271566E-07 0
vn -1 1.271566E-07 0
vn -1 1.271566E-07 0
vn -1 1.271566E-07 0
vn -1 1.271566E-07 0
vn -1 1.271566E-07 0
vn -1 1.271566E-07 0
vn 0 -1 -2.012347E-07
vn 0 -1 -2.012347E-07
vn 0 -1 -2.012347E-07
vn 0 -1 -2.012347E-07
vn 0 -1 -2.347739E-07
vn 0 -1 -2.515434E-07
vn 0 -1 -1.509261E-07
vn 0 -1 -1.509261E-07
vn 0 -1 0
vn 0 -1 0
vn 0.9894884 -1.971282E-07 0.1446117
vn 0.9894884 -1.971282E-07 0.1446117
vn 0.9894884 -1.971282E-07 0.1446117
vn 0.9894884 -1.971282E-07 0.1446117
vn -0.9894883 0 0.1446123
vn -0.9894883 0 0.1446123
vn -0.9894883 0 0.1446123
vn -0.9894883 0 0.1446123
vn 0.2232734 -0.9747559 0
vn 0.2232735 -0.9747559 0
vn 0.2232734 -0.9747559 0
vn 0.2232734 -0.9747559 -2.941466E-07
vn -4.589517E-07 -4.927344E-07 1
vn -4.589517E-07 -4.927343E-07 1
vn -4.589517E-07 -4.927343E-07 1
vn -4.589517E-07 -4.927343E-07 1
vn -1.277998E-06 -4.212059E-07 1
vn -1.277998E-06 -4.212059E-07 1
vn -1.277998E-06 -4.212059E-07 1
vn -1.277998E-06 -4.212059E-07 1
vn 0 -1 -2.012347E-07
vn 0 -1 -2.012347E-07
vn 0 -1 -2.012347E-07
vn 0 -1 -2.012347E-07
vn 0 -1 -2.347739E-07
vn 0 -1 -2.347739E-07
vn 0 -0.9998623 0.01659318
vn 0 -0.9998623 0.01659318
vn 0.9871985 -2.035398E-07 0.1594965
vn 0.9871985 -2.035398E-07 0.1594965
vn 0.9871985 -2.035398E-07 0.1594965
vn 0.9871985 -2.035398E-07 0.1594965
vn -0.9871984 0 0.1594971
vn -0.9871984 0 0.1594971
vn -0.9871984 0 0.1594971
vn -0.9871984 0 0.1594972
vn -0.202889 -0.9792017 0
vn -0.202889 -0.9792017 0
vn -0.202889 -0.9792017 0
vn -0.202889 -0.9792017 -2.955742E-07
vn 0.2028894 -0.9792016 0
vn 0.2028894 -0.9792016 0
vn 0.2028894 -0.9792016 0
vn 0.2028894 -0.9792016 -2.957275E-07
vn -1.277998E-06 -4.212059E-07 1
vn -1.277998E-06 -4.212059E-07 1
vn -1.277998E-06 -4.212059E-07 1
vn -1.277998E-06 -4.212059E-07 1
vn 0 -1 -2.012347E-07
vn 0 -1 -2.012347E-07
vn 0 -1 -2.012347E-07
vn 0 -1 -2.012347E-07
vn 0 -1 -2.347739E-07
vn 0 -1 -2.347739E-07
vn 0 -0.9998623 0.01659317
vn 0 -0.9998623 0.01659317
vn 0.9871983 -2.035398E-07 0.1594977
vn 0.9871983 -2.035398E-07 0.1594977
vn 0.9871983 -2.035398E-07 0.1594977
vn 0.9871983 -2.035398E-07 0.1594977
vn -0.9871987 0 0.1594958
vn -0.9871987 0 0.1594958
vn -0.9871987 0 0.1594958
vn -0.9871987 0 0.1594958
vn -0.2028908 -0.9792014 0
vn -0.2028908 -0.9792014 0
vn -0.2028908 -0.9792014 0
vn -0.2028908 -0.9792014 -2.955741E-07
vn 0.2028879 -0.979202 0
vn 0.2028879 -0.979202 0
vn 0.2028879 -0.979202 0
vn 0.2028879 -0.979202 -2.957254E-07
vn -1.720468E-07 -4.927317E-07 1
vn -1.720468E-07 -4.927317E-07 1
vn -1.720468E-07 -4.927317E-07 1
vn -1.720468E-07 -4.927317E-07 1
vn -1.277998E-06 -4.212059E-07 1
vn -1.277998E-06 -4.21206E-07 1
vn -1.277998E-06 -4.212059E-07 1
vn -1.277998E-06 -4.21206E-07 1
vn 0 -1 -2.012347E-07
vn 0 -1 -2.012347E-07
vn 0 -1 -2.012347E-07
vn 0 -1 -2.012347E-07
vn 0 -1 -2.012347E-07
vn 0 -1 -2.347739E-07
vn 0 -1 -2.012347E-07
vn 0 -1 -2.347739E-07
vn 0 -1 -1.509261E-07
vn 0 -1 -1.509261E-07
vn 0 -1 0
vn 0 -1 0
vn 0 -1 -2.012347E-07
vn 0 -1 -2.012347E-07
vn 0 -1 -2.347739E-07
vn 0 -1 -2.347739E-07
vn 0 -0.9998623 0.01659318
vn 0 -0.9998623 0.01659318
vn 0 -1 -1.509261E-07
vn 0 -1 -1.509261E-07
vn 0 -1 0
vn 0 -1 0
vn 0.9871984 -2.035399E-07 0.1594966
vn 0.9871984 -2.035399E-07 0.1594966
vn 0.9871984 -2.035399E-07 0.1594966
vn 0.9871984 -2.035399E-07 0.1594966
vn -0.9871984 0 0.1594968
vn -0.9871984 0 0.1594968
vn -0.9871984 0 0.1594968
vn -0.9871984 0 0.1594968
vn -0.2028893 -0.9792016 0
vn -0.2028893 -0.9792016 0
vn -0.2028894 -0.9792016 0
vn -0.2028894 -0.9792016 -2.955741E-07
vn 0.2028893 -0.9792016 0
vn 0.2028893 -0.9792016 0
vn 0.2028893 -0.9792016 0
vn 0.2028894 -0.9792016 -2.957274E-07
vn -1.285197E-07 -4.847844E-07 1
vn -1.285197E-07 -4.847843E-07 1
vn -1.285197E-07 -4.847844E-07 1
vn -1.285197E-07 -4.847843E-07 1
vn 0 -4.847872E-07 1
vn 0 -4.847871E-07 1
vn 0 -4.847871E-07 1
vn 0 -4.847872E-07 1
vn -1.766024E-07 -4.847844E-07 1
vn -1.766024E-07 -4.847844E-07 1
vn -1.766024E-07 -4.847844E-07 1
vn -1.766024E-07 -4.847844E-07 1
vn -1 1.271565E-07 0
vn -1 1.271565E-07 0
vn -1 1.271565E-07 0
vn -1 1.271566E-07 0
vn -1 1.271566E-07 0
vn -1 1.271566E-07 0
vn -1 1.271566E-07 0
vn -1 1.271565E-07 0
vn -1 1.271566E-07 0
vn -1 1.271566E-07 0
vn 0 -1 -8.04939E-07
vn 0 -1 -4.024693E-07
vn 0 -1 -8.04939E-07
vn 0 -1 -4.024694E-07
vn 0 -1 0
vn 0 -1 0
vn 0 -1 0
vn 0 -1 0
vn 0 -1 0
vn 0 -1 0
vn 0.9894884 -1.971282E-07 0.1446117
vn 0.9894884 -1.971282E-07 0.1446117
vn 0.9894884 -1.971282E-07 0.1446117
vn 0.9894884 -1.971282E-07 0.1446117
vn -0.9894883 0 0.1446123
vn -0.9894883 0 0.1446123
vn -0.9894883 0 0.1446123
vn -0.9894883 0 0.1446123
vn 0.2232734 -0.9747559 0
vn 0.2232735 -0.9747559 0
vn 0.2232734 -0.9747559 0
vn 0.2232734 -0.9747559 0
vn -4.589518E-07 -4.927344E-07 1
vn -4.589518E-07 -4.927343E-07 1
vn -4.589518E-07 -4.927343E-07 1
vn -4.589518E-07 -4.927343E-07 1
vn -1.277998E-06 -4.212059E-07 1
vn -1.277998E-06 -4.212058E-07 1
vn -1.277998E-06 -4.212059E-07 1
vn -1.277998E-06 -4.212058E-07 1
vn 0 -1 -8.04939E-07
vn 0 -1 -4.024696E-07
vn 0 -1 -8.04939E-07
vn 0 -1 -4.024693E-07
vn 0 -1 0
vn 0 -1 0
vn 0 -0.9998623 0.01659348
vn 0 -0.9998623 0.01659348
vn 0.9871985 -2.035398E-07 0.1594965
vn 0.9871985 -2.035398E-07 0.1594965
vn 0.9871985 -2.035398E-07 0.1594965
vn 0.9871985 -2.035398E-07 0.1594965
vn -0.9871984 0 0.1594971
vn -0.9871984 0 0.1594971
vn -0.9871984 0 0.1594971
vn -0.9871984 0 0.1594972
vn -0.202889 -0.9792017 0
vn -0.202889 -0.9792017 0
vn -0.202889 -0.9792017 0
vn -0.202889 -0.9792017 0
vn 0.2028894 -0.9792016 0
vn 0.2028894 -0.9792016 0
vn 0.2028894 -0.9792016 0
vn 0.2028894 -0.9792016 0
vn -1.277998E-06 -4.212059E-07 1
vn -1.277998E-06 -4.212058E-07 1
vn -1.277998E-06 -4.212059E-07 1
vn -1.277998E-06 -4.212058E-07 1
vn 0 -1 -8.049387E-07
vn 0 -1 -4.024696E-07
vn 0 -1 -8.049388E-07
vn 0 -1 -4.024692E-07
vn 0 -1 0
vn 0 -1 0
vn 0 -0.9998623 0.01659347
vn 0 -0.9998623 0.01659347
vn 0.9871983 -2.035398E-07 0.1594977
vn 0.9871983 -2.035398E-07 0.1594977
vn 0.9871983 -2.035398E-07 0.1594977
vn 0.9871983 -2.035398E-07 0.1594977
vn -0.9871987 0 0.1594958
vn -0.9871987 0 0.1594958
vn -0.9871987 0 0.1594958
vn -0.9871987 0 0.1594958
vn -0.2028908 -0.9792014 0
vn -0.2028908 -0.9792014 0
vn -0.2028908 -0.9792014 0
vn -0.2028908 -0.9792014 0
vn 0.2028879 -0.979202 0
vn 0.2028879 -0.979202 0
vn 0.2028879 -0.979202 0
vn 0.2028879 -0.979202 0
vn -1.720468E-07 -4.927317E-07 1
vn -1.720468E-07 -4.927317E-07 1
vn -1.720468E-07 -4.927317E-07 1
vn -1.720468E-07 -4.927317E-07 1
vn -1.277998E-06 -4.212059E-07 1
vn -1.277998E-06 -4.212059E-07 1
vn -1.277998E-06 -4.212059E-07 1
vn -1.277998E-06 -4.212059E-07 1
vn 0 -1 -8.049387E-07
vn 0 -1 -4.024692E-07
vn 0 -1 -8.049387E-07
vn 0 -1 -4.024694E-07
vn 0 -1 -8.049388E-07
vn 0 -1 0
vn 0 -1 -4.024695E-07
vn 0 -1 0
vn 0 -1 0
vn 0 -1 0
vn 0 -1 0
vn 0 -1 0
vn 0 -1 -4.024696E-07
vn 0 -1 -8.04939E-07
vn 0 -1 0
vn 0 -1 0
vn 0 -0.9998623 0.01659348
vn 0 -0.9998623 0.01659348
vn 0 -1 0
vn 0 -1 0
vn 0 -1 0
vn 0 -1 0
vn 0.9871984 -2.035399E-07 0.1594966
vn 0.9871984 -2.035399E-07 0.1594966
vn 0.9871984 -2.035399E-07 0.1594966
vn 0.9871984 -2.035399E-07 0.1594966
vn -0.9871984 0 0.1594968
vn -0.9871984 0 0.1594968
vn -0.9871984 0 0.1594968
vn -0.9871984 0 0.1594968
vn -0.2028893 -0.9792016 0
vn -0.2028893 -0.9792016 0
vn -0.2028894 -0.9792016 0
vn -0.2028894 -0.9792016 0
vn 0.2028893 -0.9792016 0
vn 0.2028893 -0.9792016 0
vn 0.2028893 -0.9792016 0
vn 0.2028894 -0.9792016 0
vn -1.285197E-07 -4.847844E-07 1
vn -1.285197E-07 -4.847844E-07 1
vn -1.285197E-07 -4.847844E-07 1
vn -1.285197E-07 -4.847844E-07 1
vn 0 -4.847871E-07 1
vn 0 -4.847871E-07 1
vn 0 -4.847871E-07 1
vn 0 -4.847871E-07 1
vn -1.766024E-07 -4.847844E-07 1
vn -1.766024E-07 -4.847844E-07 1
vn -1.766024E-07 -4.847844E-07 1
vn -1.766024E-07 -4.847844E-07 1
vn -1 2.543131E-07 0
vn -1 2.543131E-07 0
vn -1 2.543131E-07 0
vn -1 2.543131E-07 0
vn -1 2.543131E-07 0
vn -1 2.543131E-07 0
vn -1 2.543131E-07 0
vn -1 2.543131E-07 0
vn -1 2.543131E-07 0
vn -1 2.543131E-07 0
vn 0 -1 -8.04939E-07
vn 0 -1 -4.024693E-07
vn 0 -1 -8.04939E-07
vn 0 -1 -4.024694E-07
vn 0 -1 0
vn 0 -1 0
vn 0 -1 0
vn 0 -1 0
vn 0 -1 0
vn 0 -1 0
vn 0.9894884 -1.971281E-07 0.1446117
vn 0.9894884 -1.971281E-07 0.1446117
vn 0.9894884 -1.971281E-07 0.1446117
vn 0.9894884 -1.971281E-07 0.1446117
vn -0.9894883 0 0.1446123
vn -0.9894883 0 0.1446123
vn -0.9894883 0 0.1446123
vn -0.9894883 0 0.1446123
vn 0.2232734 -0.9747559 0
vn 0.2232735 -0.9747559 0
vn 0.2232734 -0.9747559 0
vn 0.2232734 -0.9747559 0
vn -4.589518E-07 -4.927344E-07 1
vn -4.589518E-07 -4.927343E-07 1
vn -4.589518E-07 -4.927343E-07 1
vn -4.589518E-07 -4.927343E-07 1
vn -1.277998E-06 -4.212058E-07 1
vn -1.277998E-06 -4.212058E-07 1
vn -1.277998E-06 -4.212059E-07 1
vn -1.277998E-06 -4.212058E-07 1
vn 0 -1 -8.04939E-07
vn 0 -1 -4.024696E-07
vn 0 -1 -8.049389E-07
vn 0 -1 -4.024693E-07
vn 0 -1 0
vn 0 -1 0
vn 0 -0.9998623 0.01659348
vn 0 -0.9998623 0.01659348
vn 0.9871985 -1.407921E-07 0.1594965
vn 0.9871985 -1.407921E-07 0.1594965
vn 0.9871985 -1.407921E-07 0.1594965
vn 0.9871985 -1.407921E-07 0.1594965
vn -0.9871984 1.217495E-07 0.1594968
vn -0.9871984 1.217495E-07 0.1594968
vn -0.9871984 1.217495E-07 0.1594968
vn -0.9871984 1.217495E-07 0.1594969
vn -0.2028879 -0.979202 0
vn -0.2028879 -0.979202 0
vn -0.2028879 -0.979202 0
vn -0.2028879 -0.979202 0
vn 0.2028879 -0.979202 0
vn 0.2028879 -0.979202 0
vn 0.2028879 -0.979202 0
vn 0.2028879 -0.979202 0
vn -1.277998E-06 -4.212059E-07 1
vn -1.277998E-06 -4.212058E-07 1
vn -1.277998E-06 -4.212059E-07 1
vn -1.277998E-06 -4.212058E-07 1
vn 0 -1 -8.049387E-07
vn 0 -1 -4.024696E-07
vn 0 -1 -8.049388E-07
vn 0 -1 -4.024692E-07
vn 0 -1 0
vn 0 -1 0
vn 0 -0.9998623 0.01659347
vn 0 -0.9998623 0.01659347
vn 0.9871983 -2.035398E-07 0.1594977
vn 0.9871983 -2.035398E-07 0.1594977
vn 0.9871983 -2.035398E-07 0.1594977
vn 0.9871983 -2.035398E-07 0.1594977
vn -0.9871987 0 0.1594958
vn -0.9871987 0 0.1594958
vn -0.9871987 0 0.1594958
vn -0.9871987 0 0.1594958
vn -0.2028908 -0.9792014 0
vn -0.2028908 -0.9792014 0
vn -0.2028908 -0.9792014 0
vn -0.2028908 -0.9792014 0
vn 0.2028879 -0.979202 0
vn 0.2028879 -0.979202 0
vn 0.2028879 -0.979202 0
vn 0.2028879 -0.979202 0
vn -1.720468E-07 -4.927317E-07 1
vn -1.720468E-07 -4.927317E-07 1
vn -1.720468E-07 -4.927317E-07 1
vn -1.720468E-07 -4.927317E-07 1
vn -1.277998E-06 -4.212059E-07 1
vn -1.277998E-06 -4.212058E-07 1
vn -1.277998E-06 -4.212059E-07 1
vn -1.277998E-06 -4.212058E-07 1
vn 0 -1 -8.049387E-07
vn 0 -1 -4.024692E-07
vn 0 -1 -8.049387E-07
vn 0 -1 -4.024694E-07
vn 0 -1 -8.049388E-07
vn 0 -1 0
vn 0 -1 -4.024694E-07
vn 0 -1 0
vn 0 -1 0
vn 0 -1 0
vn 0 -1 0
vn 0 -1 0
vn 0 -1 -4.024696E-07
vn 0 -1 -8.049389E-07
vn 0 -1 0
vn 0 -1 0
vn 0 -0.9998623 0.01659347
vn 0 -0.9998623 0.01659348
vn 0 -1 0
vn 0 -1 0
vn 0 -1 0
vn 0 -1 0
vn 0.9871984 -2.035399E-07 0.1594966
vn 0.9871984 -2.035399E-07 0.1594966
vn 0.9871984 -2.035399E-07 0.1594966
vn 0.9871984 -2.035399E-07 0.1594966
vn -0.9871984 0 0.1594968
vn -0.9871984 0 0.1594968
vn -0.9871984 0 0.1594968
vn -0.9871984 0 0.1594968
vn -0.2028893 -0.9792016 0
vn -0.2028893 -0.9792016 0
vn -0.2028894 -0.9792016 0
vn -0.2028893 -0.9792016 0
vn 0.2028893 -0.9792016 0
vn 0.2028893 -0.9792016 0
vn 0.2028893 -0.9792016 0
vn 0.2028893 -0.9792016 0
vn -1.285197E-07 -4.847843E-07 1
vn -1.285197E-07 -4.847843E-07 1
vn -1.285197E-07 -4.847843E-07 1
vn -1.285197E-07 -4.847843E-07 1
vn 0 -4.847871E-07 1
vn 0 -4.847871E-07 1
vn 0 -4.847871E-07 1
vn 0 -4.847871E-07 1
vn -1.766024E-07 -4.847844E-07 1
vn -1.766024E-07 -4.847844E-07 1
vn -1.766024E-07 -4.847844E-07 1
vn -1.766024E-07 -4.847844E-07 1
vn -1 2.543131E-07 0
vn -1 2.543131E-07 0
vn -1 2.543131E-07 0
vn -1 2.543131E-07 0
vn -1 2.543131E-07 0
vn -1 2.543131E-07 0
vn -1 2.543131E-07 0
vn -1 2.543131E-07 0
vn -1 2.543131E-07 0
vn -1 2.543131E-07 0
vn 0 -1 -2.012347E-07
vn 0 -1 -2.012347E-07
vn 0 -1 -2.012347E-07
vn 0 -1 -2.012347E-07
vn 0 -1 -2.347739E-07
vn 0 -1 -2.515435E-07
vn 0 -1 -1.509261E-07
vn 0 -1 -1.509261E-07
vn 0 -1 0
vn 0 -1 0
vn 0.9894884 -1.971281E-07 0.1446117
vn 0.9894884 -1.971281E-07 0.1446117
vn 0.9894884 -1.971281E-07 0.1446117
vn 0.9894884 -1.971281E-07 0.1446117
vn -0.9894883 0 0.1446123
vn -0.9894883 0 0.1446123
vn -0.9894883 0 0.1446123
vn -0.9894883 0 0.1446123
vn 0.2232734 -0.9747559 0
vn 0.2232735 -0.9747559 0
vn 0.2232734 -0.9747559 0
vn 0.2232734 -0.9747559 -2.941467E-07
vn -4.589518E-07 -4.927344E-07 1
vn -4.589518E-07 -4.927343E-07 1
vn -4.589518E-07 -4.927343E-07 1
vn -4.589518E-07 -4.927343E-07 1
vn -1.277998E-06 -4.212058E-07 1
vn -1.277998E-06 -4.212058E-07 1
vn -1.277998E-06 -4.212059E-07 1
vn -1.277998E-06 -4.212059E-07 1
vn 0 -1 -2.012347E-07
vn 0 -1 -2.012347E-07
vn 0 -1 -2.012347E-07
vn 0 -1 -2.012347E-07
vn 0 -1 -2.347739E-07
vn 0 -1 -2.347739E-07
vn 0 -0.9998623 0.01659318
vn 0 -0.9998623 0.01659318
vn 0.9871985 -1.407921E-07 0.1594965
vn 0.9871985 -1.407921E-07 0.1594965
vn 0.9871985 -1.407921E-07 0.1594965
vn 0.9871985 -1.407921E-07 0.1594965
vn -0.9871984 1.217495E-07 0.1594969
vn -0.9871984 1.217495E-07 0.1594969
vn -0.9871984 1.217495E-07 0.1594969
vn -0.9871984 1.217495E-07 0.1594969
vn -0.2028879 -0.979202 0
vn -0.2028879 -0.979202 0
vn -0.2028879 -0.979202 0
vn -0.2028879 -0.979202 -2.955743E-07
vn 0.2028879 -0.979202 0
vn 0.2028879 -0.979202 0
vn 0.2028879 -0.979202 0
vn 0.2028879 -0.979202 -2.957254E-07
vn -1.277998E-06 -4.212059E-07 1
vn -1.277998E-06 -4.212059E-07 1
vn -1.277998E-06 -4.212059E-07 1
vn -1.277998E-06 -4.212059E-07 1
vn 0 -1 -2.012347E-07
vn 0 -1 -2.012347E-07
vn 0 -1 -2.012347E-07
vn 0 -1 -2.012347E-07
vn 0 -1 -2.347739E-07
vn 0 -1 -2.347739E-07
vn 0 -0.9998623 0.01659318
vn 0 -0.9998623 0.01659318
vn 0.9871983 -2.035398E-07 0.1594977
vn 0.9871983 -2.035398E-07 0.1594977
vn 0.9871983 -2.035398E-07 0.1594977
vn 0.9871983 -2.035398E-07 0.1594977
vn -0.9871987 0 0.1594958
vn -0.9871987 0 0.1594958
vn -0.9871987 0 0.1594958
vn -0.9871987 0 0.1594958
vn -0.2028908 -0.9792014 0
vn -0.2028908 -0.9792014 0
vn -0.2028908 -0.9792014 0
vn -0.2028908 -0.9792014 -2.955741E-07
vn 0.2028879 -0.979202 0
vn 0.2028879 -0.979202 0
vn 0.2028879 -0.979202 0
vn 0.2028879 -0.979202 -2.957254E-07
vn -1.720468E-07 -4.927317E-07 1
vn -1.720468E-07 -4.927317E-07 1
vn -1.720468E-07 -4.927317E-07 1
vn -1.720468E-07 -4.927317E-07 1
vn -1.277998E-06 -4.212059E-07 1
vn -1.277998E-06 -4.212059E-07 1
vn -1.277998E-06 -4.212059E-07 1
vn -1.277998E-06 -4.212059E-07 1
vn 0 -1 -2.012347E-07
vn 0 -1 -2.012347E-07
vn 0 -1 -2.012347E-07
vn 0 -1 -2.012347E-07
vn 0 -1 -2.012347E-07
vn 0 -1 -2.347739E-07
vn 0 -1 -2.012347E-07
vn 0 -1 -2.347739E-07
vn 0 -1 -1.509261E-07
vn 0 -1 -1.509261E-07
vn 0 -1 0
vn 0 -1 0
vn 0 -1 -2.012347E-07
vn 0 -1 -2.012347E-07
vn 0 -1 -2.347739E-07
vn 0 -1 -2.347739E-07
vn 0 -0.9998623 0.01659318
vn 0 -0.9998623 0.01659318
vn 0 -1 -1.509261E-07
vn 0 -1 -1.509261E-07
vn 0 -1 0
vn 0 -1 0
vn 0.9871984 -2.035399E-07 0.1594966
vn 0.9871984 -2.035399E-07 0.1594966
vn 0.9871984 -2.035399E-07 0.1594966
vn 0.9871984 -2.035399E-07 0.1594966
vn -0.9871984 0 0.1594968
vn -0.9871984 0 0.1594968
vn -0.9871984 0 0.1594968
vn -0.9871984 0 0.1594968
vn -0.2028893 -0.9792016 0
vn -0.2028893 -0.9792016 0
vn -0.2028894 -0.9792016 0
vn -0.2028893 -0.9792016 -2.955741E-07
vn 0.2028893 -0.9792016 0
vn 0.2028893 -0.9792016 0
vn 0.2028893 -0.9792016 0
vn 0.2028893 -0.9792016 -2.957274E-07
vn -1.285197E-07 -4.847843E-07 1
vn -1.285197E-07 -4.847843E-07 1
vn -1.285197E-07 -4.847843E-07 1
vn -1.285197E-07 -4.847843E-07 1
vn -0.768221 -0.6401842 0.0007807124
vn -0.7669368 -0.6417226 0
vn -0.7653961 -0.6435576 -0.001562033
vn -0.7647489 -0.6443284 0
vn -0.7661667 -0.6426418 0
vn -0.7660425 -0.6427893 -0.000780084
vn -0.7682213 -0.6401843 0
vn -0.7627907 -0.6466455 0
vn -0.7666861 -0.6420217 0.0007791526
vn -0.768221 -0.6401842 -0.0007807124
vn -0.7652748 -0.6437037 0
vn -0.7653971 -0.6435584 0
vn -0.7643399 -0.6448135 0
vn -0.7653968 -0.6435581 -0.0007810172
vn -0.7640985 -0.6450996 0
vn -0.7653971 -0.6435584 0
vn -0.7640983 -0.6450993 -0.0007828876
vn -0.7640983 -0.6450993 -0.0007828876
vn -0.7653971 -0.6435584 0
vn -0.7655195 -0.6434121 -0.0007827398
vn -0.7700214 -0.6380177 -0.0007857361
vn -0.7684783 -0.6398758 0
vn -0.7652748 -0.6437037 0
vn -0.7661664 -0.6426417 -0.0007818026
vn -0.7653968 -0.6435581 -0.0007810172
vn -0.7669368 -0.6417226 0
vn -0.7638591 -0.645383 0
vn -0.7625559 -0.6469224 0
vn -0.7675802 -0.6409529 0
vn -0.7638589 -0.6453828 0.0007794478
vn -0.7653971 -0.6435584 0
vn -0.7675802 -0.6409529 0
vn -0.4976502 -0.8673778 0
vn -0.4988226 -0.8667042 0
vn -0.499 -0.866602 0
vn -0.501344 -0.865248 0
vn -0.4988225 -0.8667042 0
vn -0.4952973 -0.8687233 0.000781226
vn -0.4978239 -0.8672781 0
vn -0.4978239 -0.8672781 0
vn -0.4947894 -0.869013 0
vn -0.5001734 -0.8659252 0
vn -0.502512 -0.8645703 0
vn -0.4954634 -0.8686288 0
vn -0.4974777 -0.8674768 0
vn -0.4964738 -0.8680486 -0.002341858
vn -0.4994972 -0.8663155 0
vn -0.4991786 -0.8664987 -0.000784872
vn -0.5001733 -0.865925 -0.0007815208
vn -0.4988226 -0.8667042 0
vn -0.5005398 -0.8657135 0
vn -0.5028936 -0.8643484 0
vn -0.4988224 -0.8667039 -0.0007794101
vn -0.5015304 -0.86514 0
vn -0.4988224 -0.8667039 0.0007794101
vn -0.5028936 -0.8643484 0
vn -0.7845157 -0.5521244 0.2823009
vn -0.7857887 -0.5503639 0.2821979
vn -0.7845157 -0.5521244 0.2823009
vn -0.7853658 -0.5505337 0.2830427
vn -0.7860943 -0.5480736 0.2857813
vn -0.7861155 -0.5490331 0.283875
vn -0.7856157 -0.5502427 0.2829152
vn -0.7861155 -0.5490331 0.283875
vn -0.6435584 -0.7653971 0
vn -0.6417224 -0.7669365 0.0007825884
vn -0.6426418 -0.7661667 0
vn -0.6401842 -0.768221 0.0007807124
vn -0.6417224 -0.7669365 0.0007825883
vn -0.6441837 -0.7648703 0.0007836786
vn -0.6453828 -0.7638589 -0.0007794478
vn -0.6435584 -0.7653971 0
vn -0.6417224 -0.7669365 -0.0007825883
vn -0.6417224 -0.7669365 0.0007825884
vn -0.6398758 -0.7684783 0
vn -0.6417224 -0.7669365 0.0007825884
vn -0.6398758 -0.7684783 0
vn -0.6417226 -0.7669368 0
vn -0.6417226 -0.7669368 0
vn -0.6450993 -0.7640983 -0.0007828876
vn -0.6417226 -0.7669368 0
vn -0.6391053 -0.7691193 0
vn -0.6435584 -0.7653971 0
vn -0.6417226 -0.7669368 0
vn -0.6417226 -0.7669368 0
vn -0.6417226 -0.7669368 0
vn -0.6443284 -0.7647489 0
vn -0.6412554 -0.7673275 0
vn -0.6443282 -0.7647488 0.0007819516
vn -0.6446149 -0.7645071 0.0007785204
vn -0.6435576 -0.7653961 0.001562033
vn -0.6417226 -0.7669368 0
vn -0.638651 -0.7694966 0
vn -0.6435581 -0.7653968 0.0007810172
vn -0.6450996 -0.7640985 0
vn -0.645383 -0.7638591 0
vn -0.6417224 -0.7669365 0.0007825883
vn -0.639572 -0.7687312 0
vn -0.6426417 -0.7661664 0.0007818026
vn -0.6435584 -0.7653971 0
vn -0.6457309 -0.7635651 0
vn -0.6448135 -0.7643399 0
vn -0.6420217 -0.7666861 -0.0007791526
vn -0.6401843 -0.7682213 0
vn -0.6312628 -0.7515779 0.1914102
vn -0.6306159 -0.7523686 0.1904335
vn -0.6309689 -0.7515262 0.1925786
vn -0.6294862 -0.7528842 0.1921261
vn -0.6319098 -0.750784 0.1923884
vn -0.6299298 -0.752155 0.1935232
vn -0.6317191 -0.7505573 0.193894
vn -0.6341668 -0.7491874 0.1911827
vn -0.6319098 -0.750784 0.1923884
vn -0.638979 -0.744956 0.1916937
vn -0.6320048 -0.7508968 0.1916351
vn -0.6318146 -0.7506709 0.1931414
vn -0.632848 -0.7500421 0.1921983
vn -0.6319098 -0.750784 0.1923884
vn -0.6311683 -0.7514653 0.1921626
vn -0.6311683 -0.7514653 0.1921626
vn -0.6318146 -0.7506709 0.1931414
vn -0.6335903 -0.7493574 0.1924237
vn -0.6322084 -0.7505528 0.1923097
vn -0.6274768 -0.7548358 0.1910387
vn -0.6337835 -0.7493006 0.1920083
vn -0.6289502 -0.7534947 0.1914873
vn -0.6287619 -0.7532693 0.1929864
vn -0.6312722 -0.7512919 0.1924991
vn -0.7854422 -0.5501212 0.2836319
vn -0.7845954 -0.5510849 0.2841045
vn -0.7855385 -0.5506547 0.2823272
vn -0.7859443 -0.5495347 0.2833783
vn -0.7865417 -0.5488591 0.2830299
vn -0.7851144 -0.5514494 0.2819558
vn -0.7837417 -0.5526783 0.2833648
vn -0.7829645 -0.5532324 0.2844302
vn -0.785268 -0.5506262 0.2831345
vn -0.7837417 -0.5526783 0.2833648
vn -0.7837417 -0.5526783 0.2833648
vn -0.7862894 -0.5491545 0.2831578
vn -0.7874615 -0.5468483 0.2843611
vn -0.7850939 -0.5505041 0.2838537
vn -0.7851144 -0.5514494 0.2819558
vn -0.7856157 -0.5502427 0.2829152
vn -0.4153464 -0.7964696 0.4394583
vn -0.4167746 -0.7962261 0.4385464
vn -0.4176654 -0.7948109 0.4402629
vn -0.4192375 -0.7948369 0.4387188
vn -0.4166377 -0.7941177 0.4424817
vn -0.4160912 -0.7947809 0.4418047
vn -0.4153464 -0.7964696 0.4394583
vn -0.4159756 -0.7962518 0.4392578
g my_military_01_tile_2x2_0
f 3/3/3 2/2/2 1/1/1
f 5/5/5 4/4/4 2/2/2
f 6/6/6 4/4/4 5/5/5
f 7/7/7 6/6/6 5/5/5
f 6/6/6 8/8/8 4/4/4
f 8/8/8 9/9/9 4/4/4
f 9/9/9 8/8/8 10/10/10
f 11/11/11 9/9/9 10/10/10
f 8/8/8 12/12/12 10/10/10
f 12/12/12 13/13/13 10/10/10
f 14/14/14 12/12/12 8/8/8
f 6/6/6 14/14/14 8/8/8
f 14/14/14 6/6/6 15/15/15
f 6/6/6 16/16/16 15/15/15
f 15/15/15 16/16/16 17/17/17
f 18/18/18 15/15/15 17/17/17
f 21/21/21 20/20/20 19/19/19
f 23/23/23 22/22/22 20/20/20
f 24/24/24 22/22/22 23/23/23
f 25/25/25 24/24/24 23/23/23
f 24/24/24 26/26/26 22/22/22
f 26/26/26 27/27/27 22/22/22
f 27/27/27 26/26/26 28/28/28
f 29/29/29 27/27/27 28/28/28
f 26/26/26 30/30/30 28/28/28
f 30/30/30 31/31/31 28/28/28
f 32/32/32 30/30/30 26/26/26
f 24/24/24 32/32/32 26/26/26
f 32/32/32 24/24/24 33/33/33
f 24/24/24 34/34/34 33/33/33
f 33/33/33 34/34/34 35/35/35
f 36/36/36 33/33/33 35/35/35
f 39/39/39 38/38/38 37/37/37
f 41/41/41 40/40/40 38/38/38
f 42/42/42 40/40/40 41/41/41
f 43/43/43 42/42/42 41/41/41
f 42/42/42 44/44/44 40/40/40
f 44/44/44 45/45/45 40/40/40
f 45/45/45 44/44/44 46/46/46
f 47/47/47 45/45/45 46/46/46
f 44/44/44 48/48/48 46/46/46
f 48/48/48 49/49/49 46/46/46
f 50/50/50 48/48/48 44/44/44
f 42/42/42 50/50/50 44/44/44
f 50/50/50 42/42/42 51/51/51
f 42/42/42 52/52/52 51/51/51
f 51/51/51 52/52/52 53/53/53
f 54/54/54 51/51/51 53/53/53
f 57/57/57 56/56/56 55/55/55
f 59/59/59 58/58/58 56/56/56
f 60/60/60 58/58/58 59/59/59
f 61/61/61 60/60/60 59/59/59
f 60/60/60 62/62/62 58/58/58
f 62/62/62 63/63/63 58/58/58
f 63/63/63 62/62/62 64/64/64
f 65/65/65 63/63/63 64/64/64
f 62/62/62 66/66/66 64/64/64
f 66/66/66 67/67/67 64/64/64
f 68/68/68 66/66/66 62/62/62
f 60/60/60 68/68/68 62/62/62
f 68/68/68 60/60/60 69/69/69
f 60/60/60 70/70/70 69/69/69
f 69/69/69 70/70/70 71/71/71
f 72/72/72 69/69/69 71/71/71
f 75/75/75 74/74/74 73/73/73
f 76/76/76 75/75/75 73/73/73
f 79/79/79 78/78/78 77/77/77
f 80/80/80 79/79/79 77/77/77
f 83/83/83 82/82/82 81/81/81
f 82/82/82 84/84/84 81/81/81
f 84/84/84 82/82/82 85/85/85
f 86/86/86 84/84/84 85/85/85
f 86/86/86 85/85/85 87/87/87
f 88/88/88 86/86/86 87/87/87
f 88/88/88 87/87/87 89/89/89
f 90/90/90 88/88/88 89/89/89
f 93/93/93 92/92/92 91/91/91
f 92/92/92 94/94/94 91/91/91
f 92/92/92 95/95/95 94/94/94
f 95/95/95 96/96/96 94/94/94
f 96/96/96 95/95/95 97/97/97
f 95/95/95 98/98/98 97/97/97
f 97/97/97 98/98/98 99/99/99
f 98/98/98 100/100/100 99/99/99
f 103/103/103 102/102/102 101/101/101
f 104/104/104 103/103/103 101/101/101
f 107/107/107 106/106/106 105/105/105
f 108/108/108 107/107/107 105/105/105
f 111/111/111 110/110/110 109/109/109
f 110/110/110 112/112/112 109/109/109
f 115/115/115 114/114/114 113/113/113
f 116/116/116 115/115/115 113/113/113
f 119/119/119 118/118/118 117/117/117
f 120/120/120 119/119/119 117/117/117
f 123/123/123 122/122/122 121/121/121
f 122/122/122 124/124/124 121/121/121
f 122/122/122 125/125/125 124/124/124
f 125/125/125 126/126/126 124/124/124
f 125/125/125 127/127/127 126/126/126
f 127/127/127 128/128/128 126/126/126
f 131/131/131 130/130/130 129/129/129
f 132/132/132 131/131/131 129/129/129
f 135/135/135 134/134/134 133/133/133
f 136/136/136 135/135/135 133/133/133
f 139/139/139 138/138/138 137/137/137
f 137/137/137 138/138/138 140/140/140
f 143/143/143 142/142/142 141/141/141
f 143/143/143 144/144/144 142/142/142
f 147/147/147 146/146/146 145/145/145
f 148/148/148 147/147/147 145/145/145
f 151/151/151 150/150/150 149/149/149
f 150/150/150 152/152/152 149/149/149
f 150/150/150 153/153/153 152/152/152
f 153/153/153 154/154/154 152/152/152
f 153/153/153 155/155/155 154/154/154
f 155/155/155 156/156/156 154/154/154
f 159/159/159 158/158/158 157/157/157
f 160/160/160 159/159/159 157/157/157
f 163/163/163 162/162/162 161/161/161
f 164/164/164 163/163/163 161/161/161
f 167/167/167 166/166/166 165/165/165
f 165/165/165 166/166/166 168/168/168
f 171/171/171 170/170/170 169/169/169
f 171/171/171 172/172/172 170/170/170
f 175/175/175 174/174/174 173/173/173
f 176/176/176 175/175/175 173/173/173
f 179/179/179 178/178/178 177/177/177
f 180/180/180 179/179/179 177/177/177
f 183/183/183 182/182/182 181/181/181
f 182/182/182 184/184/184 181/181/181
f 181/181/181 184/184/184 185/185/185
f 182/182/182 186/186/186 184/184/184
f 184/184/184 187/187/187 185/185/185
f 186/186/186 188/188/188 184/184/184
f 184/184/184 188/188/188 187/187/187
f 188/188/188 186/186/186 189/189/189
f 186/186/186 190/190/190 189/189/189
f 189/189/189 190/190/190 191/191/191
f 190/190/190 192/192/192 191/191/191
f 187/187/187 193/193/193 185/185/185
f 193/193/193 194/194/194 185/185/185
f 195/195/195 193/193/193 187/187/187
f 188/188/188 196/196/196 187/187/187
f 196/196/196 195/195/195 187/187/187
f 188/188/188 197/197/197 196/196/196
f 197/197/197 198/198/198 196/196/196
f 195/195/195 196/196/196 199/199/199
f 196/196/196 200/200/200 199/199/199
f 199/199/199 200/200/200 201/201/201
f 202/202/202 199/199/199 201/201/201
f 205/205/205 204/204/204 203/203/203
f 206/206/206 205/205/205 203/203/203
f 209/209/209 208/208/208 207/207/207
f 210/210/210 209/209/209 207/207/207
f 213/213/213 212/212/212 211/211/211
f 211/211/211 212/212/212 214/214/214
f 217/217/217 216/216/216 215/215/215
f 217/217/217 218/218/218 216/216/216
f 221/221/221 220/220/220 219/219/219
f 222/222/222 221/221/221 219/219/219
f 225/225/225 224/224/224 223/223/223
f 226/226/226 225/225/225 223/223/223
f 229/229/229 228/228/228 227/227/227
f 230/230/230 229/229/229 227/227/227
f 233/233/233 232/232/232 231/231/231
f 232/232/232 234/234/234 231/231/231
f 234/234/234 232/232/232 235/235/235
f 236/236/236 234/234/234 235/235/235
f 236/236/236 235/235/235 237/237/237
f 238/238/238 236/236/236 237/237/237
f 238/238/238 237/237/237 239/239/239
f 240/240/240 238/238/238 239/239/239
f 243/243/243 242/242/242 241/241/241
f 242/242/242 244/244/244 241/241/241
f 242/242/242 245/245/245 244/244/244
f 245/245/245 246/246/246 244/244/244
f 246/246/246 245/245/245 247/247/247
f 245/245/245 248/248/248 247/247/247
f 247/247/247 248/248/248 249/249/249
f 248/248/248 250/250/250 249/249/249
f 253/253/253 252/252/252 251/251/251
f 254/254/254 253/253/253 251/251/251
f 257/257/257 256/256/256 255/255/255
f 258/258/258 257/257/257 255/255/255
f 261/261/261 260/260/260 259/259/259
f 260/260/260 262/262/262 259/259/259
f 265/265/265 264/264/264 263/263/263
f 266/266/266 265/265/265 263/263/263
f 269/269/269 268/268/268 267/267/267
f 270/270/270 269/269/269 267/267/267
f 273/273/273 272/272/272 271/271/271
f 272/272/272 274/274/274 271/271/271
f 272/272/272 275/275/275 274/274/274
f 275/275/275 276/276/276 274/274/274
f 275/275/275 277/277/277 276/276/276
f 277/277/277 278/278/278 276/276/276
f 281/281/281 280/280/280 279/279/279
f 282/282/282 281/281/281 279/279/279
f 285/285/285 284/284/284 283/283/283
f 286/286/286 285/285/285 283/283/283
f 289/289/289 288/288/288 287/287/287
f 287/287/287 288/288/288 290/290/290
f 293/293/293 292/292/292 291/291/291
f 293/293/293 294/294/294 292/292/292
f 297/297/297 296/296/296 295/295/295
f 298/298/298 297/297/297 295/295/295
f 301/301/301 300/300/300 299/299/299
f 300/300/300 302/302/302 299/299/299
f 300/300/300 303/303/303 302/302/302
f 303/303/303 304/304/304 302/302/302
f 303/303/303 305/305/305 304/304/304
f 305/305/305 306/306/306 304/304/304
f 309/309/309 308/308/308 307/307/307
f 310/310/310 309/309/309 307/307/307
f 313/313/313 312/312/312 311/311/311
f 314/314/314 313/313/313 311/311/311
f 317/317/317 316/316/316 315/315/315
f 315/315/315 316/316/316 318/318/318
f 321/321/321 320/320/320 319/319/319
f 321/321/321 322/322/322 320/320/320
f 325/325/325 324/324/324 323/323/323
f 326/326/326 325/325/325 323/323/323
f 329/329/329 328/328/328 327/327/327
f 330/330/330 329/329/329 327/327/327
f 333/333/333 332/332/332 331/331/331
f 332/332/332 334/334/334 331/331/331
f 331/331/331 334/334/334 335/335/335
f 332/332/332 336/336/336 334/334/334
f 334/334/334 337/337/337 335/335/335
f 336/336/336 338/338/338 334/334/334
f 334/334/334 338/338/338 337/337/337
f 338/338/338 336/336/336 339/339/339
f 336/336/336 340/340/340 339/339/339
f 339/339/339 340/340/340 341/341/341
f 340/340/340 342/342/342 341/341/341
f 337/337/337 343/343/343 335/335/335
f 343/343/343 344/344/344 335/335/335
f 345/345/345 343/343/343 337/337/337
f 338/338/338 346/346/346 337/337/337
f 346/346/346 345/345/345 337/337/337
f 338/338/338 347/347/347 346/346/346
f 347/347/347 348/348/348 346/346/346
f 345/345/345 346/346/346 349/349/349
f 346/346/346 350/350/350 349/349/349
f 349/349/349 350/350/350 351/351/351
f 352/352/352 349/349/349 351/351/351
f 355/355/355 354/354/354 353/353/353
f 356/356/356 355/355/355 353/353/353
f 359/359/359 358/358/358 357/357/357
f 360/360/360 359/359/359 357/357/357
f 363/363/363 362/362/362 361/361/361
f 361/361/361 362/362/362 364/364/364
f 367/367/367 366/366/366 365/365/365
f 367/367/367 368/368/368 366/366/366
f 371/371/371 370/370/370 369/369/369
f 372/372/372 371/371/371 369/369/369
f 375/375/375 374/374/374 373/373/373
f 376/376/376 375/375/375 373/373/373
f 379/379/379 378/378/378 377/377/377
f 380/380/380 379/379/379 377/377/377
f 383/383/383 382/382/382 381/381/381
f 382/382/382 384/384/384 381/381/381
f 384/384/384 382/382/382 385/385/385
f 386/386/386 384/384/384 385/385/385
f 386/386/386 385/385/385 387/387/387
f 388/388/388 386/386/386 387/387/387
f 388/388/388 387/387/387 389/389/389
f 390/390/390 388/388/388 389/389/389
f 393/393/393 392/392/392 391/391/391
f 392/392/392 394/394/394 391/391/391
f 392/392/392 395/395/395 394/394/394
f 395/395/395 396/396/396 394/394/394
f 396/396/396 395/395/395 397/397/397
f 395/395/395 398/398/398 397/397/397
f 397/397/397 398/398/398 399/399/399
f 398/398/398 400/400/400 399/399/399
f 403/403/403 402/402/402 401/401/401
f 404/404/404 403/403/403 401/401/401
f 407/407/407 406/406/406 405/405/405
f 408/408/408 407/407/407 405/405/405
f 411/411/411 410/410/410 409/409/409
f 410/410/410 412/412/412 409/409/409
f 415/415/415 414/414/414 413/413/413
f 416/416/416 415/415/415 413/413/413
f 419/419/419 418/418/418 417/417/417
f 420/420/420 419/419/419 417/417/417
f 423/423/423 422/422/422 421/421/421
f 422/422/422 424/424/424 421/421/421
f 422/422/422 425/425/425 424/424/424
f 425/425/425 426/426/426 424/424/424
f 425/425/425 427/427/427 426/426/426
f 427/427/427 428/428/428 426/426/426
f 431/431/431 430/430/430 429/429/429
f 432/432/432 431/431/431 429/429/429
f 435/435/435 434/434/434 433/433/433
f 436/436/436 435/435/435 433/433/433
f 439/439/439 438/438/438 437/437/437
f 437/437/437 438/438/438 440/440/440
f 443/443/443 442/442/442 441/441/441
f 443/443/443 444/444/444 442/442/442
f 447/447/447 446/446/446 445/445/445
f 448/448/448 447/447/447 445/445/445
f 451/451/451 450/450/450 449/449/449
f 450/450/450 452/452/452 449/449/449
f 450/450/450 453/453/453 452/452/452
f 453/453/453 454/454/454 452/452/452
f 453/453/453 455/455/455 454/454/454
f 455/455/455 456/456/456 454/454/454
f 459/459/459 458/458/458 457/457/457
f 460/460/460 459/459/459 457/457/457
f 463/463/463 462/462/462 461/461/461
f 464/464/464 463/463/463 461/461/461
f 467/467/467 466/466/466 465/465/465
f 465/465/465 466/466/466 468/468/468
f 471/471/471 470/470/470 469/469/469
f 471/471/471 472/472/472 470/470/470
f 475/475/475 474/474/474 473/473/473
f 476/476/476 475/475/475 473/473/473
f 479/479/479 478/478/478 477/477/477
f 480/480/480 479/479/479 477/477/477
f 483/483/483 482/482/482 481/481/481
f 482/482/482 484/484/484 481/481/481
f 481/481/481 484/484/484 485/485/485
f 482/482/482 486/486/486 484/484/484
f 484/484/484 487/487/487 485/485/485
f 486/486/486 488/488/488 484/484/484
f 484/484/484 488/488/488 487/487/487
f 488/488/488 486/486/486 489/489/489
f 486/486/486 490/490/490 489/489/489
f 489/489/489 490/490/490 491/491/491
f 490/490/490 492/492/492 491/491/491
f 487/487/487 493/493/493 485/485/485
f 493/493/493 494/494/494 485/485/485
f 495/495/495 493/493/493 487/487/487
f 488/488/488 496/496/496 487/487/487
f 496/496/496 495/495/495 487/487/487
f 488/488/488 497/497/497 496/496/496
f 497/497/497 498/498/498 496/496/496
f 495/495/495 496/496/496 499/499/499
f 496/496/496 500/500/500 499/499/499
f 499/499/499 500/500/500 501/501/501
f 502/502/502 499/499/499 501/501/501
f 505/505/505 504/504/504 503/503/503
f 506/506/506 505/505/505 503/503/503
f 509/509/509 508/508/508 507/507/507
f 510/510/510 509/509/509 507/507/507
f 513/513/513 512/512/512 511/511/511
f 511/511/511 512/512/512 514/514/514
f 517/517/517 516/516/516 515/515/515
f 517/517/517 518/518/518 516/516/516
f 521/521/521 520/520/520 519/519/519
f 522/522/522 521/521/521 519/519/519
f 525/525/525 524/524/524 523/523/523
f 526/526/526 525/525/525 523/523/523
f 529/529/529 528/528/528 527/527/527
f 530/530/530 529/529/529 527/527/527
f 533/533/533 532/532/532 531/531/531
f 532/532/532 534/534/534 531/531/531
f 534/534/534 532/532/532 535/535/535
f 536/536/536 534/534/534 535/535/535
f 536/536/536 535/535/535 537/537/537
f 538/538/538 536/536/536 537/537/537
f 538/538/538 537/537/537 539/539/539
f 540/540/540 538/538/538 539/539/539
f 543/543/543 542/542/542 541/541/541
f 542/542/542 544/544/544 541/541/541
f 542/542/542 545/545/545 544/544/544
f 545/545/545 546/546/546 544/544/544
f 546/546/546 545/545/545 547/547/547
f 545/545/545 548/548/548 547/547/547
f 547/547/547 548/548/548 549/549/549
f 548/548/548 550/550/550 549/549/549
f 553/553/553 552/552/552 551/551/551
f 554/554/554 553/553/553 551/551/551
f 557/557/557 556/556/556 555/555/555
f 558/558/558 557/557/557 555/555/555
f 561/561/561 560/560/560 559/559/559
f 560/560/560 562/562/562 559/559/559
f 565/565/565 564/564/564 563/563/563
f 566/566/566 565/565/565 563/563/563
f 569/569/569 568/568/568 567/567/567
f 570/570/570 569/569/569 567/567/567
f 573/573/573 572/572/572 571/571/571
f 572/572/572 574/574/574 571/571/571
f 572/572/572 575/575/575 574/574/574
f 575/575/575 576/576/576 574/574/574
f 575/575/575 577/577/577 576/576/576
f 577/577/577 578/578/578 576/576/576
f 581/581/581 580/580/580 579/579/579
f 582/582/582 581/581/581 579/579/579
f 585/585/585 584/584/584 583/583/583
f 586/586/586 585/585/585 583/583/583
f 589/589/589 588/588/588 587/587/587
f 587/587/587 588/588/588 590/590/590
f 593/593/593 592/592/592 591/591/591
f 593/593/593 594/594/594 592/592/592
f 597/597/597 596/596/596 595/595/595
f 598/598/598 597/597/597 595/595/595
f 601/601/601 600/600/600 599/599/599
f 600/600/600 602/602/602 599/599/599
f 600/600/600 603/603/603 602/602/602
f 603/603/603 604/604/604 602/602/602
f 603/603/603 605/605/605 604/604/604
f 605/605/605 606/606/606 604/604/604
f 609/609/609 608/608/608 607/607/607
f 610/610/610 609/609/609 607/607/607
f 613/613/613 612/612/612 611/611/611
f 614/614/614 613/613/613 611/611/611
f 617/617/617 616/616/616 615/615/615
f 615/615/615 616/616/616 618/618/618
f 621/621/621 620/620/620 619/619/619
f 621/621/621 622/622/622 620/620/620
f 625/625/625 624/624/624 623/623/623
f 626/626/626 625/625/625 623/623/623
f 629/629/629 628/628/628 627/627/627
f 630/630/630 629/629/629 627/627/627
f 633/633/633 632/632/632 631/631/631
f 632/632/632 634/634/634 631/631/631
f 631/631/631 634/634/634 635/635/635
f 632/632/632 636/636/636 634/634/634
f 634/634/634 637/637/637 635/635/635
f 636/636/636 638/638/638 634/634/634
f 634/634/634 638/638/638 637/637/637
f 638/638/638 636/636/636 639/639/639
f 636/636/636 640/640/640 639/639/639
f 639/639/639 640/640/640 641/641/641
f 640/640/640 642/642/642 641/641/641
f 637/637/637 643/643/643 635/635/635
f 643/643/643 644/644/644 635/635/635
f 645/645/645 643/643/643 637/637/637
f 638/638/638 646/646/646 637/637/637
f 646/646/646 645/645/645 637/637/637
f 638/638/638 647/647/647 646/646/646
f 647/647/647 648/648/648 646/646/646
f 645/645/645 646/646/646 649/649/649
f 646/646/646 650/650/650 649/649/649
f 649/649/649 650/650/650 651/651/651
f 652/652/652 649/649/649 651/651/651
f 655/655/655 654/654/654 653/653/653
f 656/656/656 655/655/655 653/653/653
f 659/659/659 658/658/658 657/657/657
f 660/660/660 659/659/659 657/657/657
f 663/663/663 662/662/662 661/661/661
f 661/661/661 662/662/662 664/664/664
f 667/667/667 666/666/666 665/665/665
f 667/667/667 668/668/668 666/666/666
f 671/671/671 670/670/670 669/669/669
f 672/672/672 671/671/671 669/669/669
g my_military_01_tile_2x2_1
f 675/675/675 674/674/674 673/673/673
f 676/676/676 675/675/675 673/673/673
f 679/679/679 678/678/678 677/677/677
f 680/680/680 679/679/679 677/677/677
f 683/683/683 682/682/682 681/681/681
f 684/684/684 683/683/683 681/681/681
f 687/687/687 686/686/686 685/685/685
f 688/688/688 687/687/687 685/685/685
f 691/691/691 690/690/690 689/689/689
f 692/692/692 691/691/691 689/689/689
f 695/695/695 694/694/694 693/693/693
f 696/696/696 695/695/695 693/693/693
f 699/699/699 698/698/698 697/697/697
f 700/700/700 699/699/699 697/697/697
f 703/703/703 702/702/702 701/701/701
f 704/704/704 703/703/703 701/701/701
f 707/707/707 706/706/706 705/705/705
f 708/708/708 707/707/707 705/705/705
f 711/711/711 710/710/710 709/709/709
f 712/712/712 711/711/711 709/709/709
f 715/715/715 714/714/714 713/713/713
f 716/716/716 715/715/715 713/713/713
f 719/719/719 718/718/718 717/717/717
f 720/720/720 719/719/719 717/717/717
f 723/723/723 722/722/722 721/721/721
f 724/724/724 723/723/723 721/721/721
f 727/727/727 726/726/726 725/725/725
f 728/728/728 727/727/727 725/725/725
f 731/731/731 730/730/730 729/729/729
f 732/732/732 731/731/731 729/729/729
f 735/735/735 734/734/734 733/733/733
f 736/736/736 735/735/735 733/733/733
f 739/739/739 738/738/738 737/737/737
f 740/740/740 739/739/739 737/737/737
f 743/743/743 742/742/742 741/741/741
f 744/744/744 743/743/743 741/741/741
f 747/747/747 746/746/746 745/745/745
f 748/748/748 747/747/747 745/745/745
f 751/751/751 750/750/750 749/749/749
f 752/752/752 751/751/751 749/749/749
f 755/755/755 754/754/754 753/753/753
f 756/756/756 755/755/755 753/753/753
f 759/759/759 758/758/758 757/757/757
f 760/760/760 759/759/759 757/757/757
f 763/763/763 762/762/762 761/761/761
f 764/764/764 763/763/763 761/761/761
f 767/767/767 766/766/766 765/765/765
f 768/768/768 767/767/767 765/765/765
f 771/771/771 770/770/770 769/769/769
f 772/772/772 771/771/771 769/769/769
f 775/775/775 774/774/774 773/773/773
f 776/776/776 775/775/775 773/773/773
f 779/779/779 778/778/778 777/777/777
f 780/780/780 779/779/779 777/777/777
f 783/783/783 782/782/782 781/781/781
f 784/784/784 783/783/783 781/781/781
f 787/787/787 786/786/786 785/785/785
f 788/788/788 787/787/787 785/785/785
f 791/791/791 790/790/790 789/789/789
f 792/792/792 791/791/791 789/789/789
f 795/795/795 794/794/794 793/793/793
f 796/796/796 795/795/795 793/793/793
f 799/799/799 798/798/798 797/797/797
f 800/800/800 799/799/799 797/797/797
f 803/803/803 802/802/802 801/801/801
f 804/804/804 803/803/803 801/801/801
f 807/807/807 806/806/806 805/805/805
f 808/808/808 807/807/807 805/805/805
f 811/811/811 810/810/810 809/809/809
f 812/812/812 811/811/811 809/809/809
f 815/815/815 814/814/814 813/813/813
f 816/816/816 815/815/815 813/813/813
f 819/819/819 818/818/818 817/817/817
f 820/820/820 819/819/819 817/817/817
f 823/823/823 822/822/822 821/821/821
f 824/824/824 823/823/823 821/821/821
