g my_teaparty_01_tile_2X2
v -0.3 -0.9 -4.959106E-07
v 0.3 -0.3 -4.959106E-07
v 0.3 -0.9 -4.959106E-07
v -0.3 -0.3 -4.959106E-07
v -0.9 -0.9 -4.959106E-07
v 0.3 0.3 -4.959106E-07
v -0.9 -0.3 -4.959106E-07
v -0.3 0.3 -4.959106E-07
v -0.9 0.3 -4.959106E-07
v -0.9 -0.9 -0.2850005
v -0.9 -0.9 -4.959106E-07
v -0.3 -0.9 -4.959106E-07
v -0.3 -0.9 -0.2850005
v 0.3 -0.9 -4.959106E-07
v 0.3 -0.9 -0.2850005
v -0.9 0.3 -0.2850005
v -0.9 0.3 -4.959106E-07
v -0.9 -0.3 -4.959106E-07
v -0.9 -0.3 -0.2850005
v -0.9 -0.9 -4.959106E-07
v -0.9 -0.9 -0.2850005
vt 0.4126343 0.177819
vt 0.8245976 0.5886194
vt 0.8245976 0.177819
vt 0.4126343 0.5886194
vt 0.0006713046 0.177819
vt 0.8245976 0.9994195
vt 0.0006713046 0.5886194
vt 0.4126343 0.9994195
vt 0.0006713046 0.9994195
vt 0.8261428 0.9958894
vt 0.9956375 0.9958894
vt 0.9956375 0.5842739
vt 0.8261427 0.5842739
vt 0.9956374 0.1726581
vt 0.8261427 0.1726581
vt 0.002182426 0.004771944
vt 0.002182426 0.1742666
vt 0.4137979 0.1742666
vt 0.4137979 0.004771944
vt 0.8254137 0.1742666
vt 0.8254137 0.004771944
vn 0 0 1
vn 0 0 1
vn 0 0 1
vn 0 0 1
vn 0 0 1
vn 0 0 1
vn 0 0 1
vn 0 0 1
vn 0 0 1
vn 0 -1 0
vn 0 -1 0
vn 0 -1 0
vn 0 -1 0
vn 0 -1 0
vn 0 -1 0
vn -1 0 0
vn -1 0 0
vn -1 0 0
vn -1 0 0
vn -1 0 0
vn -1 0 0
g my_teaparty_01_tile_2X2_0
f 3/3/3 2/2/2 1/1/1
f 2/2/2 4/4/4 1/1/1
f 1/1/1 4/4/4 5/5/5
f 2/2/2 6/6/6 4/4/4
f 4/4/4 7/7/7 5/5/5
f 6/6/6 8/8/8 4/4/4
f 4/4/4 8/8/8 7/7/7
f 8/8/8 9/9/9 7/7/7
f 12/12/12 11/11/11 10/10/10
f 13/13/13 12/12/12 10/10/10
f 14/14/14 12/12/12 13/13/13
f 15/15/15 14/14/14 13/13/13
f 18/18/18 17/17/17 16/16/16
f 19/19/19 18/18/18 16/16/16
f 20/20/20 18/18/18 19/19/19
f 21/21/21 20/20/20 19/19/19
