g my_trinityclassroom_01_tile
v -0.3 0.3 -1.430511E-08
v 0.3 0.2999998 -1.430511E-08
v 0.3 -0.2999998 -1.430511E-08
v -0.3 -0.2999997 -1.430511E-08
v -0.3 -0.2999997 -0.285
v -0.3 0.3 -0.285
v -0.3 0.3 -0.05885255
v -0.3 -0.2999997 -0.05885255
v 0.3 -0.2999998 -0.285
v -0.3 -0.2999997 -0.285
v -0.3 -0.2999997 -0.05885255
v 0.3 -0.2999998 -0.05885255
v -0.3 -0.2999997 -1.430511E-08
v -0.3 -0.2999997 -0.05885255
v -0.3 0.3 -0.05885255
v -0.3 0.3 -1.430511E-08
v 0.3 -0.2999998 -1.430511E-08
v 0.3 -0.2999998 -0.05885255
v -0.3 -0.2999997 -0.05885255
v -0.3 -0.2999997 -1.430511E-08
vt 0.3072843 0.9916419
vt 0.9723002 0.9916422
vt 0.9723002 0.3098749
vt 0.3072843 0.3098749
vt 0.008166142 0.4581492
vt 0.00815066 0.9588757
vt 0.2221757 0.9588804
vt 0.2221912 0.4581546
vt 0.9171582 0.01447499
vt 0.4969585 0.01447499
vt 0.4969585 0.2284999
vt 0.9171582 0.2284999
vt 0.3072843 0.3098749
vt 0.2384082 0.3098749
vt 0.2384076 0.9916419
vt 0.3072843 0.9916419
vt 0.9723002 0.3098749
vt 0.9723002 0.242742
vt 0.3072843 0.2427426
vt 0.3072843 0.3098749
vn 0 0 1
vn 0 0 1
vn 0 0 1
vn 0 0 1
vn -1 0 0
vn -1 0 0
vn -1 0 0
vn -1 0 0
vn -2.543132E-07 -1 0
vn -2.543132E-07 -1 0
vn -2.543132E-07 -1 0
vn -2.543132E-07 -1 0
vn -1 0 0
vn -1 0 0
vn -1 0 0
vn -1 0 0
vn -2.543132E-07 -1 0
vn -2.543132E-07 -1 0
vn -2.543132E-07 -1 0
vn -2.543132E-07 -1 0
g my_trinityclassroom_01_tile_0
f 3/3/3 2/2/2 1/1/1
f 4/4/4 3/3/3 1/1/1
f 7/7/7 6/6/6 5/5/5
f 8/8/8 7/7/7 5/5/5
f 11/11/11 10/10/10 9/9/9
f 12/12/12 11/11/11 9/9/9
f 15/15/15 14/14/14 13/13/13
f 16/16/16 15/15/15 13/13/13
f 19/19/19 18/18/18 17/17/17
f 20/20/20 19/19/19 17/17/17
