g my_wildhunt_01_tile_20x20
v 0.3000043 -11.7 -0.2849999
v -0.3000055 -11.7 0.0009228325
v 0.2999982 -11.7 5.278587E-05
v -0.2999951 -11.7 -0.2849999
v -0.899996 -11.7 -0.285
v -0.9000024 -11.7 0.0008437443
v -11.7 -0.3000024 -0.285
v -11.7 0.2999975 -0.285
v -11.69999 0.3 7.629394E-08
v -11.69999 -0.3 7.629394E-08
v -11.7 -0.9000024 -0.285
v -11.7 -0.3000024 -0.285
v -11.69999 -0.3 7.629394E-08
v -11.69999 -0.9 1.335144E-07
v -11.7 -1.500002 -0.285
v -11.7 -0.9000024 -0.285
v -11.69999 -0.9 1.335144E-07
v -11.69999 -1.5 5.722046E-08
v -11.7 -2.100002 -0.285
v -11.7 -1.500002 -0.285
v -11.69999 -1.5 5.722046E-08
v -11.69999 -2.1 7.629394E-08
v -11.7 -2.700002 -0.285
v -11.7 -2.100002 -0.285
v -11.69999 -2.1 7.629394E-08
v -11.69999 -2.7 7.629394E-08
v -11.7 -3.300002 -0.285
v -11.7 -2.700002 -0.285
v -11.69999 -2.7 7.629394E-08
v -11.69999 -3.300001 5.722046E-08
v -11.7 -3.900002 -0.285
v -11.7 -3.300002 -0.285
v -11.69999 -3.300001 5.722046E-08
v -11.69999 -3.900001 5.722046E-08
v -11.7 -4.500002 -0.285
v -11.7 -3.900002 -0.285
v -11.69999 -3.900001 5.722046E-08
v -11.69999 -4.500001 3.814697E-08
v -11.7 -5.100002 -0.285
v -11.7 -4.500002 -0.285
v -11.69999 -4.500001 3.814697E-08
v -11.69999 -5.100001 7.629394E-08
v -11.7 -5.700002 -0.285
v -11.7 -5.100002 -0.285
v -11.69999 -5.100001 7.629394E-08
v -11.69999 -5.700001 5.722046E-08
v -11.7 -6.300002 -0.285
v -11.7 -5.700002 -0.285
v -11.69999 -5.700001 5.722046E-08
v -11.69999 -6.300001 5.722046E-08
v -11.7 -6.900002 -0.2849999
v -11.7 -6.300002 -0.285
v -11.69999 -6.300001 5.722046E-08
v -11.69999 -6.900001 3.814697E-08
v -11.7 -7.500002 -0.2849999
v -11.7 -6.900002 -0.2849999
v -11.69999 -6.900001 3.814697E-08
v -11.69999 -7.500001 7.629394E-08
v -11.7 -8.100002 -0.285
v -11.7 -7.500002 -0.2849999
v -11.69999 -7.500001 7.629394E-08
v -11.69999 -8.100001 5.722046E-08
v -11.7 -8.7 -0.285
v -11.7 -8.100002 -0.285
v -11.69999 -8.100001 5.722046E-08
v -11.69999 -8.7 5.722046E-08
v -11.7 -9.3 -0.285
v -11.7 -8.7 -0.285
v -11.69999 -8.7 5.722046E-08
v -11.69999 -9.3 3.814697E-08
v -11.7 -9.9 -0.285
v -11.7 -9.3 -0.285
v -11.69999 -9.3 3.814697E-08
v -11.69999 -9.9 7.629394E-08
v -11.7 -10.5 -0.285
v -11.7 -9.9 -0.285
v -11.69999 -9.9 7.629394E-08
v -11.69999 -10.5 7.629394E-08
v -11.7 -11.1 -0.285
v -11.7 -10.5 -0.285
v -11.69999 -10.5 7.629394E-08
v -11.69999 -11.1 1.335144E-07
v -11.7 -11.7 -0.285
v -11.69999 -11.7 5.722046E-08
v -11.1 -11.7 -0.0009490013
v -11.09999 -11.7 -0.2849999
v -11.7 -11.7 -0.285
v -11.7 -11.1 -0.285
v -11.69999 -11.1 1.335144E-07
v -11.69999 -11.7 5.722046E-08
v -1.499996 -11.7 -0.2849999
v -1.500002 -11.7 0.0007382774
v -0.9000024 -11.7 0.0008437443
v -0.899996 -11.7 -0.285
v -2.099996 -11.7 -0.2849999
v -2.100002 -11.7 0.0006328297
v -1.500002 -11.7 0.0007382774
v -1.499996 -11.7 -0.2849999
v -2.699996 -11.7 -0.285
v -2.700002 -11.7 0.0005273914
v -2.100002 -11.7 0.0006328297
v -2.099996 -11.7 -0.2849999
v -3.299996 -11.7 -0.2849999
v -3.300002 -11.7 0.000421896
v -2.700002 -11.7 0.0005273914
v -2.699996 -11.7 -0.285
v -3.899996 -11.7 -0.285
v -3.900002 -11.7 0.0003164673
v -3.300002 -11.7 0.000421896
v -3.299996 -11.7 -0.2849999
v -4.499996 -11.7 -0.2849999
v -4.500002 -11.7 0.0002109814
v -3.900002 -11.7 0.0003164673
v -3.899996 -11.7 -0.285
v -5.099996 -11.7 -0.2849999
v -5.100002 -11.7 0.000105505
v -4.500002 -11.7 0.0002109814
v -4.499996 -11.7 -0.2849999
v -5.699996 -11.7 -0.285
v -5.700002 -11.7 8.583068E-08
v -5.100002 -11.7 0.000105505
v -5.099996 -11.7 -0.2849999
v -6.299995 -11.7 -0.2849999
v -6.300002 -11.7 -0.000105381
v -5.700002 -11.7 8.583068E-08
v -5.699996 -11.7 -0.285
v -6.899996 -11.7 -0.285
v -6.900002 -11.7 -0.0002108192
v -6.300002 -11.7 -0.000105381
v -6.299995 -11.7 -0.2849999
v -7.499996 -11.7 -0.285
v -7.500001 -11.7 -0.000316267
v -6.900002 -11.7 -0.0002108192
v -6.899996 -11.7 -0.285
v -8.099996 -11.7 -0.2849999
v -8.100001 -11.7 -0.0004217243
v -7.500001 -11.7 -0.000316267
v -7.499996 -11.7 -0.285
v -8.699996 -11.7 -0.285
v -8.700003 -11.7 -0.0005271721
v -8.100001 -11.7 -0.0004217243
v -8.099996 -11.7 -0.2849999
v -9.299995 -11.7 -0.2849999
v -9.300002 -11.7 -0.0006326294
v -8.700003 -11.7 -0.0005271721
v -8.699996 -11.7 -0.285
v -9.899996 -11.7 -0.2849999
v -9.900002 -11.7 -0.0007380772
v -9.300002 -11.7 -0.0006326294
v -9.299995 -11.7 -0.2849999
v -10.5 -11.7 -0.285
v -10.5 -11.7 -0.0008435154
v -9.900002 -11.7 -0.0007380772
v -9.899996 -11.7 -0.2849999
v -11.09999 -11.7 -0.2849999
v -11.1 -11.7 -0.0009490013
v -10.5 -11.7 -0.0008435154
v -10.5 -11.7 -0.285
v -0.8999847 -0.3 1.525879E-07
v -0.8999902 0.3 5.722046E-08
v -0.2999969 0.3 6.67572E-08
v -0.2999933 -0.3 7.629394E-08
v -0.3000098 -0.9 1.144409E-07
v 0.2999969 -0.3 8.583068E-08
v 0.2999969 -0.9 5.722046E-08
v -1.499985 -0.3 1.144409E-07
v -0.8999902 0.3 5.722046E-08
v -0.8999847 -0.3 1.525879E-07
v -1.49999 0.3 7.629394E-08
v -2.099985 -0.3 7.629394E-08
v -2.09999 0.3 6.67572E-08
v -2.699985 -0.3 1.525879E-07
v -2.09999 0.3 6.67572E-08
v -2.099985 -0.3 7.629394E-08
v -2.69999 0.3 5.722046E-08
v -3.299985 -0.3 1.144409E-07
v -3.29999 0.3 7.629394E-08
v -3.899985 -0.3 7.629394E-08
v -3.29999 0.3 7.629394E-08
v -3.299985 -0.3 1.144409E-07
v -3.89999 0.3 5.722046E-08
v -4.499985 -0.3 1.144409E-07
v -4.49999 0.3 4.768371E-08
v -5.099985 -0.3 1.144409E-07
v -4.49999 0.3 4.768371E-08
v -4.499985 -0.3 1.144409E-07
v -5.09999 0.3 7.629394E-08
v -5.699985 -0.3 7.629394E-08
v -5.69999 0.3 5.722046E-08
v -6.299984 -0.3 1.144409E-07
v -5.69999 0.3 5.722046E-08
v -5.699985 -0.3 7.629394E-08
v -6.29999 0.3 3.814697E-08
v -6.899984 -0.3 1.144409E-07
v -6.89999 0.3 7.629394E-08
v -7.499985 -0.3 7.629394E-08
v -6.89999 0.3 7.629394E-08
v -6.899984 -0.3 1.144409E-07
v -7.49999 0.3 5.722046E-08
v -8.099984 -0.3 1.144409E-07
v -8.09999 0.3 7.629394E-08
v -8.699985 -0.3 1.144409E-07
v -8.09999 0.3 7.629394E-08
v -8.099984 -0.3 1.144409E-07
v -8.69999 0.3 7.629394E-08
v -9.299985 -0.3 7.629394E-08
v -9.29999 0.3 5.722046E-08
v -9.899984 -0.3 1.144409E-07
v -9.29999 0.3 5.722046E-08
v -9.299985 -0.3 7.629394E-08
v -9.89999 0.3 7.629394E-08
v -10.49998 -0.3 1.144409E-07
v -10.49999 0.3 7.629394E-08
v -11.09999 -0.3 7.629394E-08
v -11.09999 0.3 5.722046E-08
v -10.49999 0.3 7.629394E-08
v -10.49998 -0.3 1.144409E-07
v -11.09999 -0.9 1.144409E-07
v -11.69999 -0.3 7.629394E-08
v -11.69999 -0.9 1.335144E-07
v -9.299984 -2.1 0
v -11.09999 -2.1 0
v -11.09999 -0.3000006 8.583068E-08
v -9.299984 -0.3000006 8.583068E-08
v -7.499985 -2.1 0
v -9.299984 -2.1 0
v -9.299984 -0.3000006 8.583068E-08
v -7.499984 -0.3000006 8.583068E-08
v -5.699985 -2.1 0
v -7.499985 -2.1 0
v -7.499984 -0.3000006 8.583068E-08
v -5.699985 -0.3 8.583068E-08
v -3.899985 -2.1 0
v -5.699985 -2.1 0
v -5.699985 -0.3 8.583068E-08
v -3.899984 -0.3 8.583068E-08
v -0.2999975 -2.1 0
v -2.099984 -2.1 0
v -2.099984 -0.3 8.583068E-08
v -0.2999933 -0.3 8.583068E-08
v -2.099984 -2.1 0
v -3.899985 -2.1 0
v -3.899984 -0.3 8.583068E-08
v -2.099984 -0.3 8.583068E-08
v -0.2999975 -3.9 -7.629394E-08
v -2.099985 -3.900001 -7.629394E-08
v -2.099984 -2.1 0
v -0.2999975 -2.1 0
v -2.099985 -3.900001 -7.629394E-08
v -3.899984 -3.900002 -7.629394E-08
v -3.899985 -2.1 0
v -2.099984 -2.1 0
v -3.899984 -3.900002 -7.629394E-08
v -5.699985 -3.900002 -7.629394E-08
v -5.699985 -2.1 0
v -3.899985 -2.1 0
v -5.699985 -3.900002 -7.629394E-08
v -7.499985 -3.900001 -7.629394E-08
v -7.499985 -2.1 0
v -5.699985 -2.1 0
v -7.499985 -3.900001 -7.629394E-08
v -9.299985 -3.900001 -7.629394E-08
v -9.299984 -2.1 0
v -7.499985 -2.1 0
v -9.299985 -3.900001 -7.629394E-08
v -11.09998 -3.9 -7.629394E-08
v -11.09999 -2.1 0
v -9.299984 -2.1 0
v -9.299985 -5.700003 -1.525879E-07
v -11.09999 -5.700002 -1.525879E-07
v -11.09998 -3.9 -7.629394E-08
v -9.299985 -3.900001 -7.629394E-08
v -7.499985 -5.700003 -1.525879E-07
v -9.299985 -5.700003 -1.525879E-07
v -9.299985 -3.900001 -7.629394E-08
v -7.499985 -3.900001 -7.629394E-08
v -5.699985 -5.700002 -1.525879E-07
v -7.499985 -5.700003 -1.525879E-07
v -7.499985 -3.900001 -7.629394E-08
v -5.699985 -3.900002 -7.629394E-08
v -3.899984 -5.700002 -1.525879E-07
v -5.699985 -5.700002 -1.525879E-07
v -5.699985 -3.900002 -7.629394E-08
v -3.899984 -3.900002 -7.629394E-08
v -2.099984 -5.700002 -1.525879E-07
v -3.899984 -5.700002 -1.525879E-07
v -3.899984 -3.900002 -7.629394E-08
v -2.099985 -3.900001 -7.629394E-08
v -0.2999975 -5.700001 -1.525879E-07
v -2.099984 -5.700002 -1.525879E-07
v -2.099985 -3.900001 -7.629394E-08
v -0.2999975 -3.9 -7.629394E-08
v -0.2999969 -7.500001 -2.288818E-07
v -2.099984 -7.500003 -2.288818E-07
v -2.099984 -5.700002 -1.525879E-07
v -0.2999975 -5.700001 -1.525879E-07
v -2.099984 -7.500003 -2.288818E-07
v -3.899985 -7.500002 -2.288818E-07
v -3.899984 -5.700002 -1.525879E-07
v -2.099984 -5.700002 -1.525879E-07
v -3.899985 -7.500002 -2.288818E-07
v -5.699984 -7.500005 -2.288818E-07
v -5.699985 -5.700002 -1.525879E-07
v -3.899984 -5.700002 -1.525879E-07
v -5.699984 -7.500005 -2.288818E-07
v -7.499984 -7.500003 -2.288818E-07
v -7.499985 -5.700003 -1.525879E-07
v -5.699985 -5.700002 -1.525879E-07
v -7.499984 -7.500003 -2.288818E-07
v -9.299984 -7.500003 -2.288818E-07
v -9.299985 -5.700003 -1.525879E-07
v -7.499985 -5.700003 -1.525879E-07
v -9.299984 -7.500003 -2.288818E-07
v -11.09999 -7.500001 -2.288818E-07
v -11.09999 -5.700002 -1.525879E-07
v -9.299985 -5.700003 -1.525879E-07
v -9.299984 -9.300005 -3.147125E-07
v -11.09999 -9.300002 -3.147125E-07
v -11.09999 -7.500001 -2.288818E-07
v -9.299984 -7.500003 -2.288818E-07
v -7.499996 -11.1 -1.382828E-06
v -9.299984 -11.1 -3.910065E-07
v -9.299984 -9.300005 -3.147125E-07
v -7.499984 -9.300005 -3.147125E-07
v -5.699996 -11.1 -3.910065E-07
v -7.499996 -11.1 -1.382828E-06
v -7.499984 -9.300005 -3.147125E-07
v -5.699984 -9.300005 -3.147125E-07
v -7.499984 -9.300005 -3.147125E-07
v -9.299984 -9.300005 -3.147125E-07
v -9.299984 -7.500003 -2.288818E-07
v -7.499984 -7.500003 -2.288818E-07
v -5.699984 -9.300005 -3.147125E-07
v -7.499984 -9.300005 -3.147125E-07
v -7.499984 -7.500003 -2.288818E-07
v -5.699984 -7.500005 -2.288818E-07
v -2.099984 -11.1 -3.910065E-07
v -3.899996 -11.1 6.008148E-07
v -3.899985 -9.300005 -3.147125E-07
v -2.099984 -9.300005 -3.147125E-07
v -3.899996 -11.1 6.008148E-07
v -5.699996 -11.1 -3.910065E-07
v -5.699984 -9.300005 -3.147125E-07
v -3.899985 -9.300005 -3.147125E-07
v -3.899985 -9.300005 -3.147125E-07
v -5.699984 -9.300005 -3.147125E-07
v -5.699984 -7.500005 -2.288818E-07
v -3.899985 -7.500002 -2.288818E-07
v -2.099984 -9.300005 -3.147125E-07
v -3.899985 -9.300005 -3.147125E-07
v -3.899985 -7.500002 -2.288818E-07
v -2.099984 -7.500003 -2.288818E-07
v -0.3000006 -11.1 -4.959106E-07
v -2.099984 -11.1 -3.910065E-07
v -2.099984 -9.300005 -3.147125E-07
v -0.2999969 -9.300002 -3.147125E-07
v -0.2999969 -9.300002 -3.147125E-07
v -2.099984 -9.300005 -3.147125E-07
v -2.099984 -7.500003 -2.288818E-07
v -0.2999969 -7.500001 -2.288818E-07
v -9.299984 -11.1 -3.910065E-07
v -11.09999 -11.1 -3.910065E-07
v -11.09999 -9.300002 -3.147125E-07
v -9.299984 -9.300005 -3.147125E-07
v -11.09999 -0.3 7.629394E-08
v -11.69999 -0.3 7.629394E-08
v -11.69999 0.3 7.629394E-08
v -11.09999 0.3 5.722046E-08
v -11.09999 -1.5 1.144409E-07
v -11.69999 -0.9 1.335144E-07
v -11.09999 -0.9 1.144409E-07
v -11.69999 -1.5 5.722046E-08
v -11.09999 -2.1 7.629394E-08
v -11.69999 -2.1 7.629394E-08
v -11.09999 -2.7 7.629394E-08
v -11.69999 -2.1 7.629394E-08
v -11.09999 -2.1 7.629394E-08
v -11.69999 -2.7 7.629394E-08
v -11.09999 -3.3 1.144409E-07
v -11.69999 -3.300001 5.722046E-08
v -11.09998 -3.9 1.144409E-07
v -11.69999 -3.300001 5.722046E-08
v -11.09999 -3.3 1.144409E-07
v -11.69999 -3.900001 5.722046E-08
v -11.09998 -4.5 7.629394E-08
v -11.69999 -4.500001 3.814697E-08
v -11.09998 -5.1 7.629394E-08
v -11.69999 -4.500001 3.814697E-08
v -11.09998 -4.5 7.629394E-08
v -11.69999 -5.100001 7.629394E-08
v -11.09999 -5.700001 1.144409E-07
v -11.69999 -5.700001 5.722046E-08
v -11.09999 -6.3 1.144409E-07
v -11.69999 -5.700001 5.722046E-08
v -11.09999 -5.700001 1.144409E-07
v -11.69999 -6.300001 5.722046E-08
v -11.09999 -6.9 7.629394E-08
v -11.69999 -6.900001 3.814697E-08
v -11.09999 -7.500001 7.629394E-08
v -11.69999 -6.900001 3.814697E-08
v -11.09999 -6.9 7.629394E-08
v -11.69999 -7.500001 7.629394E-08
v -11.09999 -8.099999 1.144409E-07
v -11.69999 -8.100001 5.722046E-08
v -11.09999 -8.7 1.144409E-07
v -11.69999 -8.100001 5.722046E-08
v -11.09999 -8.099999 1.144409E-07
v -11.69999 -8.7 5.722046E-08
v -11.09999 -9.300002 7.629394E-08
v -11.69999 -9.3 3.814697E-08
v -11.09999 -9.9 7.629394E-08
v -11.69999 -9.3 3.814697E-08
v -11.09999 -9.300002 7.629394E-08
v -11.69999 -9.9 7.629394E-08
v -11.09999 -10.5 7.629394E-08
v -11.69999 -10.5 7.629394E-08
v -11.1 -11.1 -0.0009489822
v -11.69999 -11.1 1.335144E-07
v -11.69999 -10.5 7.629394E-08
v -11.09999 -10.5 7.629394E-08
v -10.50001 -11.1 -0.001687164
v -11.1 -11.7 -0.0009490013
v -10.5 -11.7 -0.0008435154
v -11.1 -11.7 -0.0009490013
v -11.69999 -11.7 5.722046E-08
v -11.1 -11.1 -0.0009489822
v -11.69999 -11.1 1.335144E-07
v -9.900007 -11.1 -0.001476211
v -10.5 -11.7 -0.0008435154
v -10.50001 -11.1 -0.001687164
v -9.900002 -11.7 -0.0007380772
v -9.300008 -11.1 -0.001265297
v -9.300002 -11.7 -0.0006326294
v -8.700007 -11.1 -0.001054382
v -9.300002 -11.7 -0.0006326294
v -9.300008 -11.1 -0.001265297
v -8.700003 -11.7 -0.0005271721
v -8.100008 -11.1 -0.0008434295
v -8.100001 -11.7 -0.0004217243
v -7.499997 -11.1 -0.0003162003
v -8.100001 -11.7 -0.0004217243
v -8.100008 -11.1 -0.0008434295
v -7.500001 -11.7 -0.000316267
v -6.900008 -11.1 -0.0004216766
v -6.900002 -11.7 -0.0002108192
v -6.300008 -11.1 -0.0002107239
v -6.900002 -11.7 -0.0002108192
v -6.900008 -11.1 -0.0004216766
v -6.300002 -11.7 -0.000105381
v -5.699996 -11.1 1.525879E-07
v -5.700002 -11.7 8.583068E-08
v -5.100008 -11.1 0.0002110291
v -5.700002 -11.7 8.583068E-08
v -5.699996 -11.1 1.525879E-07
v -5.100002 -11.7 0.000105505
v -4.500008 -11.1 0.0004219818
v -4.500002 -11.7 0.0002109814
v -3.899996 -11.1 0.0003165054
v -4.500002 -11.7 0.0002109814
v -4.500008 -11.1 0.0004219818
v -3.900002 -11.7 0.0003164673
v -3.300008 -11.1 0.0008437347
v -3.300002 -11.7 0.000421896
v -2.700008 -11.1 0.001054802
v -3.300002 -11.7 0.000421896
v -3.300008 -11.1 0.0008437347
v -2.700002 -11.7 0.0005273914
v -2.100008 -11.1 0.001265678
v -2.100002 -11.7 0.0006328297
v -1.500008 -11.1 0.001476517
v -2.100002 -11.7 0.0006328297
v -2.100008 -11.1 0.001265678
v -1.500002 -11.7 0.0007382774
v -0.9000092 -11.1 0.001687508
v -0.9000024 -11.7 0.0008437443
v -0.3000049 -11.1 0.0009316826
v -0.3000055 -11.7 0.0009228325
v -0.9000024 -11.7 0.0008437443
v -0.9000092 -11.1 0.001687508
v -0.3000104 -10.5 7.629394E-08
v 0.2999969 -10.5 7.629394E-08
v 0.2999951 -11.1 3.523827E-05
v -0.2999933 -0.3 7.629394E-08
v 0.2999969 0.3 8.583068E-08
v 0.2999969 -0.3 8.583068E-08
v -0.2999969 0.3 6.67572E-08
v -0.3000104 -1.5 1.144409E-07
v -0.3000098 -0.9 1.144409E-07
v 0.2999969 -0.9 5.722046E-08
v 0.2999963 -1.5 5.722046E-08
v -0.2999975 -2.1 7.629394E-08
v 0.2999969 -2.1 8.583068E-08
v -0.3000104 -2.7 7.629394E-08
v -0.2999975 -2.1 7.629394E-08
v 0.2999969 -2.1 8.583068E-08
v 0.2999969 -2.7 8.583068E-08
v -0.3000104 -3.3 3.814697E-08
v 0.2999969 -3.3 6.67572E-08
v -0.2999975 -3.9 1.144409E-07
v -0.3000104 -3.3 3.814697E-08
v 0.2999969 -3.3 6.67572E-08
v 0.2999969 -3.9 6.67572E-08
v -0.300011 -4.5 7.629394E-08
v 0.2999969 -4.5 8.583068E-08
v -0.3000104 -5.1 7.629394E-08
v -0.300011 -4.5 7.629394E-08
v 0.2999969 -4.5 8.583068E-08
v 0.2999963 -5.1 8.583068E-08
v -0.2999975 -5.700001 3.814697E-08
v 0.2999969 -5.7 5.722046E-08
v -0.3000104 -6.3 1.144409E-07
v -0.2999975 -5.700001 3.814697E-08
v 0.2999969 -5.7 5.722046E-08
v 0.2999969 -6.3 5.722046E-08
v -0.3000104 -6.9 7.629394E-08
v 0.2999969 -6.9 8.583068E-08
v -0.2999975 -7.500001 7.629394E-08
v -0.3000104 -6.9 7.629394E-08
v 0.2999969 -6.9 8.583068E-08
v 0.2999969 -7.5 8.583068E-08
v -0.3000104 -8.099999 3.814697E-08
v 0.2999969 -8.099999 6.67572E-08
v -0.3000104 -8.7 1.144409E-07
v -0.3000104 -8.099999 3.814697E-08
v 0.2999969 -8.099999 6.67572E-08
v 0.2999963 -8.7 6.67572E-08
v -0.2999975 -9.300002 7.629394E-08
v 0.2999963 -9.3 4.768371E-08
v -0.3000104 -9.9 7.629394E-08
v -0.2999975 -9.300002 7.629394E-08
v 0.2999963 -9.3 4.768371E-08
v 0.2999969 -9.9 8.583068E-08
v -0.3000104 -10.5 7.629394E-08
v 0.2999969 -10.5 7.629394E-08
v -0.3000049 -11.1 0.0009316826
v 0.2999951 -11.1 3.523827E-05
v 0.2999982 -11.7 5.278587E-05
v -0.3000055 -11.7 0.0009228325
v -11.09999 -2.1 0
v -11.09999 -2.1 -0.0001058292
v -11.09999 -0.3000006 -0.0001057434
v -11.09999 -0.3000006 8.583068E-08
v -11.09999 -0.3000006 8.583068E-08
v -11.09999 -0.3000006 -0.0001057434
v -9.299984 -0.3000006 -0.0001057434
v -9.299984 -0.3000006 8.583068E-08
v -9.299984 -0.3000006 8.583068E-08
v -9.299984 -0.3000006 -0.0001057434
v -7.499984 -0.3000006 -0.0001057434
v -7.499984 -0.3000006 8.583068E-08
v -7.499984 -0.3000006 8.583068E-08
v -7.499984 -0.3000006 -0.0001057434
v -5.699985 -0.3 -0.0001057434
v -5.699985 -0.3 8.583068E-08
v -5.699985 -0.3 8.583068E-08
v -5.699985 -0.3 -0.0001057434
v -3.899984 -0.3 -0.0001057434
v -3.899984 -0.3 8.583068E-08
v -2.099984 -0.3 8.583068E-08
v -2.099984 -0.3 -0.0001057434
v -0.2999933 -0.3 -0.0001057434
v -0.2999933 -0.3 8.583068E-08
v -0.2999933 -0.3 8.583068E-08
v -0.2999933 -0.3 -0.0001057434
v -0.2999975 -2.1 -0.0001058292
v -0.2999975 -2.1 0
v -3.899984 -0.3 8.583068E-08
v -3.899984 -0.3 -0.0001057434
v -2.099984 -0.3 -0.0001057434
v -2.099984 -0.3 8.583068E-08
v -0.2999975 -2.1 0
v -0.2999975 -2.1 -0.0001058292
v -0.2999975 -3.9 -0.0001059055
v -0.2999975 -3.9 -7.629394E-08
v -11.09998 -3.9 -7.629394E-08
v -11.09998 -3.9 -0.0001059055
v -11.09999 -2.1 -0.0001058292
v -11.09999 -2.1 0
v -11.09999 -5.700002 -1.525879E-07
v -11.09999 -5.700002 -0.0001059818
v -11.09998 -3.9 -0.0001059055
v -11.09998 -3.9 -7.629394E-08
v -0.2999975 -3.9 -7.629394E-08
v -0.2999975 -3.9 -0.0001059055
v -0.2999975 -5.700001 -0.0001059818
v -0.2999975 -5.700001 -1.525879E-07
v -0.2999975 -5.700001 -1.525879E-07
v -0.2999975 -5.700001 -0.0001059818
v -0.2999969 -7.500001 -0.0001060581
v -0.2999969 -7.500001 -2.288818E-07
v -11.09999 -7.500001 -2.288818E-07
v -11.09999 -7.500001 -0.0001060581
v -11.09999 -5.700002 -0.0001059818
v -11.09999 -5.700002 -1.525879E-07
v -11.09999 -9.300002 -3.147125E-07
v -11.09999 -9.300002 -0.0001061344
v -11.09999 -7.500001 -0.0001060581
v -11.09999 -7.500001 -2.288818E-07
v -7.499996 -11.1 -1.382828E-06
v -7.499996 -11.1 -0.0001072025
v -9.299984 -11.1 -0.0001062107
v -9.299984 -11.1 -3.910065E-07
v -5.699996 -11.1 -3.910065E-07
v -5.699996 -11.1 -0.0001062107
v -7.499996 -11.1 -0.0001072025
v -7.499996 -11.1 -1.382828E-06
v -2.099984 -11.1 -3.910065E-07
v -2.099984 -11.1 -0.0001062107
v -3.899996 -11.1 -0.0001052284
v -3.899996 -11.1 6.008148E-07
v -3.899996 -11.1 6.008148E-07
v -3.899996 -11.1 -0.0001052284
v -5.699996 -11.1 -0.0001062107
v -5.699996 -11.1 -3.910065E-07
v -0.2999969 -9.300002 -3.147125E-07
v -0.2999969 -9.300002 -0.0001061344
v -0.3000006 -11.1 -0.0001063251
v -0.3000006 -11.1 -4.959106E-07
v -0.3000006 -11.1 -4.959106E-07
v -0.3000006 -11.1 -0.0001063251
v -2.099984 -11.1 -0.0001062107
v -2.099984 -11.1 -3.910065E-07
v -0.2999969 -7.500001 -2.288818E-07
v -0.2999969 -7.500001 -0.0001060581
v -0.2999969 -9.300002 -0.0001061344
v -0.2999969 -9.300002 -3.147125E-07
v -11.09999 -11.1 -3.910065E-07
v -11.09999 -11.1 -0.0001062107
v -11.09999 -9.300002 -0.0001061344
v -11.09999 -9.300002 -3.147125E-07
v -9.299984 -11.1 -3.910065E-07
v -9.299984 -11.1 -0.0001062107
v -11.09999 -11.1 -0.0001062107
v -11.09999 -11.1 -3.910065E-07
vt 0.4904785 0.7470703
vt 0.0147934 0.9682617
vt 0.4904785 0.9682617
vt 0.0147934 0.7470703
vt 0.4904785 0.7470703
vt 0.4904785 0.9682617
vt 0.9829102 0.7470703
vt 0.5073242 0.7470703
vt 0.5073242 0.9682617
vt 0.9829102 0.9682617
vt 0.9829102 0.7470703
vt 0.5073242 0.7470703
vt 0.5073242 0.9682617
vt 0.9829102 0.9682617
vt 0.9829102 0.7470703
vt 0.5073242 0.7470703
vt 0.5073242 0.9682617
vt 0.9829102 0.9682617
vt 0.9829102 0.7470703
vt 0.5073242 0.7470703
vt 0.5073242 0.9682617
vt 0.9829102 0.9682617
vt 0.9829102 0.7470703
vt 0.5073242 0.7470703
vt 0.5073242 0.9682617
vt 0.9829102 0.9682617
vt 0.9829102 0.7470703
vt 0.5073242 0.7470703
vt 0.5073242 0.9682617
vt 0.9829102 0.9682617
vt 0.9829102 0.7470703
vt 0.5073242 0.7470703
vt 0.5073242 0.9682617
vt 0.9829102 0.9682617
vt 0.9829102 0.7470703
vt 0.5073242 0.7470703
vt 0.5073242 0.9682617
vt 0.9829102 0.9682617
vt 0.9829102 0.7470703
vt 0.5073242 0.7470703
vt 0.5073242 0.9682617
vt 0.9829102 0.9682617
vt 0.9829102 0.7470703
vt 0.5073242 0.7470703
vt 0.5073242 0.9682617
vt 0.9829102 0.9682617
vt 0.9829102 0.7470703
vt 0.5073242 0.7470703
vt 0.5073242 0.9682617
vt 0.9829102 0.9682617
vt 0.9829102 0.7470703
vt 0.5073242 0.7470703
vt 0.5073242 0.9682617
vt 0.9829102 0.9682617
vt 0.9829102 0.7470703
vt 0.5073242 0.7470703
vt 0.5073242 0.9682617
vt 0.9829102 0.9682617
vt 0.9829102 0.7470703
vt 0.5073242 0.7470703
vt 0.5073242 0.9682617
vt 0.9829102 0.9682617
vt 0.9829102 0.7470703
vt 0.5073242 0.7470703
vt 0.5073242 0.9682617
vt 0.9829102 0.9682617
vt 0.9829102 0.7470703
vt 0.5073242 0.7470703
vt 0.5073242 0.9682617
vt 0.9829102 0.9682617
vt 0.9829102 0.7470703
vt 0.5073242 0.7470703
vt 0.5073242 0.9682617
vt 0.9829102 0.9682617
vt 0.9829102 0.7470703
vt 0.5073242 0.7470703
vt 0.5073242 0.9682617
vt 0.9829102 0.9682617
vt 0.9829102 0.7470703
vt 0.5073242 0.7470703
vt 0.5073242 0.9682617
vt 0.9829102 0.9682617
vt 0.4904785 0.7470703
vt 0.4904785 0.9682617
vt 0.0147934 0.9682617
vt 0.0147934 0.7470703
vt 0.9829102 0.7470703
vt 0.5073242 0.7470703
vt 0.5073242 0.9682617
vt 0.9829102 0.9682617
vt 0.4904785 0.7470703
vt 0.4904785 0.9682617
vt 0.0147934 0.9682617
vt 0.0147934 0.7470703
vt 0.4904785 0.7470703
vt 0.4904785 0.9682617
vt 0.0147934 0.9682617
vt 0.0147934 0.7470703
vt 0.4904785 0.7470703
vt 0.4904785 0.9682617
vt 0.0147934 0.9682617
vt 0.0147934 0.7470703
vt 0.4904785 0.7470703
vt 0.4904785 0.9682617
vt 0.0147934 0.9682617
vt 0.0147934 0.7470703
vt 0.4904785 0.7470703
vt 0.4904785 0.9682617
vt 0.0147934 0.9682617
vt 0.0147934 0.7470703
vt 0.4904785 0.7470703
vt 0.4904785 0.9682617
vt 0.0147934 0.9682617
vt 0.0147934 0.7470703
vt 0.4904785 0.7470703
vt 0.4904785 0.9682617
vt 0.0147934 0.9682617
vt 0.0147934 0.7470703
vt 0.4904785 0.7470703
vt 0.4904785 0.9682617
vt 0.0147934 0.9682617
vt 0.0147934 0.7470703
vt 0.4904785 0.7470703
vt 0.4904785 0.9682617
vt 0.0147934 0.9682617
vt 0.0147934 0.7470703
vt 0.4904785 0.7470703
vt 0.4904785 0.9682617
vt 0.0147934 0.9682617
vt 0.0147934 0.7470703
vt 0.4904785 0.7470703
vt 0.4904785 0.9682617
vt 0.0147934 0.9682617
vt 0.0147934 0.7470703
vt 0.4904785 0.7470703
vt 0.4904785 0.9682617
vt 0.0147934 0.9682617
vt 0.0147934 0.7470703
vt 0.4904785 0.7470703
vt 0.4904785 0.9682617
vt 0.0147934 0.9682617
vt 0.0147934 0.7470703
vt 0.4904785 0.7470703
vt 0.4904785 0.9682617
vt 0.0147934 0.9682617
vt 0.0147934 0.7470703
vt 0.4904785 0.7470703
vt 0.4904785 0.9682617
vt 0.0147934 0.9682617
vt 0.0147934 0.7470703
vt 0.4904785 0.7470703
vt 0.4904785 0.9682617
vt 0.0147934 0.9682617
vt 0.0147934 0.7470703
vt 0.4904785 0.7470703
vt 0.4904785 0.9682617
vt 0.0147934 0.9682617
vt 0.0147934 0.7470703
vt 0.9746094 0.6293945
vt 0.684082 0.6293945
vt 0.684082 0.3312988
vt 0.9746094 0.3312988
vt 0.9746094 0.6293945
vt 0.684082 0.3312988
vt 0.684082 0.6293945
vt 0.9746094 0.3312988
vt 0.684082 0.03314209
vt 0.9746094 0.03314209
vt 0.684082 0.3312988
vt 0.9746094 0.6293945
vt 0.684082 0.6293945
vt 0.9746094 0.3312988
vt 0.684082 0.03314209
vt 0.9746094 0.03314209
vt 0.684082 0.3312988
vt 0.9746094 0.6293945
vt 0.684082 0.6293945
vt 0.9746094 0.3312988
vt 0.684082 0.03314209
vt 0.9746094 0.03314209
vt 0.684082 0.3312988
vt 0.9746094 0.6293945
vt 0.684082 0.6293945
vt 0.9746094 0.3312988
vt 0.684082 0.03314209
vt 0.9746094 0.03314209
vt 0.684082 0.3312988
vt 0.9746094 0.6293945
vt 0.684082 0.6293945
vt 0.9746094 0.3312988
vt 0.684082 0.03314209
vt 0.9746094 0.03314209
vt 0.684082 0.3312988
vt 0.9746094 0.6293945
vt 0.684082 0.6293945
vt 0.9746094 0.3312988
vt 0.684082 0.03314209
vt 0.9746094 0.03314209
vt 0.684082 0.3312988
vt 0.9746094 0.6293945
vt 0.684082 0.6293945
vt 0.9746094 0.3312988
vt 0.684082 0.03314209
vt 0.9746094 0.03314209
vt 0.684082 0.3312988
vt 0.9746094 0.6293945
vt 0.684082 0.6293945
vt 0.9746094 0.3312988
vt 0.684082 0.03314209
vt 0.9746094 0.03314209
vt 0.684082 0.3312988
vt 0.9746094 0.6293945
vt 0.684082 0.6293945
vt 0.9746094 0.3312988
vt 0.684082 0.3312988
vt 0.684082 0.03314209
vt 0.9746094 0.03314209
vt 0.9746094 0.03314209
vt 0.684082 0.3312988
vt 0.684082 0.03314209
vt 0.6533203 0.03015137
vt 0.01507568 0.03015137
vt 0.01507568 0.668457
vt 0.6533203 0.668457
vt 0.6533203 0.03015137
vt 0.01507568 0.03015137
vt 0.01507568 0.668457
vt 0.6533203 0.668457
vt 0.6533203 0.03015137
vt 0.01507568 0.03015137
vt 0.01507568 0.668457
vt 0.6533203 0.668457
vt 0.6533203 0.03015137
vt 0.01507568 0.03015137
vt 0.01507568 0.668457
vt 0.6533203 0.668457
vt 0.6533203 0.03015137
vt 0.01507568 0.03015137
vt 0.01507568 0.668457
vt 0.6533203 0.668457
vt 0.6533203 0.03015137
vt 0.01507568 0.03015137
vt 0.01507568 0.668457
vt 0.6533203 0.668457
vt 0.6533203 0.03015137
vt 0.01507568 0.03015137
vt 0.01507568 0.668457
vt 0.6533203 0.668457
vt 0.6533203 0.03015137
vt 0.01507568 0.03015137
vt 0.01507568 0.668457
vt 0.6533203 0.668457
vt 0.6533203 0.03015137
vt 0.01507568 0.03015137
vt 0.01507568 0.668457
vt 0.6533203 0.668457
vt 0.6533203 0.03015137
vt 0.01507568 0.03015137
vt 0.01507568 0.668457
vt 0.6533203 0.668457
vt 0.6533203 0.03015137
vt 0.01507568 0.03015137
vt 0.01507568 0.668457
vt 0.6533203 0.668457
vt 0.6533203 0.03015137
vt 0.01507568 0.03015137
vt 0.01507568 0.668457
vt 0.6533203 0.668457
vt 0.6533203 0.03015137
vt 0.01507568 0.03015137
vt 0.01507568 0.668457
vt 0.6533203 0.668457
vt 0.6533203 0.03015137
vt 0.01507568 0.03015137
vt 0.01507568 0.668457
vt 0.6533203 0.668457
vt 0.6533203 0.03015137
vt 0.01507568 0.03015137
vt 0.01507568 0.668457
vt 0.6533203 0.668457
vt 0.6533203 0.03015137
vt 0.01507568 0.03015137
vt 0.01507568 0.668457
vt 0.6533203 0.668457
vt 0.6533203 0.03015137
vt 0.01507568 0.03015137
vt 0.01507568 0.668457
vt 0.6533203 0.668457
vt 0.6533203 0.03015137
vt 0.01507568 0.03015137
vt 0.01507568 0.668457
vt 0.6533203 0.668457
vt 0.6533203 0.03015137
vt 0.01507568 0.03015137
vt 0.01507568 0.668457
vt 0.6533203 0.668457
vt 0.6533203 0.03015137
vt 0.01507568 0.03015137
vt 0.01507568 0.668457
vt 0.6533203 0.668457
vt 0.6533203 0.03015137
vt 0.01507568 0.03015137
vt 0.01507568 0.668457
vt 0.6533203 0.668457
vt 0.6533203 0.03015137
vt 0.01507568 0.03015137
vt 0.01507568 0.668457
vt 0.6533203 0.668457
vt 0.6533203 0.03015137
vt 0.01507568 0.03015137
vt 0.01507568 0.668457
vt 0.6533203 0.668457
vt 0.6533203 0.03015137
vt 0.01507568 0.03015137
vt 0.01507568 0.668457
vt 0.6533203 0.668457
vt 0.6533203 0.03015137
vt 0.01507568 0.03015137
vt 0.01507568 0.668457
vt 0.6533203 0.668457
vt 0.6533203 0.03015137
vt 0.01507568 0.03015137
vt 0.01507568 0.668457
vt 0.6533203 0.668457
vt 0.6533203 0.03015137
vt 0.01507568 0.03015137
vt 0.01507568 0.668457
vt 0.6533203 0.668457
vt 0.6533203 0.03015137
vt 0.01507568 0.03015137
vt 0.01507568 0.668457
vt 0.6533203 0.668457
vt 0.6533203 0.03015137
vt 0.01507568 0.03015137
vt 0.01507568 0.668457
vt 0.6533203 0.668457
vt 0.6533203 0.03015137
vt 0.01507568 0.03015137
vt 0.01507568 0.668457
vt 0.6533203 0.668457
vt 0.6533203 0.03015137
vt 0.01507568 0.03015137
vt 0.01507568 0.668457
vt 0.6533203 0.668457
vt 0.6533203 0.03015137
vt 0.01507568 0.03015137
vt 0.01507568 0.668457
vt 0.6533203 0.668457
vt 0.6533203 0.03015137
vt 0.01507568 0.03015137
vt 0.01507568 0.668457
vt 0.6533203 0.668457
vt 0.6533203 0.03015137
vt 0.01507568 0.03015137
vt 0.01507568 0.668457
vt 0.6533203 0.668457
vt 0.6533203 0.03015137
vt 0.01507568 0.03015137
vt 0.01507568 0.668457
vt 0.6533203 0.668457
vt 0.6533203 0.03015137
vt 0.01507568 0.03015137
vt 0.01507568 0.668457
vt 0.6533203 0.668457
vt 0.9746094 0.1291504
vt 0.6826172 0.1291504
vt 0.6826172 0.4213867
vt 0.6826172 0.1291504
vt 0.9746094 0.3312988
vt 0.684082 0.6293945
vt 0.9746094 0.6293945
vt 0.684082 0.3312988
vt 0.9746094 0.03314209
vt 0.684082 0.03314209
vt 0.9746094 0.3312988
vt 0.684082 0.6293945
vt 0.9746094 0.6293945
vt 0.684082 0.3312988
vt 0.9746094 0.03314209
vt 0.684082 0.03314209
vt 0.9746094 0.3312988
vt 0.684082 0.6293945
vt 0.9746094 0.6293945
vt 0.684082 0.3312988
vt 0.9746094 0.03314209
vt 0.684082 0.03314209
vt 0.9746094 0.3312988
vt 0.684082 0.6293945
vt 0.9746094 0.6293945
vt 0.684082 0.3312988
vt 0.9746094 0.03314209
vt 0.684082 0.03314209
vt 0.9746094 0.3312988
vt 0.684082 0.6293945
vt 0.9746094 0.6293945
vt 0.684082 0.3312988
vt 0.9746094 0.03314209
vt 0.684082 0.03314209
vt 0.9746094 0.3312988
vt 0.684082 0.6293945
vt 0.9746094 0.6293945
vt 0.684082 0.3312988
vt 0.9746094 0.03314209
vt 0.684082 0.03314209
vt 0.9746094 0.3312988
vt 0.684082 0.6293945
vt 0.9746094 0.6293945
vt 0.684082 0.3312988
vt 0.9746094 0.03314209
vt 0.684082 0.03314209
vt 0.9746094 0.3312988
vt 0.684082 0.6293945
vt 0.9746094 0.6293945
vt 0.684082 0.3312988
vt 0.9746094 0.03314209
vt 0.684082 0.03314209
vt 0.9746094 0.3312988
vt 0.684082 0.3312988
vt 0.684082 0.6293945
vt 0.9746094 0.6293945
vt 0.9746094 0.6293945
vt 0.684082 0.3312988
vt 0.684082 0.6293945
vt 0.6835938 0.03408813
vt 0.6835938 0.326416
vt 0.9760742 0.03408813
vt 0.6835938 0.03408813
vt 0.9746094 0.3312988
vt 0.684082 0.03314209
vt 0.9746094 0.03314209
vt 0.684082 0.3312988
vt 0.9746094 0.6293945
vt 0.684082 0.6293945
vt 0.9746094 0.3312988
vt 0.684082 0.03314209
vt 0.9746094 0.03314209
vt 0.684082 0.3312988
vt 0.9746094 0.6293945
vt 0.684082 0.6293945
vt 0.9746094 0.3312988
vt 0.684082 0.03314209
vt 0.9746094 0.03314209
vt 0.684082 0.3312988
vt 0.9746094 0.6293945
vt 0.684082 0.6293945
vt 0.9746094 0.3312988
vt 0.684082 0.03314209
vt 0.9746094 0.03314209
vt 0.684082 0.3312988
vt 0.9746094 0.6293945
vt 0.684082 0.6293945
vt 0.9746094 0.3312988
vt 0.684082 0.03314209
vt 0.9746094 0.03314209
vt 0.684082 0.3312988
vt 0.9746094 0.6293945
vt 0.684082 0.6293945
vt 0.9746094 0.3312988
vt 0.684082 0.03314209
vt 0.9746094 0.03314209
vt 0.684082 0.3312988
vt 0.9746094 0.6293945
vt 0.684082 0.6293945
vt 0.9746094 0.3312988
vt 0.684082 0.03314209
vt 0.9746094 0.03314209
vt 0.684082 0.3312988
vt 0.9746094 0.6293945
vt 0.684082 0.6293945
vt 0.9746094 0.3312988
vt 0.684082 0.03314209
vt 0.9746094 0.03314209
vt 0.684082 0.3312988
vt 0.9746094 0.6293945
vt 0.684082 0.6293945
vt 0.9746094 0.3312988
vt 0.684082 0.3312988
vt 0.684082 0.03314209
vt 0.9746094 0.03314209
vt 0.9746094 0.03314209
vt 0.684082 0.03314209
vt 0.684082 0.3312988
vt 0.9746094 0.03494263
vt 0.6826172 0.3273926
vt 0.6826172 0.03494263
vt 0.6826172 0.03494263
vt 0.9746094 0.3312988
vt 0.9746094 0.03314209
vt 0.684082 0.03314209
vt 0.684082 0.3312988
vt 0.9746094 0.6293945
vt 0.684082 0.6293945
vt 0.9746094 0.3312988
vt 0.9746094 0.03314209
vt 0.684082 0.03314209
vt 0.684082 0.3312988
vt 0.9746094 0.6293945
vt 0.684082 0.6293945
vt 0.9746094 0.3312988
vt 0.9746094 0.03314209
vt 0.684082 0.03314209
vt 0.684082 0.3312988
vt 0.9746094 0.6293945
vt 0.684082 0.6293945
vt 0.9746094 0.3312988
vt 0.9746094 0.03314209
vt 0.684082 0.03314209
vt 0.684082 0.3312988
vt 0.9746094 0.6293945
vt 0.684082 0.6293945
vt 0.9746094 0.3312988
vt 0.9746094 0.03314209
vt 0.684082 0.03314209
vt 0.684082 0.3312988
vt 0.9746094 0.6293945
vt 0.684082 0.6293945
vt 0.9746094 0.3312988
vt 0.9746094 0.03314209
vt 0.684082 0.03314209
vt 0.684082 0.3312988
vt 0.9746094 0.6293945
vt 0.684082 0.6293945
vt 0.9746094 0.3312988
vt 0.9746094 0.03314209
vt 0.684082 0.03314209
vt 0.684082 0.3312988
vt 0.9746094 0.6293945
vt 0.684082 0.6293945
vt 0.9746094 0.3312988
vt 0.9746094 0.03314209
vt 0.684082 0.03314209
vt 0.684082 0.3312988
vt 0.9746094 0.6293945
vt 0.684082 0.6293945
vt 0.9746094 0.1291504
vt 0.6826172 0.1291504
vt 0.6826172 0.4213867
vt 0.6826172 0.1291504
vt 0.01507568 0.03015137
vt 0.01507568 0.03015137
vt 0.01507568 0.668457
vt 0.01507568 0.668457
vt 0.01507568 0.668457
vt 0.01507568 0.668457
vt 0.6533203 0.668457
vt 0.6533203 0.668457
vt 0.01507568 0.668457
vt 0.01507568 0.668457
vt 0.6533203 0.668457
vt 0.6533203 0.668457
vt 0.01507568 0.668457
vt 0.01507568 0.668457
vt 0.6533203 0.668457
vt 0.6533203 0.668457
vt 0.01507568 0.668457
vt 0.01507568 0.668457
vt 0.6533203 0.668457
vt 0.6533203 0.668457
vt 0.01507568 0.668457
vt 0.01507568 0.668457
vt 0.6533203 0.668457
vt 0.6533203 0.668457
vt 0.6533203 0.668457
vt 0.6533203 0.668457
vt 0.6533203 0.03015137
vt 0.6533203 0.03015137
vt 0.01507568 0.668457
vt 0.01507568 0.668457
vt 0.6533203 0.668457
vt 0.6533203 0.668457
vt 0.6533203 0.668457
vt 0.6533203 0.668457
vt 0.6533203 0.03015137
vt 0.6533203 0.03015137
vt 0.01507568 0.03015137
vt 0.01507568 0.03015137
vt 0.01507568 0.668457
vt 0.01507568 0.668457
vt 0.01507568 0.03015137
vt 0.01507568 0.03015137
vt 0.01507568 0.668457
vt 0.01507568 0.668457
vt 0.6533203 0.668457
vt 0.6533203 0.668457
vt 0.6533203 0.03015137
vt 0.6533203 0.03015137
vt 0.6533203 0.668457
vt 0.6533203 0.668457
vt 0.6533203 0.03015137
vt 0.6533203 0.03015137
vt 0.01507568 0.03015137
vt 0.01507568 0.03015137
vt 0.01507568 0.668457
vt 0.01507568 0.668457
vt 0.01507568 0.03015137
vt 0.01507568 0.03015137
vt 0.01507568 0.668457
vt 0.01507568 0.668457
vt 0.6533203 0.03015137
vt 0.6533203 0.03015137
vt 0.01507568 0.03015137
vt 0.01507568 0.03015137
vt 0.6533203 0.03015137
vt 0.6533203 0.03015137
vt 0.01507568 0.03015137
vt 0.01507568 0.03015137
vt 0.6533203 0.03015137
vt 0.6533203 0.03015137
vt 0.01507568 0.03015137
vt 0.01507568 0.03015137
vt 0.6533203 0.03015137
vt 0.6533203 0.03015137
vt 0.01507568 0.03015137
vt 0.01507568 0.03015137
vt 0.6533203 0.668457
vt 0.6533203 0.668457
vt 0.6533203 0.03015137
vt 0.6533203 0.03015137
vt 0.6533203 0.03015137
vt 0.6533203 0.03015137
vt 0.01507568 0.03015137
vt 0.01507568 0.03015137
vt 0.6533203 0.668457
vt 0.6533203 0.668457
vt 0.6533203 0.03015137
vt 0.6533203 0.03015137
vt 0.01507568 0.03015137
vt 0.01507568 0.03015137
vt 0.01507568 0.668457
vt 0.01507568 0.668457
vt 0.6533203 0.03015137
vt 0.6533203 0.03015137
vt 0.01507568 0.03015137
vt 0.01507568 0.03015137
vn 0 -1 -4.291534E-06
vn -1.013279E-06 -1 -4.291534E-06
vn 0 -1 -4.291534E-06
vn -1.013279E-06 -1 -4.291534E-06
vn -1.013279E-06 -1 -4.291534E-06
vn -1.013279E-06 -1 -4.291534E-06
vn -1 0 1.710653E-05
vn -1 0 1.710653E-05
vn -1 0 1.710653E-05
vn -1 0 1.710653E-05
vn -1 1.013279E-06 1.92523E-05
vn -1 0 1.710653E-05
vn -1 0 1.710653E-05
vn -1 1.013279E-06 1.92523E-05
vn -1 1.013279E-06 2.354383E-05
vn -1 1.013279E-06 1.92523E-05
vn -1 1.013279E-06 1.92523E-05
vn -1 1.013279E-06 2.354383E-05
vn -1 0 2.56896E-05
vn -1 1.013279E-06 2.354383E-05
vn -1 1.013279E-06 2.354383E-05
vn -1 0 2.56896E-05
vn -1 0 2.56896E-05
vn -1 0 2.56896E-05
vn -1 0 2.56896E-05
vn -1 0 2.56896E-05
vn -1 -2.026558E-06 2.56896E-05
vn -1 0 2.56896E-05
vn -1 0 2.56896E-05
vn -1 -2.026558E-06 2.56896E-05
vn -1 -2.026558E-06 2.56896E-05
vn -1 -2.026558E-06 2.56896E-05
vn -1 -2.026558E-06 2.56896E-05
vn -1 -2.026558E-06 2.56896E-05
vn -1 1.013279E-06 2.354383E-05
vn -1 -2.026558E-06 2.56896E-05
vn -1 -2.026558E-06 2.56896E-05
vn -1 1.013279E-06 2.354383E-05
vn -1 1.013279E-06 1.92523E-05
vn -1 1.013279E-06 2.354383E-05
vn -1 1.013279E-06 2.354383E-05
vn -1 1.013279E-06 1.92523E-05
vn -1 0 1.710653E-05
vn -1 1.013279E-06 1.92523E-05
vn -1 1.013279E-06 1.92523E-05
vn -1 0 1.710653E-05
vn -1 0 1.710653E-05
vn -1 0 1.710653E-05
vn -1 0 1.710653E-05
vn -1 0 1.710653E-05
vn -1 0 1.710653E-05
vn -1 0 1.710653E-05
vn -1 0 1.710653E-05
vn -1 0 1.710653E-05
vn -1 0 1.710653E-05
vn -1 0 1.710653E-05
vn -1 0 1.710653E-05
vn -1 0 1.710653E-05
vn -1 1.013279E-06 1.92523E-05
vn -1 0 1.710653E-05
vn -1 0 1.710653E-05
vn -1 1.013279E-06 1.92523E-05
vn -1 1.013279E-06 2.354383E-05
vn -1 1.013279E-06 1.92523E-05
vn -1 1.013279E-06 1.92523E-05
vn -1 1.013279E-06 2.354383E-05
vn -1 0 2.56896E-05
vn -1 1.013279E-06 2.354383E-05
vn -1 1.013279E-06 2.354383E-05
vn -1 0 2.56896E-05
vn -1 0 2.56896E-05
vn -1 0 2.56896E-05
vn -1 0 2.56896E-05
vn -1 0 2.56896E-05
vn -1 0 2.56896E-05
vn -1 0 2.56896E-05
vn -1 0 2.56896E-05
vn -1 0 2.56896E-05
vn -1 -2.026558E-06 2.56896E-05
vn -1 0 2.56896E-05
vn -1 0 2.56896E-05
vn -1 -2.026558E-06 2.56896E-05
vn -0.7070313 -0.7070313 1.817942E-05
vn -0.7075195 -0.706543 1.817942E-05
vn 0 -1 0
vn 0 -1 0
vn -0.7070313 -0.7070313 1.817942E-05
vn -1 -2.026558E-06 2.56896E-05
vn -1 -2.026558E-06 2.56896E-05
vn -0.7075195 -0.706543 1.817942E-05
vn 0 -1 -4.291534E-06
vn 0 -1 -4.291534E-06
vn -1.013279E-06 -1 -4.291534E-06
vn -1.013279E-06 -1 -4.291534E-06
vn 0 -1 -4.291534E-06
vn 0 -1 -4.291534E-06
vn 0 -1 -4.291534E-06
vn 0 -1 -4.291534E-06
vn 0 -1 -4.291534E-06
vn 0 -1 -4.291534E-06
vn 0 -1 -4.291534E-06
vn 0 -1 -4.291534E-06
vn 0 -1 -4.291534E-06
vn 0 -1 -4.291534E-06
vn 0 -1 -4.291534E-06
vn 0 -1 -4.291534E-06
vn 0 -1 -4.291534E-06
vn 0 -1 -4.291534E-06
vn 0 -1 -4.291534E-06
vn 0 -1 -4.291534E-06
vn 0 -1 -4.291534E-06
vn 0 -1 -4.291534E-06
vn 0 -1 -4.291534E-06
vn 0 -1 -4.291534E-06
vn 0 -1 -4.291534E-06
vn 0 -1 -4.291534E-06
vn 0 -1 -4.291534E-06
vn 0 -1 -4.291534E-06
vn 0 -1 -4.291534E-06
vn 0 -1 -4.291534E-06
vn 0 -1 -4.291534E-06
vn 0 -1 -4.291534E-06
vn 5.364418E-07 -1 -3.218651E-06
vn 5.364418E-07 -1 -3.218651E-06
vn 0 -1 -4.291534E-06
vn 0 -1 -4.291534E-06
vn 5.364418E-07 -1 -1.072884E-06
vn 5.364418E-07 -1 -1.072884E-06
vn 5.364418E-07 -1 -3.218651E-06
vn 5.364418E-07 -1 -3.218651E-06
vn 0 -1 0
vn 0 -1 0
vn 5.364418E-07 -1 -1.072884E-06
vn 5.364418E-07 -1 -1.072884E-06
vn 0 -1 0
vn 0 -1 0
vn 0 -1 0
vn 0 -1 0
vn 0 -1 0
vn 0 -1 0
vn 0 -1 0
vn 0 -1 0
vn 0 -1 0
vn 0 -1 0
vn 0 -1 0
vn 0 -1 0
vn 0 -1 0
vn 0 -1 0
vn 0 -1 0
vn 0 -1 0
vn 0 -1 0
vn 0 -1 0
vn 0 -1 0
vn 0 -1 0
vn 0 -1 0
vn 0 -1 0
vn 0 -1 0
vn 0 -1 0
vn 0 0 1
vn 0 0 1
vn 0 0 1
vn 0 0 1
vn 0 0 1
vn 0 0 1
vn 0 0 1
vn 0 0 1
vn 0 0 1
vn 0 0 1
vn 0 0 1
vn 0 0 1
vn 0 0 1
vn 0 0 1
vn 0 0 1
vn 0 0 1
vn 0 0 1
vn 0 0 1
vn 0 0 1
vn 0 0 1
vn 0 0 1
vn 0 0 1
vn 0 0 1
vn 0 0 1
vn 0 0 1
vn 0 0 1
vn 0 0 1
vn 0 0 1
vn 0 0 1
vn 0 0 1
vn 0 0 1
vn 0 0 1
vn 0 0 1
vn 0 0 1
vn 0 0 1
vn 0 0 1
vn 0 0 1
vn 0 0 1
vn 0 0 1
vn 0 0 1
vn 0 0 1
vn 0 0 1
vn 0 0 1
vn 0 0 1
vn 0 0 1
vn 0 0 1
vn 0 0 1
vn 0 0 1
vn 0 0 1
vn 0 0 1
vn 0 0 1
vn 0 0 1
vn 0 0 1
vn 0 0 1
vn 0 0 1
vn 0 0 1
vn 0 0 1
vn 0 0 1
vn 0 0 1
vn 0 0 1
vn 0 0 1
vn 0 0 1
vn 0 0 1
vn 0 0 1
vn 0 0 1
vn 0 0 1
vn 0 0 1
vn 0 0 1
vn 0 0 1
vn 0 0 1
vn 0 0 1
vn 0 0 1
vn 0 0 1
vn 0 0 1
vn 0 0 1
vn 0 0 1
vn 0 0 1
vn 0 0 1
vn 0 0 1
vn 0 0 1
vn 0 0 1
vn 0 0 1
vn 0 0 1
vn 0 0 1
vn 0 0 1
vn 0 0 1
vn 0 0 1
vn 0 0 1
vn 0 0 1
vn 0 0 1
vn 0 0 1
vn 0 0 1
vn 0 0 1
vn 0 0 1
vn 0 0 1
vn 0 0 1
vn 0 0 1
vn 0 0 1
vn 0 0 1
vn 0 0 1
vn 0 0 1
vn 0 0 1
vn 0 0 1
vn 0 0 1
vn 0 0 1
vn 0 0 1
vn 0 0 1
vn 0 0 1
vn 0 0 1
vn 0 0 1
vn 0 0 1
vn 0 0 1
vn 0 0 1
vn 0 0 1
vn 0 0 1
vn 0 0 1
vn 0 0 1
vn 0 0 1
vn 0 0 1
vn 0 0 1
vn 0 0 1
vn 0 0 1
vn 0 0 1
vn 0 0 1
vn 0 0 1
vn 0 0 1
vn 0 0 1
vn 0 0 1
vn 0 0 1
vn 0 0 1
vn 0 0 1
vn 0 0 1
vn 0 0 1
vn 0 0 1
vn 0 0 1
vn 0 0 1
vn 0 0 1
vn 0 0 1
vn 0 0 1
vn 0 0 1
vn 0 0 1
vn 0 0 1
vn 0 0 1
vn 0 0 1
vn 0 0 1
vn 0 0 1
vn 0 0 1
vn 0 0 1
vn 0 0 1
vn 0 0 1
vn 0 0 1
vn 0 0 1
vn 0 0 1
vn 0 0 1
vn 0 0 1
vn 0 0 1
vn 0 0 1
vn 0 0 1
vn 0 -1.192093E-07 1
vn 0 0 1
vn 0 0 1
vn 0 0 1
vn 0 -2.980232E-07 1
vn 1.192093E-07 -1.788139E-07 1
vn 0 -1.192093E-07 1
vn 0 -1.788139E-07 1
vn -2.980232E-07 0 1
vn 0 -2.980232E-07 1
vn 0 -1.788139E-07 1
vn -1.192093E-07 0 1
vn 0 -1.788139E-07 1
vn 0 -1.192093E-07 1
vn 0 0 1
vn 0 0 1
vn -1.192093E-07 0 1
vn 0 -1.788139E-07 1
vn 0 0 1
vn 0 0 1
vn 1.788139E-07 0 1
vn 0 2.384186E-07 1
vn 0 0 1
vn 0 0 1
vn 0 2.384186E-07 1
vn -2.980232E-07 0 1
vn -1.192093E-07 0 1
vn 0 0 1
vn 0 0 1
vn -1.192093E-07 0 1
vn 0 0 1
vn 0 0 1
vn 0 0 1
vn 0 0 1
vn 0 0 1
vn 0 0 1
vn 0 0 1
vn 1.788139E-07 0 1
vn 0 0 1
vn 0 0 1
vn 0 0 1
vn 0 0 1
vn 0 0 1
vn 0 0 1
vn 1.192093E-07 -1.788139E-07 1
vn 0 0 1
vn 0 0 1
vn 0 -1.192093E-07 1
vn 0 0 1
vn 0 0 1
vn 0 0 1
vn 0 0 1
vn 0 0 1
vn 0 0 1
vn 0 0 1
vn 0 0 1
vn 0 0 1
vn 0 0 1
vn 0 0 1
vn 0 0 1
vn 0 0 1
vn 0 0 1
vn 0 0 1
vn 0 0 1
vn 0 0 1
vn 0 0 1
vn 0 0 1
vn 0 0 1
vn 0 0 1
vn 0 0 1
vn 0 0 1
vn 0 0 1
vn 0 0 1
vn 0 0 1
vn 0 0 1
vn 0 0 1
vn 0 0 1
vn 0 0 1
vn 0 0 1
vn 0 0 1
vn 0 0 1
vn 0 0 1
vn 0 0 1
vn 0 0 1
vn 0 0 1
vn 0 0 1
vn 0 0 1
vn 0 0 1
vn 0 0 1
vn 0 0 1
vn 0 0 1
vn 0 0 1
vn 0 0 1
vn 0 0 1
vn 0 0 1
vn 0 0 1
vn 0 0 1
vn 0 0 1
vn 0.0003955364 -0.0003955364 1
vn 0.0003955364 -0.0003955364 1
vn 0.0009665489 -2.932549E-05 1
vn 0.001186371 -0.0003955364 1
vn 0.0003955364 -0.0003955364 1
vn 0.0003955364 -0.0003955364 1
vn 0.0001318455 0.001010895 1
vn 0.001054764 0.000351429 1
vn 0.0001318455 0.001010895 1
vn 0.001054764 0.000351429 1
vn 0.001582146 0 1
vn 0.0009665489 -2.932549E-05 1
vn 0.001186371 -0.0003955364 1
vn -0.0002636909 0.00123024 1
vn 0.0001318455 0.001010895 1
vn 0.0001318455 0.001010895 1
vn -0.0002636909 0.00123024 1
vn -0.0002636909 0.001054764 1
vn -0.0002636909 0.001054764 1
vn -0.0002636909 0.0008788109 1
vn -0.0002636909 0.001054764 1
vn -0.0002636909 0.001054764 1
vn -0.0002636909 0.0008788109 1
vn -0.0003955364 0.0005712509 1
vn -0.0003955364 0.0005712509 1
vn -0.0002636909 0.0002634525 1
vn -0.0003955364 0.0005712509 1
vn -0.0003955364 0.0005712509 1
vn -0.0002636909 0.0002634525 1
vn -0.0001318455 0.0002195835 1
vn -0.0001318455 0.0002195835 1
vn -0.0002636909 0.0001755953 1
vn -0.0001318455 0.0002195835 1
vn -0.0001318455 0.0002195835 1
vn -0.0002636909 0.0001755953 1
vn -0.0002636909 -1.192093E-07 1
vn -0.0002636909 -1.192093E-07 1
vn -0.0002636909 -0.0001758337 1
vn -0.0002636909 -1.192093E-07 1
vn -0.0002636909 -1.192093E-07 1
vn -0.0002636909 -0.0001758337 1
vn -0.0001318455 -0.0002198219 1
vn -0.0001318455 -0.0002198219 1
vn -0.0002636909 -0.0002636909 1
vn -0.0001318455 -0.0002198219 1
vn -0.0001318455 -0.0002198219 1
vn -0.0002636909 -0.0002636909 1
vn -0.0003955364 -0.0005712509 1
vn -0.0003955364 -0.0005712509 1
vn -0.0002636909 -0.0008788109 1
vn -0.0003955364 -0.0005712509 1
vn -0.0003955364 -0.0005712509 1
vn -0.0002636909 -0.0008788109 1
vn -0.0002636909 -0.001054764 1
vn -0.0002636909 -0.001054764 1
vn -0.0002636909 -0.00123024 1
vn -0.0002636909 -0.001054764 1
vn -0.0002636909 -0.001054764 1
vn -0.0002636909 -0.00123024 1
vn 0.0001500845 -0.001014709 1
vn 0.0001500845 -0.001014709 1
vn 0.0009274483 3.415346E-05 1
vn 0.00100708 -0.0003626347 1
vn 0.0001500845 -0.001014709 1
vn 0.0001500845 -0.001014709 1
vn 0.0003736019 0.0004029274 1
vn 0.0003736019 0.0004029274 1
vn 0.001120567 0.0004174709 1
vn 0 0 1
vn 0 0 1
vn 0 0 1
vn 0 0 1
vn 0 0 1
vn 0 0 1
vn 0 0 1
vn 0 0 1
vn 0 0 1
vn 0 0 1
vn 0 0 1
vn 0 0 1
vn 0 0 1
vn 0 0 1
vn 0 0 1
vn 0 0 1
vn 0 0 1
vn 0 0 1
vn 0 0 1
vn 0 0 1
vn 0 0 1
vn 0 0 1
vn 0 0 1
vn 0 0 1
vn 0 0 1
vn 0 0 1
vn 0 0 1
vn 0 0 1
vn 0 0 1
vn 0 0 1
vn 0 0 1
vn 0 0 1
vn 0 0 1
vn 0 0 1
vn 0 0 1
vn 0 0 1
vn 0 0 1
vn 0 0 1
vn 0 0 1
vn 0 0 1
vn 0 0 1
vn 0 0 1
vn 0 0 1
vn 0 0 1
vn 0 0 1
vn 0 0 1
vn 0 0 1
vn 0 0 1
vn 0 0 1
vn 0 0 1
vn 0.0003736019 0.0004029274 1
vn 0.0003736019 0.0004029274 1
vn 0.0009274483 3.415346E-05 1
vn 0.001120567 0.0004174709 1
vn 0.001472473 7.271767E-06 1
vn 0.00100708 -0.0003626347 1
vn -1 0 0
vn -1 0 0
vn -1 0 0
vn -1 0 0
vn 0 1 0
vn 0 1 0
vn 0 1 0
vn 0 1 0
vn 0 1 0
vn 0 1 0
vn 0 1 0
vn 0 1 0
vn -3.576279E-07 1 0
vn -3.576279E-07 1 0
vn -3.576279E-07 1 0
vn -3.576279E-07 1 0
vn 0 1 0
vn 0 1 0
vn 0 1 0
vn 0 1 0
vn 0 1 0
vn 0 1 0
vn 0 1 0
vn 0 1 0
vn 1 -2.384186E-06 0
vn 1 -2.384186E-06 0
vn 1 -2.384186E-06 0
vn 1 -2.384186E-06 0
vn 0 1 0
vn 0 1 0
vn 0 1 0
vn 0 1 0
vn 1 0 0
vn 1 0 0
vn 1 0 0
vn 1 0 0
vn -1 -1.370907E-06 0
vn -1 -1.370907E-06 0
vn -1 -1.370907E-06 0
vn -1 -1.370907E-06 0
vn -1 1.370907E-06 0
vn -1 1.370907E-06 0
vn -1 1.370907E-06 0
vn -1 1.370907E-06 0
vn 1 0 0
vn 1 0 0
vn 1 0 0
vn 1 0 0
vn 1 3.576279E-07 0
vn 1 3.576279E-07 0
vn 1 3.576279E-07 0
vn 1 3.576279E-07 0
vn -1 0 0
vn -1 0 0
vn -1 0 0
vn -1 0 0
vn -1 0 0
vn -1 0 0
vn -1 0 0
vn -1 0 0
vn 6.556511E-07 -1 0
vn 6.556511E-07 -1 0
vn 6.556511E-07 -1 0
vn 6.556511E-07 -1 0
vn 6.556511E-07 -1 0
vn 6.556511E-07 -1 0
vn 6.556511E-07 -1 0
vn 6.556511E-07 -1 0
vn -6.556511E-07 -1 0
vn -6.556511E-07 -1 0
vn -6.556511E-07 -1 0
vn -6.556511E-07 -1 0
vn -6.556511E-07 -1 0
vn -6.556511E-07 -1 0
vn -6.556511E-07 -1 0
vn -6.556511E-07 -1 0
vn 1 -2.026558E-06 0
vn 1 -2.026558E-06 0
vn 1 -2.026558E-06 0
vn 1 -2.026558E-06 0
vn 1.370907E-06 -1 0
vn 1.370907E-06 -1 0
vn 1.370907E-06 -1 0
vn 1.370907E-06 -1 0
vn 1 0 0
vn 1 0 0
vn 1 0 0
vn 1 0 0
vn -1 0 0
vn -1 0 0
vn -1 0 0
vn -1 0 0
vn -1.370907E-06 -1 0
vn -1.370907E-06 -1 0
vn -1.370907E-06 -1 0
vn -1.370907E-06 -1 0
g my_wildhunt_01_tile_20x20_0
f 3/3/3 2/2/2 1/1/1
f 2/2/2 4/4/4 1/1/1
f 4/4/4 2/2/2 5/5/5
f 2/2/2 6/6/6 5/5/5
f 9/9/9 8/8/8 7/7/7
f 10/10/10 9/9/9 7/7/7
f 13/13/13 12/12/12 11/11/11
f 14/14/14 13/13/13 11/11/11
f 17/17/17 16/16/16 15/15/15
f 18/18/18 17/17/17 15/15/15
f 21/21/21 20/20/20 19/19/19
f 22/22/22 21/21/21 19/19/19
f 25/25/25 24/24/24 23/23/23
f 26/26/26 25/25/25 23/23/23
f 29/29/29 28/28/28 27/27/27
f 30/30/30 29/29/29 27/27/27
f 33/33/33 32/32/32 31/31/31
f 34/34/34 33/33/33 31/31/31
f 37/37/37 36/36/36 35/35/35
f 38/38/38 37/37/37 35/35/35
f 41/41/41 40/40/40 39/39/39
f 42/42/42 41/41/41 39/39/39
f 45/45/45 44/44/44 43/43/43
f 46/46/46 45/45/45 43/43/43
f 49/49/49 48/48/48 47/47/47
f 50/50/50 49/49/49 47/47/47
f 53/53/53 52/52/52 51/51/51
f 54/54/54 53/53/53 51/51/51
f 57/57/57 56/56/56 55/55/55
f 58/58/58 57/57/57 55/55/55
f 61/61/61 60/60/60 59/59/59
f 62/62/62 61/61/61 59/59/59
f 65/65/65 64/64/64 63/63/63
f 66/66/66 65/65/65 63/63/63
f 69/69/69 68/68/68 67/67/67
f 70/70/70 69/69/69 67/67/67
f 73/73/73 72/72/72 71/71/71
f 74/74/74 73/73/73 71/71/71
f 77/77/77 76/76/76 75/75/75
f 78/78/78 77/77/77 75/75/75
f 81/81/81 80/80/80 79/79/79
f 82/82/82 81/81/81 79/79/79
f 85/85/85 84/84/84 83/83/83
f 86/86/86 85/85/85 83/83/83
f 89/89/89 88/88/88 87/87/87
f 90/90/90 89/89/89 87/87/87
f 93/93/93 92/92/92 91/91/91
f 94/94/94 93/93/93 91/91/91
f 97/97/97 96/96/96 95/95/95
f 98/98/98 97/97/97 95/95/95
f 101/101/101 100/100/100 99/99/99
f 102/102/102 101/101/101 99/99/99
f 105/105/105 104/104/104 103/103/103
f 106/106/106 105/105/105 103/103/103
f 109/109/109 108/108/108 107/107/107
f 110/110/110 109/109/109 107/107/107
f 113/113/113 112/112/112 111/111/111
f 114/114/114 113/113/113 111/111/111
f 117/117/117 116/116/116 115/115/115
f 118/118/118 117/117/117 115/115/115
f 121/121/121 120/120/120 119/119/119
f 122/122/122 121/121/121 119/119/119
f 125/125/125 124/124/124 123/123/123
f 126/126/126 125/125/125 123/123/123
f 129/129/129 128/128/128 127/127/127
f 130/130/130 129/129/129 127/127/127
f 133/133/133 132/132/132 131/131/131
f 134/134/134 133/133/133 131/131/131
f 137/137/137 136/136/136 135/135/135
f 138/138/138 137/137/137 135/135/135
f 141/141/141 140/140/140 139/139/139
f 142/142/142 141/141/141 139/139/139
f 145/145/145 144/144/144 143/143/143
f 146/146/146 145/145/145 143/143/143
f 149/149/149 148/148/148 147/147/147
f 150/150/150 149/149/149 147/147/147
f 153/153/153 152/152/152 151/151/151
f 154/154/154 153/153/153 151/151/151
f 157/157/157 156/156/156 155/155/155
f 158/158/158 157/157/157 155/155/155
f 161/161/161 160/160/160 159/159/159
f 162/162/162 161/161/161 159/159/159
f 164/164/164 162/162/162 163/163/163
f 165/165/165 164/164/164 163/163/163
f 168/168/168 167/167/167 166/166/166
f 167/167/167 169/169/169 166/166/166
f 166/166/166 169/169/169 170/170/170
f 169/169/169 171/171/171 170/170/170
f 174/174/174 173/173/173 172/172/172
f 173/173/173 175/175/175 172/172/172
f 172/172/172 175/175/175 176/176/176
f 175/175/175 177/177/177 176/176/176
f 180/180/180 179/179/179 178/178/178
f 179/179/179 181/181/181 178/178/178
f 178/178/178 181/181/181 182/182/182
f 181/181/181 183/183/183 182/182/182
f 186/186/186 185/185/185 184/184/184
f 185/185/185 187/187/187 184/184/184
f 184/184/184 187/187/187 188/188/188
f 187/187/187 189/189/189 188/188/188
f 192/192/192 191/191/191 190/190/190
f 191/191/191 193/193/193 190/190/190
f 190/190/190 193/193/193 194/194/194
f 193/193/193 195/195/195 194/194/194
f 198/198/198 197/197/197 196/196/196
f 197/197/197 199/199/199 196/196/196
f 196/196/196 199/199/199 200/200/200
f 199/199/199 201/201/201 200/200/200
f 204/204/204 203/203/203 202/202/202
f 203/203/203 205/205/205 202/202/202
f 202/202/202 205/205/205 206/206/206
f 205/205/205 207/207/207 206/206/206
f 210/210/210 209/209/209 208/208/208
f 209/209/209 211/211/211 208/208/208
f 208/208/208 211/211/211 212/212/212
f 211/211/211 213/213/213 212/212/212
f 216/216/216 215/215/215 214/214/214
f 217/217/217 216/216/216 214/214/214
f 214/214/214 219/219/219 218/218/218
f 219/219/219 220/220/220 218/218/218
f 223/223/223 222/222/222 221/221/221
f 224/224/224 223/223/223 221/221/221
f 227/227/227 226/226/226 225/225/225
f 228/228/228 227/227/227 225/225/225
f 231/231/231 230/230/230 229/229/229
f 232/232/232 231/231/231 229/229/229
f 235/235/235 234/234/234 233/233/233
f 236/236/236 235/235/235 233/233/233
f 239/239/239 238/238/238 237/237/237
f 240/240/240 239/239/239 237/237/237
f 243/243/243 242/242/242 241/241/241
f 244/244/244 243/243/243 241/241/241
f 247/247/247 246/246/246 245/245/245
f 248/248/248 247/247/247 245/245/245
f 251/251/251 250/250/250 249/249/249
f 252/252/252 251/251/251 249/249/249
f 255/255/255 254/254/254 253/253/253
f 256/256/256 255/255/255 253/253/253
f 259/259/259 258/258/258 257/257/257
f 260/260/260 259/259/259 257/257/257
f 263/263/263 262/262/262 261/261/261
f 264/264/264 263/263/263 261/261/261
f 267/267/267 266/266/266 265/265/265
f 268/268/268 267/267/267 265/265/265
f 271/271/271 270/270/270 269/269/269
f 272/272/272 271/271/271 269/269/269
f 275/275/275 274/274/274 273/273/273
f 276/276/276 275/275/275 273/273/273
f 279/279/279 278/278/278 277/277/277
f 280/280/280 279/279/279 277/277/277
f 283/283/283 282/282/282 281/281/281
f 284/284/284 283/283/283 281/281/281
f 287/287/287 286/286/286 285/285/285
f 288/288/288 287/287/287 285/285/285
f 291/291/291 290/290/290 289/289/289
f 292/292/292 291/291/291 289/289/289
f 295/295/295 294/294/294 293/293/293
f 296/296/296 295/295/295 293/293/293
f 299/299/299 298/298/298 297/297/297
f 300/300/300 299/299/299 297/297/297
f 303/303/303 302/302/302 301/301/301
f 304/304/304 303/303/303 301/301/301
f 307/307/307 306/306/306 305/305/305
f 308/308/308 307/307/307 305/305/305
f 311/311/311 310/310/310 309/309/309
f 312/312/312 311/311/311 309/309/309
f 315/315/315 314/314/314 313/313/313
f 316/316/316 315/315/315 313/313/313
f 319/319/319 318/318/318 317/317/317
f 320/320/320 319/319/319 317/317/317
f 323/323/323 322/322/322 321/321/321
f 324/324/324 323/323/323 321/321/321
f 327/327/327 326/326/326 325/325/325
f 328/328/328 327/327/327 325/325/325
f 331/331/331 330/330/330 329/329/329
f 332/332/332 331/331/331 329/329/329
f 335/335/335 334/334/334 333/333/333
f 336/336/336 335/335/335 333/333/333
f 339/339/339 338/338/338 337/337/337
f 340/340/340 339/339/339 337/337/337
f 343/343/343 342/342/342 341/341/341
f 344/344/344 343/343/343 341/341/341
f 347/347/347 346/346/346 345/345/345
f 348/348/348 347/347/347 345/345/345
f 351/351/351 350/350/350 349/349/349
f 352/352/352 351/351/351 349/349/349
f 355/355/355 354/354/354 353/353/353
f 356/356/356 355/355/355 353/353/353
f 359/359/359 358/358/358 357/357/357
f 360/360/360 359/359/359 357/357/357
f 363/363/363 362/362/362 361/361/361
f 364/364/364 363/363/363 361/361/361
f 367/367/367 366/366/366 365/365/365
f 368/368/368 367/367/367 365/365/365
f 371/371/371 370/370/370 369/369/369
f 370/370/370 372/372/372 369/369/369
f 369/369/369 372/372/372 373/373/373
f 372/372/372 374/374/374 373/373/373
f 377/377/377 376/376/376 375/375/375
f 376/376/376 378/378/378 375/375/375
f 375/375/375 378/378/378 379/379/379
f 378/378/378 380/380/380 379/379/379
f 383/383/383 382/382/382 381/381/381
f 382/382/382 384/384/384 381/381/381
f 381/381/381 384/384/384 385/385/385
f 384/384/384 386/386/386 385/385/385
f 389/389/389 388/388/388 387/387/387
f 388/388/388 390/390/390 387/387/387
f 387/387/387 390/390/390 391/391/391
f 390/390/390 392/392/392 391/391/391
f 395/395/395 394/394/394 393/393/393
f 394/394/394 396/396/396 393/393/393
f 393/393/393 396/396/396 397/397/397
f 396/396/396 398/398/398 397/397/397
f 401/401/401 400/400/400 399/399/399
f 400/400/400 402/402/402 399/399/399
f 399/399/399 402/402/402 403/403/403
f 402/402/402 404/404/404 403/403/403
f 407/407/407 406/406/406 405/405/405
f 406/406/406 408/408/408 405/405/405
f 405/405/405 408/408/408 409/409/409
f 408/408/408 410/410/410 409/409/409
f 413/413/413 412/412/412 411/411/411
f 412/412/412 414/414/414 411/411/411
f 411/411/411 414/414/414 415/415/415
f 414/414/414 416/416/416 415/415/415
f 419/419/419 418/418/418 417/417/417
f 420/420/420 419/419/419 417/417/417
f 417/417/417 422/422/422 421/421/421
f 422/422/422 423/423/423 421/421/421
f 426/426/426 425/425/425 424/424/424
f 427/427/427 425/425/425 426/426/426
f 430/430/430 429/429/429 428/428/428
f 429/429/429 431/431/431 428/428/428
f 428/428/428 431/431/431 432/432/432
f 431/431/431 433/433/433 432/432/432
f 436/436/436 435/435/435 434/434/434
f 435/435/435 437/437/437 434/434/434
f 434/434/434 437/437/437 438/438/438
f 437/437/437 439/439/439 438/438/438
f 442/442/442 441/441/441 440/440/440
f 441/441/441 443/443/443 440/440/440
f 440/440/440 443/443/443 444/444/444
f 443/443/443 445/445/445 444/444/444
f 448/448/448 447/447/447 446/446/446
f 447/447/447 449/449/449 446/446/446
f 446/446/446 449/449/449 450/450/450
f 449/449/449 451/451/451 450/450/450
f 454/454/454 453/453/453 452/452/452
f 453/453/453 455/455/455 452/452/452
f 452/452/452 455/455/455 456/456/456
f 455/455/455 457/457/457 456/456/456
f 460/460/460 459/459/459 458/458/458
f 459/459/459 461/461/461 458/458/458
f 458/458/458 461/461/461 462/462/462
f 461/461/461 463/463/463 462/462/462
f 466/466/466 465/465/465 464/464/464
f 465/465/465 467/467/467 464/464/464
f 464/464/464 467/467/467 468/468/468
f 467/467/467 469/469/469 468/468/468
f 472/472/472 471/471/471 470/470/470
f 471/471/471 473/473/473 470/470/470
f 470/470/470 473/473/473 474/474/474
f 473/473/473 475/475/475 474/474/474
f 478/478/478 477/477/477 476/476/476
f 479/479/479 478/478/478 476/476/476
f 481/481/481 480/480/480 476/476/476
f 482/482/482 481/481/481 476/476/476
f 485/485/485 484/484/484 483/483/483
f 484/484/484 486/486/486 483/483/483
f 489/489/489 488/488/488 487/487/487
f 490/490/490 489/489/489 487/487/487
f 490/490/490 487/487/487 491/491/491
f 492/492/492 490/490/490 491/491/491
f 495/495/495 494/494/494 493/493/493
f 496/496/496 495/495/495 493/493/493
f 496/496/496 493/493/493 497/497/497
f 498/498/498 496/496/496 497/497/497
f 501/501/501 500/500/500 499/499/499
f 502/502/502 501/501/501 499/499/499
f 502/502/502 499/499/499 503/503/503
f 504/504/504 502/502/502 503/503/503
f 507/507/507 506/506/506 505/505/505
f 508/508/508 507/507/507 505/505/505
f 508/508/508 505/505/505 509/509/509
f 510/510/510 508/508/508 509/509/509
f 513/513/513 512/512/512 511/511/511
f 514/514/514 513/513/513 511/511/511
f 514/514/514 511/511/511 515/515/515
f 516/516/516 514/514/514 515/515/515
f 519/519/519 518/518/518 517/517/517
f 520/520/520 519/519/519 517/517/517
f 520/520/520 517/517/517 521/521/521
f 522/522/522 520/520/520 521/521/521
f 525/525/525 524/524/524 523/523/523
f 526/526/526 525/525/525 523/523/523
f 526/526/526 523/523/523 527/527/527
f 528/528/528 526/526/526 527/527/527
f 531/531/531 530/530/530 529/529/529
f 532/532/532 531/531/531 529/529/529
f 532/532/532 529/529/529 533/533/533
f 534/534/534 532/532/532 533/533/533
f 537/537/537 536/536/536 535/535/535
f 538/538/538 537/537/537 535/535/535
f 541/541/541 540/540/540 539/539/539
f 542/542/542 541/541/541 539/539/539
f 545/545/545 544/544/544 543/543/543
f 546/546/546 545/545/545 543/543/543
f 549/549/549 548/548/548 547/547/547
f 550/550/550 549/549/549 547/547/547
f 553/553/553 552/552/552 551/551/551
f 554/554/554 553/553/553 551/551/551
f 557/557/557 556/556/556 555/555/555
f 558/558/558 557/557/557 555/555/555
f 561/561/561 560/560/560 559/559/559
f 562/562/562 561/561/561 559/559/559
f 565/565/565 564/564/564 563/563/563
f 566/566/566 565/565/565 563/563/563
f 569/569/569 568/568/568 567/567/567
f 570/570/570 569/569/569 567/567/567
f 573/573/573 572/572/572 571/571/571
f 574/574/574 573/573/573 571/571/571
f 577/577/577 576/576/576 575/575/575
f 578/578/578 577/577/577 575/575/575
f 581/581/581 580/580/580 579/579/579
f 582/582/582 581/581/581 579/579/579
f 585/585/585 584/584/584 583/583/583
f 586/586/586 585/585/585 583/583/583
f 589/589/589 588/588/588 587/587/587
f 590/590/590 589/589/589 587/587/587
f 593/593/593 592/592/592 591/591/591
f 594/594/594 593/593/593 591/591/591
f 597/597/597 596/596/596 595/595/595
f 598/598/598 597/597/597 595/595/595
f 601/601/601 600/600/600 599/599/599
f 602/602/602 601/601/601 599/599/599
f 605/605/605 604/604/604 603/603/603
f 606/606/606 605/605/605 603/603/603
f 609/609/609 608/608/608 607/607/607
f 610/610/610 609/609/609 607/607/607
f 613/613/613 612/612/612 611/611/611
f 614/614/614 613/613/613 611/611/611
f 617/617/617 616/616/616 615/615/615
f 618/618/618 617/617/617 615/615/615
f 621/621/621 620/620/620 619/619/619
f 622/622/622 621/621/621 619/619/619
f 625/625/625 624/624/624 623/623/623
f 626/626/626 625/625/625 623/623/623
f 629/629/629 628/628/628 627/627/627
f 630/630/630 629/629/629 627/627/627
f 633/633/633 632/632/632 631/631/631
f 634/634/634 633/633/633 631/631/631
